%TF.GenerationSoftware,KiCad,Pcbnew,(5.1.9)-1*%
%TF.CreationDate,2021-05-08T11:34:12+01:00*%
%TF.ProjectId,FF OSD Adapter - Rev 2,4646204f-5344-4204-9164-617074657220,rev?*%
%TF.SameCoordinates,Original*%
%TF.FileFunction,Soldermask,Bot*%
%TF.FilePolarity,Negative*%
%FSLAX46Y46*%
G04 Gerber Fmt 4.6, Leading zero omitted, Abs format (unit mm)*
G04 Created by KiCad (PCBNEW (5.1.9)-1) date 2021-05-08 11:34:12*
%MOMM*%
%LPD*%
G01*
G04 APERTURE LIST*
%ADD10O,2.000000X2.000000*%
%ADD11C,0.100000*%
%ADD12C,2.000000*%
G04 APERTURE END LIST*
D10*
%TO.C,CN1*%
X116840000Y-111760000D03*
X116840000Y-109220000D03*
X116840000Y-106680000D03*
X116840000Y-104140000D03*
X116840000Y-101600000D03*
X116840000Y-99060000D03*
X116840000Y-96520000D03*
X116840000Y-93980000D03*
G36*
G01*
X115840000Y-92290000D02*
X115840000Y-90590000D01*
G75*
G02*
X115990000Y-90440000I150000J0D01*
G01*
X117690000Y-90440000D01*
G75*
G02*
X117840000Y-90590000I0J-150000D01*
G01*
X117840000Y-92290000D01*
G75*
G02*
X117690000Y-92440000I-150000J0D01*
G01*
X115990000Y-92440000D01*
G75*
G02*
X115840000Y-92290000I0J150000D01*
G01*
G37*
%TD*%
%TO.C,CN4*%
X177800000Y-104140000D03*
X177800000Y-106680000D03*
X177800000Y-109220000D03*
G36*
G01*
X178800000Y-110910000D02*
X178800000Y-112610000D01*
G75*
G02*
X178650000Y-112760000I-150000J0D01*
G01*
X176950000Y-112760000D01*
G75*
G02*
X176800000Y-112610000I0J150000D01*
G01*
X176800000Y-110910000D01*
G75*
G02*
X176950000Y-110760000I150000J0D01*
G01*
X178650000Y-110760000D01*
G75*
G02*
X178800000Y-110910000I0J-150000D01*
G01*
G37*
%TD*%
%TO.C,CN2*%
X175260000Y-111760000D03*
X175260000Y-109220000D03*
X175260000Y-106680000D03*
X175260000Y-104140000D03*
X175260000Y-101600000D03*
X175260000Y-99060000D03*
X175260000Y-96520000D03*
X175260000Y-93980000D03*
G36*
G01*
X174260000Y-92290000D02*
X174260000Y-90590000D01*
G75*
G02*
X174410000Y-90440000I150000J0D01*
G01*
X176110000Y-90440000D01*
G75*
G02*
X176260000Y-90590000I0J-150000D01*
G01*
X176260000Y-92290000D01*
G75*
G02*
X176110000Y-92440000I-150000J0D01*
G01*
X174410000Y-92440000D01*
G75*
G02*
X174260000Y-92290000I0J150000D01*
G01*
G37*
%TD*%
%TO.C,CN3*%
X139700000Y-105537000D03*
X139700000Y-102997000D03*
X139700000Y-100457000D03*
G36*
G01*
X140700000Y-97067000D02*
X140700000Y-98767000D01*
G75*
G02*
X140550000Y-98917000I-150000J0D01*
G01*
X138850000Y-98917000D01*
G75*
G02*
X138700000Y-98767000I0J150000D01*
G01*
X138700000Y-97067000D01*
G75*
G02*
X138850000Y-96917000I150000J0D01*
G01*
X140550000Y-96917000D01*
G75*
G02*
X140700000Y-97067000I0J-150000D01*
G01*
G37*
%TD*%
D11*
%TO.C,JP1*%
G36*
X134006113Y-110860602D02*
G01*
X134024534Y-110860602D01*
X134039238Y-110861324D01*
X134088069Y-110866134D01*
X134102627Y-110868294D01*
X134150752Y-110877866D01*
X134165034Y-110881443D01*
X134211989Y-110895687D01*
X134225846Y-110900645D01*
X134271179Y-110919422D01*
X134284490Y-110925718D01*
X134327763Y-110948849D01*
X134340384Y-110956414D01*
X134381183Y-110983674D01*
X134393010Y-110992445D01*
X134430939Y-111023573D01*
X134441845Y-111033458D01*
X134476542Y-111068155D01*
X134486427Y-111079061D01*
X134517555Y-111116990D01*
X134526326Y-111128817D01*
X134553586Y-111169616D01*
X134561151Y-111182237D01*
X134584282Y-111225510D01*
X134590578Y-111238821D01*
X134609355Y-111284154D01*
X134614313Y-111298011D01*
X134628557Y-111344966D01*
X134632134Y-111359248D01*
X134641706Y-111407373D01*
X134643866Y-111421931D01*
X134648676Y-111470762D01*
X134649398Y-111485466D01*
X134649398Y-111503887D01*
X134650000Y-111510000D01*
X134650000Y-112010000D01*
X134649398Y-112016113D01*
X134649398Y-112034534D01*
X134648676Y-112049238D01*
X134643866Y-112098069D01*
X134641706Y-112112627D01*
X134632134Y-112160752D01*
X134628557Y-112175034D01*
X134614313Y-112221989D01*
X134609355Y-112235846D01*
X134590578Y-112281179D01*
X134584282Y-112294490D01*
X134561151Y-112337763D01*
X134553586Y-112350384D01*
X134526326Y-112391183D01*
X134517555Y-112403010D01*
X134486427Y-112440939D01*
X134476542Y-112451845D01*
X134441845Y-112486542D01*
X134430939Y-112496427D01*
X134393010Y-112527555D01*
X134381183Y-112536326D01*
X134340384Y-112563586D01*
X134327763Y-112571151D01*
X134284490Y-112594282D01*
X134271179Y-112600578D01*
X134225846Y-112619355D01*
X134211989Y-112624313D01*
X134165034Y-112638557D01*
X134150752Y-112642134D01*
X134102627Y-112651706D01*
X134088069Y-112653866D01*
X134039238Y-112658676D01*
X134024534Y-112659398D01*
X134006113Y-112659398D01*
X134000000Y-112660000D01*
X133500000Y-112660000D01*
X133470736Y-112657118D01*
X133442597Y-112648582D01*
X133416664Y-112634720D01*
X133393934Y-112616066D01*
X133375280Y-112593336D01*
X133361418Y-112567403D01*
X133352882Y-112539264D01*
X133350000Y-112510000D01*
X133350000Y-111010000D01*
X133352882Y-110980736D01*
X133361418Y-110952597D01*
X133375280Y-110926664D01*
X133393934Y-110903934D01*
X133416664Y-110885280D01*
X133442597Y-110871418D01*
X133470736Y-110862882D01*
X133500000Y-110860000D01*
X134000000Y-110860000D01*
X134006113Y-110860602D01*
G37*
G36*
X133229264Y-110862882D02*
G01*
X133257403Y-110871418D01*
X133283336Y-110885280D01*
X133306066Y-110903934D01*
X133324720Y-110926664D01*
X133338582Y-110952597D01*
X133347118Y-110980736D01*
X133350000Y-111010000D01*
X133350000Y-112510000D01*
X133347118Y-112539264D01*
X133338582Y-112567403D01*
X133324720Y-112593336D01*
X133306066Y-112616066D01*
X133283336Y-112634720D01*
X133257403Y-112648582D01*
X133229264Y-112657118D01*
X133200000Y-112660000D01*
X132700000Y-112660000D01*
X132693887Y-112659398D01*
X132675466Y-112659398D01*
X132660762Y-112658676D01*
X132611931Y-112653866D01*
X132597373Y-112651706D01*
X132549248Y-112642134D01*
X132534966Y-112638557D01*
X132488011Y-112624313D01*
X132474154Y-112619355D01*
X132428821Y-112600578D01*
X132415510Y-112594282D01*
X132372237Y-112571151D01*
X132359616Y-112563586D01*
X132318817Y-112536326D01*
X132306990Y-112527555D01*
X132269061Y-112496427D01*
X132258155Y-112486542D01*
X132223458Y-112451845D01*
X132213573Y-112440939D01*
X132182445Y-112403010D01*
X132173674Y-112391183D01*
X132146414Y-112350384D01*
X132138849Y-112337763D01*
X132115718Y-112294490D01*
X132109422Y-112281179D01*
X132090645Y-112235846D01*
X132085687Y-112221989D01*
X132071443Y-112175034D01*
X132067866Y-112160752D01*
X132058294Y-112112627D01*
X132056134Y-112098069D01*
X132051324Y-112049238D01*
X132050602Y-112034534D01*
X132050602Y-112016113D01*
X132050000Y-112010000D01*
X132050000Y-111510000D01*
X132050602Y-111503887D01*
X132050602Y-111485466D01*
X132051324Y-111470762D01*
X132056134Y-111421931D01*
X132058294Y-111407373D01*
X132067866Y-111359248D01*
X132071443Y-111344966D01*
X132085687Y-111298011D01*
X132090645Y-111284154D01*
X132109422Y-111238821D01*
X132115718Y-111225510D01*
X132138849Y-111182237D01*
X132146414Y-111169616D01*
X132173674Y-111128817D01*
X132182445Y-111116990D01*
X132213573Y-111079061D01*
X132223458Y-111068155D01*
X132258155Y-111033458D01*
X132269061Y-111023573D01*
X132306990Y-110992445D01*
X132318817Y-110983674D01*
X132359616Y-110956414D01*
X132372237Y-110948849D01*
X132415510Y-110925718D01*
X132428821Y-110919422D01*
X132474154Y-110900645D01*
X132488011Y-110895687D01*
X132534966Y-110881443D01*
X132549248Y-110877866D01*
X132597373Y-110868294D01*
X132611931Y-110866134D01*
X132660762Y-110861324D01*
X132675466Y-110860602D01*
X132693887Y-110860602D01*
X132700000Y-110860000D01*
X133200000Y-110860000D01*
X133229264Y-110862882D01*
G37*
%TD*%
D10*
%TO.C,JP2*%
X162560000Y-104140000D03*
X162560000Y-101600000D03*
G36*
G01*
X163560000Y-98210000D02*
X163560000Y-99910000D01*
G75*
G02*
X163410000Y-100060000I-150000J0D01*
G01*
X161710000Y-100060000D01*
G75*
G02*
X161560000Y-99910000I0J150000D01*
G01*
X161560000Y-98210000D01*
G75*
G02*
X161710000Y-98060000I150000J0D01*
G01*
X163410000Y-98060000D01*
G75*
G02*
X163560000Y-98210000I0J-150000D01*
G01*
G37*
%TD*%
%TO.C,R3*%
G36*
G01*
X164130000Y-91974784D02*
X164130000Y-90905216D01*
G75*
G02*
X164445216Y-90590000I315216J0D01*
G01*
X165264784Y-90590000D01*
G75*
G02*
X165580000Y-90905216I0J-315216D01*
G01*
X165580000Y-91974784D01*
G75*
G02*
X165264784Y-92290000I-315216J0D01*
G01*
X164445216Y-92290000D01*
G75*
G02*
X164130000Y-91974784I0J315216D01*
G01*
G37*
G36*
G01*
X162080000Y-91974784D02*
X162080000Y-90905216D01*
G75*
G02*
X162395216Y-90590000I315216J0D01*
G01*
X163214784Y-90590000D01*
G75*
G02*
X163530000Y-90905216I0J-315216D01*
G01*
X163530000Y-91974784D01*
G75*
G02*
X163214784Y-92290000I-315216J0D01*
G01*
X162395216Y-92290000D01*
G75*
G02*
X162080000Y-91974784I0J315216D01*
G01*
G37*
%TD*%
D12*
%TO.C,U1*%
X170180000Y-109220000D03*
G36*
G01*
X169330000Y-92980000D02*
X171030000Y-92980000D01*
G75*
G02*
X171180000Y-93130000I0J-150000D01*
G01*
X171180000Y-94830000D01*
G75*
G02*
X171030000Y-94980000I-150000J0D01*
G01*
X169330000Y-94980000D01*
G75*
G02*
X169180000Y-94830000I0J150000D01*
G01*
X169180000Y-93130000D01*
G75*
G02*
X169330000Y-92980000I150000J0D01*
G01*
G37*
X167640000Y-109220000D03*
X167640000Y-93980000D03*
X165100000Y-109220000D03*
X165100000Y-93980000D03*
X162560000Y-109220000D03*
X162560000Y-93980000D03*
X160020000Y-109220000D03*
X160020000Y-93980000D03*
X157480000Y-109220000D03*
X157480000Y-93980000D03*
X154940000Y-109220000D03*
X154940000Y-93980000D03*
X152400000Y-109220000D03*
X152400000Y-93980000D03*
X149860000Y-109220000D03*
X149860000Y-93980000D03*
X147320000Y-109220000D03*
X147320000Y-93980000D03*
X144780000Y-109220000D03*
X144780000Y-93980000D03*
X142240000Y-109220000D03*
X142240000Y-93980000D03*
X139700000Y-109220000D03*
X139700000Y-93980000D03*
X137160000Y-109220000D03*
X137160000Y-93980000D03*
X134620000Y-109220000D03*
X134620000Y-93980000D03*
X132080000Y-109220000D03*
X132080000Y-93980000D03*
X129540000Y-109220000D03*
X129540000Y-93980000D03*
X127000000Y-109220000D03*
X127000000Y-93980000D03*
X124460000Y-109220000D03*
X124460000Y-93980000D03*
X121920000Y-109220000D03*
X121920000Y-93980000D03*
%TD*%
%TO.C,R2*%
G36*
G01*
X167105216Y-101900000D02*
X168174784Y-101900000D01*
G75*
G02*
X168490000Y-102215216I0J-315216D01*
G01*
X168490000Y-103034784D01*
G75*
G02*
X168174784Y-103350000I-315216J0D01*
G01*
X167105216Y-103350000D01*
G75*
G02*
X166790000Y-103034784I0J315216D01*
G01*
X166790000Y-102215216D01*
G75*
G02*
X167105216Y-101900000I315216J0D01*
G01*
G37*
G36*
G01*
X167105216Y-99850000D02*
X168174784Y-99850000D01*
G75*
G02*
X168490000Y-100165216I0J-315216D01*
G01*
X168490000Y-100984784D01*
G75*
G02*
X168174784Y-101300000I-315216J0D01*
G01*
X167105216Y-101300000D01*
G75*
G02*
X166790000Y-100984784I0J315216D01*
G01*
X166790000Y-100165216D01*
G75*
G02*
X167105216Y-99850000I315216J0D01*
G01*
G37*
%TD*%
%TO.C,R1*%
G36*
G01*
X169645216Y-101900000D02*
X170714784Y-101900000D01*
G75*
G02*
X171030000Y-102215216I0J-315216D01*
G01*
X171030000Y-103034784D01*
G75*
G02*
X170714784Y-103350000I-315216J0D01*
G01*
X169645216Y-103350000D01*
G75*
G02*
X169330000Y-103034784I0J315216D01*
G01*
X169330000Y-102215216D01*
G75*
G02*
X169645216Y-101900000I315216J0D01*
G01*
G37*
G36*
G01*
X169645216Y-99850000D02*
X170714784Y-99850000D01*
G75*
G02*
X171030000Y-100165216I0J-315216D01*
G01*
X171030000Y-100984784D01*
G75*
G02*
X170714784Y-101300000I-315216J0D01*
G01*
X169645216Y-101300000D01*
G75*
G02*
X169330000Y-100984784I0J315216D01*
G01*
X169330000Y-100165216D01*
G75*
G02*
X169645216Y-99850000I315216J0D01*
G01*
G37*
%TD*%
M02*
