%TF.GenerationSoftware,KiCad,Pcbnew,(5.1.9)-1*%
%TF.CreationDate,2021-05-08T11:34:12+01:00*%
%TF.ProjectId,FF OSD Adapter - Rev 2,4646204f-5344-4204-9164-617074657220,rev?*%
%TF.SameCoordinates,Original*%
%TF.FileFunction,Paste,Bot*%
%TF.FilePolarity,Positive*%
%FSLAX46Y46*%
G04 Gerber Fmt 4.6, Leading zero omitted, Abs format (unit mm)*
G04 Created by KiCad (PCBNEW (5.1.9)-1) date 2021-05-08 11:34:12*
%MOMM*%
%LPD*%
G01*
G04 APERTURE LIST*
G04 APERTURE END LIST*
%TO.C,R3*%
G36*
G01*
X164280000Y-91890001D02*
X164280000Y-90989999D01*
G75*
G02*
X164529999Y-90740000I249999J0D01*
G01*
X165180001Y-90740000D01*
G75*
G02*
X165430000Y-90989999I0J-249999D01*
G01*
X165430000Y-91890001D01*
G75*
G02*
X165180001Y-92140000I-249999J0D01*
G01*
X164529999Y-92140000D01*
G75*
G02*
X164280000Y-91890001I0J249999D01*
G01*
G37*
G36*
G01*
X162230000Y-91890001D02*
X162230000Y-90989999D01*
G75*
G02*
X162479999Y-90740000I249999J0D01*
G01*
X163130001Y-90740000D01*
G75*
G02*
X163380000Y-90989999I0J-249999D01*
G01*
X163380000Y-91890001D01*
G75*
G02*
X163130001Y-92140000I-249999J0D01*
G01*
X162479999Y-92140000D01*
G75*
G02*
X162230000Y-91890001I0J249999D01*
G01*
G37*
%TD*%
%TO.C,R2*%
G36*
G01*
X167189999Y-102050000D02*
X168090001Y-102050000D01*
G75*
G02*
X168340000Y-102299999I0J-249999D01*
G01*
X168340000Y-102950001D01*
G75*
G02*
X168090001Y-103200000I-249999J0D01*
G01*
X167189999Y-103200000D01*
G75*
G02*
X166940000Y-102950001I0J249999D01*
G01*
X166940000Y-102299999D01*
G75*
G02*
X167189999Y-102050000I249999J0D01*
G01*
G37*
G36*
G01*
X167189999Y-100000000D02*
X168090001Y-100000000D01*
G75*
G02*
X168340000Y-100249999I0J-249999D01*
G01*
X168340000Y-100900001D01*
G75*
G02*
X168090001Y-101150000I-249999J0D01*
G01*
X167189999Y-101150000D01*
G75*
G02*
X166940000Y-100900001I0J249999D01*
G01*
X166940000Y-100249999D01*
G75*
G02*
X167189999Y-100000000I249999J0D01*
G01*
G37*
%TD*%
%TO.C,R1*%
G36*
G01*
X169729999Y-102050000D02*
X170630001Y-102050000D01*
G75*
G02*
X170880000Y-102299999I0J-249999D01*
G01*
X170880000Y-102950001D01*
G75*
G02*
X170630001Y-103200000I-249999J0D01*
G01*
X169729999Y-103200000D01*
G75*
G02*
X169480000Y-102950001I0J249999D01*
G01*
X169480000Y-102299999D01*
G75*
G02*
X169729999Y-102050000I249999J0D01*
G01*
G37*
G36*
G01*
X169729999Y-100000000D02*
X170630001Y-100000000D01*
G75*
G02*
X170880000Y-100249999I0J-249999D01*
G01*
X170880000Y-100900001D01*
G75*
G02*
X170630001Y-101150000I-249999J0D01*
G01*
X169729999Y-101150000D01*
G75*
G02*
X169480000Y-100900001I0J249999D01*
G01*
X169480000Y-100249999D01*
G75*
G02*
X169729999Y-100000000I249999J0D01*
G01*
G37*
%TD*%
M02*
