%TF.GenerationSoftware,KiCad,Pcbnew,(5.1.9)-1*%
%TF.CreationDate,2021-05-08T11:34:12+01:00*%
%TF.ProjectId,FF OSD Adapter - Rev 2,4646204f-5344-4204-9164-617074657220,rev?*%
%TF.SameCoordinates,Original*%
%TF.FileFunction,Legend,Top*%
%TF.FilePolarity,Positive*%
%FSLAX46Y46*%
G04 Gerber Fmt 4.6, Leading zero omitted, Abs format (unit mm)*
G04 Created by KiCad (PCBNEW (5.1.9)-1) date 2021-05-08 11:34:12*
%MOMM*%
%LPD*%
G01*
G04 APERTURE LIST*
%ADD10C,0.150000*%
%ADD11C,0.100000*%
%ADD12C,0.125000*%
%ADD13C,0.120000*%
G04 APERTURE END LIST*
D10*
X139120428Y-111706428D02*
X138870428Y-111706428D01*
X138870428Y-112099285D02*
X138870428Y-111349285D01*
X139227571Y-111349285D01*
X139834714Y-112099285D02*
X139834714Y-111706428D01*
X139799000Y-111635000D01*
X139727571Y-111599285D01*
X139584714Y-111599285D01*
X139513285Y-111635000D01*
X139834714Y-112063571D02*
X139763285Y-112099285D01*
X139584714Y-112099285D01*
X139513285Y-112063571D01*
X139477571Y-111992142D01*
X139477571Y-111920714D01*
X139513285Y-111849285D01*
X139584714Y-111813571D01*
X139763285Y-111813571D01*
X139834714Y-111777857D01*
X140513285Y-112063571D02*
X140441857Y-112099285D01*
X140299000Y-112099285D01*
X140227571Y-112063571D01*
X140191857Y-112027857D01*
X140156142Y-111956428D01*
X140156142Y-111742142D01*
X140191857Y-111670714D01*
X140227571Y-111635000D01*
X140299000Y-111599285D01*
X140441857Y-111599285D01*
X140513285Y-111635000D01*
X140727571Y-111599285D02*
X141013285Y-111599285D01*
X140834714Y-111349285D02*
X140834714Y-111992142D01*
X140870428Y-112063571D01*
X140941857Y-112099285D01*
X141013285Y-112099285D01*
X141370428Y-112099285D02*
X141299000Y-112063571D01*
X141263285Y-112027857D01*
X141227571Y-111956428D01*
X141227571Y-111742142D01*
X141263285Y-111670714D01*
X141299000Y-111635000D01*
X141370428Y-111599285D01*
X141477571Y-111599285D01*
X141549000Y-111635000D01*
X141584714Y-111670714D01*
X141620428Y-111742142D01*
X141620428Y-111956428D01*
X141584714Y-112027857D01*
X141549000Y-112063571D01*
X141477571Y-112099285D01*
X141370428Y-112099285D01*
X141941857Y-112099285D02*
X141941857Y-111599285D01*
X141941857Y-111742142D02*
X141977571Y-111670714D01*
X142013285Y-111635000D01*
X142084714Y-111599285D01*
X142156142Y-111599285D01*
X142334714Y-111599285D02*
X142513285Y-112099285D01*
X142691857Y-111599285D02*
X142513285Y-112099285D01*
X142441857Y-112277857D01*
X142406142Y-112313571D01*
X142334714Y-112349285D01*
X143977571Y-112099285D02*
X143727571Y-111742142D01*
X143549000Y-112099285D02*
X143549000Y-111349285D01*
X143834714Y-111349285D01*
X143906142Y-111385000D01*
X143941857Y-111420714D01*
X143977571Y-111492142D01*
X143977571Y-111599285D01*
X143941857Y-111670714D01*
X143906142Y-111706428D01*
X143834714Y-111742142D01*
X143549000Y-111742142D01*
X144584714Y-112063571D02*
X144513285Y-112099285D01*
X144370428Y-112099285D01*
X144299000Y-112063571D01*
X144263285Y-111992142D01*
X144263285Y-111706428D01*
X144299000Y-111635000D01*
X144370428Y-111599285D01*
X144513285Y-111599285D01*
X144584714Y-111635000D01*
X144620428Y-111706428D01*
X144620428Y-111777857D01*
X144263285Y-111849285D01*
X144906142Y-112063571D02*
X144977571Y-112099285D01*
X145120428Y-112099285D01*
X145191857Y-112063571D01*
X145227571Y-111992142D01*
X145227571Y-111956428D01*
X145191857Y-111885000D01*
X145120428Y-111849285D01*
X145013285Y-111849285D01*
X144941857Y-111813571D01*
X144906142Y-111742142D01*
X144906142Y-111706428D01*
X144941857Y-111635000D01*
X145013285Y-111599285D01*
X145120428Y-111599285D01*
X145191857Y-111635000D01*
X145834714Y-112063571D02*
X145763285Y-112099285D01*
X145620428Y-112099285D01*
X145549000Y-112063571D01*
X145513285Y-111992142D01*
X145513285Y-111706428D01*
X145549000Y-111635000D01*
X145620428Y-111599285D01*
X145763285Y-111599285D01*
X145834714Y-111635000D01*
X145870428Y-111706428D01*
X145870428Y-111777857D01*
X145513285Y-111849285D01*
X146084714Y-111599285D02*
X146370428Y-111599285D01*
X146191857Y-111349285D02*
X146191857Y-111992142D01*
X146227571Y-112063571D01*
X146299000Y-112099285D01*
X146370428Y-112099285D01*
X146620428Y-112027857D02*
X146656142Y-112063571D01*
X146620428Y-112099285D01*
X146584714Y-112063571D01*
X146620428Y-112027857D01*
X146620428Y-112099285D01*
X146620428Y-111635000D02*
X146656142Y-111670714D01*
X146620428Y-111706428D01*
X146584714Y-111670714D01*
X146620428Y-111635000D01*
X146620428Y-111706428D01*
X147513285Y-112063571D02*
X147620428Y-112099285D01*
X147799000Y-112099285D01*
X147870428Y-112063571D01*
X147906142Y-112027857D01*
X147941857Y-111956428D01*
X147941857Y-111885000D01*
X147906142Y-111813571D01*
X147870428Y-111777857D01*
X147799000Y-111742142D01*
X147656142Y-111706428D01*
X147584714Y-111670714D01*
X147549000Y-111635000D01*
X147513285Y-111563571D01*
X147513285Y-111492142D01*
X147549000Y-111420714D01*
X147584714Y-111385000D01*
X147656142Y-111349285D01*
X147834714Y-111349285D01*
X147941857Y-111385000D01*
X148263285Y-112099285D02*
X148263285Y-111349285D01*
X148584714Y-112099285D02*
X148584714Y-111706428D01*
X148549000Y-111635000D01*
X148477571Y-111599285D01*
X148370428Y-111599285D01*
X148299000Y-111635000D01*
X148263285Y-111670714D01*
X149049000Y-112099285D02*
X148977571Y-112063571D01*
X148941857Y-112027857D01*
X148906142Y-111956428D01*
X148906142Y-111742142D01*
X148941857Y-111670714D01*
X148977571Y-111635000D01*
X149049000Y-111599285D01*
X149156142Y-111599285D01*
X149227571Y-111635000D01*
X149263285Y-111670714D01*
X149299000Y-111742142D01*
X149299000Y-111956428D01*
X149263285Y-112027857D01*
X149227571Y-112063571D01*
X149156142Y-112099285D01*
X149049000Y-112099285D01*
X149620428Y-112099285D02*
X149620428Y-111599285D01*
X149620428Y-111742142D02*
X149656142Y-111670714D01*
X149691857Y-111635000D01*
X149763285Y-111599285D01*
X149834714Y-111599285D01*
X149977571Y-111599285D02*
X150263285Y-111599285D01*
X150084714Y-111349285D02*
X150084714Y-111992142D01*
X150120428Y-112063571D01*
X150191857Y-112099285D01*
X150263285Y-112099285D01*
X151049000Y-111885000D02*
X151406142Y-111885000D01*
X150977571Y-112099285D02*
X151227571Y-111349285D01*
X151477571Y-112099285D01*
X152120428Y-112099285D02*
X151691857Y-112099285D01*
X151906142Y-112099285D02*
X151906142Y-111349285D01*
X151834714Y-111456428D01*
X151763285Y-111527857D01*
X151691857Y-111563571D01*
X153334714Y-112099285D02*
X153334714Y-111706428D01*
X153299000Y-111635000D01*
X153227571Y-111599285D01*
X153084714Y-111599285D01*
X153013285Y-111635000D01*
X153334714Y-112063571D02*
X153263285Y-112099285D01*
X153084714Y-112099285D01*
X153013285Y-112063571D01*
X152977571Y-111992142D01*
X152977571Y-111920714D01*
X153013285Y-111849285D01*
X153084714Y-111813571D01*
X153263285Y-111813571D01*
X153334714Y-111777857D01*
X153691857Y-111599285D02*
X153691857Y-112099285D01*
X153691857Y-111670714D02*
X153727571Y-111635000D01*
X153799000Y-111599285D01*
X153906142Y-111599285D01*
X153977571Y-111635000D01*
X154013285Y-111706428D01*
X154013285Y-112099285D01*
X154691857Y-112099285D02*
X154691857Y-111349285D01*
X154691857Y-112063571D02*
X154620428Y-112099285D01*
X154477571Y-112099285D01*
X154406142Y-112063571D01*
X154370428Y-112027857D01*
X154334714Y-111956428D01*
X154334714Y-111742142D01*
X154370428Y-111670714D01*
X154406142Y-111635000D01*
X154477571Y-111599285D01*
X154620428Y-111599285D01*
X154691857Y-111635000D01*
X155584714Y-111885000D02*
X155941857Y-111885000D01*
X155513285Y-112099285D02*
X155763285Y-111349285D01*
X156013285Y-112099285D01*
X156227571Y-111420714D02*
X156263285Y-111385000D01*
X156334714Y-111349285D01*
X156513285Y-111349285D01*
X156584714Y-111385000D01*
X156620428Y-111420714D01*
X156656142Y-111492142D01*
X156656142Y-111563571D01*
X156620428Y-111670714D01*
X156191857Y-112099285D01*
X156656142Y-112099285D01*
X157441857Y-111599285D02*
X157727571Y-111599285D01*
X157549000Y-111349285D02*
X157549000Y-111992142D01*
X157584714Y-112063571D01*
X157656142Y-112099285D01*
X157727571Y-112099285D01*
X158084714Y-112099285D02*
X158013285Y-112063571D01*
X157977571Y-112027857D01*
X157941857Y-111956428D01*
X157941857Y-111742142D01*
X157977571Y-111670714D01*
X158013285Y-111635000D01*
X158084714Y-111599285D01*
X158191857Y-111599285D01*
X158263285Y-111635000D01*
X158299000Y-111670714D01*
X158334714Y-111742142D01*
X158334714Y-111956428D01*
X158299000Y-112027857D01*
X158263285Y-112063571D01*
X158191857Y-112099285D01*
X158084714Y-112099285D01*
X158977571Y-111599285D02*
X158977571Y-112206428D01*
X158941857Y-112277857D01*
X158906142Y-112313571D01*
X158834714Y-112349285D01*
X158727571Y-112349285D01*
X158656142Y-112313571D01*
X158977571Y-112063571D02*
X158906142Y-112099285D01*
X158763285Y-112099285D01*
X158691857Y-112063571D01*
X158656142Y-112027857D01*
X158620428Y-111956428D01*
X158620428Y-111742142D01*
X158656142Y-111670714D01*
X158691857Y-111635000D01*
X158763285Y-111599285D01*
X158906142Y-111599285D01*
X158977571Y-111635000D01*
X159620428Y-112063571D02*
X159549000Y-112099285D01*
X159406142Y-112099285D01*
X159334714Y-112063571D01*
X159299000Y-111992142D01*
X159299000Y-111706428D01*
X159334714Y-111635000D01*
X159406142Y-111599285D01*
X159549000Y-111599285D01*
X159620428Y-111635000D01*
X159656142Y-111706428D01*
X159656142Y-111777857D01*
X159299000Y-111849285D01*
X159870428Y-111599285D02*
X160156142Y-111599285D01*
X159977571Y-111349285D02*
X159977571Y-111992142D01*
X160013285Y-112063571D01*
X160084714Y-112099285D01*
X160156142Y-112099285D01*
X160406142Y-112099285D02*
X160406142Y-111349285D01*
X160727571Y-112099285D02*
X160727571Y-111706428D01*
X160691857Y-111635000D01*
X160620428Y-111599285D01*
X160513285Y-111599285D01*
X160441857Y-111635000D01*
X160406142Y-111670714D01*
X161370428Y-112063571D02*
X161299000Y-112099285D01*
X161156142Y-112099285D01*
X161084714Y-112063571D01*
X161049000Y-111992142D01*
X161049000Y-111706428D01*
X161084714Y-111635000D01*
X161156142Y-111599285D01*
X161299000Y-111599285D01*
X161370428Y-111635000D01*
X161406142Y-111706428D01*
X161406142Y-111777857D01*
X161049000Y-111849285D01*
X161727571Y-112099285D02*
X161727571Y-111599285D01*
X161727571Y-111742142D02*
X161763285Y-111670714D01*
X161799000Y-111635000D01*
X161870428Y-111599285D01*
X161941857Y-111599285D01*
X163084714Y-112099285D02*
X163084714Y-111349285D01*
X163084714Y-112063571D02*
X163013285Y-112099285D01*
X162870428Y-112099285D01*
X162799000Y-112063571D01*
X162763285Y-112027857D01*
X162727571Y-111956428D01*
X162727571Y-111742142D01*
X162763285Y-111670714D01*
X162799000Y-111635000D01*
X162870428Y-111599285D01*
X163013285Y-111599285D01*
X163084714Y-111635000D01*
X163763285Y-111599285D02*
X163763285Y-112099285D01*
X163441857Y-111599285D02*
X163441857Y-111992142D01*
X163477571Y-112063571D01*
X163549000Y-112099285D01*
X163656142Y-112099285D01*
X163727571Y-112063571D01*
X163763285Y-112027857D01*
X164120428Y-112099285D02*
X164120428Y-111599285D01*
X164120428Y-111742142D02*
X164156142Y-111670714D01*
X164191857Y-111635000D01*
X164263285Y-111599285D01*
X164334714Y-111599285D01*
X164584714Y-112099285D02*
X164584714Y-111599285D01*
X164584714Y-111349285D02*
X164549000Y-111385000D01*
X164584714Y-111420714D01*
X164620428Y-111385000D01*
X164584714Y-111349285D01*
X164584714Y-111420714D01*
X164941857Y-111599285D02*
X164941857Y-112099285D01*
X164941857Y-111670714D02*
X164977571Y-111635000D01*
X165049000Y-111599285D01*
X165156142Y-111599285D01*
X165227571Y-111635000D01*
X165263285Y-111706428D01*
X165263285Y-112099285D01*
X165941857Y-111599285D02*
X165941857Y-112206428D01*
X165906142Y-112277857D01*
X165870428Y-112313571D01*
X165799000Y-112349285D01*
X165691857Y-112349285D01*
X165620428Y-112313571D01*
X165941857Y-112063571D02*
X165870428Y-112099285D01*
X165727571Y-112099285D01*
X165656142Y-112063571D01*
X165620428Y-112027857D01*
X165584714Y-111956428D01*
X165584714Y-111742142D01*
X165620428Y-111670714D01*
X165656142Y-111635000D01*
X165727571Y-111599285D01*
X165870428Y-111599285D01*
X165941857Y-111635000D01*
X166870428Y-112099285D02*
X166870428Y-111349285D01*
X166870428Y-111635000D02*
X166941857Y-111599285D01*
X167084714Y-111599285D01*
X167156142Y-111635000D01*
X167191857Y-111670714D01*
X167227571Y-111742142D01*
X167227571Y-111956428D01*
X167191857Y-112027857D01*
X167156142Y-112063571D01*
X167084714Y-112099285D01*
X166941857Y-112099285D01*
X166870428Y-112063571D01*
X167656142Y-112099285D02*
X167584714Y-112063571D01*
X167549000Y-112027857D01*
X167513285Y-111956428D01*
X167513285Y-111742142D01*
X167549000Y-111670714D01*
X167584714Y-111635000D01*
X167656142Y-111599285D01*
X167763285Y-111599285D01*
X167834714Y-111635000D01*
X167870428Y-111670714D01*
X167906142Y-111742142D01*
X167906142Y-111956428D01*
X167870428Y-112027857D01*
X167834714Y-112063571D01*
X167763285Y-112099285D01*
X167656142Y-112099285D01*
X168334714Y-112099285D02*
X168263285Y-112063571D01*
X168227571Y-112027857D01*
X168191857Y-111956428D01*
X168191857Y-111742142D01*
X168227571Y-111670714D01*
X168263285Y-111635000D01*
X168334714Y-111599285D01*
X168441857Y-111599285D01*
X168513285Y-111635000D01*
X168549000Y-111670714D01*
X168584714Y-111742142D01*
X168584714Y-111956428D01*
X168549000Y-112027857D01*
X168513285Y-112063571D01*
X168441857Y-112099285D01*
X168334714Y-112099285D01*
X168799000Y-111599285D02*
X169084714Y-111599285D01*
X168906142Y-111349285D02*
X168906142Y-111992142D01*
X168941857Y-112063571D01*
X169013285Y-112099285D01*
X169084714Y-112099285D01*
X136624285Y-112012000D02*
X136981428Y-112012000D01*
X136552857Y-112226285D02*
X136802857Y-111476285D01*
X137052857Y-112226285D01*
X137267142Y-111547714D02*
X137302857Y-111512000D01*
X137374285Y-111476285D01*
X137552857Y-111476285D01*
X137624285Y-111512000D01*
X137660000Y-111547714D01*
X137695714Y-111619142D01*
X137695714Y-111690571D01*
X137660000Y-111797714D01*
X137231428Y-112226285D01*
X137695714Y-112226285D01*
X131544285Y-112012000D02*
X131901428Y-112012000D01*
X131472857Y-112226285D02*
X131722857Y-111476285D01*
X131972857Y-112226285D01*
X132365714Y-111476285D02*
X132437142Y-111476285D01*
X132508571Y-111512000D01*
X132544285Y-111547714D01*
X132580000Y-111619142D01*
X132615714Y-111762000D01*
X132615714Y-111940571D01*
X132580000Y-112083428D01*
X132544285Y-112154857D01*
X132508571Y-112190571D01*
X132437142Y-112226285D01*
X132365714Y-112226285D01*
X132294285Y-112190571D01*
X132258571Y-112154857D01*
X132222857Y-112083428D01*
X132187142Y-111940571D01*
X132187142Y-111762000D01*
X132222857Y-111619142D01*
X132258571Y-111547714D01*
X132294285Y-111512000D01*
X132365714Y-111476285D01*
X134084285Y-112012000D02*
X134441428Y-112012000D01*
X134012857Y-112226285D02*
X134262857Y-111476285D01*
X134512857Y-112226285D01*
X135155714Y-112226285D02*
X134727142Y-112226285D01*
X134941428Y-112226285D02*
X134941428Y-111476285D01*
X134870000Y-111583428D01*
X134798571Y-111654857D01*
X134727142Y-111690571D01*
X107545285Y-111561571D02*
X107688142Y-111609190D01*
X107735761Y-111656809D01*
X107783380Y-111752047D01*
X107783380Y-111894904D01*
X107735761Y-111990142D01*
X107688142Y-112037761D01*
X107592904Y-112085380D01*
X107211952Y-112085380D01*
X107211952Y-111085380D01*
X107545285Y-111085380D01*
X107640523Y-111133000D01*
X107688142Y-111180619D01*
X107735761Y-111275857D01*
X107735761Y-111371095D01*
X107688142Y-111466333D01*
X107640523Y-111513952D01*
X107545285Y-111561571D01*
X107211952Y-111561571D01*
X108069095Y-111085380D02*
X108640523Y-111085380D01*
X108354809Y-112085380D02*
X108354809Y-111085380D01*
X108878619Y-111085380D02*
X109497666Y-111085380D01*
X109164333Y-111466333D01*
X109307190Y-111466333D01*
X109402428Y-111513952D01*
X109450047Y-111561571D01*
X109497666Y-111656809D01*
X109497666Y-111894904D01*
X109450047Y-111990142D01*
X109402428Y-112037761D01*
X109307190Y-112085380D01*
X109021476Y-112085380D01*
X108926238Y-112037761D01*
X108878619Y-111990142D01*
X107545285Y-109148571D02*
X107688142Y-109196190D01*
X107735761Y-109243809D01*
X107783380Y-109339047D01*
X107783380Y-109481904D01*
X107735761Y-109577142D01*
X107688142Y-109624761D01*
X107592904Y-109672380D01*
X107211952Y-109672380D01*
X107211952Y-108672380D01*
X107545285Y-108672380D01*
X107640523Y-108720000D01*
X107688142Y-108767619D01*
X107735761Y-108862857D01*
X107735761Y-108958095D01*
X107688142Y-109053333D01*
X107640523Y-109100952D01*
X107545285Y-109148571D01*
X107211952Y-109148571D01*
X108069095Y-108672380D02*
X108640523Y-108672380D01*
X108354809Y-109672380D02*
X108354809Y-108672380D01*
X108926238Y-108767619D02*
X108973857Y-108720000D01*
X109069095Y-108672380D01*
X109307190Y-108672380D01*
X109402428Y-108720000D01*
X109450047Y-108767619D01*
X109497666Y-108862857D01*
X109497666Y-108958095D01*
X109450047Y-109100952D01*
X108878619Y-109672380D01*
X109497666Y-109672380D01*
X107545285Y-106608571D02*
X107688142Y-106656190D01*
X107735761Y-106703809D01*
X107783380Y-106799047D01*
X107783380Y-106941904D01*
X107735761Y-107037142D01*
X107688142Y-107084761D01*
X107592904Y-107132380D01*
X107211952Y-107132380D01*
X107211952Y-106132380D01*
X107545285Y-106132380D01*
X107640523Y-106180000D01*
X107688142Y-106227619D01*
X107735761Y-106322857D01*
X107735761Y-106418095D01*
X107688142Y-106513333D01*
X107640523Y-106560952D01*
X107545285Y-106608571D01*
X107211952Y-106608571D01*
X108069095Y-106132380D02*
X108640523Y-106132380D01*
X108354809Y-107132380D02*
X108354809Y-106132380D01*
X109497666Y-107132380D02*
X108926238Y-107132380D01*
X109211952Y-107132380D02*
X109211952Y-106132380D01*
X109116714Y-106275238D01*
X109021476Y-106370476D01*
X108926238Y-106418095D01*
X107696095Y-103640000D02*
X107600857Y-103592380D01*
X107458000Y-103592380D01*
X107315142Y-103640000D01*
X107219904Y-103735238D01*
X107172285Y-103830476D01*
X107124666Y-104020952D01*
X107124666Y-104163809D01*
X107172285Y-104354285D01*
X107219904Y-104449523D01*
X107315142Y-104544761D01*
X107458000Y-104592380D01*
X107553238Y-104592380D01*
X107696095Y-104544761D01*
X107743714Y-104497142D01*
X107743714Y-104163809D01*
X107553238Y-104163809D01*
X108172285Y-104592380D02*
X108172285Y-103592380D01*
X108743714Y-104592380D01*
X108743714Y-103592380D01*
X109219904Y-104592380D02*
X109219904Y-103592380D01*
X109458000Y-103592380D01*
X109600857Y-103640000D01*
X109696095Y-103735238D01*
X109743714Y-103830476D01*
X109791333Y-104020952D01*
X109791333Y-104163809D01*
X109743714Y-104354285D01*
X109696095Y-104449523D01*
X109600857Y-104544761D01*
X109458000Y-104592380D01*
X109219904Y-104592380D01*
D11*
X107341857Y-98517142D02*
X107427571Y-98545714D01*
X107456142Y-98574285D01*
X107484714Y-98631428D01*
X107484714Y-98717142D01*
X107456142Y-98774285D01*
X107427571Y-98802857D01*
X107370428Y-98831428D01*
X107141857Y-98831428D01*
X107141857Y-98231428D01*
X107341857Y-98231428D01*
X107399000Y-98260000D01*
X107427571Y-98288571D01*
X107456142Y-98345714D01*
X107456142Y-98402857D01*
X107427571Y-98460000D01*
X107399000Y-98488571D01*
X107341857Y-98517142D01*
X107141857Y-98517142D01*
X107999000Y-98431428D02*
X107999000Y-98831428D01*
X107741857Y-98431428D02*
X107741857Y-98745714D01*
X107770428Y-98802857D01*
X107827571Y-98831428D01*
X107913285Y-98831428D01*
X107970428Y-98802857D01*
X107999000Y-98774285D01*
X108199000Y-98431428D02*
X108427571Y-98431428D01*
X108284714Y-98831428D02*
X108284714Y-98317142D01*
X108313285Y-98260000D01*
X108370428Y-98231428D01*
X108427571Y-98231428D01*
X108541857Y-98431428D02*
X108770428Y-98431428D01*
X108627571Y-98831428D02*
X108627571Y-98317142D01*
X108656142Y-98260000D01*
X108713285Y-98231428D01*
X108770428Y-98231428D01*
X109199000Y-98802857D02*
X109141857Y-98831428D01*
X109027571Y-98831428D01*
X108970428Y-98802857D01*
X108941857Y-98745714D01*
X108941857Y-98517142D01*
X108970428Y-98460000D01*
X109027571Y-98431428D01*
X109141857Y-98431428D01*
X109199000Y-98460000D01*
X109227571Y-98517142D01*
X109227571Y-98574285D01*
X108941857Y-98631428D01*
X109484714Y-98831428D02*
X109484714Y-98431428D01*
X109484714Y-98545714D02*
X109513285Y-98488571D01*
X109541857Y-98460000D01*
X109599000Y-98431428D01*
X109656142Y-98431428D01*
X110084714Y-98802857D02*
X110027571Y-98831428D01*
X109913285Y-98831428D01*
X109856142Y-98802857D01*
X109827571Y-98745714D01*
X109827571Y-98517142D01*
X109856142Y-98460000D01*
X109913285Y-98431428D01*
X110027571Y-98431428D01*
X110084714Y-98460000D01*
X110113285Y-98517142D01*
X110113285Y-98574285D01*
X109827571Y-98631428D01*
X110627571Y-98831428D02*
X110627571Y-98231428D01*
X110627571Y-98802857D02*
X110570428Y-98831428D01*
X110456142Y-98831428D01*
X110399000Y-98802857D01*
X110370428Y-98774285D01*
X110341857Y-98717142D01*
X110341857Y-98545714D01*
X110370428Y-98488571D01*
X110399000Y-98460000D01*
X110456142Y-98431428D01*
X110570428Y-98431428D01*
X110627571Y-98460000D01*
X111370428Y-98831428D02*
X111370428Y-98231428D01*
X111513285Y-98231428D01*
X111599000Y-98260000D01*
X111656142Y-98317142D01*
X111684714Y-98374285D01*
X111713285Y-98488571D01*
X111713285Y-98574285D01*
X111684714Y-98688571D01*
X111656142Y-98745714D01*
X111599000Y-98802857D01*
X111513285Y-98831428D01*
X111370428Y-98831428D01*
X111970428Y-98831428D02*
X111970428Y-98431428D01*
X111970428Y-98231428D02*
X111941857Y-98260000D01*
X111970428Y-98288571D01*
X111999000Y-98260000D01*
X111970428Y-98231428D01*
X111970428Y-98288571D01*
X112227571Y-98802857D02*
X112284714Y-98831428D01*
X112399000Y-98831428D01*
X112456142Y-98802857D01*
X112484714Y-98745714D01*
X112484714Y-98717142D01*
X112456142Y-98660000D01*
X112399000Y-98631428D01*
X112313285Y-98631428D01*
X112256142Y-98602857D01*
X112227571Y-98545714D01*
X112227571Y-98517142D01*
X112256142Y-98460000D01*
X112313285Y-98431428D01*
X112399000Y-98431428D01*
X112456142Y-98460000D01*
X112741857Y-98431428D02*
X112741857Y-99031428D01*
X112741857Y-98460000D02*
X112799000Y-98431428D01*
X112913285Y-98431428D01*
X112970428Y-98460000D01*
X112999000Y-98488571D01*
X113027571Y-98545714D01*
X113027571Y-98717142D01*
X112999000Y-98774285D01*
X112970428Y-98802857D01*
X112913285Y-98831428D01*
X112799000Y-98831428D01*
X112741857Y-98802857D01*
X113370428Y-98831428D02*
X113313285Y-98802857D01*
X113284714Y-98745714D01*
X113284714Y-98231428D01*
X113856142Y-98831428D02*
X113856142Y-98517142D01*
X113827571Y-98460000D01*
X113770428Y-98431428D01*
X113656142Y-98431428D01*
X113599000Y-98460000D01*
X113856142Y-98802857D02*
X113799000Y-98831428D01*
X113656142Y-98831428D01*
X113599000Y-98802857D01*
X113570428Y-98745714D01*
X113570428Y-98688571D01*
X113599000Y-98631428D01*
X113656142Y-98602857D01*
X113799000Y-98602857D01*
X113856142Y-98574285D01*
X114084714Y-98431428D02*
X114227571Y-98831428D01*
X114370428Y-98431428D02*
X114227571Y-98831428D01*
X114170428Y-98974285D01*
X114141857Y-99002857D01*
X114084714Y-99031428D01*
X107256142Y-99231428D02*
X107370428Y-99231428D01*
X107427571Y-99260000D01*
X107484714Y-99317142D01*
X107513285Y-99431428D01*
X107513285Y-99631428D01*
X107484714Y-99745714D01*
X107427571Y-99802857D01*
X107370428Y-99831428D01*
X107256142Y-99831428D01*
X107199000Y-99802857D01*
X107141857Y-99745714D01*
X107113285Y-99631428D01*
X107113285Y-99431428D01*
X107141857Y-99317142D01*
X107199000Y-99260000D01*
X107256142Y-99231428D01*
X108027571Y-99431428D02*
X108027571Y-99831428D01*
X107770428Y-99431428D02*
X107770428Y-99745714D01*
X107799000Y-99802857D01*
X107856142Y-99831428D01*
X107941857Y-99831428D01*
X107999000Y-99802857D01*
X108027571Y-99774285D01*
X108227571Y-99431428D02*
X108456142Y-99431428D01*
X108313285Y-99231428D02*
X108313285Y-99745714D01*
X108341857Y-99802857D01*
X108399000Y-99831428D01*
X108456142Y-99831428D01*
X108656142Y-99431428D02*
X108656142Y-100031428D01*
X108656142Y-99460000D02*
X108713285Y-99431428D01*
X108827571Y-99431428D01*
X108884714Y-99460000D01*
X108913285Y-99488571D01*
X108941857Y-99545714D01*
X108941857Y-99717142D01*
X108913285Y-99774285D01*
X108884714Y-99802857D01*
X108827571Y-99831428D01*
X108713285Y-99831428D01*
X108656142Y-99802857D01*
X109456142Y-99431428D02*
X109456142Y-99831428D01*
X109199000Y-99431428D02*
X109199000Y-99745714D01*
X109227571Y-99802857D01*
X109284714Y-99831428D01*
X109370428Y-99831428D01*
X109427571Y-99802857D01*
X109456142Y-99774285D01*
X109656142Y-99431428D02*
X109884714Y-99431428D01*
X109741857Y-99231428D02*
X109741857Y-99745714D01*
X109770428Y-99802857D01*
X109827571Y-99831428D01*
X109884714Y-99831428D01*
D10*
X107125000Y-96859285D02*
X107125000Y-96109285D01*
X107303571Y-96109285D01*
X107410714Y-96145000D01*
X107482142Y-96216428D01*
X107517857Y-96287857D01*
X107553571Y-96430714D01*
X107553571Y-96537857D01*
X107517857Y-96680714D01*
X107482142Y-96752142D01*
X107410714Y-96823571D01*
X107303571Y-96859285D01*
X107125000Y-96859285D01*
X107875000Y-96859285D02*
X107875000Y-96359285D01*
X107875000Y-96109285D02*
X107839285Y-96145000D01*
X107875000Y-96180714D01*
X107910714Y-96145000D01*
X107875000Y-96109285D01*
X107875000Y-96180714D01*
X108196428Y-96823571D02*
X108267857Y-96859285D01*
X108410714Y-96859285D01*
X108482142Y-96823571D01*
X108517857Y-96752142D01*
X108517857Y-96716428D01*
X108482142Y-96645000D01*
X108410714Y-96609285D01*
X108303571Y-96609285D01*
X108232142Y-96573571D01*
X108196428Y-96502142D01*
X108196428Y-96466428D01*
X108232142Y-96395000D01*
X108303571Y-96359285D01*
X108410714Y-96359285D01*
X108482142Y-96395000D01*
X108839285Y-96359285D02*
X108839285Y-97109285D01*
X108839285Y-96395000D02*
X108910714Y-96359285D01*
X109053571Y-96359285D01*
X109125000Y-96395000D01*
X109160714Y-96430714D01*
X109196428Y-96502142D01*
X109196428Y-96716428D01*
X109160714Y-96787857D01*
X109125000Y-96823571D01*
X109053571Y-96859285D01*
X108910714Y-96859285D01*
X108839285Y-96823571D01*
X109625000Y-96859285D02*
X109553571Y-96823571D01*
X109517857Y-96752142D01*
X109517857Y-96109285D01*
X110232142Y-96859285D02*
X110232142Y-96466428D01*
X110196428Y-96395000D01*
X110125000Y-96359285D01*
X109982142Y-96359285D01*
X109910714Y-96395000D01*
X110232142Y-96823571D02*
X110160714Y-96859285D01*
X109982142Y-96859285D01*
X109910714Y-96823571D01*
X109875000Y-96752142D01*
X109875000Y-96680714D01*
X109910714Y-96609285D01*
X109982142Y-96573571D01*
X110160714Y-96573571D01*
X110232142Y-96537857D01*
X110517857Y-96359285D02*
X110696428Y-96859285D01*
X110875000Y-96359285D02*
X110696428Y-96859285D01*
X110625000Y-97037857D01*
X110589285Y-97073571D01*
X110517857Y-97109285D01*
X111732142Y-96466428D02*
X111982142Y-96466428D01*
X112089285Y-96859285D02*
X111732142Y-96859285D01*
X111732142Y-96109285D01*
X112089285Y-96109285D01*
X112410714Y-96359285D02*
X112410714Y-96859285D01*
X112410714Y-96430714D02*
X112446428Y-96395000D01*
X112517857Y-96359285D01*
X112625000Y-96359285D01*
X112696428Y-96395000D01*
X112732142Y-96466428D01*
X112732142Y-96859285D01*
X113410714Y-96859285D02*
X113410714Y-96466428D01*
X113375000Y-96395000D01*
X113303571Y-96359285D01*
X113160714Y-96359285D01*
X113089285Y-96395000D01*
X113410714Y-96823571D02*
X113339285Y-96859285D01*
X113160714Y-96859285D01*
X113089285Y-96823571D01*
X113053571Y-96752142D01*
X113053571Y-96680714D01*
X113089285Y-96609285D01*
X113160714Y-96573571D01*
X113339285Y-96573571D01*
X113410714Y-96537857D01*
X113767857Y-96859285D02*
X113767857Y-96109285D01*
X113767857Y-96395000D02*
X113839285Y-96359285D01*
X113982142Y-96359285D01*
X114053571Y-96395000D01*
X114089285Y-96430714D01*
X114125000Y-96502142D01*
X114125000Y-96716428D01*
X114089285Y-96787857D01*
X114053571Y-96823571D01*
X113982142Y-96859285D01*
X113839285Y-96859285D01*
X113767857Y-96823571D01*
X114553571Y-96859285D02*
X114482142Y-96823571D01*
X114446428Y-96752142D01*
X114446428Y-96109285D01*
X115125000Y-96823571D02*
X115053571Y-96859285D01*
X114910714Y-96859285D01*
X114839285Y-96823571D01*
X114803571Y-96752142D01*
X114803571Y-96466428D01*
X114839285Y-96395000D01*
X114910714Y-96359285D01*
X115053571Y-96359285D01*
X115125000Y-96395000D01*
X115160714Y-96466428D01*
X115160714Y-96537857D01*
X114803571Y-96609285D01*
X107160714Y-94319285D02*
X107160714Y-93569285D01*
X107339285Y-93569285D01*
X107446428Y-93605000D01*
X107517857Y-93676428D01*
X107553571Y-93747857D01*
X107589285Y-93890714D01*
X107589285Y-93997857D01*
X107553571Y-94140714D01*
X107517857Y-94212142D01*
X107446428Y-94283571D01*
X107339285Y-94319285D01*
X107160714Y-94319285D01*
X107910714Y-94319285D02*
X107910714Y-93819285D01*
X107910714Y-93569285D02*
X107875000Y-93605000D01*
X107910714Y-93640714D01*
X107946428Y-93605000D01*
X107910714Y-93569285D01*
X107910714Y-93640714D01*
X108232142Y-94283571D02*
X108303571Y-94319285D01*
X108446428Y-94319285D01*
X108517857Y-94283571D01*
X108553571Y-94212142D01*
X108553571Y-94176428D01*
X108517857Y-94105000D01*
X108446428Y-94069285D01*
X108339285Y-94069285D01*
X108267857Y-94033571D01*
X108232142Y-93962142D01*
X108232142Y-93926428D01*
X108267857Y-93855000D01*
X108339285Y-93819285D01*
X108446428Y-93819285D01*
X108517857Y-93855000D01*
X108875000Y-93819285D02*
X108875000Y-94569285D01*
X108875000Y-93855000D02*
X108946428Y-93819285D01*
X109089285Y-93819285D01*
X109160714Y-93855000D01*
X109196428Y-93890714D01*
X109232142Y-93962142D01*
X109232142Y-94176428D01*
X109196428Y-94247857D01*
X109160714Y-94283571D01*
X109089285Y-94319285D01*
X108946428Y-94319285D01*
X108875000Y-94283571D01*
X109660714Y-94319285D02*
X109589285Y-94283571D01*
X109553571Y-94212142D01*
X109553571Y-93569285D01*
X110267857Y-94319285D02*
X110267857Y-93926428D01*
X110232142Y-93855000D01*
X110160714Y-93819285D01*
X110017857Y-93819285D01*
X109946428Y-93855000D01*
X110267857Y-94283571D02*
X110196428Y-94319285D01*
X110017857Y-94319285D01*
X109946428Y-94283571D01*
X109910714Y-94212142D01*
X109910714Y-94140714D01*
X109946428Y-94069285D01*
X110017857Y-94033571D01*
X110196428Y-94033571D01*
X110267857Y-93997857D01*
X110553571Y-93819285D02*
X110732142Y-94319285D01*
X110910714Y-93819285D02*
X110732142Y-94319285D01*
X110660714Y-94497857D01*
X110625000Y-94533571D01*
X110553571Y-94569285D01*
X111910714Y-93569285D02*
X112053571Y-93569285D01*
X112125000Y-93605000D01*
X112196428Y-93676428D01*
X112232142Y-93819285D01*
X112232142Y-94069285D01*
X112196428Y-94212142D01*
X112125000Y-94283571D01*
X112053571Y-94319285D01*
X111910714Y-94319285D01*
X111839285Y-94283571D01*
X111767857Y-94212142D01*
X111732142Y-94069285D01*
X111732142Y-93819285D01*
X111767857Y-93676428D01*
X111839285Y-93605000D01*
X111910714Y-93569285D01*
X112875000Y-93819285D02*
X112875000Y-94319285D01*
X112553571Y-93819285D02*
X112553571Y-94212142D01*
X112589285Y-94283571D01*
X112660714Y-94319285D01*
X112767857Y-94319285D01*
X112839285Y-94283571D01*
X112875000Y-94247857D01*
X113125000Y-93819285D02*
X113410714Y-93819285D01*
X113232142Y-93569285D02*
X113232142Y-94212142D01*
X113267857Y-94283571D01*
X113339285Y-94319285D01*
X113410714Y-94319285D01*
X113660714Y-93819285D02*
X113660714Y-94569285D01*
X113660714Y-93855000D02*
X113732142Y-93819285D01*
X113874999Y-93819285D01*
X113946428Y-93855000D01*
X113982142Y-93890714D01*
X114017857Y-93962142D01*
X114017857Y-94176428D01*
X113982142Y-94247857D01*
X113946428Y-94283571D01*
X113874999Y-94319285D01*
X113732142Y-94319285D01*
X113660714Y-94283571D01*
X114660714Y-93819285D02*
X114660714Y-94319285D01*
X114339285Y-93819285D02*
X114339285Y-94212142D01*
X114374999Y-94283571D01*
X114446428Y-94319285D01*
X114553571Y-94319285D01*
X114624999Y-94283571D01*
X114660714Y-94247857D01*
X114910714Y-93819285D02*
X115196428Y-93819285D01*
X115017857Y-93569285D02*
X115017857Y-94212142D01*
X115053571Y-94283571D01*
X115124999Y-94319285D01*
X115196428Y-94319285D01*
X107037380Y-91844761D02*
X107180238Y-91892380D01*
X107418333Y-91892380D01*
X107513571Y-91844761D01*
X107561190Y-91797142D01*
X107608809Y-91701904D01*
X107608809Y-91606666D01*
X107561190Y-91511428D01*
X107513571Y-91463809D01*
X107418333Y-91416190D01*
X107227857Y-91368571D01*
X107132619Y-91320952D01*
X107085000Y-91273333D01*
X107037380Y-91178095D01*
X107037380Y-91082857D01*
X107085000Y-90987619D01*
X107132619Y-90940000D01*
X107227857Y-90892380D01*
X107465952Y-90892380D01*
X107608809Y-90940000D01*
X107942142Y-91225714D02*
X108180238Y-91892380D01*
X108418333Y-91225714D02*
X108180238Y-91892380D01*
X108085000Y-92130476D01*
X108037380Y-92178095D01*
X107942142Y-92225714D01*
X108799285Y-91225714D02*
X108799285Y-91892380D01*
X108799285Y-91320952D02*
X108846904Y-91273333D01*
X108942142Y-91225714D01*
X109085000Y-91225714D01*
X109180238Y-91273333D01*
X109227857Y-91368571D01*
X109227857Y-91892380D01*
X110132619Y-91844761D02*
X110037380Y-91892380D01*
X109846904Y-91892380D01*
X109751666Y-91844761D01*
X109704047Y-91797142D01*
X109656428Y-91701904D01*
X109656428Y-91416190D01*
X109704047Y-91320952D01*
X109751666Y-91273333D01*
X109846904Y-91225714D01*
X110037380Y-91225714D01*
X110132619Y-91273333D01*
X107299285Y-101671428D02*
X108061190Y-101671428D01*
X107680238Y-102052380D02*
X107680238Y-101290476D01*
X109013571Y-101052380D02*
X108537380Y-101052380D01*
X108489761Y-101528571D01*
X108537380Y-101480952D01*
X108632619Y-101433333D01*
X108870714Y-101433333D01*
X108965952Y-101480952D01*
X109013571Y-101528571D01*
X109061190Y-101623809D01*
X109061190Y-101861904D01*
X109013571Y-101957142D01*
X108965952Y-102004761D01*
X108870714Y-102052380D01*
X108632619Y-102052380D01*
X108537380Y-102004761D01*
X108489761Y-101957142D01*
X109346904Y-101052380D02*
X109680238Y-102052380D01*
X110013571Y-101052380D01*
X100084238Y-111688571D02*
X100227095Y-111736190D01*
X100274714Y-111783809D01*
X100322333Y-111879047D01*
X100322333Y-112021904D01*
X100274714Y-112117142D01*
X100227095Y-112164761D01*
X100131857Y-112212380D01*
X99750904Y-112212380D01*
X99750904Y-111212380D01*
X100084238Y-111212380D01*
X100179476Y-111260000D01*
X100227095Y-111307619D01*
X100274714Y-111402857D01*
X100274714Y-111498095D01*
X100227095Y-111593333D01*
X100179476Y-111640952D01*
X100084238Y-111688571D01*
X99750904Y-111688571D01*
X100608047Y-111212380D02*
X101179476Y-111212380D01*
X100893761Y-112212380D02*
X100893761Y-111212380D01*
X101417571Y-111212380D02*
X102036619Y-111212380D01*
X101703285Y-111593333D01*
X101846142Y-111593333D01*
X101941380Y-111640952D01*
X101989000Y-111688571D01*
X102036619Y-111783809D01*
X102036619Y-112021904D01*
X101989000Y-112117142D01*
X101941380Y-112164761D01*
X101846142Y-112212380D01*
X101560428Y-112212380D01*
X101465190Y-112164761D01*
X101417571Y-112117142D01*
X103227095Y-111831428D02*
X103989000Y-111831428D01*
X104465190Y-111545714D02*
X105227095Y-111831428D01*
X104465190Y-112117142D01*
X100084238Y-109148571D02*
X100227095Y-109196190D01*
X100274714Y-109243809D01*
X100322333Y-109339047D01*
X100322333Y-109481904D01*
X100274714Y-109577142D01*
X100227095Y-109624761D01*
X100131857Y-109672380D01*
X99750904Y-109672380D01*
X99750904Y-108672380D01*
X100084238Y-108672380D01*
X100179476Y-108720000D01*
X100227095Y-108767619D01*
X100274714Y-108862857D01*
X100274714Y-108958095D01*
X100227095Y-109053333D01*
X100179476Y-109100952D01*
X100084238Y-109148571D01*
X99750904Y-109148571D01*
X100608047Y-108672380D02*
X101179476Y-108672380D01*
X100893761Y-109672380D02*
X100893761Y-108672380D01*
X101465190Y-108767619D02*
X101512809Y-108720000D01*
X101608047Y-108672380D01*
X101846142Y-108672380D01*
X101941380Y-108720000D01*
X101989000Y-108767619D01*
X102036619Y-108862857D01*
X102036619Y-108958095D01*
X101989000Y-109100952D01*
X101417571Y-109672380D01*
X102036619Y-109672380D01*
X103227095Y-109291428D02*
X103989000Y-109291428D01*
X104465190Y-109005714D02*
X105227095Y-109291428D01*
X104465190Y-109577142D01*
X99957238Y-106608571D02*
X100100095Y-106656190D01*
X100147714Y-106703809D01*
X100195333Y-106799047D01*
X100195333Y-106941904D01*
X100147714Y-107037142D01*
X100100095Y-107084761D01*
X100004857Y-107132380D01*
X99623904Y-107132380D01*
X99623904Y-106132380D01*
X99957238Y-106132380D01*
X100052476Y-106180000D01*
X100100095Y-106227619D01*
X100147714Y-106322857D01*
X100147714Y-106418095D01*
X100100095Y-106513333D01*
X100052476Y-106560952D01*
X99957238Y-106608571D01*
X99623904Y-106608571D01*
X100481047Y-106132380D02*
X101052476Y-106132380D01*
X100766761Y-107132380D02*
X100766761Y-106132380D01*
X101909619Y-107132380D02*
X101338190Y-107132380D01*
X101623904Y-107132380D02*
X101623904Y-106132380D01*
X101528666Y-106275238D01*
X101433428Y-106370476D01*
X101338190Y-106418095D01*
X103100095Y-106751428D02*
X103862000Y-106751428D01*
X104338190Y-106465714D02*
X105100095Y-106751428D01*
X104338190Y-107037142D01*
X183070571Y-111385000D02*
X182999142Y-111349285D01*
X182892000Y-111349285D01*
X182784857Y-111385000D01*
X182713428Y-111456428D01*
X182677714Y-111527857D01*
X182642000Y-111670714D01*
X182642000Y-111777857D01*
X182677714Y-111920714D01*
X182713428Y-111992142D01*
X182784857Y-112063571D01*
X182892000Y-112099285D01*
X182963428Y-112099285D01*
X183070571Y-112063571D01*
X183106285Y-112027857D01*
X183106285Y-111777857D01*
X182963428Y-111777857D01*
X183427714Y-112099285D02*
X183427714Y-111349285D01*
X183856285Y-112099285D01*
X183856285Y-111349285D01*
X184213428Y-112099285D02*
X184213428Y-111349285D01*
X184392000Y-111349285D01*
X184499142Y-111385000D01*
X184570571Y-111456428D01*
X184606285Y-111527857D01*
X184642000Y-111670714D01*
X184642000Y-111777857D01*
X184606285Y-111920714D01*
X184570571Y-111992142D01*
X184499142Y-112063571D01*
X184392000Y-112099285D01*
X184213428Y-112099285D01*
X181963428Y-109273571D02*
X182534857Y-109273571D01*
X182249142Y-109559285D02*
X182249142Y-108987857D01*
X182820571Y-108809285D02*
X183284857Y-108809285D01*
X183034857Y-109095000D01*
X183141999Y-109095000D01*
X183213428Y-109130714D01*
X183249142Y-109166428D01*
X183284857Y-109237857D01*
X183284857Y-109416428D01*
X183249142Y-109487857D01*
X183213428Y-109523571D01*
X183141999Y-109559285D01*
X182927714Y-109559285D01*
X182856285Y-109523571D01*
X182820571Y-109487857D01*
X183499142Y-108809285D02*
X183749142Y-109559285D01*
X183999142Y-108809285D01*
X184177714Y-108809285D02*
X184641999Y-108809285D01*
X184391999Y-109095000D01*
X184499142Y-109095000D01*
X184570571Y-109130714D01*
X184606285Y-109166428D01*
X184641999Y-109237857D01*
X184641999Y-109416428D01*
X184606285Y-109487857D01*
X184570571Y-109523571D01*
X184499142Y-109559285D01*
X184284857Y-109559285D01*
X184213428Y-109523571D01*
X184177714Y-109487857D01*
X182820570Y-106983571D02*
X182927713Y-107019285D01*
X183106285Y-107019285D01*
X183177713Y-106983571D01*
X183213427Y-106947857D01*
X183249142Y-106876428D01*
X183249142Y-106805000D01*
X183213427Y-106733571D01*
X183177713Y-106697857D01*
X183106285Y-106662142D01*
X182963427Y-106626428D01*
X182891999Y-106590714D01*
X182856285Y-106555000D01*
X182820570Y-106483571D01*
X182820570Y-106412142D01*
X182856285Y-106340714D01*
X182891999Y-106305000D01*
X182963427Y-106269285D01*
X183141999Y-106269285D01*
X183249142Y-106305000D01*
X183570570Y-107019285D02*
X183570570Y-106269285D01*
X183749142Y-106269285D01*
X183856285Y-106305000D01*
X183927713Y-106376428D01*
X183963427Y-106447857D01*
X183999142Y-106590714D01*
X183999142Y-106697857D01*
X183963427Y-106840714D01*
X183927713Y-106912142D01*
X183856285Y-106983571D01*
X183749142Y-107019285D01*
X183570570Y-107019285D01*
X184284856Y-106805000D02*
X184641999Y-106805000D01*
X184213427Y-107019285D02*
X184463427Y-106269285D01*
X184713427Y-107019285D01*
X182856284Y-104443571D02*
X182963427Y-104479285D01*
X183141999Y-104479285D01*
X183213427Y-104443571D01*
X183249142Y-104407857D01*
X183284856Y-104336428D01*
X183284856Y-104265000D01*
X183249142Y-104193571D01*
X183213427Y-104157857D01*
X183141999Y-104122142D01*
X182999142Y-104086428D01*
X182927713Y-104050714D01*
X182891999Y-104015000D01*
X182856284Y-103943571D01*
X182856284Y-103872142D01*
X182891999Y-103800714D01*
X182927713Y-103765000D01*
X182999142Y-103729285D01*
X183177713Y-103729285D01*
X183284856Y-103765000D01*
X184034856Y-104407857D02*
X183999142Y-104443571D01*
X183891999Y-104479285D01*
X183820570Y-104479285D01*
X183713427Y-104443571D01*
X183641999Y-104372142D01*
X183606284Y-104300714D01*
X183570570Y-104157857D01*
X183570570Y-104050714D01*
X183606284Y-103907857D01*
X183641999Y-103836428D01*
X183713427Y-103765000D01*
X183820570Y-103729285D01*
X183891999Y-103729285D01*
X183999142Y-103765000D01*
X184034856Y-103800714D01*
X184713427Y-104479285D02*
X184356284Y-104479285D01*
X184356284Y-103729285D01*
X179249142Y-101939285D02*
X179249142Y-101189285D01*
X179677714Y-101939285D02*
X179356285Y-101510714D01*
X179677714Y-101189285D02*
X179249142Y-101617857D01*
X180249142Y-101546428D02*
X180356285Y-101582142D01*
X180391999Y-101617857D01*
X180427714Y-101689285D01*
X180427714Y-101796428D01*
X180391999Y-101867857D01*
X180356285Y-101903571D01*
X180284856Y-101939285D01*
X179999142Y-101939285D01*
X179999142Y-101189285D01*
X180249142Y-101189285D01*
X180320571Y-101225000D01*
X180356285Y-101260714D01*
X180391999Y-101332142D01*
X180391999Y-101403571D01*
X180356285Y-101475000D01*
X180320571Y-101510714D01*
X180249142Y-101546428D01*
X179999142Y-101546428D01*
X180570571Y-102010714D02*
X181141999Y-102010714D01*
X181749142Y-101867857D02*
X181713428Y-101903571D01*
X181606285Y-101939285D01*
X181534856Y-101939285D01*
X181427714Y-101903571D01*
X181356285Y-101832142D01*
X181320571Y-101760714D01*
X181284856Y-101617857D01*
X181284856Y-101510714D01*
X181320571Y-101367857D01*
X181356285Y-101296428D01*
X181427714Y-101225000D01*
X181534856Y-101189285D01*
X181606285Y-101189285D01*
X181713428Y-101225000D01*
X181749142Y-101260714D01*
X182427714Y-101939285D02*
X182070571Y-101939285D01*
X182070571Y-101189285D01*
X182820571Y-101189285D02*
X182963428Y-101189285D01*
X183034856Y-101225000D01*
X183106285Y-101296428D01*
X183141999Y-101439285D01*
X183141999Y-101689285D01*
X183106285Y-101832142D01*
X183034856Y-101903571D01*
X182963428Y-101939285D01*
X182820571Y-101939285D01*
X182749142Y-101903571D01*
X182677714Y-101832142D01*
X182641999Y-101689285D01*
X182641999Y-101439285D01*
X182677714Y-101296428D01*
X182749142Y-101225000D01*
X182820571Y-101189285D01*
X183891999Y-101867857D02*
X183856285Y-101903571D01*
X183749142Y-101939285D01*
X183677714Y-101939285D01*
X183570571Y-101903571D01*
X183499142Y-101832142D01*
X183463428Y-101760714D01*
X183427714Y-101617857D01*
X183427714Y-101510714D01*
X183463428Y-101367857D01*
X183499142Y-101296428D01*
X183570571Y-101225000D01*
X183677714Y-101189285D01*
X183749142Y-101189285D01*
X183856285Y-101225000D01*
X183891999Y-101260714D01*
X184213428Y-101939285D02*
X184213428Y-101189285D01*
X184641999Y-101939285D02*
X184320571Y-101510714D01*
X184641999Y-101189285D02*
X184213428Y-101617857D01*
X180284856Y-99399285D02*
X180284856Y-98649285D01*
X180713428Y-99399285D02*
X180391999Y-98970714D01*
X180713428Y-98649285D02*
X180284856Y-99077857D01*
X181284856Y-99006428D02*
X181391999Y-99042142D01*
X181427713Y-99077857D01*
X181463428Y-99149285D01*
X181463428Y-99256428D01*
X181427713Y-99327857D01*
X181391999Y-99363571D01*
X181320571Y-99399285D01*
X181034856Y-99399285D01*
X181034856Y-98649285D01*
X181284856Y-98649285D01*
X181356285Y-98685000D01*
X181391999Y-98720714D01*
X181427713Y-98792142D01*
X181427713Y-98863571D01*
X181391999Y-98935000D01*
X181356285Y-98970714D01*
X181284856Y-99006428D01*
X181034856Y-99006428D01*
X181606285Y-99470714D02*
X182177713Y-99470714D01*
X182356285Y-99399285D02*
X182356285Y-98649285D01*
X182534856Y-98649285D01*
X182641999Y-98685000D01*
X182713428Y-98756428D01*
X182749142Y-98827857D01*
X182784856Y-98970714D01*
X182784856Y-99077857D01*
X182749142Y-99220714D01*
X182713428Y-99292142D01*
X182641999Y-99363571D01*
X182534856Y-99399285D01*
X182356285Y-99399285D01*
X183070571Y-99185000D02*
X183427713Y-99185000D01*
X182999142Y-99399285D02*
X183249142Y-98649285D01*
X183499142Y-99399285D01*
X183641999Y-98649285D02*
X184070571Y-98649285D01*
X183856285Y-99399285D02*
X183856285Y-98649285D01*
X184284856Y-99185000D02*
X184641999Y-99185000D01*
X184213428Y-99399285D02*
X184463428Y-98649285D01*
X184713428Y-99399285D01*
X182320570Y-96823571D02*
X182427713Y-96859285D01*
X182606285Y-96859285D01*
X182677713Y-96823571D01*
X182713427Y-96787857D01*
X182749142Y-96716428D01*
X182749142Y-96645000D01*
X182713427Y-96573571D01*
X182677713Y-96537857D01*
X182606285Y-96502142D01*
X182463427Y-96466428D01*
X182391999Y-96430714D01*
X182356285Y-96395000D01*
X182320570Y-96323571D01*
X182320570Y-96252142D01*
X182356285Y-96180714D01*
X182391999Y-96145000D01*
X182463427Y-96109285D01*
X182641999Y-96109285D01*
X182749142Y-96145000D01*
X182999142Y-96359285D02*
X183177713Y-96859285D01*
X183356285Y-96359285D02*
X183177713Y-96859285D01*
X183106285Y-97037857D01*
X183070570Y-97073571D01*
X182999142Y-97109285D01*
X183641999Y-96359285D02*
X183641999Y-96859285D01*
X183641999Y-96430714D02*
X183677713Y-96395000D01*
X183749142Y-96359285D01*
X183856285Y-96359285D01*
X183927713Y-96395000D01*
X183963427Y-96466428D01*
X183963427Y-96859285D01*
X184641999Y-96823571D02*
X184570570Y-96859285D01*
X184427713Y-96859285D01*
X184356285Y-96823571D01*
X184320570Y-96787857D01*
X184284856Y-96716428D01*
X184284856Y-96502142D01*
X184320570Y-96430714D01*
X184356285Y-96395000D01*
X184427713Y-96359285D01*
X184570570Y-96359285D01*
X184641999Y-96395000D01*
D12*
X179373845Y-93768690D02*
X179373845Y-93268690D01*
X179492892Y-93268690D01*
X179564321Y-93292500D01*
X179611940Y-93340119D01*
X179635749Y-93387738D01*
X179659559Y-93482976D01*
X179659559Y-93554404D01*
X179635749Y-93649642D01*
X179611940Y-93697261D01*
X179564321Y-93744880D01*
X179492892Y-93768690D01*
X179373845Y-93768690D01*
X179873845Y-93768690D02*
X179873845Y-93435357D01*
X179873845Y-93268690D02*
X179850035Y-93292500D01*
X179873845Y-93316309D01*
X179897654Y-93292500D01*
X179873845Y-93268690D01*
X179873845Y-93316309D01*
X180088130Y-93744880D02*
X180135749Y-93768690D01*
X180230987Y-93768690D01*
X180278607Y-93744880D01*
X180302416Y-93697261D01*
X180302416Y-93673452D01*
X180278607Y-93625833D01*
X180230987Y-93602023D01*
X180159559Y-93602023D01*
X180111940Y-93578214D01*
X180088130Y-93530595D01*
X180088130Y-93506785D01*
X180111940Y-93459166D01*
X180159559Y-93435357D01*
X180230987Y-93435357D01*
X180278607Y-93459166D01*
X180516702Y-93435357D02*
X180516702Y-93935357D01*
X180516702Y-93459166D02*
X180564321Y-93435357D01*
X180659559Y-93435357D01*
X180707178Y-93459166D01*
X180730987Y-93482976D01*
X180754797Y-93530595D01*
X180754797Y-93673452D01*
X180730987Y-93721071D01*
X180707178Y-93744880D01*
X180659559Y-93768690D01*
X180564321Y-93768690D01*
X180516702Y-93744880D01*
X181040511Y-93768690D02*
X180992892Y-93744880D01*
X180969083Y-93697261D01*
X180969083Y-93268690D01*
X181445273Y-93768690D02*
X181445273Y-93506785D01*
X181421464Y-93459166D01*
X181373845Y-93435357D01*
X181278607Y-93435357D01*
X181230987Y-93459166D01*
X181445273Y-93744880D02*
X181397654Y-93768690D01*
X181278607Y-93768690D01*
X181230987Y-93744880D01*
X181207178Y-93697261D01*
X181207178Y-93649642D01*
X181230987Y-93602023D01*
X181278607Y-93578214D01*
X181397654Y-93578214D01*
X181445273Y-93554404D01*
X181635749Y-93435357D02*
X181754797Y-93768690D01*
X181873845Y-93435357D02*
X181754797Y-93768690D01*
X181707178Y-93887738D01*
X181683368Y-93911547D01*
X181635749Y-93935357D01*
X182540511Y-93268690D02*
X182635749Y-93268690D01*
X182683368Y-93292500D01*
X182730987Y-93340119D01*
X182754797Y-93435357D01*
X182754797Y-93602023D01*
X182730987Y-93697261D01*
X182683368Y-93744880D01*
X182635749Y-93768690D01*
X182540511Y-93768690D01*
X182492892Y-93744880D01*
X182445273Y-93697261D01*
X182421464Y-93602023D01*
X182421464Y-93435357D01*
X182445273Y-93340119D01*
X182492892Y-93292500D01*
X182540511Y-93268690D01*
X183183368Y-93435357D02*
X183183368Y-93768690D01*
X182969083Y-93435357D02*
X182969083Y-93697261D01*
X182992892Y-93744880D01*
X183040511Y-93768690D01*
X183111940Y-93768690D01*
X183159559Y-93744880D01*
X183183368Y-93721071D01*
X183350035Y-93435357D02*
X183540511Y-93435357D01*
X183421464Y-93268690D02*
X183421464Y-93697261D01*
X183445273Y-93744880D01*
X183492892Y-93768690D01*
X183540511Y-93768690D01*
X183707178Y-93435357D02*
X183707178Y-93935357D01*
X183707178Y-93459166D02*
X183754797Y-93435357D01*
X183850035Y-93435357D01*
X183897654Y-93459166D01*
X183921464Y-93482976D01*
X183945273Y-93530595D01*
X183945273Y-93673452D01*
X183921464Y-93721071D01*
X183897654Y-93744880D01*
X183850035Y-93768690D01*
X183754797Y-93768690D01*
X183707178Y-93744880D01*
X184373845Y-93435357D02*
X184373845Y-93768690D01*
X184159559Y-93435357D02*
X184159559Y-93697261D01*
X184183368Y-93744880D01*
X184230987Y-93768690D01*
X184302416Y-93768690D01*
X184350035Y-93744880D01*
X184373845Y-93721071D01*
X184540511Y-93435357D02*
X184730987Y-93435357D01*
X184611940Y-93268690D02*
X184611940Y-93697261D01*
X184635749Y-93744880D01*
X184683368Y-93768690D01*
X184730987Y-93768690D01*
X181230987Y-94834166D02*
X181207178Y-94810357D01*
X181159559Y-94738928D01*
X181135749Y-94691309D01*
X181111940Y-94619880D01*
X181088130Y-94500833D01*
X181088130Y-94405595D01*
X181111940Y-94286547D01*
X181135749Y-94215119D01*
X181159559Y-94167500D01*
X181207178Y-94096071D01*
X181230987Y-94072261D01*
X181588130Y-94381785D02*
X181659559Y-94405595D01*
X181683368Y-94429404D01*
X181707178Y-94477023D01*
X181707178Y-94548452D01*
X181683368Y-94596071D01*
X181659559Y-94619880D01*
X181611940Y-94643690D01*
X181421464Y-94643690D01*
X181421464Y-94143690D01*
X181588130Y-94143690D01*
X181635749Y-94167500D01*
X181659559Y-94191309D01*
X181683368Y-94238928D01*
X181683368Y-94286547D01*
X181659559Y-94334166D01*
X181635749Y-94357976D01*
X181588130Y-94381785D01*
X181421464Y-94381785D01*
X182135749Y-94310357D02*
X182135749Y-94643690D01*
X181921464Y-94310357D02*
X181921464Y-94572261D01*
X181945273Y-94619880D01*
X181992892Y-94643690D01*
X182064321Y-94643690D01*
X182111940Y-94619880D01*
X182135749Y-94596071D01*
X182302416Y-94310357D02*
X182492892Y-94310357D01*
X182373845Y-94643690D02*
X182373845Y-94215119D01*
X182397654Y-94167500D01*
X182445273Y-94143690D01*
X182492892Y-94143690D01*
X182588130Y-94310357D02*
X182778607Y-94310357D01*
X182659559Y-94643690D02*
X182659559Y-94215119D01*
X182683368Y-94167500D01*
X182730987Y-94143690D01*
X182778607Y-94143690D01*
X183135749Y-94619880D02*
X183088130Y-94643690D01*
X182992892Y-94643690D01*
X182945273Y-94619880D01*
X182921464Y-94572261D01*
X182921464Y-94381785D01*
X182945273Y-94334166D01*
X182992892Y-94310357D01*
X183088130Y-94310357D01*
X183135749Y-94334166D01*
X183159559Y-94381785D01*
X183159559Y-94429404D01*
X182921464Y-94477023D01*
X183373845Y-94643690D02*
X183373845Y-94310357D01*
X183373845Y-94405595D02*
X183397654Y-94357976D01*
X183421464Y-94334166D01*
X183469083Y-94310357D01*
X183516702Y-94310357D01*
X183873845Y-94619880D02*
X183826226Y-94643690D01*
X183730987Y-94643690D01*
X183683368Y-94619880D01*
X183659559Y-94572261D01*
X183659559Y-94381785D01*
X183683368Y-94334166D01*
X183730987Y-94310357D01*
X183826226Y-94310357D01*
X183873845Y-94334166D01*
X183897654Y-94381785D01*
X183897654Y-94429404D01*
X183659559Y-94477023D01*
X184326226Y-94643690D02*
X184326226Y-94143690D01*
X184326226Y-94619880D02*
X184278607Y-94643690D01*
X184183368Y-94643690D01*
X184135749Y-94619880D01*
X184111940Y-94596071D01*
X184088130Y-94548452D01*
X184088130Y-94405595D01*
X184111940Y-94357976D01*
X184135749Y-94334166D01*
X184183368Y-94310357D01*
X184278607Y-94310357D01*
X184326226Y-94334166D01*
X184516702Y-94834166D02*
X184540511Y-94810357D01*
X184588130Y-94738928D01*
X184611940Y-94691309D01*
X184635749Y-94619880D01*
X184659559Y-94500833D01*
X184659559Y-94405595D01*
X184635749Y-94286547D01*
X184611940Y-94215119D01*
X184588130Y-94167500D01*
X184540511Y-94096071D01*
X184516702Y-94072261D01*
D10*
X180905214Y-91141785D02*
X180905214Y-90391785D01*
X181083785Y-90391785D01*
X181190928Y-90427500D01*
X181262357Y-90498928D01*
X181298071Y-90570357D01*
X181333785Y-90713214D01*
X181333785Y-90820357D01*
X181298071Y-90963214D01*
X181262357Y-91034642D01*
X181190928Y-91106071D01*
X181083785Y-91141785D01*
X180905214Y-91141785D01*
X181655214Y-91141785D02*
X181655214Y-90641785D01*
X181655214Y-90391785D02*
X181619499Y-90427500D01*
X181655214Y-90463214D01*
X181690928Y-90427500D01*
X181655214Y-90391785D01*
X181655214Y-90463214D01*
X181976642Y-91106071D02*
X182048071Y-91141785D01*
X182190928Y-91141785D01*
X182262357Y-91106071D01*
X182298071Y-91034642D01*
X182298071Y-90998928D01*
X182262357Y-90927500D01*
X182190928Y-90891785D01*
X182083785Y-90891785D01*
X182012357Y-90856071D01*
X181976642Y-90784642D01*
X181976642Y-90748928D01*
X182012357Y-90677500D01*
X182083785Y-90641785D01*
X182190928Y-90641785D01*
X182262357Y-90677500D01*
X182619499Y-90641785D02*
X182619499Y-91391785D01*
X182619499Y-90677500D02*
X182690928Y-90641785D01*
X182833785Y-90641785D01*
X182905214Y-90677500D01*
X182940928Y-90713214D01*
X182976642Y-90784642D01*
X182976642Y-90998928D01*
X182940928Y-91070357D01*
X182905214Y-91106071D01*
X182833785Y-91141785D01*
X182690928Y-91141785D01*
X182619499Y-91106071D01*
X183405214Y-91141785D02*
X183333785Y-91106071D01*
X183298071Y-91034642D01*
X183298071Y-90391785D01*
X184012357Y-91141785D02*
X184012357Y-90748928D01*
X183976642Y-90677500D01*
X183905214Y-90641785D01*
X183762357Y-90641785D01*
X183690928Y-90677500D01*
X184012357Y-91106071D02*
X183940928Y-91141785D01*
X183762357Y-91141785D01*
X183690928Y-91106071D01*
X183655214Y-91034642D01*
X183655214Y-90963214D01*
X183690928Y-90891785D01*
X183762357Y-90856071D01*
X183940928Y-90856071D01*
X184012357Y-90820357D01*
X184298071Y-90641785D02*
X184476642Y-91141785D01*
X184655214Y-90641785D02*
X184476642Y-91141785D01*
X184405214Y-91320357D01*
X184369499Y-91356071D01*
X184298071Y-91391785D01*
X181405214Y-91666785D02*
X181548071Y-91666785D01*
X181619499Y-91702500D01*
X181690928Y-91773928D01*
X181726642Y-91916785D01*
X181726642Y-92166785D01*
X181690928Y-92309642D01*
X181619499Y-92381071D01*
X181548071Y-92416785D01*
X181405214Y-92416785D01*
X181333785Y-92381071D01*
X181262357Y-92309642D01*
X181226642Y-92166785D01*
X181226642Y-91916785D01*
X181262357Y-91773928D01*
X181333785Y-91702500D01*
X181405214Y-91666785D01*
X182369499Y-91916785D02*
X182369499Y-92416785D01*
X182048071Y-91916785D02*
X182048071Y-92309642D01*
X182083785Y-92381071D01*
X182155214Y-92416785D01*
X182262357Y-92416785D01*
X182333785Y-92381071D01*
X182369499Y-92345357D01*
X182619499Y-91916785D02*
X182905214Y-91916785D01*
X182726642Y-91666785D02*
X182726642Y-92309642D01*
X182762357Y-92381071D01*
X182833785Y-92416785D01*
X182905214Y-92416785D01*
X183155214Y-91916785D02*
X183155214Y-92666785D01*
X183155214Y-91952500D02*
X183226642Y-91916785D01*
X183369499Y-91916785D01*
X183440928Y-91952500D01*
X183476642Y-91988214D01*
X183512357Y-92059642D01*
X183512357Y-92273928D01*
X183476642Y-92345357D01*
X183440928Y-92381071D01*
X183369499Y-92416785D01*
X183226642Y-92416785D01*
X183155214Y-92381071D01*
X184155214Y-91916785D02*
X184155214Y-92416785D01*
X183833785Y-91916785D02*
X183833785Y-92309642D01*
X183869499Y-92381071D01*
X183940928Y-92416785D01*
X184048071Y-92416785D01*
X184119499Y-92381071D01*
X184155214Y-92345357D01*
X184405214Y-91916785D02*
X184690928Y-91916785D01*
X184512357Y-91666785D02*
X184512357Y-92309642D01*
X184548071Y-92381071D01*
X184619499Y-92416785D01*
X184690928Y-92416785D01*
X200693928Y-98988571D02*
X200360595Y-98988571D01*
X200360595Y-99512380D02*
X200360595Y-98512380D01*
X200836785Y-98512380D01*
X201217738Y-99512380D02*
X201217738Y-98845714D01*
X201217738Y-99036190D02*
X201265357Y-98940952D01*
X201312976Y-98893333D01*
X201408214Y-98845714D01*
X201503452Y-98845714D01*
X201979642Y-99512380D02*
X201884404Y-99464761D01*
X201836785Y-99417142D01*
X201789166Y-99321904D01*
X201789166Y-99036190D01*
X201836785Y-98940952D01*
X201884404Y-98893333D01*
X201979642Y-98845714D01*
X202122500Y-98845714D01*
X202217738Y-98893333D01*
X202265357Y-98940952D01*
X202312976Y-99036190D01*
X202312976Y-99321904D01*
X202265357Y-99417142D01*
X202217738Y-99464761D01*
X202122500Y-99512380D01*
X201979642Y-99512380D01*
X202741547Y-99512380D02*
X202741547Y-98845714D01*
X202741547Y-98940952D02*
X202789166Y-98893333D01*
X202884404Y-98845714D01*
X203027261Y-98845714D01*
X203122500Y-98893333D01*
X203170119Y-98988571D01*
X203170119Y-99512380D01*
X203170119Y-98988571D02*
X203217738Y-98893333D01*
X203312976Y-98845714D01*
X203455833Y-98845714D01*
X203551071Y-98893333D01*
X203598690Y-98988571D01*
X203598690Y-99512380D01*
X204789166Y-99226666D02*
X205265357Y-99226666D01*
X204693928Y-99512380D02*
X205027261Y-98512380D01*
X205360595Y-99512380D01*
X205693928Y-99512380D02*
X205693928Y-98845714D01*
X205693928Y-98940952D02*
X205741547Y-98893333D01*
X205836785Y-98845714D01*
X205979642Y-98845714D01*
X206074880Y-98893333D01*
X206122500Y-98988571D01*
X206122500Y-99512380D01*
X206122500Y-98988571D02*
X206170119Y-98893333D01*
X206265357Y-98845714D01*
X206408214Y-98845714D01*
X206503452Y-98893333D01*
X206551071Y-98988571D01*
X206551071Y-99512380D01*
X207027261Y-99512380D02*
X207027261Y-98845714D01*
X207027261Y-98512380D02*
X206979642Y-98560000D01*
X207027261Y-98607619D01*
X207074880Y-98560000D01*
X207027261Y-98512380D01*
X207027261Y-98607619D01*
X207932023Y-98845714D02*
X207932023Y-99655238D01*
X207884404Y-99750476D01*
X207836785Y-99798095D01*
X207741547Y-99845714D01*
X207598690Y-99845714D01*
X207503452Y-99798095D01*
X207932023Y-99464761D02*
X207836785Y-99512380D01*
X207646309Y-99512380D01*
X207551071Y-99464761D01*
X207503452Y-99417142D01*
X207455833Y-99321904D01*
X207455833Y-99036190D01*
X207503452Y-98940952D01*
X207551071Y-98893333D01*
X207646309Y-98845714D01*
X207836785Y-98845714D01*
X207932023Y-98893333D01*
X208836785Y-99512380D02*
X208836785Y-98988571D01*
X208789166Y-98893333D01*
X208693928Y-98845714D01*
X208503452Y-98845714D01*
X208408214Y-98893333D01*
X208836785Y-99464761D02*
X208741547Y-99512380D01*
X208503452Y-99512380D01*
X208408214Y-99464761D01*
X208360595Y-99369523D01*
X208360595Y-99274285D01*
X208408214Y-99179047D01*
X208503452Y-99131428D01*
X208741547Y-99131428D01*
X208836785Y-99083809D01*
X198247047Y-102393333D02*
X198342285Y-102393333D01*
X198532761Y-102202857D01*
X198628000Y-101821904D01*
X198628000Y-99917142D01*
X198723238Y-99536190D01*
X198913714Y-99345714D01*
X198723238Y-99155238D01*
X198628000Y-98774285D01*
X198628000Y-96869523D01*
X198532761Y-96488571D01*
X198342285Y-96298095D01*
X198247047Y-96298095D01*
X210250738Y-90258380D02*
X210822166Y-90258380D01*
X210536452Y-91258380D02*
X210536452Y-90258380D01*
X211298357Y-91258380D02*
X211203119Y-91210761D01*
X211155500Y-91163142D01*
X211107880Y-91067904D01*
X211107880Y-90782190D01*
X211155500Y-90686952D01*
X211203119Y-90639333D01*
X211298357Y-90591714D01*
X211441214Y-90591714D01*
X211536452Y-90639333D01*
X211584071Y-90686952D01*
X211631690Y-90782190D01*
X211631690Y-91067904D01*
X211584071Y-91163142D01*
X211536452Y-91210761D01*
X211441214Y-91258380D01*
X211298357Y-91258380D01*
X212774547Y-90972666D02*
X213250738Y-90972666D01*
X212679309Y-91258380D02*
X213012642Y-90258380D01*
X213345976Y-91258380D01*
X213679309Y-91258380D02*
X213679309Y-90591714D01*
X213679309Y-90686952D02*
X213726928Y-90639333D01*
X213822166Y-90591714D01*
X213965023Y-90591714D01*
X214060261Y-90639333D01*
X214107880Y-90734571D01*
X214107880Y-91258380D01*
X214107880Y-90734571D02*
X214155500Y-90639333D01*
X214250738Y-90591714D01*
X214393595Y-90591714D01*
X214488833Y-90639333D01*
X214536452Y-90734571D01*
X214536452Y-91258380D01*
X215012642Y-91258380D02*
X215012642Y-90591714D01*
X215012642Y-90258380D02*
X214965023Y-90306000D01*
X215012642Y-90353619D01*
X215060261Y-90306000D01*
X215012642Y-90258380D01*
X215012642Y-90353619D01*
X215917404Y-90591714D02*
X215917404Y-91401238D01*
X215869785Y-91496476D01*
X215822166Y-91544095D01*
X215726928Y-91591714D01*
X215584071Y-91591714D01*
X215488833Y-91544095D01*
X215917404Y-91210761D02*
X215822166Y-91258380D01*
X215631690Y-91258380D01*
X215536452Y-91210761D01*
X215488833Y-91163142D01*
X215441214Y-91067904D01*
X215441214Y-90782190D01*
X215488833Y-90686952D01*
X215536452Y-90639333D01*
X215631690Y-90591714D01*
X215822166Y-90591714D01*
X215917404Y-90639333D01*
X216822166Y-91258380D02*
X216822166Y-90734571D01*
X216774547Y-90639333D01*
X216679309Y-90591714D01*
X216488833Y-90591714D01*
X216393595Y-90639333D01*
X216822166Y-91210761D02*
X216726928Y-91258380D01*
X216488833Y-91258380D01*
X216393595Y-91210761D01*
X216345976Y-91115523D01*
X216345976Y-91020285D01*
X216393595Y-90925047D01*
X216488833Y-90877428D01*
X216726928Y-90877428D01*
X216822166Y-90829809D01*
X217298357Y-91163142D02*
X217345976Y-91210761D01*
X217298357Y-91258380D01*
X217250738Y-91210761D01*
X217298357Y-91163142D01*
X217298357Y-91258380D01*
X217298357Y-90639333D02*
X217345976Y-90686952D01*
X217298357Y-90734571D01*
X217250738Y-90686952D01*
X217298357Y-90639333D01*
X217298357Y-90734571D01*
X210393595Y-91908380D02*
X210393595Y-92717904D01*
X210441214Y-92813142D01*
X210488833Y-92860761D01*
X210584071Y-92908380D01*
X210774547Y-92908380D01*
X210869785Y-92860761D01*
X210917404Y-92813142D01*
X210965023Y-92717904D01*
X210965023Y-91908380D01*
X211393595Y-92860761D02*
X211488833Y-92908380D01*
X211679309Y-92908380D01*
X211774547Y-92860761D01*
X211822166Y-92765523D01*
X211822166Y-92717904D01*
X211774547Y-92622666D01*
X211679309Y-92575047D01*
X211536452Y-92575047D01*
X211441214Y-92527428D01*
X211393595Y-92432190D01*
X211393595Y-92384571D01*
X211441214Y-92289333D01*
X211536452Y-92241714D01*
X211679309Y-92241714D01*
X211774547Y-92289333D01*
X212631690Y-92860761D02*
X212536452Y-92908380D01*
X212345976Y-92908380D01*
X212250738Y-92860761D01*
X212203119Y-92765523D01*
X212203119Y-92384571D01*
X212250738Y-92289333D01*
X212345976Y-92241714D01*
X212536452Y-92241714D01*
X212631690Y-92289333D01*
X212679309Y-92384571D01*
X212679309Y-92479809D01*
X212203119Y-92575047D01*
X214203119Y-92384571D02*
X214345976Y-92432190D01*
X214393595Y-92479809D01*
X214441214Y-92575047D01*
X214441214Y-92717904D01*
X214393595Y-92813142D01*
X214345976Y-92860761D01*
X214250738Y-92908380D01*
X213869785Y-92908380D01*
X213869785Y-91908380D01*
X214203119Y-91908380D01*
X214298357Y-91956000D01*
X214345976Y-92003619D01*
X214393595Y-92098857D01*
X214393595Y-92194095D01*
X214345976Y-92289333D01*
X214298357Y-92336952D01*
X214203119Y-92384571D01*
X213869785Y-92384571D01*
X215298357Y-92241714D02*
X215298357Y-92908380D01*
X214869785Y-92241714D02*
X214869785Y-92765523D01*
X214917404Y-92860761D01*
X215012642Y-92908380D01*
X215155500Y-92908380D01*
X215250738Y-92860761D01*
X215298357Y-92813142D01*
X215631690Y-92241714D02*
X216012642Y-92241714D01*
X215774547Y-92908380D02*
X215774547Y-92051238D01*
X215822166Y-91956000D01*
X215917404Y-91908380D01*
X216012642Y-91908380D01*
X216203119Y-92241714D02*
X216584071Y-92241714D01*
X216345976Y-92908380D02*
X216345976Y-92051238D01*
X216393595Y-91956000D01*
X216488833Y-91908380D01*
X216584071Y-91908380D01*
X217298357Y-92860761D02*
X217203119Y-92908380D01*
X217012642Y-92908380D01*
X216917404Y-92860761D01*
X216869785Y-92765523D01*
X216869785Y-92384571D01*
X216917404Y-92289333D01*
X217012642Y-92241714D01*
X217203119Y-92241714D01*
X217298357Y-92289333D01*
X217345976Y-92384571D01*
X217345976Y-92479809D01*
X216869785Y-92575047D01*
X217774547Y-92908380D02*
X217774547Y-92241714D01*
X217774547Y-92432190D02*
X217822166Y-92336952D01*
X217869785Y-92289333D01*
X217965023Y-92241714D01*
X218060261Y-92241714D01*
X218774547Y-92860761D02*
X218679309Y-92908380D01*
X218488833Y-92908380D01*
X218393595Y-92860761D01*
X218345976Y-92765523D01*
X218345976Y-92384571D01*
X218393595Y-92289333D01*
X218488833Y-92241714D01*
X218679309Y-92241714D01*
X218774547Y-92289333D01*
X218822166Y-92384571D01*
X218822166Y-92479809D01*
X218345976Y-92575047D01*
X219679309Y-92908380D02*
X219679309Y-91908380D01*
X219679309Y-92860761D02*
X219584071Y-92908380D01*
X219393595Y-92908380D01*
X219298357Y-92860761D01*
X219250738Y-92813142D01*
X219203119Y-92717904D01*
X219203119Y-92432190D01*
X219250738Y-92336952D01*
X219298357Y-92289333D01*
X219393595Y-92241714D01*
X219584071Y-92241714D01*
X219679309Y-92289333D01*
X220917404Y-92908380D02*
X220917404Y-91908380D01*
X221155500Y-91908380D01*
X221298357Y-91956000D01*
X221393595Y-92051238D01*
X221441214Y-92146476D01*
X221488833Y-92336952D01*
X221488833Y-92479809D01*
X221441214Y-92670285D01*
X221393595Y-92765523D01*
X221298357Y-92860761D01*
X221155500Y-92908380D01*
X220917404Y-92908380D01*
X221917404Y-92908380D02*
X221917404Y-92241714D01*
X221917404Y-91908380D02*
X221869785Y-91956000D01*
X221917404Y-92003619D01*
X221965023Y-91956000D01*
X221917404Y-91908380D01*
X221917404Y-92003619D01*
X222345976Y-92860761D02*
X222441214Y-92908380D01*
X222631690Y-92908380D01*
X222726928Y-92860761D01*
X222774547Y-92765523D01*
X222774547Y-92717904D01*
X222726928Y-92622666D01*
X222631690Y-92575047D01*
X222488833Y-92575047D01*
X222393595Y-92527428D01*
X222345976Y-92432190D01*
X222345976Y-92384571D01*
X222393595Y-92289333D01*
X222488833Y-92241714D01*
X222631690Y-92241714D01*
X222726928Y-92289333D01*
X223203119Y-92241714D02*
X223203119Y-93241714D01*
X223203119Y-92289333D02*
X223298357Y-92241714D01*
X223488833Y-92241714D01*
X223584071Y-92289333D01*
X223631690Y-92336952D01*
X223679309Y-92432190D01*
X223679309Y-92717904D01*
X223631690Y-92813142D01*
X223584071Y-92860761D01*
X223488833Y-92908380D01*
X223298357Y-92908380D01*
X223203119Y-92860761D01*
X224250738Y-92908380D02*
X224155500Y-92860761D01*
X224107880Y-92765523D01*
X224107880Y-91908380D01*
X225060261Y-92908380D02*
X225060261Y-92384571D01*
X225012642Y-92289333D01*
X224917404Y-92241714D01*
X224726928Y-92241714D01*
X224631690Y-92289333D01*
X225060261Y-92860761D02*
X224965023Y-92908380D01*
X224726928Y-92908380D01*
X224631690Y-92860761D01*
X224584071Y-92765523D01*
X224584071Y-92670285D01*
X224631690Y-92575047D01*
X224726928Y-92527428D01*
X224965023Y-92527428D01*
X225060261Y-92479809D01*
X225441214Y-92241714D02*
X225679309Y-92908380D01*
X225917404Y-92241714D02*
X225679309Y-92908380D01*
X225584071Y-93146476D01*
X225536452Y-93194095D01*
X225441214Y-93241714D01*
X227250738Y-91908380D02*
X227441214Y-91908380D01*
X227536452Y-91956000D01*
X227631690Y-92051238D01*
X227679309Y-92241714D01*
X227679309Y-92575047D01*
X227631690Y-92765523D01*
X227536452Y-92860761D01*
X227441214Y-92908380D01*
X227250738Y-92908380D01*
X227155500Y-92860761D01*
X227060261Y-92765523D01*
X227012642Y-92575047D01*
X227012642Y-92241714D01*
X227060261Y-92051238D01*
X227155500Y-91956000D01*
X227250738Y-91908380D01*
X228536452Y-92241714D02*
X228536452Y-92908380D01*
X228107880Y-92241714D02*
X228107880Y-92765523D01*
X228155500Y-92860761D01*
X228250738Y-92908380D01*
X228393595Y-92908380D01*
X228488833Y-92860761D01*
X228536452Y-92813142D01*
X228869785Y-92241714D02*
X229250738Y-92241714D01*
X229012642Y-91908380D02*
X229012642Y-92765523D01*
X229060261Y-92860761D01*
X229155500Y-92908380D01*
X229250738Y-92908380D01*
X229584071Y-92241714D02*
X229584071Y-93241714D01*
X229584071Y-92289333D02*
X229679309Y-92241714D01*
X229869785Y-92241714D01*
X229965023Y-92289333D01*
X230012642Y-92336952D01*
X230060261Y-92432190D01*
X230060261Y-92717904D01*
X230012642Y-92813142D01*
X229965023Y-92860761D01*
X229869785Y-92908380D01*
X229679309Y-92908380D01*
X229584071Y-92860761D01*
X230917404Y-92241714D02*
X230917404Y-92908380D01*
X230488833Y-92241714D02*
X230488833Y-92765523D01*
X230536452Y-92860761D01*
X230631690Y-92908380D01*
X230774547Y-92908380D01*
X230869785Y-92860761D01*
X230917404Y-92813142D01*
X231250738Y-92241714D02*
X231631690Y-92241714D01*
X231393595Y-91908380D02*
X231393595Y-92765523D01*
X231441214Y-92860761D01*
X231536452Y-92908380D01*
X231631690Y-92908380D01*
X232726928Y-92908380D02*
X232726928Y-92241714D01*
X232726928Y-91908380D02*
X232679309Y-91956000D01*
X232726928Y-92003619D01*
X232774547Y-91956000D01*
X232726928Y-91908380D01*
X232726928Y-92003619D01*
X233060261Y-92241714D02*
X233441214Y-92241714D01*
X233203119Y-92908380D02*
X233203119Y-92051238D01*
X233250738Y-91956000D01*
X233345976Y-91908380D01*
X233441214Y-91908380D01*
X210822166Y-94510761D02*
X210726928Y-94558380D01*
X210536452Y-94558380D01*
X210441214Y-94510761D01*
X210393595Y-94463142D01*
X210345976Y-94367904D01*
X210345976Y-94082190D01*
X210393595Y-93986952D01*
X210441214Y-93939333D01*
X210536452Y-93891714D01*
X210726928Y-93891714D01*
X210822166Y-93939333D01*
X211393595Y-94558380D02*
X211298357Y-94510761D01*
X211250738Y-94463142D01*
X211203119Y-94367904D01*
X211203119Y-94082190D01*
X211250738Y-93986952D01*
X211298357Y-93939333D01*
X211393595Y-93891714D01*
X211536452Y-93891714D01*
X211631690Y-93939333D01*
X211679309Y-93986952D01*
X211726928Y-94082190D01*
X211726928Y-94367904D01*
X211679309Y-94463142D01*
X211631690Y-94510761D01*
X211536452Y-94558380D01*
X211393595Y-94558380D01*
X212155500Y-93891714D02*
X212155500Y-94558380D01*
X212155500Y-93986952D02*
X212203119Y-93939333D01*
X212298357Y-93891714D01*
X212441214Y-93891714D01*
X212536452Y-93939333D01*
X212584071Y-94034571D01*
X212584071Y-94558380D01*
X213060261Y-93891714D02*
X213060261Y-94558380D01*
X213060261Y-93986952D02*
X213107880Y-93939333D01*
X213203119Y-93891714D01*
X213345976Y-93891714D01*
X213441214Y-93939333D01*
X213488833Y-94034571D01*
X213488833Y-94558380D01*
X214345976Y-94510761D02*
X214250738Y-94558380D01*
X214060261Y-94558380D01*
X213965023Y-94510761D01*
X213917404Y-94415523D01*
X213917404Y-94034571D01*
X213965023Y-93939333D01*
X214060261Y-93891714D01*
X214250738Y-93891714D01*
X214345976Y-93939333D01*
X214393595Y-94034571D01*
X214393595Y-94129809D01*
X213917404Y-94225047D01*
X215250738Y-94510761D02*
X215155500Y-94558380D01*
X214965023Y-94558380D01*
X214869785Y-94510761D01*
X214822166Y-94463142D01*
X214774547Y-94367904D01*
X214774547Y-94082190D01*
X214822166Y-93986952D01*
X214869785Y-93939333D01*
X214965023Y-93891714D01*
X215155500Y-93891714D01*
X215250738Y-93939333D01*
X215536452Y-93891714D02*
X215917404Y-93891714D01*
X215679309Y-93558380D02*
X215679309Y-94415523D01*
X215726928Y-94510761D01*
X215822166Y-94558380D01*
X215917404Y-94558380D01*
X216631690Y-94510761D02*
X216536452Y-94558380D01*
X216345976Y-94558380D01*
X216250738Y-94510761D01*
X216203119Y-94415523D01*
X216203119Y-94034571D01*
X216250738Y-93939333D01*
X216345976Y-93891714D01*
X216536452Y-93891714D01*
X216631690Y-93939333D01*
X216679309Y-94034571D01*
X216679309Y-94129809D01*
X216203119Y-94225047D01*
X217536452Y-94558380D02*
X217536452Y-93558380D01*
X217536452Y-94510761D02*
X217441214Y-94558380D01*
X217250738Y-94558380D01*
X217155500Y-94510761D01*
X217107880Y-94463142D01*
X217060261Y-94367904D01*
X217060261Y-94082190D01*
X217107880Y-93986952D01*
X217155500Y-93939333D01*
X217250738Y-93891714D01*
X217441214Y-93891714D01*
X217536452Y-93939333D01*
X218631690Y-93891714D02*
X219012642Y-93891714D01*
X218774547Y-93558380D02*
X218774547Y-94415523D01*
X218822166Y-94510761D01*
X218917404Y-94558380D01*
X219012642Y-94558380D01*
X219488833Y-94558380D02*
X219393595Y-94510761D01*
X219345976Y-94463142D01*
X219298357Y-94367904D01*
X219298357Y-94082190D01*
X219345976Y-93986952D01*
X219393595Y-93939333D01*
X219488833Y-93891714D01*
X219631690Y-93891714D01*
X219726928Y-93939333D01*
X219774547Y-93986952D01*
X219822166Y-94082190D01*
X219822166Y-94367904D01*
X219774547Y-94463142D01*
X219726928Y-94510761D01*
X219631690Y-94558380D01*
X219488833Y-94558380D01*
X221584071Y-94558380D02*
X221250738Y-94082190D01*
X221012642Y-94558380D02*
X221012642Y-93558380D01*
X221393595Y-93558380D01*
X221488833Y-93606000D01*
X221536452Y-93653619D01*
X221584071Y-93748857D01*
X221584071Y-93891714D01*
X221536452Y-93986952D01*
X221488833Y-94034571D01*
X221393595Y-94082190D01*
X221012642Y-94082190D01*
X222536452Y-93606000D02*
X222441214Y-93558380D01*
X222298357Y-93558380D01*
X222155500Y-93606000D01*
X222060261Y-93701238D01*
X222012642Y-93796476D01*
X221965023Y-93986952D01*
X221965023Y-94129809D01*
X222012642Y-94320285D01*
X222060261Y-94415523D01*
X222155500Y-94510761D01*
X222298357Y-94558380D01*
X222393595Y-94558380D01*
X222536452Y-94510761D01*
X222584071Y-94463142D01*
X222584071Y-94129809D01*
X222393595Y-94129809D01*
X223345976Y-94034571D02*
X223488833Y-94082190D01*
X223536452Y-94129809D01*
X223584071Y-94225047D01*
X223584071Y-94367904D01*
X223536452Y-94463142D01*
X223488833Y-94510761D01*
X223393595Y-94558380D01*
X223012642Y-94558380D01*
X223012642Y-93558380D01*
X223345976Y-93558380D01*
X223441214Y-93606000D01*
X223488833Y-93653619D01*
X223536452Y-93748857D01*
X223536452Y-93844095D01*
X223488833Y-93939333D01*
X223441214Y-93986952D01*
X223345976Y-94034571D01*
X223012642Y-94034571D01*
X223869785Y-93891714D02*
X224250738Y-93891714D01*
X224012642Y-93558380D02*
X224012642Y-94415523D01*
X224060261Y-94510761D01*
X224155500Y-94558380D01*
X224250738Y-94558380D01*
X224726928Y-94558380D02*
X224631690Y-94510761D01*
X224584071Y-94463142D01*
X224536452Y-94367904D01*
X224536452Y-94082190D01*
X224584071Y-93986952D01*
X224631690Y-93939333D01*
X224726928Y-93891714D01*
X224869785Y-93891714D01*
X224965023Y-93939333D01*
X225012642Y-93986952D01*
X225060261Y-94082190D01*
X225060261Y-94367904D01*
X225012642Y-94463142D01*
X224965023Y-94510761D01*
X224869785Y-94558380D01*
X224726928Y-94558380D01*
X225488833Y-94558380D02*
X225488833Y-93558380D01*
X225488833Y-94034571D02*
X226060261Y-94034571D01*
X226060261Y-94558380D02*
X226060261Y-93558380D01*
X226536452Y-94558380D02*
X226536452Y-93558380D01*
X226774547Y-93558380D01*
X226917404Y-93606000D01*
X227012642Y-93701238D01*
X227060261Y-93796476D01*
X227107880Y-93986952D01*
X227107880Y-94129809D01*
X227060261Y-94320285D01*
X227012642Y-94415523D01*
X226917404Y-94510761D01*
X226774547Y-94558380D01*
X226536452Y-94558380D01*
X227536452Y-94558380D02*
X227536452Y-93558380D01*
X227869785Y-94272666D01*
X228203119Y-93558380D01*
X228203119Y-94558380D01*
X228679309Y-94558380D02*
X228679309Y-93558380D01*
X208407047Y-94956000D02*
X208502285Y-94956000D01*
X208692761Y-94813142D01*
X208788000Y-94527428D01*
X208788000Y-93098857D01*
X208883238Y-92813142D01*
X209073714Y-92670285D01*
X208883238Y-92527428D01*
X208788000Y-92241714D01*
X208788000Y-90813142D01*
X208692761Y-90527428D01*
X208502285Y-90384571D01*
X208407047Y-90384571D01*
X83375380Y-89735000D02*
X83137285Y-89735000D01*
X82661095Y-90449285D01*
X82423000Y-91877857D01*
X82423000Y-99020714D01*
X82184904Y-100449285D01*
X81708714Y-101163571D01*
X82184904Y-101877857D01*
X82423000Y-103306428D01*
X82423000Y-110449285D01*
X82661095Y-111877857D01*
X83137285Y-112592142D01*
X83375380Y-112592142D01*
X84989285Y-98988571D02*
X85132143Y-99036190D01*
X85179762Y-99083809D01*
X85227381Y-99179047D01*
X85227381Y-99321904D01*
X85179762Y-99417142D01*
X85132143Y-99464761D01*
X85036904Y-99512380D01*
X84655952Y-99512380D01*
X84655952Y-98512380D01*
X84989285Y-98512380D01*
X85084524Y-98560000D01*
X85132143Y-98607619D01*
X85179762Y-98702857D01*
X85179762Y-98798095D01*
X85132143Y-98893333D01*
X85084524Y-98940952D01*
X84989285Y-98988571D01*
X84655952Y-98988571D01*
X86084524Y-98845714D02*
X86084524Y-99512380D01*
X85655952Y-98845714D02*
X85655952Y-99369523D01*
X85703571Y-99464761D01*
X85798809Y-99512380D01*
X85941666Y-99512380D01*
X86036904Y-99464761D01*
X86084524Y-99417142D01*
X86417857Y-98845714D02*
X86798809Y-98845714D01*
X86560714Y-99512380D02*
X86560714Y-98655238D01*
X86608333Y-98560000D01*
X86703571Y-98512380D01*
X86798809Y-98512380D01*
X86989285Y-98845714D02*
X87370238Y-98845714D01*
X87132143Y-99512380D02*
X87132143Y-98655238D01*
X87179762Y-98560000D01*
X87275000Y-98512380D01*
X87370238Y-98512380D01*
X88084524Y-99464761D02*
X87989285Y-99512380D01*
X87798809Y-99512380D01*
X87703571Y-99464761D01*
X87655952Y-99369523D01*
X87655952Y-98988571D01*
X87703571Y-98893333D01*
X87798809Y-98845714D01*
X87989285Y-98845714D01*
X88084524Y-98893333D01*
X88132143Y-98988571D01*
X88132143Y-99083809D01*
X87655952Y-99179047D01*
X88560714Y-99512380D02*
X88560714Y-98845714D01*
X88560714Y-99036190D02*
X88608333Y-98940952D01*
X88655952Y-98893333D01*
X88751190Y-98845714D01*
X88846428Y-98845714D01*
X89560714Y-99464761D02*
X89465476Y-99512380D01*
X89275000Y-99512380D01*
X89179762Y-99464761D01*
X89132143Y-99369523D01*
X89132143Y-98988571D01*
X89179762Y-98893333D01*
X89275000Y-98845714D01*
X89465476Y-98845714D01*
X89560714Y-98893333D01*
X89608333Y-98988571D01*
X89608333Y-99083809D01*
X89132143Y-99179047D01*
X90465476Y-99512380D02*
X90465476Y-98512380D01*
X90465476Y-99464761D02*
X90370238Y-99512380D01*
X90179762Y-99512380D01*
X90084524Y-99464761D01*
X90036904Y-99417142D01*
X89989285Y-99321904D01*
X89989285Y-99036190D01*
X90036904Y-98940952D01*
X90084524Y-98893333D01*
X90179762Y-98845714D01*
X90370238Y-98845714D01*
X90465476Y-98893333D01*
X91703571Y-99512380D02*
X91703571Y-98512380D01*
X91941666Y-98512380D01*
X92084524Y-98560000D01*
X92179762Y-98655238D01*
X92227381Y-98750476D01*
X92275000Y-98940952D01*
X92275000Y-99083809D01*
X92227381Y-99274285D01*
X92179762Y-99369523D01*
X92084524Y-99464761D01*
X91941666Y-99512380D01*
X91703571Y-99512380D01*
X92703571Y-99512380D02*
X92703571Y-98845714D01*
X92703571Y-98512380D02*
X92655952Y-98560000D01*
X92703571Y-98607619D01*
X92751190Y-98560000D01*
X92703571Y-98512380D01*
X92703571Y-98607619D01*
X93132143Y-99464761D02*
X93227381Y-99512380D01*
X93417857Y-99512380D01*
X93513095Y-99464761D01*
X93560714Y-99369523D01*
X93560714Y-99321904D01*
X93513095Y-99226666D01*
X93417857Y-99179047D01*
X93275000Y-99179047D01*
X93179762Y-99131428D01*
X93132143Y-99036190D01*
X93132143Y-98988571D01*
X93179762Y-98893333D01*
X93275000Y-98845714D01*
X93417857Y-98845714D01*
X93513095Y-98893333D01*
X93989285Y-98845714D02*
X93989285Y-99845714D01*
X93989285Y-98893333D02*
X94084524Y-98845714D01*
X94275000Y-98845714D01*
X94370238Y-98893333D01*
X94417857Y-98940952D01*
X94465476Y-99036190D01*
X94465476Y-99321904D01*
X94417857Y-99417142D01*
X94370238Y-99464761D01*
X94275000Y-99512380D01*
X94084524Y-99512380D01*
X93989285Y-99464761D01*
X95036904Y-99512380D02*
X94941666Y-99464761D01*
X94894047Y-99369523D01*
X94894047Y-98512380D01*
X95846428Y-99512380D02*
X95846428Y-98988571D01*
X95798809Y-98893333D01*
X95703571Y-98845714D01*
X95513095Y-98845714D01*
X95417857Y-98893333D01*
X95846428Y-99464761D02*
X95751190Y-99512380D01*
X95513095Y-99512380D01*
X95417857Y-99464761D01*
X95370238Y-99369523D01*
X95370238Y-99274285D01*
X95417857Y-99179047D01*
X95513095Y-99131428D01*
X95751190Y-99131428D01*
X95846428Y-99083809D01*
X96227381Y-98845714D02*
X96465476Y-99512380D01*
X96703571Y-98845714D02*
X96465476Y-99512380D01*
X96370238Y-99750476D01*
X96322619Y-99798095D01*
X96227381Y-99845714D01*
X98036904Y-98512380D02*
X98227381Y-98512380D01*
X98322619Y-98560000D01*
X98417857Y-98655238D01*
X98465476Y-98845714D01*
X98465476Y-99179047D01*
X98417857Y-99369523D01*
X98322619Y-99464761D01*
X98227381Y-99512380D01*
X98036904Y-99512380D01*
X97941666Y-99464761D01*
X97846428Y-99369523D01*
X97798809Y-99179047D01*
X97798809Y-98845714D01*
X97846428Y-98655238D01*
X97941666Y-98560000D01*
X98036904Y-98512380D01*
X99322619Y-98845714D02*
X99322619Y-99512380D01*
X98894047Y-98845714D02*
X98894047Y-99369523D01*
X98941666Y-99464761D01*
X99036904Y-99512380D01*
X99179762Y-99512380D01*
X99275000Y-99464761D01*
X99322619Y-99417142D01*
X99655952Y-98845714D02*
X100036904Y-98845714D01*
X99798809Y-98512380D02*
X99798809Y-99369523D01*
X99846428Y-99464761D01*
X99941666Y-99512380D01*
X100036904Y-99512380D01*
X100370238Y-98845714D02*
X100370238Y-99845714D01*
X100370238Y-98893333D02*
X100465476Y-98845714D01*
X100655952Y-98845714D01*
X100751190Y-98893333D01*
X100798809Y-98940952D01*
X100846428Y-99036190D01*
X100846428Y-99321904D01*
X100798809Y-99417142D01*
X100751190Y-99464761D01*
X100655952Y-99512380D01*
X100465476Y-99512380D01*
X100370238Y-99464761D01*
X101703571Y-98845714D02*
X101703571Y-99512380D01*
X101275000Y-98845714D02*
X101275000Y-99369523D01*
X101322619Y-99464761D01*
X101417857Y-99512380D01*
X101560714Y-99512380D01*
X101655952Y-99464761D01*
X101703571Y-99417142D01*
X102036904Y-98845714D02*
X102417857Y-98845714D01*
X102179762Y-98512380D02*
X102179762Y-99369523D01*
X102227381Y-99464761D01*
X102322619Y-99512380D01*
X102417857Y-99512380D01*
X103513095Y-99131428D02*
X104275000Y-99131428D01*
X104751190Y-98845714D02*
X105513095Y-99131428D01*
X104751190Y-99417142D01*
X91608334Y-96972380D02*
X91608334Y-95972380D01*
X91846429Y-95972380D01*
X91989286Y-96020000D01*
X92084524Y-96115238D01*
X92132143Y-96210476D01*
X92179762Y-96400952D01*
X92179762Y-96543809D01*
X92132143Y-96734285D01*
X92084524Y-96829523D01*
X91989286Y-96924761D01*
X91846429Y-96972380D01*
X91608334Y-96972380D01*
X92608334Y-96972380D02*
X92608334Y-96305714D01*
X92608334Y-95972380D02*
X92560715Y-96020000D01*
X92608334Y-96067619D01*
X92655953Y-96020000D01*
X92608334Y-95972380D01*
X92608334Y-96067619D01*
X93036905Y-96924761D02*
X93132143Y-96972380D01*
X93322619Y-96972380D01*
X93417857Y-96924761D01*
X93465476Y-96829523D01*
X93465476Y-96781904D01*
X93417857Y-96686666D01*
X93322619Y-96639047D01*
X93179762Y-96639047D01*
X93084524Y-96591428D01*
X93036905Y-96496190D01*
X93036905Y-96448571D01*
X93084524Y-96353333D01*
X93179762Y-96305714D01*
X93322619Y-96305714D01*
X93417857Y-96353333D01*
X93894048Y-96305714D02*
X93894048Y-97305714D01*
X93894048Y-96353333D02*
X93989286Y-96305714D01*
X94179762Y-96305714D01*
X94275000Y-96353333D01*
X94322619Y-96400952D01*
X94370238Y-96496190D01*
X94370238Y-96781904D01*
X94322619Y-96877142D01*
X94275000Y-96924761D01*
X94179762Y-96972380D01*
X93989286Y-96972380D01*
X93894048Y-96924761D01*
X94941667Y-96972380D02*
X94846429Y-96924761D01*
X94798810Y-96829523D01*
X94798810Y-95972380D01*
X95751191Y-96972380D02*
X95751191Y-96448571D01*
X95703572Y-96353333D01*
X95608334Y-96305714D01*
X95417857Y-96305714D01*
X95322619Y-96353333D01*
X95751191Y-96924761D02*
X95655953Y-96972380D01*
X95417857Y-96972380D01*
X95322619Y-96924761D01*
X95275000Y-96829523D01*
X95275000Y-96734285D01*
X95322619Y-96639047D01*
X95417857Y-96591428D01*
X95655953Y-96591428D01*
X95751191Y-96543809D01*
X96132143Y-96305714D02*
X96370238Y-96972380D01*
X96608334Y-96305714D02*
X96370238Y-96972380D01*
X96275000Y-97210476D01*
X96227381Y-97258095D01*
X96132143Y-97305714D01*
X97751191Y-96448571D02*
X98084524Y-96448571D01*
X98227381Y-96972380D02*
X97751191Y-96972380D01*
X97751191Y-95972380D01*
X98227381Y-95972380D01*
X98655953Y-96305714D02*
X98655953Y-96972380D01*
X98655953Y-96400952D02*
X98703572Y-96353333D01*
X98798810Y-96305714D01*
X98941667Y-96305714D01*
X99036905Y-96353333D01*
X99084524Y-96448571D01*
X99084524Y-96972380D01*
X99989286Y-96972380D02*
X99989286Y-96448571D01*
X99941667Y-96353333D01*
X99846429Y-96305714D01*
X99655953Y-96305714D01*
X99560715Y-96353333D01*
X99989286Y-96924761D02*
X99894048Y-96972380D01*
X99655953Y-96972380D01*
X99560715Y-96924761D01*
X99513095Y-96829523D01*
X99513095Y-96734285D01*
X99560715Y-96639047D01*
X99655953Y-96591428D01*
X99894048Y-96591428D01*
X99989286Y-96543809D01*
X100465476Y-96972380D02*
X100465476Y-95972380D01*
X100465476Y-96353333D02*
X100560715Y-96305714D01*
X100751191Y-96305714D01*
X100846429Y-96353333D01*
X100894048Y-96400952D01*
X100941667Y-96496190D01*
X100941667Y-96781904D01*
X100894048Y-96877142D01*
X100846429Y-96924761D01*
X100751191Y-96972380D01*
X100560715Y-96972380D01*
X100465476Y-96924761D01*
X101513095Y-96972380D02*
X101417857Y-96924761D01*
X101370238Y-96829523D01*
X101370238Y-95972380D01*
X102275000Y-96924761D02*
X102179762Y-96972380D01*
X101989286Y-96972380D01*
X101894048Y-96924761D01*
X101846429Y-96829523D01*
X101846429Y-96448571D01*
X101894048Y-96353333D01*
X101989286Y-96305714D01*
X102179762Y-96305714D01*
X102275000Y-96353333D01*
X102322619Y-96448571D01*
X102322619Y-96543809D01*
X101846429Y-96639047D01*
X104275000Y-96305714D02*
X103513095Y-96591428D01*
X104275000Y-96877142D01*
X104751191Y-96591428D02*
X105513095Y-96591428D01*
X91703572Y-94432380D02*
X91703572Y-93432380D01*
X91941667Y-93432380D01*
X92084524Y-93480000D01*
X92179762Y-93575238D01*
X92227381Y-93670476D01*
X92275000Y-93860952D01*
X92275000Y-94003809D01*
X92227381Y-94194285D01*
X92179762Y-94289523D01*
X92084524Y-94384761D01*
X91941667Y-94432380D01*
X91703572Y-94432380D01*
X92703572Y-94432380D02*
X92703572Y-93765714D01*
X92703572Y-93432380D02*
X92655953Y-93480000D01*
X92703572Y-93527619D01*
X92751191Y-93480000D01*
X92703572Y-93432380D01*
X92703572Y-93527619D01*
X93132143Y-94384761D02*
X93227381Y-94432380D01*
X93417857Y-94432380D01*
X93513095Y-94384761D01*
X93560714Y-94289523D01*
X93560714Y-94241904D01*
X93513095Y-94146666D01*
X93417857Y-94099047D01*
X93275000Y-94099047D01*
X93179762Y-94051428D01*
X93132143Y-93956190D01*
X93132143Y-93908571D01*
X93179762Y-93813333D01*
X93275000Y-93765714D01*
X93417857Y-93765714D01*
X93513095Y-93813333D01*
X93989286Y-93765714D02*
X93989286Y-94765714D01*
X93989286Y-93813333D02*
X94084524Y-93765714D01*
X94275000Y-93765714D01*
X94370238Y-93813333D01*
X94417857Y-93860952D01*
X94465476Y-93956190D01*
X94465476Y-94241904D01*
X94417857Y-94337142D01*
X94370238Y-94384761D01*
X94275000Y-94432380D01*
X94084524Y-94432380D01*
X93989286Y-94384761D01*
X95036905Y-94432380D02*
X94941667Y-94384761D01*
X94894048Y-94289523D01*
X94894048Y-93432380D01*
X95846429Y-94432380D02*
X95846429Y-93908571D01*
X95798810Y-93813333D01*
X95703572Y-93765714D01*
X95513095Y-93765714D01*
X95417857Y-93813333D01*
X95846429Y-94384761D02*
X95751191Y-94432380D01*
X95513095Y-94432380D01*
X95417857Y-94384761D01*
X95370238Y-94289523D01*
X95370238Y-94194285D01*
X95417857Y-94099047D01*
X95513095Y-94051428D01*
X95751191Y-94051428D01*
X95846429Y-94003809D01*
X96227381Y-93765714D02*
X96465476Y-94432380D01*
X96703572Y-93765714D02*
X96465476Y-94432380D01*
X96370238Y-94670476D01*
X96322619Y-94718095D01*
X96227381Y-94765714D01*
X98036905Y-93432380D02*
X98227381Y-93432380D01*
X98322619Y-93480000D01*
X98417857Y-93575238D01*
X98465476Y-93765714D01*
X98465476Y-94099047D01*
X98417857Y-94289523D01*
X98322619Y-94384761D01*
X98227381Y-94432380D01*
X98036905Y-94432380D01*
X97941667Y-94384761D01*
X97846429Y-94289523D01*
X97798810Y-94099047D01*
X97798810Y-93765714D01*
X97846429Y-93575238D01*
X97941667Y-93480000D01*
X98036905Y-93432380D01*
X99322619Y-93765714D02*
X99322619Y-94432380D01*
X98894048Y-93765714D02*
X98894048Y-94289523D01*
X98941667Y-94384761D01*
X99036905Y-94432380D01*
X99179762Y-94432380D01*
X99275000Y-94384761D01*
X99322619Y-94337142D01*
X99655953Y-93765714D02*
X100036905Y-93765714D01*
X99798810Y-93432380D02*
X99798810Y-94289523D01*
X99846429Y-94384761D01*
X99941667Y-94432380D01*
X100036905Y-94432380D01*
X100370238Y-93765714D02*
X100370238Y-94765714D01*
X100370238Y-93813333D02*
X100465476Y-93765714D01*
X100655953Y-93765714D01*
X100751191Y-93813333D01*
X100798810Y-93860952D01*
X100846429Y-93956190D01*
X100846429Y-94241904D01*
X100798810Y-94337142D01*
X100751191Y-94384761D01*
X100655953Y-94432380D01*
X100465476Y-94432380D01*
X100370238Y-94384761D01*
X101703572Y-93765714D02*
X101703572Y-94432380D01*
X101275000Y-93765714D02*
X101275000Y-94289523D01*
X101322619Y-94384761D01*
X101417857Y-94432380D01*
X101560714Y-94432380D01*
X101655953Y-94384761D01*
X101703572Y-94337142D01*
X102036905Y-93765714D02*
X102417857Y-93765714D01*
X102179762Y-93432380D02*
X102179762Y-94289523D01*
X102227381Y-94384761D01*
X102322619Y-94432380D01*
X102417857Y-94432380D01*
X104275000Y-93765714D02*
X103513095Y-94051428D01*
X104275000Y-94337142D01*
X104751191Y-94051428D02*
X105513095Y-94051428D01*
X99846428Y-103640000D02*
X99751190Y-103592380D01*
X99608333Y-103592380D01*
X99465476Y-103640000D01*
X99370238Y-103735238D01*
X99322619Y-103830476D01*
X99275000Y-104020952D01*
X99275000Y-104163809D01*
X99322619Y-104354285D01*
X99370238Y-104449523D01*
X99465476Y-104544761D01*
X99608333Y-104592380D01*
X99703571Y-104592380D01*
X99846428Y-104544761D01*
X99894047Y-104497142D01*
X99894047Y-104163809D01*
X99703571Y-104163809D01*
X100322619Y-104592380D02*
X100322619Y-103592380D01*
X100894047Y-104592380D01*
X100894047Y-103592380D01*
X101370238Y-104592380D02*
X101370238Y-103592380D01*
X101608333Y-103592380D01*
X101751190Y-103640000D01*
X101846428Y-103735238D01*
X101894047Y-103830476D01*
X101941666Y-104020952D01*
X101941666Y-104163809D01*
X101894047Y-104354285D01*
X101846428Y-104449523D01*
X101751190Y-104544761D01*
X101608333Y-104592380D01*
X101370238Y-104592380D01*
X103132142Y-104211428D02*
X103894047Y-104211428D01*
X104370238Y-103925714D02*
X105132142Y-104211428D01*
X104370238Y-104497142D01*
X99703572Y-101671428D02*
X100465476Y-101671428D01*
X100084524Y-102052380D02*
X100084524Y-101290476D01*
X101417857Y-101052380D02*
X100941667Y-101052380D01*
X100894048Y-101528571D01*
X100941667Y-101480952D01*
X101036905Y-101433333D01*
X101275000Y-101433333D01*
X101370238Y-101480952D01*
X101417857Y-101528571D01*
X101465476Y-101623809D01*
X101465476Y-101861904D01*
X101417857Y-101957142D01*
X101370238Y-102004761D01*
X101275000Y-102052380D01*
X101036905Y-102052380D01*
X100941667Y-102004761D01*
X100894048Y-101957142D01*
X101751191Y-101052380D02*
X102084524Y-102052380D01*
X102417857Y-101052380D01*
X103513095Y-101671428D02*
X104275000Y-101671428D01*
X104751191Y-101385714D02*
X105513095Y-101671428D01*
X104751191Y-101957142D01*
X187183332Y-111545714D02*
X186421428Y-111831428D01*
X187183332Y-112117142D01*
X187659523Y-111831428D02*
X188421428Y-111831428D01*
X190183332Y-111260000D02*
X190088094Y-111212380D01*
X189945237Y-111212380D01*
X189802380Y-111260000D01*
X189707142Y-111355238D01*
X189659523Y-111450476D01*
X189611904Y-111640952D01*
X189611904Y-111783809D01*
X189659523Y-111974285D01*
X189707142Y-112069523D01*
X189802380Y-112164761D01*
X189945237Y-112212380D01*
X190040475Y-112212380D01*
X190183332Y-112164761D01*
X190230951Y-112117142D01*
X190230951Y-111783809D01*
X190040475Y-111783809D01*
X190659523Y-112212380D02*
X190659523Y-111212380D01*
X191230951Y-112212380D01*
X191230951Y-111212380D01*
X191707142Y-112212380D02*
X191707142Y-111212380D01*
X191945237Y-111212380D01*
X192088094Y-111260000D01*
X192183332Y-111355238D01*
X192230951Y-111450476D01*
X192278570Y-111640952D01*
X192278570Y-111783809D01*
X192230951Y-111974285D01*
X192183332Y-112069523D01*
X192088094Y-112164761D01*
X191945237Y-112212380D01*
X191707142Y-112212380D01*
X187183332Y-109005714D02*
X186421427Y-109291428D01*
X187183332Y-109577142D01*
X187659522Y-109291428D02*
X188421427Y-109291428D01*
X189659522Y-109291428D02*
X190421427Y-109291428D01*
X190040475Y-109672380D02*
X190040475Y-108910476D01*
X190802380Y-108672380D02*
X191421427Y-108672380D01*
X191088094Y-109053333D01*
X191230951Y-109053333D01*
X191326189Y-109100952D01*
X191373808Y-109148571D01*
X191421427Y-109243809D01*
X191421427Y-109481904D01*
X191373808Y-109577142D01*
X191326189Y-109624761D01*
X191230951Y-109672380D01*
X190945237Y-109672380D01*
X190849999Y-109624761D01*
X190802380Y-109577142D01*
X191707141Y-108672380D02*
X192040475Y-109672380D01*
X192373808Y-108672380D01*
X192611903Y-108672380D02*
X193230951Y-108672380D01*
X192897618Y-109053333D01*
X193040475Y-109053333D01*
X193135713Y-109100952D01*
X193183332Y-109148571D01*
X193230951Y-109243809D01*
X193230951Y-109481904D01*
X193183332Y-109577142D01*
X193135713Y-109624761D01*
X193040475Y-109672380D01*
X192754760Y-109672380D01*
X192659522Y-109624761D01*
X192611903Y-109577142D01*
X186421427Y-94051428D02*
X187183332Y-94051428D01*
X187659522Y-93765714D02*
X188421427Y-94051428D01*
X187659522Y-94337142D01*
X189992856Y-93908571D02*
X190135713Y-93956190D01*
X190183332Y-94003809D01*
X190230951Y-94099047D01*
X190230951Y-94241904D01*
X190183332Y-94337142D01*
X190135713Y-94384761D01*
X190040475Y-94432380D01*
X189659522Y-94432380D01*
X189659522Y-93432380D01*
X189992856Y-93432380D01*
X190088094Y-93480000D01*
X190135713Y-93527619D01*
X190183332Y-93622857D01*
X190183332Y-93718095D01*
X190135713Y-93813333D01*
X190088094Y-93860952D01*
X189992856Y-93908571D01*
X189659522Y-93908571D01*
X191088094Y-93765714D02*
X191088094Y-94432380D01*
X190659522Y-93765714D02*
X190659522Y-94289523D01*
X190707141Y-94384761D01*
X190802379Y-94432380D01*
X190945237Y-94432380D01*
X191040475Y-94384761D01*
X191088094Y-94337142D01*
X191421427Y-93765714D02*
X191802379Y-93765714D01*
X191564284Y-94432380D02*
X191564284Y-93575238D01*
X191611903Y-93480000D01*
X191707141Y-93432380D01*
X191802379Y-93432380D01*
X191992856Y-93765714D02*
X192373808Y-93765714D01*
X192135713Y-94432380D02*
X192135713Y-93575238D01*
X192183332Y-93480000D01*
X192278570Y-93432380D01*
X192373808Y-93432380D01*
X193088094Y-94384761D02*
X192992856Y-94432380D01*
X192802379Y-94432380D01*
X192707141Y-94384761D01*
X192659522Y-94289523D01*
X192659522Y-93908571D01*
X192707141Y-93813333D01*
X192802379Y-93765714D01*
X192992856Y-93765714D01*
X193088094Y-93813333D01*
X193135713Y-93908571D01*
X193135713Y-94003809D01*
X192659522Y-94099047D01*
X193564284Y-94432380D02*
X193564284Y-93765714D01*
X193564284Y-93956190D02*
X193611903Y-93860952D01*
X193659522Y-93813333D01*
X193754760Y-93765714D01*
X193849999Y-93765714D01*
X194564284Y-94384761D02*
X194469046Y-94432380D01*
X194278570Y-94432380D01*
X194183332Y-94384761D01*
X194135713Y-94289523D01*
X194135713Y-93908571D01*
X194183332Y-93813333D01*
X194278570Y-93765714D01*
X194469046Y-93765714D01*
X194564284Y-93813333D01*
X194611903Y-93908571D01*
X194611903Y-94003809D01*
X194135713Y-94099047D01*
X195469046Y-94432380D02*
X195469046Y-93432380D01*
X195469046Y-94384761D02*
X195373808Y-94432380D01*
X195183332Y-94432380D01*
X195088094Y-94384761D01*
X195040475Y-94337142D01*
X194992856Y-94241904D01*
X194992856Y-93956190D01*
X195040475Y-93860952D01*
X195088094Y-93813333D01*
X195183332Y-93765714D01*
X195373808Y-93765714D01*
X195469046Y-93813333D01*
X196707141Y-94432380D02*
X196707141Y-93432380D01*
X196945237Y-93432380D01*
X197088094Y-93480000D01*
X197183332Y-93575238D01*
X197230951Y-93670476D01*
X197278570Y-93860952D01*
X197278570Y-94003809D01*
X197230951Y-94194285D01*
X197183332Y-94289523D01*
X197088094Y-94384761D01*
X196945237Y-94432380D01*
X196707141Y-94432380D01*
X197707141Y-94432380D02*
X197707141Y-93765714D01*
X197707141Y-93432380D02*
X197659522Y-93480000D01*
X197707141Y-93527619D01*
X197754760Y-93480000D01*
X197707141Y-93432380D01*
X197707141Y-93527619D01*
X198135713Y-94384761D02*
X198230951Y-94432380D01*
X198421427Y-94432380D01*
X198516665Y-94384761D01*
X198564284Y-94289523D01*
X198564284Y-94241904D01*
X198516665Y-94146666D01*
X198421427Y-94099047D01*
X198278570Y-94099047D01*
X198183332Y-94051428D01*
X198135713Y-93956190D01*
X198135713Y-93908571D01*
X198183332Y-93813333D01*
X198278570Y-93765714D01*
X198421427Y-93765714D01*
X198516665Y-93813333D01*
X198992856Y-93765714D02*
X198992856Y-94765714D01*
X198992856Y-93813333D02*
X199088094Y-93765714D01*
X199278570Y-93765714D01*
X199373808Y-93813333D01*
X199421427Y-93860952D01*
X199469046Y-93956190D01*
X199469046Y-94241904D01*
X199421427Y-94337142D01*
X199373808Y-94384761D01*
X199278570Y-94432380D01*
X199088094Y-94432380D01*
X198992856Y-94384761D01*
X200040475Y-94432380D02*
X199945237Y-94384761D01*
X199897618Y-94289523D01*
X199897618Y-93432380D01*
X200849999Y-94432380D02*
X200849999Y-93908571D01*
X200802379Y-93813333D01*
X200707141Y-93765714D01*
X200516665Y-93765714D01*
X200421427Y-93813333D01*
X200849999Y-94384761D02*
X200754760Y-94432380D01*
X200516665Y-94432380D01*
X200421427Y-94384761D01*
X200373808Y-94289523D01*
X200373808Y-94194285D01*
X200421427Y-94099047D01*
X200516665Y-94051428D01*
X200754760Y-94051428D01*
X200849999Y-94003809D01*
X201230951Y-93765714D02*
X201469046Y-94432380D01*
X201707141Y-93765714D02*
X201469046Y-94432380D01*
X201373808Y-94670476D01*
X201326189Y-94718095D01*
X201230951Y-94765714D01*
X203040475Y-93432380D02*
X203230951Y-93432380D01*
X203326189Y-93480000D01*
X203421427Y-93575238D01*
X203469046Y-93765714D01*
X203469046Y-94099047D01*
X203421427Y-94289523D01*
X203326189Y-94384761D01*
X203230951Y-94432380D01*
X203040475Y-94432380D01*
X202945237Y-94384761D01*
X202849999Y-94289523D01*
X202802379Y-94099047D01*
X202802379Y-93765714D01*
X202849999Y-93575238D01*
X202945237Y-93480000D01*
X203040475Y-93432380D01*
X204326189Y-93765714D02*
X204326189Y-94432380D01*
X203897618Y-93765714D02*
X203897618Y-94289523D01*
X203945237Y-94384761D01*
X204040475Y-94432380D01*
X204183332Y-94432380D01*
X204278570Y-94384761D01*
X204326189Y-94337142D01*
X204659522Y-93765714D02*
X205040475Y-93765714D01*
X204802379Y-93432380D02*
X204802379Y-94289523D01*
X204849999Y-94384761D01*
X204945237Y-94432380D01*
X205040475Y-94432380D01*
X205373808Y-93765714D02*
X205373808Y-94765714D01*
X205373808Y-93813333D02*
X205469046Y-93765714D01*
X205659522Y-93765714D01*
X205754760Y-93813333D01*
X205802379Y-93860952D01*
X205849999Y-93956190D01*
X205849999Y-94241904D01*
X205802379Y-94337142D01*
X205754760Y-94384761D01*
X205659522Y-94432380D01*
X205469046Y-94432380D01*
X205373808Y-94384761D01*
X206707141Y-93765714D02*
X206707141Y-94432380D01*
X206278570Y-93765714D02*
X206278570Y-94289523D01*
X206326189Y-94384761D01*
X206421427Y-94432380D01*
X206564284Y-94432380D01*
X206659522Y-94384761D01*
X206707141Y-94337142D01*
X207040475Y-93765714D02*
X207421427Y-93765714D01*
X207183332Y-93432380D02*
X207183332Y-94289523D01*
X207230951Y-94384761D01*
X207326189Y-94432380D01*
X207421427Y-94432380D01*
X186421428Y-91511428D02*
X187183332Y-91511428D01*
X187659523Y-91225714D02*
X188421428Y-91511428D01*
X187659523Y-91797142D01*
X189659523Y-91892380D02*
X189659523Y-90892380D01*
X189897618Y-90892380D01*
X190040475Y-90940000D01*
X190135713Y-91035238D01*
X190183332Y-91130476D01*
X190230951Y-91320952D01*
X190230951Y-91463809D01*
X190183332Y-91654285D01*
X190135713Y-91749523D01*
X190040475Y-91844761D01*
X189897618Y-91892380D01*
X189659523Y-91892380D01*
X190659523Y-91892380D02*
X190659523Y-91225714D01*
X190659523Y-90892380D02*
X190611904Y-90940000D01*
X190659523Y-90987619D01*
X190707142Y-90940000D01*
X190659523Y-90892380D01*
X190659523Y-90987619D01*
X191088094Y-91844761D02*
X191183332Y-91892380D01*
X191373809Y-91892380D01*
X191469047Y-91844761D01*
X191516666Y-91749523D01*
X191516666Y-91701904D01*
X191469047Y-91606666D01*
X191373809Y-91559047D01*
X191230951Y-91559047D01*
X191135713Y-91511428D01*
X191088094Y-91416190D01*
X191088094Y-91368571D01*
X191135713Y-91273333D01*
X191230951Y-91225714D01*
X191373809Y-91225714D01*
X191469047Y-91273333D01*
X191945237Y-91225714D02*
X191945237Y-92225714D01*
X191945237Y-91273333D02*
X192040475Y-91225714D01*
X192230951Y-91225714D01*
X192326190Y-91273333D01*
X192373809Y-91320952D01*
X192421428Y-91416190D01*
X192421428Y-91701904D01*
X192373809Y-91797142D01*
X192326190Y-91844761D01*
X192230951Y-91892380D01*
X192040475Y-91892380D01*
X191945237Y-91844761D01*
X192992856Y-91892380D02*
X192897618Y-91844761D01*
X192849999Y-91749523D01*
X192849999Y-90892380D01*
X193802380Y-91892380D02*
X193802380Y-91368571D01*
X193754761Y-91273333D01*
X193659523Y-91225714D01*
X193469047Y-91225714D01*
X193373809Y-91273333D01*
X193802380Y-91844761D02*
X193707142Y-91892380D01*
X193469047Y-91892380D01*
X193373809Y-91844761D01*
X193326190Y-91749523D01*
X193326190Y-91654285D01*
X193373809Y-91559047D01*
X193469047Y-91511428D01*
X193707142Y-91511428D01*
X193802380Y-91463809D01*
X194183332Y-91225714D02*
X194421428Y-91892380D01*
X194659523Y-91225714D02*
X194421428Y-91892380D01*
X194326190Y-92130476D01*
X194278570Y-92178095D01*
X194183332Y-92225714D01*
X195992856Y-90892380D02*
X196183332Y-90892380D01*
X196278570Y-90940000D01*
X196373809Y-91035238D01*
X196421428Y-91225714D01*
X196421428Y-91559047D01*
X196373809Y-91749523D01*
X196278570Y-91844761D01*
X196183332Y-91892380D01*
X195992856Y-91892380D01*
X195897618Y-91844761D01*
X195802380Y-91749523D01*
X195754761Y-91559047D01*
X195754761Y-91225714D01*
X195802380Y-91035238D01*
X195897618Y-90940000D01*
X195992856Y-90892380D01*
X197278570Y-91225714D02*
X197278570Y-91892380D01*
X196849999Y-91225714D02*
X196849999Y-91749523D01*
X196897618Y-91844761D01*
X196992856Y-91892380D01*
X197135713Y-91892380D01*
X197230951Y-91844761D01*
X197278570Y-91797142D01*
X197611904Y-91225714D02*
X197992856Y-91225714D01*
X197754761Y-90892380D02*
X197754761Y-91749523D01*
X197802380Y-91844761D01*
X197897618Y-91892380D01*
X197992856Y-91892380D01*
X198326190Y-91225714D02*
X198326190Y-92225714D01*
X198326190Y-91273333D02*
X198421428Y-91225714D01*
X198611904Y-91225714D01*
X198707142Y-91273333D01*
X198754761Y-91320952D01*
X198802380Y-91416190D01*
X198802380Y-91701904D01*
X198754761Y-91797142D01*
X198707142Y-91844761D01*
X198611904Y-91892380D01*
X198421428Y-91892380D01*
X198326190Y-91844761D01*
X199659523Y-91225714D02*
X199659523Y-91892380D01*
X199230951Y-91225714D02*
X199230951Y-91749523D01*
X199278570Y-91844761D01*
X199373809Y-91892380D01*
X199516666Y-91892380D01*
X199611904Y-91844761D01*
X199659523Y-91797142D01*
X199992856Y-91225714D02*
X200373809Y-91225714D01*
X200135713Y-90892380D02*
X200135713Y-91749523D01*
X200183332Y-91844761D01*
X200278570Y-91892380D01*
X200373809Y-91892380D01*
X187183332Y-98845714D02*
X186421428Y-99131428D01*
X187183332Y-99417142D01*
X187659523Y-99131428D02*
X188421428Y-99131428D01*
X189659523Y-99512380D02*
X189659523Y-98512380D01*
X190230951Y-99512380D02*
X189802380Y-98940952D01*
X190230951Y-98512380D02*
X189659523Y-99083809D01*
X190992856Y-98988571D02*
X191135713Y-99036190D01*
X191183332Y-99083809D01*
X191230951Y-99179047D01*
X191230951Y-99321904D01*
X191183332Y-99417142D01*
X191135713Y-99464761D01*
X191040475Y-99512380D01*
X190659523Y-99512380D01*
X190659523Y-98512380D01*
X190992856Y-98512380D01*
X191088094Y-98560000D01*
X191135713Y-98607619D01*
X191183332Y-98702857D01*
X191183332Y-98798095D01*
X191135713Y-98893333D01*
X191088094Y-98940952D01*
X190992856Y-98988571D01*
X190659523Y-98988571D01*
X191421428Y-99607619D02*
X192183332Y-99607619D01*
X192421428Y-99512380D02*
X192421428Y-98512380D01*
X192659523Y-98512380D01*
X192802380Y-98560000D01*
X192897618Y-98655238D01*
X192945237Y-98750476D01*
X192992856Y-98940952D01*
X192992856Y-99083809D01*
X192945237Y-99274285D01*
X192897618Y-99369523D01*
X192802380Y-99464761D01*
X192659523Y-99512380D01*
X192421428Y-99512380D01*
X193373808Y-99226666D02*
X193849999Y-99226666D01*
X193278570Y-99512380D02*
X193611904Y-98512380D01*
X193945237Y-99512380D01*
X194135713Y-98512380D02*
X194707142Y-98512380D01*
X194421428Y-99512380D02*
X194421428Y-98512380D01*
X194992856Y-99226666D02*
X195469047Y-99226666D01*
X194897618Y-99512380D02*
X195230951Y-98512380D01*
X195564285Y-99512380D01*
X187183332Y-101385714D02*
X186421427Y-101671428D01*
X187183332Y-101957142D01*
X187659523Y-101671428D02*
X188421427Y-101671428D01*
X189659523Y-102052380D02*
X189659523Y-101052380D01*
X190230951Y-102052380D02*
X189802380Y-101480952D01*
X190230951Y-101052380D02*
X189659523Y-101623809D01*
X190992856Y-101528571D02*
X191135713Y-101576190D01*
X191183332Y-101623809D01*
X191230951Y-101719047D01*
X191230951Y-101861904D01*
X191183332Y-101957142D01*
X191135713Y-102004761D01*
X191040475Y-102052380D01*
X190659523Y-102052380D01*
X190659523Y-101052380D01*
X190992856Y-101052380D01*
X191088094Y-101100000D01*
X191135713Y-101147619D01*
X191183332Y-101242857D01*
X191183332Y-101338095D01*
X191135713Y-101433333D01*
X191088094Y-101480952D01*
X190992856Y-101528571D01*
X190659523Y-101528571D01*
X191421427Y-102147619D02*
X192183332Y-102147619D01*
X192992856Y-101957142D02*
X192945237Y-102004761D01*
X192802380Y-102052380D01*
X192707142Y-102052380D01*
X192564284Y-102004761D01*
X192469046Y-101909523D01*
X192421427Y-101814285D01*
X192373808Y-101623809D01*
X192373808Y-101480952D01*
X192421427Y-101290476D01*
X192469046Y-101195238D01*
X192564284Y-101100000D01*
X192707142Y-101052380D01*
X192802380Y-101052380D01*
X192945237Y-101100000D01*
X192992856Y-101147619D01*
X193897618Y-102052380D02*
X193421427Y-102052380D01*
X193421427Y-101052380D01*
X194421427Y-101052380D02*
X194611904Y-101052380D01*
X194707142Y-101100000D01*
X194802380Y-101195238D01*
X194849999Y-101385714D01*
X194849999Y-101719047D01*
X194802380Y-101909523D01*
X194707142Y-102004761D01*
X194611904Y-102052380D01*
X194421427Y-102052380D01*
X194326189Y-102004761D01*
X194230951Y-101909523D01*
X194183332Y-101719047D01*
X194183332Y-101385714D01*
X194230951Y-101195238D01*
X194326189Y-101100000D01*
X194421427Y-101052380D01*
X195849999Y-101957142D02*
X195802380Y-102004761D01*
X195659523Y-102052380D01*
X195564284Y-102052380D01*
X195421427Y-102004761D01*
X195326189Y-101909523D01*
X195278570Y-101814285D01*
X195230951Y-101623809D01*
X195230951Y-101480952D01*
X195278570Y-101290476D01*
X195326189Y-101195238D01*
X195421427Y-101100000D01*
X195564284Y-101052380D01*
X195659523Y-101052380D01*
X195802380Y-101100000D01*
X195849999Y-101147619D01*
X196278570Y-102052380D02*
X196278570Y-101052380D01*
X196849999Y-102052380D02*
X196421427Y-101480952D01*
X196849999Y-101052380D02*
X196278570Y-101623809D01*
X187183333Y-103925714D02*
X186421428Y-104211428D01*
X187183333Y-104497142D01*
X187659523Y-104211428D02*
X188421428Y-104211428D01*
X189611904Y-104544761D02*
X189754761Y-104592380D01*
X189992856Y-104592380D01*
X190088094Y-104544761D01*
X190135713Y-104497142D01*
X190183333Y-104401904D01*
X190183333Y-104306666D01*
X190135713Y-104211428D01*
X190088094Y-104163809D01*
X189992856Y-104116190D01*
X189802380Y-104068571D01*
X189707142Y-104020952D01*
X189659523Y-103973333D01*
X189611904Y-103878095D01*
X189611904Y-103782857D01*
X189659523Y-103687619D01*
X189707142Y-103640000D01*
X189802380Y-103592380D01*
X190040475Y-103592380D01*
X190183333Y-103640000D01*
X191183333Y-104497142D02*
X191135713Y-104544761D01*
X190992856Y-104592380D01*
X190897618Y-104592380D01*
X190754761Y-104544761D01*
X190659523Y-104449523D01*
X190611904Y-104354285D01*
X190564285Y-104163809D01*
X190564285Y-104020952D01*
X190611904Y-103830476D01*
X190659523Y-103735238D01*
X190754761Y-103640000D01*
X190897618Y-103592380D01*
X190992856Y-103592380D01*
X191135713Y-103640000D01*
X191183333Y-103687619D01*
X192088094Y-104592380D02*
X191611904Y-104592380D01*
X191611904Y-103592380D01*
X187183332Y-106465714D02*
X186421427Y-106751428D01*
X187183332Y-107037142D01*
X187659522Y-106751428D02*
X188421427Y-106751428D01*
X189611903Y-107084761D02*
X189754761Y-107132380D01*
X189992856Y-107132380D01*
X190088094Y-107084761D01*
X190135713Y-107037142D01*
X190183332Y-106941904D01*
X190183332Y-106846666D01*
X190135713Y-106751428D01*
X190088094Y-106703809D01*
X189992856Y-106656190D01*
X189802380Y-106608571D01*
X189707142Y-106560952D01*
X189659522Y-106513333D01*
X189611903Y-106418095D01*
X189611903Y-106322857D01*
X189659522Y-106227619D01*
X189707142Y-106180000D01*
X189802380Y-106132380D01*
X190040475Y-106132380D01*
X190183332Y-106180000D01*
X190611903Y-107132380D02*
X190611903Y-106132380D01*
X190849999Y-106132380D01*
X190992856Y-106180000D01*
X191088094Y-106275238D01*
X191135713Y-106370476D01*
X191183332Y-106560952D01*
X191183332Y-106703809D01*
X191135713Y-106894285D01*
X191088094Y-106989523D01*
X190992856Y-107084761D01*
X190849999Y-107132380D01*
X190611903Y-107132380D01*
X191564284Y-106846666D02*
X192040475Y-106846666D01*
X191469046Y-107132380D02*
X191802380Y-106132380D01*
X192135713Y-107132380D01*
X193802047Y-112442000D02*
X193897285Y-112442000D01*
X194087761Y-112156285D01*
X194183000Y-111584857D01*
X194183000Y-108727714D01*
X194278238Y-108156285D01*
X194468714Y-107870571D01*
X194278238Y-107584857D01*
X194183000Y-107013428D01*
X194183000Y-104156285D01*
X194087761Y-103584857D01*
X193897285Y-103299142D01*
X193802047Y-103299142D01*
X187183333Y-96305714D02*
X186421428Y-96591428D01*
X187183333Y-96877142D01*
X187659523Y-96591428D02*
X188421428Y-96591428D01*
X189611904Y-96924761D02*
X189754761Y-96972380D01*
X189992856Y-96972380D01*
X190088095Y-96924761D01*
X190135714Y-96877142D01*
X190183333Y-96781904D01*
X190183333Y-96686666D01*
X190135714Y-96591428D01*
X190088095Y-96543809D01*
X189992856Y-96496190D01*
X189802380Y-96448571D01*
X189707142Y-96400952D01*
X189659523Y-96353333D01*
X189611904Y-96258095D01*
X189611904Y-96162857D01*
X189659523Y-96067619D01*
X189707142Y-96020000D01*
X189802380Y-95972380D01*
X190040476Y-95972380D01*
X190183333Y-96020000D01*
X190516666Y-96305714D02*
X190754761Y-96972380D01*
X190992856Y-96305714D02*
X190754761Y-96972380D01*
X190659523Y-97210476D01*
X190611904Y-97258095D01*
X190516666Y-97305714D01*
X191373809Y-96305714D02*
X191373809Y-96972380D01*
X191373809Y-96400952D02*
X191421428Y-96353333D01*
X191516666Y-96305714D01*
X191659523Y-96305714D01*
X191754761Y-96353333D01*
X191802380Y-96448571D01*
X191802380Y-96972380D01*
X192707142Y-96924761D02*
X192611904Y-96972380D01*
X192421428Y-96972380D01*
X192326190Y-96924761D01*
X192278571Y-96877142D01*
X192230952Y-96781904D01*
X192230952Y-96496190D01*
X192278571Y-96400952D01*
X192326190Y-96353333D01*
X192421428Y-96305714D01*
X192611904Y-96305714D01*
X192707142Y-96353333D01*
X99068333Y-91844761D02*
X99211190Y-91892380D01*
X99449285Y-91892380D01*
X99544523Y-91844761D01*
X99592142Y-91797142D01*
X99639761Y-91701904D01*
X99639761Y-91606666D01*
X99592142Y-91511428D01*
X99544523Y-91463809D01*
X99449285Y-91416190D01*
X99258809Y-91368571D01*
X99163571Y-91320952D01*
X99115952Y-91273333D01*
X99068333Y-91178095D01*
X99068333Y-91082857D01*
X99115952Y-90987619D01*
X99163571Y-90940000D01*
X99258809Y-90892380D01*
X99496904Y-90892380D01*
X99639761Y-90940000D01*
X99973095Y-91225714D02*
X100211190Y-91892380D01*
X100449285Y-91225714D02*
X100211190Y-91892380D01*
X100115952Y-92130476D01*
X100068333Y-92178095D01*
X99973095Y-92225714D01*
X100830238Y-91225714D02*
X100830238Y-91892380D01*
X100830238Y-91320952D02*
X100877857Y-91273333D01*
X100973095Y-91225714D01*
X101115952Y-91225714D01*
X101211190Y-91273333D01*
X101258809Y-91368571D01*
X101258809Y-91892380D01*
X102163571Y-91844761D02*
X102068333Y-91892380D01*
X101877857Y-91892380D01*
X101782619Y-91844761D01*
X101735000Y-91797142D01*
X101687380Y-91701904D01*
X101687380Y-91416190D01*
X101735000Y-91320952D01*
X101782619Y-91273333D01*
X101877857Y-91225714D01*
X102068333Y-91225714D01*
X102163571Y-91273333D01*
X103354047Y-91511428D02*
X104115952Y-91511428D01*
X104592142Y-91225714D02*
X105354047Y-91511428D01*
X104592142Y-91797142D01*
X196248928Y-106355571D02*
X195915595Y-106355571D01*
X195915595Y-106879380D02*
X195915595Y-105879380D01*
X196391785Y-105879380D01*
X196772738Y-106879380D02*
X196772738Y-106212714D01*
X196772738Y-106403190D02*
X196820357Y-106307952D01*
X196867976Y-106260333D01*
X196963214Y-106212714D01*
X197058452Y-106212714D01*
X197534642Y-106879380D02*
X197439404Y-106831761D01*
X197391785Y-106784142D01*
X197344166Y-106688904D01*
X197344166Y-106403190D01*
X197391785Y-106307952D01*
X197439404Y-106260333D01*
X197534642Y-106212714D01*
X197677500Y-106212714D01*
X197772738Y-106260333D01*
X197820357Y-106307952D01*
X197867976Y-106403190D01*
X197867976Y-106688904D01*
X197820357Y-106784142D01*
X197772738Y-106831761D01*
X197677500Y-106879380D01*
X197534642Y-106879380D01*
X198296547Y-106879380D02*
X198296547Y-106212714D01*
X198296547Y-106307952D02*
X198344166Y-106260333D01*
X198439404Y-106212714D01*
X198582261Y-106212714D01*
X198677500Y-106260333D01*
X198725119Y-106355571D01*
X198725119Y-106879380D01*
X198725119Y-106355571D02*
X198772738Y-106260333D01*
X198867976Y-106212714D01*
X199010833Y-106212714D01*
X199106071Y-106260333D01*
X199153690Y-106355571D01*
X199153690Y-106879380D01*
X200915595Y-105927000D02*
X200820357Y-105879380D01*
X200677500Y-105879380D01*
X200534642Y-105927000D01*
X200439404Y-106022238D01*
X200391785Y-106117476D01*
X200344166Y-106307952D01*
X200344166Y-106450809D01*
X200391785Y-106641285D01*
X200439404Y-106736523D01*
X200534642Y-106831761D01*
X200677500Y-106879380D01*
X200772738Y-106879380D01*
X200915595Y-106831761D01*
X200963214Y-106784142D01*
X200963214Y-106450809D01*
X200772738Y-106450809D01*
X201534642Y-106879380D02*
X201439404Y-106831761D01*
X201391785Y-106784142D01*
X201344166Y-106688904D01*
X201344166Y-106403190D01*
X201391785Y-106307952D01*
X201439404Y-106260333D01*
X201534642Y-106212714D01*
X201677500Y-106212714D01*
X201772738Y-106260333D01*
X201820357Y-106307952D01*
X201867976Y-106403190D01*
X201867976Y-106688904D01*
X201820357Y-106784142D01*
X201772738Y-106831761D01*
X201677500Y-106879380D01*
X201534642Y-106879380D01*
X202153690Y-106212714D02*
X202534642Y-106212714D01*
X202296547Y-105879380D02*
X202296547Y-106736523D01*
X202344166Y-106831761D01*
X202439404Y-106879380D01*
X202534642Y-106879380D01*
X203248928Y-106831761D02*
X203153690Y-106879380D01*
X202963214Y-106879380D01*
X202867976Y-106831761D01*
X202820357Y-106736523D01*
X202820357Y-106355571D01*
X202867976Y-106260333D01*
X202963214Y-106212714D01*
X203153690Y-106212714D01*
X203248928Y-106260333D01*
X203296547Y-106355571D01*
X203296547Y-106450809D01*
X202820357Y-106546047D01*
X203725119Y-106879380D02*
X203725119Y-105879380D01*
X203820357Y-106498428D02*
X204106071Y-106879380D01*
X204106071Y-106212714D02*
X203725119Y-106593666D01*
X204534642Y-106784142D02*
X204582261Y-106831761D01*
X204534642Y-106879380D01*
X204487023Y-106831761D01*
X204534642Y-106784142D01*
X204534642Y-106879380D01*
X204534642Y-106260333D02*
X204582261Y-106307952D01*
X204534642Y-106355571D01*
X204487023Y-106307952D01*
X204534642Y-106260333D01*
X204534642Y-106355571D01*
X196106071Y-107529380D02*
X196296547Y-107529380D01*
X196391785Y-107577000D01*
X196487023Y-107672238D01*
X196534642Y-107862714D01*
X196534642Y-108196047D01*
X196487023Y-108386523D01*
X196391785Y-108481761D01*
X196296547Y-108529380D01*
X196106071Y-108529380D01*
X196010833Y-108481761D01*
X195915595Y-108386523D01*
X195867976Y-108196047D01*
X195867976Y-107862714D01*
X195915595Y-107672238D01*
X196010833Y-107577000D01*
X196106071Y-107529380D01*
X196963214Y-107862714D02*
X196963214Y-108529380D01*
X196963214Y-107957952D02*
X197010833Y-107910333D01*
X197106071Y-107862714D01*
X197248928Y-107862714D01*
X197344166Y-107910333D01*
X197391785Y-108005571D01*
X197391785Y-108529380D01*
X198010833Y-108529380D02*
X197915595Y-108481761D01*
X197867976Y-108386523D01*
X197867976Y-107529380D01*
X198296547Y-107862714D02*
X198534642Y-108529380D01*
X198772738Y-107862714D02*
X198534642Y-108529380D01*
X198439404Y-108767476D01*
X198391785Y-108815095D01*
X198296547Y-108862714D01*
X200344166Y-108481761D02*
X200248928Y-108529380D01*
X200058452Y-108529380D01*
X199963214Y-108481761D01*
X199915595Y-108434142D01*
X199867976Y-108338904D01*
X199867976Y-108053190D01*
X199915595Y-107957952D01*
X199963214Y-107910333D01*
X200058452Y-107862714D01*
X200248928Y-107862714D01*
X200344166Y-107910333D01*
X200915595Y-108529380D02*
X200820357Y-108481761D01*
X200772738Y-108434142D01*
X200725119Y-108338904D01*
X200725119Y-108053190D01*
X200772738Y-107957952D01*
X200820357Y-107910333D01*
X200915595Y-107862714D01*
X201058452Y-107862714D01*
X201153690Y-107910333D01*
X201201309Y-107957952D01*
X201248928Y-108053190D01*
X201248928Y-108338904D01*
X201201309Y-108434142D01*
X201153690Y-108481761D01*
X201058452Y-108529380D01*
X200915595Y-108529380D01*
X201677500Y-107862714D02*
X201677500Y-108529380D01*
X201677500Y-107957952D02*
X201725119Y-107910333D01*
X201820357Y-107862714D01*
X201963214Y-107862714D01*
X202058452Y-107910333D01*
X202106071Y-108005571D01*
X202106071Y-108529380D01*
X202582261Y-107862714D02*
X202582261Y-108529380D01*
X202582261Y-107957952D02*
X202629880Y-107910333D01*
X202725119Y-107862714D01*
X202867976Y-107862714D01*
X202963214Y-107910333D01*
X203010833Y-108005571D01*
X203010833Y-108529380D01*
X203867976Y-108481761D02*
X203772738Y-108529380D01*
X203582261Y-108529380D01*
X203487023Y-108481761D01*
X203439404Y-108386523D01*
X203439404Y-108005571D01*
X203487023Y-107910333D01*
X203582261Y-107862714D01*
X203772738Y-107862714D01*
X203867976Y-107910333D01*
X203915595Y-108005571D01*
X203915595Y-108100809D01*
X203439404Y-108196047D01*
X204772738Y-108481761D02*
X204677500Y-108529380D01*
X204487023Y-108529380D01*
X204391785Y-108481761D01*
X204344166Y-108434142D01*
X204296547Y-108338904D01*
X204296547Y-108053190D01*
X204344166Y-107957952D01*
X204391785Y-107910333D01*
X204487023Y-107862714D01*
X204677500Y-107862714D01*
X204772738Y-107910333D01*
X205058452Y-107862714D02*
X205439404Y-107862714D01*
X205201309Y-107529380D02*
X205201309Y-108386523D01*
X205248928Y-108481761D01*
X205344166Y-108529380D01*
X205439404Y-108529380D01*
X206534642Y-107862714D02*
X206534642Y-108862714D01*
X206534642Y-107910333D02*
X206629880Y-107862714D01*
X206820357Y-107862714D01*
X206915595Y-107910333D01*
X206963214Y-107957952D01*
X207010833Y-108053190D01*
X207010833Y-108338904D01*
X206963214Y-108434142D01*
X206915595Y-108481761D01*
X206820357Y-108529380D01*
X206629880Y-108529380D01*
X206534642Y-108481761D01*
X207582261Y-108529380D02*
X207487023Y-108481761D01*
X207439404Y-108434142D01*
X207391785Y-108338904D01*
X207391785Y-108053190D01*
X207439404Y-107957952D01*
X207487023Y-107910333D01*
X207582261Y-107862714D01*
X207725119Y-107862714D01*
X207820357Y-107910333D01*
X207867976Y-107957952D01*
X207915595Y-108053190D01*
X207915595Y-108338904D01*
X207867976Y-108434142D01*
X207820357Y-108481761D01*
X207725119Y-108529380D01*
X207582261Y-108529380D01*
X208248928Y-107862714D02*
X208439404Y-108529380D01*
X208629880Y-108053190D01*
X208820357Y-108529380D01*
X209010833Y-107862714D01*
X209772738Y-108481761D02*
X209677500Y-108529380D01*
X209487023Y-108529380D01*
X209391785Y-108481761D01*
X209344166Y-108386523D01*
X209344166Y-108005571D01*
X209391785Y-107910333D01*
X209487023Y-107862714D01*
X209677500Y-107862714D01*
X209772738Y-107910333D01*
X209820357Y-108005571D01*
X209820357Y-108100809D01*
X209344166Y-108196047D01*
X210248928Y-108529380D02*
X210248928Y-107862714D01*
X210248928Y-108053190D02*
X210296547Y-107957952D01*
X210344166Y-107910333D01*
X210439404Y-107862714D01*
X210534642Y-107862714D01*
X211487023Y-107862714D02*
X211867976Y-107862714D01*
X211629880Y-108529380D02*
X211629880Y-107672238D01*
X211677500Y-107577000D01*
X211772738Y-107529380D01*
X211867976Y-107529380D01*
X212201309Y-108529380D02*
X212201309Y-107862714D01*
X212201309Y-108053190D02*
X212248928Y-107957952D01*
X212296547Y-107910333D01*
X212391785Y-107862714D01*
X212487023Y-107862714D01*
X212963214Y-108529380D02*
X212867976Y-108481761D01*
X212820357Y-108434142D01*
X212772738Y-108338904D01*
X212772738Y-108053190D01*
X212820357Y-107957952D01*
X212867976Y-107910333D01*
X212963214Y-107862714D01*
X213106071Y-107862714D01*
X213201309Y-107910333D01*
X213248928Y-107957952D01*
X213296547Y-108053190D01*
X213296547Y-108338904D01*
X213248928Y-108434142D01*
X213201309Y-108481761D01*
X213106071Y-108529380D01*
X212963214Y-108529380D01*
X213725119Y-108529380D02*
X213725119Y-107862714D01*
X213725119Y-107957952D02*
X213772738Y-107910333D01*
X213867976Y-107862714D01*
X214010833Y-107862714D01*
X214106071Y-107910333D01*
X214153690Y-108005571D01*
X214153690Y-108529380D01*
X214153690Y-108005571D02*
X214201309Y-107910333D01*
X214296547Y-107862714D01*
X214439404Y-107862714D01*
X214534642Y-107910333D01*
X214582261Y-108005571D01*
X214582261Y-108529380D01*
X216344166Y-107577000D02*
X216248928Y-107529380D01*
X216106071Y-107529380D01*
X215963214Y-107577000D01*
X215867976Y-107672238D01*
X215820357Y-107767476D01*
X215772738Y-107957952D01*
X215772738Y-108100809D01*
X215820357Y-108291285D01*
X215867976Y-108386523D01*
X215963214Y-108481761D01*
X216106071Y-108529380D01*
X216201309Y-108529380D01*
X216344166Y-108481761D01*
X216391785Y-108434142D01*
X216391785Y-108100809D01*
X216201309Y-108100809D01*
X216963214Y-108529380D02*
X216867976Y-108481761D01*
X216820357Y-108434142D01*
X216772738Y-108338904D01*
X216772738Y-108053190D01*
X216820357Y-107957952D01*
X216867976Y-107910333D01*
X216963214Y-107862714D01*
X217106071Y-107862714D01*
X217201309Y-107910333D01*
X217248928Y-107957952D01*
X217296547Y-108053190D01*
X217296547Y-108338904D01*
X217248928Y-108434142D01*
X217201309Y-108481761D01*
X217106071Y-108529380D01*
X216963214Y-108529380D01*
X217582261Y-107862714D02*
X217963214Y-107862714D01*
X217725119Y-107529380D02*
X217725119Y-108386523D01*
X217772738Y-108481761D01*
X217867976Y-108529380D01*
X217963214Y-108529380D01*
X218677500Y-108481761D02*
X218582261Y-108529380D01*
X218391785Y-108529380D01*
X218296547Y-108481761D01*
X218248928Y-108386523D01*
X218248928Y-108005571D01*
X218296547Y-107910333D01*
X218391785Y-107862714D01*
X218582261Y-107862714D01*
X218677500Y-107910333D01*
X218725119Y-108005571D01*
X218725119Y-108100809D01*
X218248928Y-108196047D01*
X219153690Y-108529380D02*
X219153690Y-107529380D01*
X219248928Y-108148428D02*
X219534642Y-108529380D01*
X219534642Y-107862714D02*
X219153690Y-108243666D01*
X220629880Y-107862714D02*
X220820357Y-108529380D01*
X221010833Y-108053190D01*
X221201309Y-108529380D01*
X221391785Y-107862714D01*
X221772738Y-108529380D02*
X221772738Y-107529380D01*
X222201309Y-108529380D02*
X222201309Y-108005571D01*
X222153690Y-107910333D01*
X222058452Y-107862714D01*
X221915595Y-107862714D01*
X221820357Y-107910333D01*
X221772738Y-107957952D01*
X223058452Y-108481761D02*
X222963214Y-108529380D01*
X222772738Y-108529380D01*
X222677500Y-108481761D01*
X222629880Y-108386523D01*
X222629880Y-108005571D01*
X222677500Y-107910333D01*
X222772738Y-107862714D01*
X222963214Y-107862714D01*
X223058452Y-107910333D01*
X223106071Y-108005571D01*
X223106071Y-108100809D01*
X222629880Y-108196047D01*
X223534642Y-107862714D02*
X223534642Y-108529380D01*
X223534642Y-107957952D02*
X223582261Y-107910333D01*
X223677500Y-107862714D01*
X223820357Y-107862714D01*
X223915595Y-107910333D01*
X223963214Y-108005571D01*
X223963214Y-108529380D01*
X225201309Y-107862714D02*
X225201309Y-108529380D01*
X225201309Y-107957952D02*
X225248928Y-107910333D01*
X225344166Y-107862714D01*
X225487023Y-107862714D01*
X225582261Y-107910333D01*
X225629880Y-108005571D01*
X225629880Y-108529380D01*
X226248928Y-108529380D02*
X226153690Y-108481761D01*
X226106071Y-108434142D01*
X226058452Y-108338904D01*
X226058452Y-108053190D01*
X226106071Y-107957952D01*
X226153690Y-107910333D01*
X226248928Y-107862714D01*
X226391785Y-107862714D01*
X226487023Y-107910333D01*
X226534642Y-107957952D01*
X226582261Y-108053190D01*
X226582261Y-108338904D01*
X226534642Y-108434142D01*
X226487023Y-108481761D01*
X226391785Y-108529380D01*
X226248928Y-108529380D01*
X226867976Y-107862714D02*
X227248928Y-107862714D01*
X227010833Y-107529380D02*
X227010833Y-108386523D01*
X227058452Y-108481761D01*
X227153690Y-108529380D01*
X227248928Y-108529380D01*
X196344166Y-110131761D02*
X196248928Y-110179380D01*
X196058452Y-110179380D01*
X195963214Y-110131761D01*
X195915595Y-110084142D01*
X195867976Y-109988904D01*
X195867976Y-109703190D01*
X195915595Y-109607952D01*
X195963214Y-109560333D01*
X196058452Y-109512714D01*
X196248928Y-109512714D01*
X196344166Y-109560333D01*
X196915595Y-110179380D02*
X196820357Y-110131761D01*
X196772738Y-110084142D01*
X196725119Y-109988904D01*
X196725119Y-109703190D01*
X196772738Y-109607952D01*
X196820357Y-109560333D01*
X196915595Y-109512714D01*
X197058452Y-109512714D01*
X197153690Y-109560333D01*
X197201309Y-109607952D01*
X197248928Y-109703190D01*
X197248928Y-109988904D01*
X197201309Y-110084142D01*
X197153690Y-110131761D01*
X197058452Y-110179380D01*
X196915595Y-110179380D01*
X197677500Y-109512714D02*
X197677500Y-110179380D01*
X197677500Y-109607952D02*
X197725119Y-109560333D01*
X197820357Y-109512714D01*
X197963214Y-109512714D01*
X198058452Y-109560333D01*
X198106071Y-109655571D01*
X198106071Y-110179380D01*
X198582261Y-109512714D02*
X198582261Y-110179380D01*
X198582261Y-109607952D02*
X198629880Y-109560333D01*
X198725119Y-109512714D01*
X198867976Y-109512714D01*
X198963214Y-109560333D01*
X199010833Y-109655571D01*
X199010833Y-110179380D01*
X199867976Y-110131761D02*
X199772738Y-110179380D01*
X199582261Y-110179380D01*
X199487023Y-110131761D01*
X199439404Y-110036523D01*
X199439404Y-109655571D01*
X199487023Y-109560333D01*
X199582261Y-109512714D01*
X199772738Y-109512714D01*
X199867976Y-109560333D01*
X199915595Y-109655571D01*
X199915595Y-109750809D01*
X199439404Y-109846047D01*
X200772738Y-110131761D02*
X200677500Y-110179380D01*
X200487023Y-110179380D01*
X200391785Y-110131761D01*
X200344166Y-110084142D01*
X200296547Y-109988904D01*
X200296547Y-109703190D01*
X200344166Y-109607952D01*
X200391785Y-109560333D01*
X200487023Y-109512714D01*
X200677500Y-109512714D01*
X200772738Y-109560333D01*
X201058452Y-109512714D02*
X201439404Y-109512714D01*
X201201309Y-109179380D02*
X201201309Y-110036523D01*
X201248928Y-110131761D01*
X201344166Y-110179380D01*
X201439404Y-110179380D01*
X202153690Y-110131761D02*
X202058452Y-110179380D01*
X201867976Y-110179380D01*
X201772738Y-110131761D01*
X201725119Y-110036523D01*
X201725119Y-109655571D01*
X201772738Y-109560333D01*
X201867976Y-109512714D01*
X202058452Y-109512714D01*
X202153690Y-109560333D01*
X202201309Y-109655571D01*
X202201309Y-109750809D01*
X201725119Y-109846047D01*
X203058452Y-110179380D02*
X203058452Y-109179380D01*
X203058452Y-110131761D02*
X202963214Y-110179380D01*
X202772738Y-110179380D01*
X202677500Y-110131761D01*
X202629880Y-110084142D01*
X202582261Y-109988904D01*
X202582261Y-109703190D01*
X202629880Y-109607952D01*
X202677500Y-109560333D01*
X202772738Y-109512714D01*
X202963214Y-109512714D01*
X203058452Y-109560333D01*
X204153690Y-109512714D02*
X204534642Y-109512714D01*
X204296547Y-109179380D02*
X204296547Y-110036523D01*
X204344166Y-110131761D01*
X204439404Y-110179380D01*
X204534642Y-110179380D01*
X205010833Y-110179380D02*
X204915595Y-110131761D01*
X204867976Y-110084142D01*
X204820357Y-109988904D01*
X204820357Y-109703190D01*
X204867976Y-109607952D01*
X204915595Y-109560333D01*
X205010833Y-109512714D01*
X205153690Y-109512714D01*
X205248928Y-109560333D01*
X205296547Y-109607952D01*
X205344166Y-109703190D01*
X205344166Y-109988904D01*
X205296547Y-110084142D01*
X205248928Y-110131761D01*
X205153690Y-110179380D01*
X205010833Y-110179380D01*
X206391785Y-109512714D02*
X206772738Y-109512714D01*
X206534642Y-109179380D02*
X206534642Y-110036523D01*
X206582261Y-110131761D01*
X206677500Y-110179380D01*
X206772738Y-110179380D01*
X207248928Y-110179380D02*
X207153690Y-110131761D01*
X207106071Y-110084142D01*
X207058452Y-109988904D01*
X207058452Y-109703190D01*
X207106071Y-109607952D01*
X207153690Y-109560333D01*
X207248928Y-109512714D01*
X207391785Y-109512714D01*
X207487023Y-109560333D01*
X207534642Y-109607952D01*
X207582261Y-109703190D01*
X207582261Y-109988904D01*
X207534642Y-110084142D01*
X207487023Y-110131761D01*
X207391785Y-110179380D01*
X207248928Y-110179380D01*
X209344166Y-110179380D02*
X209010833Y-109703190D01*
X208772738Y-110179380D02*
X208772738Y-109179380D01*
X209153690Y-109179380D01*
X209248928Y-109227000D01*
X209296547Y-109274619D01*
X209344166Y-109369857D01*
X209344166Y-109512714D01*
X209296547Y-109607952D01*
X209248928Y-109655571D01*
X209153690Y-109703190D01*
X208772738Y-109703190D01*
X210296547Y-109227000D02*
X210201309Y-109179380D01*
X210058452Y-109179380D01*
X209915595Y-109227000D01*
X209820357Y-109322238D01*
X209772738Y-109417476D01*
X209725119Y-109607952D01*
X209725119Y-109750809D01*
X209772738Y-109941285D01*
X209820357Y-110036523D01*
X209915595Y-110131761D01*
X210058452Y-110179380D01*
X210153690Y-110179380D01*
X210296547Y-110131761D01*
X210344166Y-110084142D01*
X210344166Y-109750809D01*
X210153690Y-109750809D01*
X211106071Y-109655571D02*
X211248928Y-109703190D01*
X211296547Y-109750809D01*
X211344166Y-109846047D01*
X211344166Y-109988904D01*
X211296547Y-110084142D01*
X211248928Y-110131761D01*
X211153690Y-110179380D01*
X210772738Y-110179380D01*
X210772738Y-109179380D01*
X211106071Y-109179380D01*
X211201309Y-109227000D01*
X211248928Y-109274619D01*
X211296547Y-109369857D01*
X211296547Y-109465095D01*
X211248928Y-109560333D01*
X211201309Y-109607952D01*
X211106071Y-109655571D01*
X210772738Y-109655571D01*
X211629880Y-109512714D02*
X212010833Y-109512714D01*
X211772738Y-109179380D02*
X211772738Y-110036523D01*
X211820357Y-110131761D01*
X211915595Y-110179380D01*
X212010833Y-110179380D01*
X212487023Y-110179380D02*
X212391785Y-110131761D01*
X212344166Y-110084142D01*
X212296547Y-109988904D01*
X212296547Y-109703190D01*
X212344166Y-109607952D01*
X212391785Y-109560333D01*
X212487023Y-109512714D01*
X212629880Y-109512714D01*
X212725119Y-109560333D01*
X212772738Y-109607952D01*
X212820357Y-109703190D01*
X212820357Y-109988904D01*
X212772738Y-110084142D01*
X212725119Y-110131761D01*
X212629880Y-110179380D01*
X212487023Y-110179380D01*
X213248928Y-110179380D02*
X213248928Y-109179380D01*
X213248928Y-109655571D02*
X213820357Y-109655571D01*
X213820357Y-110179380D02*
X213820357Y-109179380D01*
X214296547Y-110179380D02*
X214296547Y-109179380D01*
X214534642Y-109179380D01*
X214677500Y-109227000D01*
X214772738Y-109322238D01*
X214820357Y-109417476D01*
X214867976Y-109607952D01*
X214867976Y-109750809D01*
X214820357Y-109941285D01*
X214772738Y-110036523D01*
X214677500Y-110131761D01*
X214534642Y-110179380D01*
X214296547Y-110179380D01*
X215296547Y-110179380D02*
X215296547Y-109179380D01*
X215629880Y-109893666D01*
X215963214Y-109179380D01*
X215963214Y-110179380D01*
X216439404Y-110179380D02*
X216439404Y-109179380D01*
X216915595Y-110084142D02*
X216963214Y-110131761D01*
X216915595Y-110179380D01*
X216867976Y-110131761D01*
X216915595Y-110084142D01*
X216915595Y-110179380D01*
X73747619Y-99719380D02*
X74319047Y-99719380D01*
X74033333Y-100719380D02*
X74033333Y-99719380D01*
X74795238Y-100719380D02*
X74700000Y-100671761D01*
X74652380Y-100624142D01*
X74604761Y-100528904D01*
X74604761Y-100243190D01*
X74652380Y-100147952D01*
X74700000Y-100100333D01*
X74795238Y-100052714D01*
X74938095Y-100052714D01*
X75033333Y-100100333D01*
X75080952Y-100147952D01*
X75128571Y-100243190D01*
X75128571Y-100528904D01*
X75080952Y-100624142D01*
X75033333Y-100671761D01*
X74938095Y-100719380D01*
X74795238Y-100719380D01*
X76271428Y-99671761D02*
X75414285Y-100957476D01*
X76938095Y-100195571D02*
X76604761Y-100195571D01*
X76604761Y-100719380D02*
X76604761Y-99719380D01*
X77080952Y-99719380D01*
X77461904Y-100719380D02*
X77461904Y-100052714D01*
X77461904Y-100243190D02*
X77509523Y-100147952D01*
X77557142Y-100100333D01*
X77652380Y-100052714D01*
X77747619Y-100052714D01*
X78223809Y-100719380D02*
X78128571Y-100671761D01*
X78080952Y-100624142D01*
X78033333Y-100528904D01*
X78033333Y-100243190D01*
X78080952Y-100147952D01*
X78128571Y-100100333D01*
X78223809Y-100052714D01*
X78366666Y-100052714D01*
X78461904Y-100100333D01*
X78509523Y-100147952D01*
X78557142Y-100243190D01*
X78557142Y-100528904D01*
X78509523Y-100624142D01*
X78461904Y-100671761D01*
X78366666Y-100719380D01*
X78223809Y-100719380D01*
X73319047Y-102369380D02*
X72985714Y-101893190D01*
X72747619Y-102369380D02*
X72747619Y-101369380D01*
X73128571Y-101369380D01*
X73223809Y-101417000D01*
X73271428Y-101464619D01*
X73319047Y-101559857D01*
X73319047Y-101702714D01*
X73271428Y-101797952D01*
X73223809Y-101845571D01*
X73128571Y-101893190D01*
X72747619Y-101893190D01*
X74271428Y-101417000D02*
X74176190Y-101369380D01*
X74033333Y-101369380D01*
X73890476Y-101417000D01*
X73795238Y-101512238D01*
X73747619Y-101607476D01*
X73700000Y-101797952D01*
X73700000Y-101940809D01*
X73747619Y-102131285D01*
X73795238Y-102226523D01*
X73890476Y-102321761D01*
X74033333Y-102369380D01*
X74128571Y-102369380D01*
X74271428Y-102321761D01*
X74319047Y-102274142D01*
X74319047Y-101940809D01*
X74128571Y-101940809D01*
X75080952Y-101845571D02*
X75223809Y-101893190D01*
X75271428Y-101940809D01*
X75319047Y-102036047D01*
X75319047Y-102178904D01*
X75271428Y-102274142D01*
X75223809Y-102321761D01*
X75128571Y-102369380D01*
X74747619Y-102369380D01*
X74747619Y-101369380D01*
X75080952Y-101369380D01*
X75176190Y-101417000D01*
X75223809Y-101464619D01*
X75271428Y-101559857D01*
X75271428Y-101655095D01*
X75223809Y-101750333D01*
X75176190Y-101797952D01*
X75080952Y-101845571D01*
X74747619Y-101845571D01*
X75604761Y-101702714D02*
X75985714Y-101702714D01*
X75747619Y-101369380D02*
X75747619Y-102226523D01*
X75795238Y-102321761D01*
X75890476Y-102369380D01*
X75985714Y-102369380D01*
X76461904Y-102369380D02*
X76366666Y-102321761D01*
X76319047Y-102274142D01*
X76271428Y-102178904D01*
X76271428Y-101893190D01*
X76319047Y-101797952D01*
X76366666Y-101750333D01*
X76461904Y-101702714D01*
X76604761Y-101702714D01*
X76700000Y-101750333D01*
X76747619Y-101797952D01*
X76795238Y-101893190D01*
X76795238Y-102178904D01*
X76747619Y-102274142D01*
X76700000Y-102321761D01*
X76604761Y-102369380D01*
X76461904Y-102369380D01*
X77223809Y-102369380D02*
X77223809Y-101369380D01*
X77223809Y-101845571D02*
X77795238Y-101845571D01*
X77795238Y-102369380D02*
X77795238Y-101369380D01*
X78271428Y-102369380D02*
X78271428Y-101369380D01*
X78509523Y-101369380D01*
X78652380Y-101417000D01*
X78747619Y-101512238D01*
X78795238Y-101607476D01*
X78842857Y-101797952D01*
X78842857Y-101940809D01*
X78795238Y-102131285D01*
X78747619Y-102226523D01*
X78652380Y-102321761D01*
X78509523Y-102369380D01*
X78271428Y-102369380D01*
X79271428Y-102369380D02*
X79271428Y-101369380D01*
X79604761Y-102083666D01*
X79938095Y-101369380D01*
X79938095Y-102369380D01*
X80414285Y-102369380D02*
X80414285Y-101369380D01*
D13*
%TO.C,CN1*%
X117950000Y-90110000D02*
X117950000Y-91440000D01*
X116840000Y-90110000D02*
X117950000Y-90110000D01*
%TO.C,CN4*%
X179130000Y-102810000D02*
X176470000Y-102810000D01*
X179130000Y-110490000D02*
X179130000Y-102810000D01*
X176470000Y-110490000D02*
X176470000Y-102810000D01*
X179130000Y-110490000D02*
X176470000Y-110490000D01*
X179130000Y-111760000D02*
X179130000Y-113090000D01*
X179130000Y-113090000D02*
X177800000Y-113090000D01*
%TO.C,CN2*%
X173990000Y-90170000D02*
X176530000Y-90170000D01*
X173990000Y-113030000D02*
X173990000Y-90170000D01*
X176530000Y-113030000D02*
X176530000Y-90170000D01*
X173990000Y-113030000D02*
X176530000Y-113030000D01*
%TO.C,U1*%
X166624000Y-105537000D02*
X172593000Y-105537000D01*
X166624000Y-97663000D02*
X166624000Y-105537000D01*
X172593000Y-97663000D02*
X166624000Y-97663000D01*
X171510000Y-92650000D02*
X171510000Y-93980000D01*
X170180000Y-92650000D02*
X171510000Y-92650000D01*
X120650000Y-107950000D02*
X171450000Y-107950000D01*
X120650000Y-110490000D02*
X120650000Y-107950000D01*
X171450000Y-110490000D02*
X120650000Y-110490000D01*
X171450000Y-107950000D02*
X171450000Y-110490000D01*
X120590000Y-92650000D02*
X168910000Y-92650000D01*
X120590000Y-95310000D02*
X120590000Y-92650000D01*
X168910000Y-95310000D02*
X120590000Y-95310000D01*
X168910000Y-92650000D02*
X168910000Y-95310000D01*
X119475000Y-90225000D02*
X172625000Y-90225000D01*
X119475000Y-112975000D02*
X119475000Y-90225000D01*
X172625000Y-112975000D02*
X119475000Y-112975000D01*
X172625000Y-90225000D02*
X172625000Y-112975000D01*
%TO.C,CN1*%
D10*
X119012857Y-91322857D02*
X119048571Y-91358571D01*
X119084285Y-91465714D01*
X119084285Y-91537142D01*
X119048571Y-91644285D01*
X118977142Y-91715714D01*
X118905714Y-91751428D01*
X118762857Y-91787142D01*
X118655714Y-91787142D01*
X118512857Y-91751428D01*
X118441428Y-91715714D01*
X118370000Y-91644285D01*
X118334285Y-91537142D01*
X118334285Y-91465714D01*
X118370000Y-91358571D01*
X118405714Y-91322857D01*
X119084285Y-91001428D02*
X118334285Y-91001428D01*
X119084285Y-90572857D01*
X118334285Y-90572857D01*
X119084285Y-89822857D02*
X119084285Y-90251428D01*
X119084285Y-90037142D02*
X118334285Y-90037142D01*
X118441428Y-90108571D01*
X118512857Y-90180000D01*
X118548571Y-90251428D01*
%TO.C,CN2*%
X173712142Y-93908476D02*
X173759761Y-93956095D01*
X173807380Y-94098952D01*
X173807380Y-94194190D01*
X173759761Y-94337047D01*
X173664523Y-94432285D01*
X173569285Y-94479904D01*
X173378809Y-94527523D01*
X173235952Y-94527523D01*
X173045476Y-94479904D01*
X172950238Y-94432285D01*
X172855000Y-94337047D01*
X172807380Y-94194190D01*
X172807380Y-94098952D01*
X172855000Y-93956095D01*
X172902619Y-93908476D01*
X173807380Y-93479904D02*
X172807380Y-93479904D01*
X173807380Y-92908476D01*
X172807380Y-92908476D01*
X172902619Y-92479904D02*
X172855000Y-92432285D01*
X172807380Y-92337047D01*
X172807380Y-92098952D01*
X172855000Y-92003714D01*
X172902619Y-91956095D01*
X172997857Y-91908476D01*
X173093095Y-91908476D01*
X173235952Y-91956095D01*
X173807380Y-92527523D01*
X173807380Y-91908476D01*
%TO.C,U1*%
X172807380Y-102361904D02*
X173616904Y-102361904D01*
X173712142Y-102314285D01*
X173759761Y-102266666D01*
X173807380Y-102171428D01*
X173807380Y-101980952D01*
X173759761Y-101885714D01*
X173712142Y-101838095D01*
X173616904Y-101790476D01*
X172807380Y-101790476D01*
X173807380Y-100790476D02*
X173807380Y-101361904D01*
X173807380Y-101076190D02*
X172807380Y-101076190D01*
X172950238Y-101171428D01*
X173045476Y-101266666D01*
X173093095Y-101361904D01*
%TD*%
M02*
