%TF.GenerationSoftware,KiCad,Pcbnew,(5.1.9)-1*%
%TF.CreationDate,2021-04-08T22:41:19+01:00*%
%TF.ProjectId,FF OSD Adapter,4646204f-5344-4204-9164-61707465722e,rev?*%
%TF.SameCoordinates,Original*%
%TF.FileFunction,Legend,Bot*%
%TF.FilePolarity,Positive*%
%FSLAX46Y46*%
G04 Gerber Fmt 4.6, Leading zero omitted, Abs format (unit mm)*
G04 Created by KiCad (PCBNEW (5.1.9)-1) date 2021-04-08 22:41:19*
%MOMM*%
%LPD*%
G01*
G04 APERTURE LIST*
%ADD10C,0.150000*%
%ADD11C,0.120000*%
G04 APERTURE END LIST*
D10*
X151764952Y-104790666D02*
X151669714Y-104790666D01*
X151479238Y-104695428D01*
X151384000Y-104504952D01*
X151384000Y-103552571D01*
X151288761Y-103362095D01*
X151098285Y-103266857D01*
X151288761Y-103171619D01*
X151384000Y-102981142D01*
X151384000Y-102028761D01*
X151479238Y-101838285D01*
X151669714Y-101743047D01*
X151764952Y-101743047D01*
X151764952Y-101361666D02*
X151669714Y-101361666D01*
X151479238Y-101266428D01*
X151384000Y-101075952D01*
X151384000Y-100123571D01*
X151288761Y-99933095D01*
X151098285Y-99837857D01*
X151288761Y-99742619D01*
X151384000Y-99552142D01*
X151384000Y-98599761D01*
X151479238Y-98409285D01*
X151669714Y-98314047D01*
X151764952Y-98314047D01*
X117685595Y-108407857D02*
X117952261Y-108407857D01*
X117952261Y-108826904D02*
X117952261Y-108026904D01*
X117571309Y-108026904D01*
X117152261Y-108826904D02*
X117228452Y-108788809D01*
X117266547Y-108712619D01*
X117266547Y-108026904D01*
X116504642Y-108826904D02*
X116504642Y-108407857D01*
X116542738Y-108331666D01*
X116618928Y-108293571D01*
X116771309Y-108293571D01*
X116847500Y-108331666D01*
X116504642Y-108788809D02*
X116580833Y-108826904D01*
X116771309Y-108826904D01*
X116847500Y-108788809D01*
X116885595Y-108712619D01*
X116885595Y-108636428D01*
X116847500Y-108560238D01*
X116771309Y-108522142D01*
X116580833Y-108522142D01*
X116504642Y-108484047D01*
X116161785Y-108788809D02*
X116085595Y-108826904D01*
X115933214Y-108826904D01*
X115857023Y-108788809D01*
X115818928Y-108712619D01*
X115818928Y-108674523D01*
X115857023Y-108598333D01*
X115933214Y-108560238D01*
X116047500Y-108560238D01*
X116123690Y-108522142D01*
X116161785Y-108445952D01*
X116161785Y-108407857D01*
X116123690Y-108331666D01*
X116047500Y-108293571D01*
X115933214Y-108293571D01*
X115857023Y-108331666D01*
X115476071Y-108826904D02*
X115476071Y-108026904D01*
X115133214Y-108826904D02*
X115133214Y-108407857D01*
X115171309Y-108331666D01*
X115247500Y-108293571D01*
X115361785Y-108293571D01*
X115437976Y-108331666D01*
X115476071Y-108369761D01*
X114485595Y-108407857D02*
X114752261Y-108407857D01*
X114752261Y-108826904D02*
X114752261Y-108026904D01*
X114371309Y-108026904D01*
X113952261Y-108826904D02*
X114028452Y-108788809D01*
X114066547Y-108712619D01*
X114066547Y-108026904D01*
X113533214Y-108826904D02*
X113609404Y-108788809D01*
X113647500Y-108750714D01*
X113685595Y-108674523D01*
X113685595Y-108445952D01*
X113647500Y-108369761D01*
X113609404Y-108331666D01*
X113533214Y-108293571D01*
X113418928Y-108293571D01*
X113342738Y-108331666D01*
X113304642Y-108369761D01*
X113266547Y-108445952D01*
X113266547Y-108674523D01*
X113304642Y-108750714D01*
X113342738Y-108788809D01*
X113418928Y-108826904D01*
X113533214Y-108826904D01*
X112923690Y-108293571D02*
X112923690Y-109093571D01*
X112923690Y-108331666D02*
X112847500Y-108293571D01*
X112695119Y-108293571D01*
X112618928Y-108331666D01*
X112580833Y-108369761D01*
X112542738Y-108445952D01*
X112542738Y-108674523D01*
X112580833Y-108750714D01*
X112618928Y-108788809D01*
X112695119Y-108826904D01*
X112847500Y-108826904D01*
X112923690Y-108788809D01*
X112199880Y-108293571D02*
X112199880Y-109093571D01*
X112199880Y-108331666D02*
X112123690Y-108293571D01*
X111971309Y-108293571D01*
X111895119Y-108331666D01*
X111857023Y-108369761D01*
X111818928Y-108445952D01*
X111818928Y-108674523D01*
X111857023Y-108750714D01*
X111895119Y-108788809D01*
X111971309Y-108826904D01*
X112123690Y-108826904D01*
X112199880Y-108788809D01*
X111552261Y-108293571D02*
X111361785Y-108826904D01*
X111171309Y-108293571D02*
X111361785Y-108826904D01*
X111437976Y-109017380D01*
X111476071Y-109055476D01*
X111552261Y-109093571D01*
X110104642Y-108026904D02*
X109952261Y-108026904D01*
X109876071Y-108065000D01*
X109799880Y-108141190D01*
X109761785Y-108293571D01*
X109761785Y-108560238D01*
X109799880Y-108712619D01*
X109876071Y-108788809D01*
X109952261Y-108826904D01*
X110104642Y-108826904D01*
X110180833Y-108788809D01*
X110257023Y-108712619D01*
X110295119Y-108560238D01*
X110295119Y-108293571D01*
X110257023Y-108141190D01*
X110180833Y-108065000D01*
X110104642Y-108026904D01*
X109457023Y-108788809D02*
X109342738Y-108826904D01*
X109152261Y-108826904D01*
X109076071Y-108788809D01*
X109037976Y-108750714D01*
X108999880Y-108674523D01*
X108999880Y-108598333D01*
X109037976Y-108522142D01*
X109076071Y-108484047D01*
X109152261Y-108445952D01*
X109304642Y-108407857D01*
X109380833Y-108369761D01*
X109418928Y-108331666D01*
X109457023Y-108255476D01*
X109457023Y-108179285D01*
X109418928Y-108103095D01*
X109380833Y-108065000D01*
X109304642Y-108026904D01*
X109114166Y-108026904D01*
X108999880Y-108065000D01*
X108657023Y-108826904D02*
X108657023Y-108026904D01*
X108466547Y-108026904D01*
X108352261Y-108065000D01*
X108276071Y-108141190D01*
X108237976Y-108217380D01*
X108199880Y-108369761D01*
X108199880Y-108484047D01*
X108237976Y-108636428D01*
X108276071Y-108712619D01*
X108352261Y-108788809D01*
X108466547Y-108826904D01*
X108657023Y-108826904D01*
X117952261Y-109757857D02*
X117837976Y-109795952D01*
X117799880Y-109834047D01*
X117761785Y-109910238D01*
X117761785Y-110024523D01*
X117799880Y-110100714D01*
X117837976Y-110138809D01*
X117914166Y-110176904D01*
X118218928Y-110176904D01*
X118218928Y-109376904D01*
X117952261Y-109376904D01*
X117876071Y-109415000D01*
X117837976Y-109453095D01*
X117799880Y-109529285D01*
X117799880Y-109605476D01*
X117837976Y-109681666D01*
X117876071Y-109719761D01*
X117952261Y-109757857D01*
X118218928Y-109757857D01*
X117304642Y-110176904D02*
X117380833Y-110138809D01*
X117418928Y-110062619D01*
X117418928Y-109376904D01*
X116657023Y-109643571D02*
X116657023Y-110176904D01*
X116999880Y-109643571D02*
X116999880Y-110062619D01*
X116961785Y-110138809D01*
X116885595Y-110176904D01*
X116771309Y-110176904D01*
X116695119Y-110138809D01*
X116657023Y-110100714D01*
X115971309Y-110138809D02*
X116047500Y-110176904D01*
X116199880Y-110176904D01*
X116276071Y-110138809D01*
X116314166Y-110062619D01*
X116314166Y-109757857D01*
X116276071Y-109681666D01*
X116199880Y-109643571D01*
X116047500Y-109643571D01*
X115971309Y-109681666D01*
X115933214Y-109757857D01*
X115933214Y-109834047D01*
X116314166Y-109910238D01*
X114980833Y-110176904D02*
X114980833Y-109376904D01*
X114676071Y-109376904D01*
X114599880Y-109415000D01*
X114561785Y-109453095D01*
X114523690Y-109529285D01*
X114523690Y-109643571D01*
X114561785Y-109719761D01*
X114599880Y-109757857D01*
X114676071Y-109795952D01*
X114980833Y-109795952D01*
X114180833Y-110176904D02*
X114180833Y-109643571D01*
X114180833Y-109376904D02*
X114218928Y-109415000D01*
X114180833Y-109453095D01*
X114142738Y-109415000D01*
X114180833Y-109376904D01*
X114180833Y-109453095D01*
X113685595Y-110176904D02*
X113761785Y-110138809D01*
X113799880Y-110062619D01*
X113799880Y-109376904D01*
X113266547Y-110176904D02*
X113342738Y-110138809D01*
X113380833Y-110062619D01*
X113380833Y-109376904D01*
X112390357Y-109948333D02*
X112009404Y-109948333D01*
X112466547Y-110176904D02*
X112199880Y-109376904D01*
X111933214Y-110176904D01*
X111323690Y-110176904D02*
X111323690Y-109376904D01*
X111323690Y-110138809D02*
X111399880Y-110176904D01*
X111552261Y-110176904D01*
X111628452Y-110138809D01*
X111666547Y-110100714D01*
X111704642Y-110024523D01*
X111704642Y-109795952D01*
X111666547Y-109719761D01*
X111628452Y-109681666D01*
X111552261Y-109643571D01*
X111399880Y-109643571D01*
X111323690Y-109681666D01*
X110599880Y-110176904D02*
X110599880Y-109757857D01*
X110637976Y-109681666D01*
X110714166Y-109643571D01*
X110866547Y-109643571D01*
X110942738Y-109681666D01*
X110599880Y-110138809D02*
X110676071Y-110176904D01*
X110866547Y-110176904D01*
X110942738Y-110138809D01*
X110980833Y-110062619D01*
X110980833Y-109986428D01*
X110942738Y-109910238D01*
X110866547Y-109872142D01*
X110676071Y-109872142D01*
X110599880Y-109834047D01*
X110218928Y-109643571D02*
X110218928Y-110443571D01*
X110218928Y-109681666D02*
X110142738Y-109643571D01*
X109990357Y-109643571D01*
X109914166Y-109681666D01*
X109876071Y-109719761D01*
X109837976Y-109795952D01*
X109837976Y-110024523D01*
X109876071Y-110100714D01*
X109914166Y-110138809D01*
X109990357Y-110176904D01*
X110142738Y-110176904D01*
X110218928Y-110138809D01*
X109609404Y-109643571D02*
X109304642Y-109643571D01*
X109495119Y-109376904D02*
X109495119Y-110062619D01*
X109457023Y-110138809D01*
X109380833Y-110176904D01*
X109304642Y-110176904D01*
X108733214Y-110138809D02*
X108809404Y-110176904D01*
X108961785Y-110176904D01*
X109037976Y-110138809D01*
X109076071Y-110062619D01*
X109076071Y-109757857D01*
X109037976Y-109681666D01*
X108961785Y-109643571D01*
X108809404Y-109643571D01*
X108733214Y-109681666D01*
X108695119Y-109757857D01*
X108695119Y-109834047D01*
X109076071Y-109910238D01*
X108352261Y-110176904D02*
X108352261Y-109643571D01*
X108352261Y-109795952D02*
X108314166Y-109719761D01*
X108276071Y-109681666D01*
X108199880Y-109643571D01*
X108123690Y-109643571D01*
X115323690Y-111526904D02*
X115323690Y-110726904D01*
X115323690Y-111031666D02*
X115247500Y-110993571D01*
X115095119Y-110993571D01*
X115018928Y-111031666D01*
X114980833Y-111069761D01*
X114942738Y-111145952D01*
X114942738Y-111374523D01*
X114980833Y-111450714D01*
X115018928Y-111488809D01*
X115095119Y-111526904D01*
X115247500Y-111526904D01*
X115323690Y-111488809D01*
X114676071Y-110993571D02*
X114485595Y-111526904D01*
X114295119Y-110993571D02*
X114485595Y-111526904D01*
X114561785Y-111717380D01*
X114599880Y-111755476D01*
X114676071Y-111793571D01*
X113418928Y-111488809D02*
X113342738Y-111526904D01*
X113190357Y-111526904D01*
X113114166Y-111488809D01*
X113076071Y-111412619D01*
X113076071Y-111374523D01*
X113114166Y-111298333D01*
X113190357Y-111260238D01*
X113304642Y-111260238D01*
X113380833Y-111222142D01*
X113418928Y-111145952D01*
X113418928Y-111107857D01*
X113380833Y-111031666D01*
X113304642Y-110993571D01*
X113190357Y-110993571D01*
X113114166Y-111031666D01*
X112618928Y-111526904D02*
X112695119Y-111488809D01*
X112733214Y-111450714D01*
X112771309Y-111374523D01*
X112771309Y-111145952D01*
X112733214Y-111069761D01*
X112695119Y-111031666D01*
X112618928Y-110993571D01*
X112504642Y-110993571D01*
X112428452Y-111031666D01*
X112390357Y-111069761D01*
X112352261Y-111145952D01*
X112352261Y-111374523D01*
X112390357Y-111450714D01*
X112428452Y-111488809D01*
X112504642Y-111526904D01*
X112618928Y-111526904D01*
X111895119Y-111526904D02*
X111971309Y-111488809D01*
X112009404Y-111412619D01*
X112009404Y-110726904D01*
X111247500Y-111526904D02*
X111247500Y-111107857D01*
X111285595Y-111031666D01*
X111361785Y-110993571D01*
X111514166Y-110993571D01*
X111590357Y-111031666D01*
X111247500Y-111488809D02*
X111323690Y-111526904D01*
X111514166Y-111526904D01*
X111590357Y-111488809D01*
X111628452Y-111412619D01*
X111628452Y-111336428D01*
X111590357Y-111260238D01*
X111514166Y-111222142D01*
X111323690Y-111222142D01*
X111247500Y-111184047D01*
X110866547Y-111526904D02*
X110866547Y-110993571D01*
X110866547Y-111145952D02*
X110828452Y-111069761D01*
X110790357Y-111031666D01*
X110714166Y-110993571D01*
X110637976Y-110993571D01*
X110371309Y-111526904D02*
X110371309Y-110993571D01*
X110371309Y-111069761D02*
X110333214Y-111031666D01*
X110257023Y-110993571D01*
X110142738Y-110993571D01*
X110066547Y-111031666D01*
X110028452Y-111107857D01*
X110028452Y-111526904D01*
X110028452Y-111107857D02*
X109990357Y-111031666D01*
X109914166Y-110993571D01*
X109799880Y-110993571D01*
X109723690Y-111031666D01*
X109685595Y-111107857D01*
X109685595Y-111526904D01*
X109190357Y-111526904D02*
X109266547Y-111488809D01*
X109304642Y-111450714D01*
X109342738Y-111374523D01*
X109342738Y-111145952D01*
X109304642Y-111069761D01*
X109266547Y-111031666D01*
X109190357Y-110993571D01*
X109076071Y-110993571D01*
X108999880Y-111031666D01*
X108961785Y-111069761D01*
X108923690Y-111145952D01*
X108923690Y-111374523D01*
X108961785Y-111450714D01*
X108999880Y-111488809D01*
X109076071Y-111526904D01*
X109190357Y-111526904D01*
X108580833Y-110993571D02*
X108580833Y-111526904D01*
X108580833Y-111069761D02*
X108542738Y-111031666D01*
X108466547Y-110993571D01*
X108352261Y-110993571D01*
X108276071Y-111031666D01*
X108237976Y-111107857D01*
X108237976Y-111526904D01*
X125876071Y-112876904D02*
X125876071Y-112076904D01*
X125533214Y-112876904D02*
X125533214Y-112457857D01*
X125571309Y-112381666D01*
X125647500Y-112343571D01*
X125761785Y-112343571D01*
X125837976Y-112381666D01*
X125876071Y-112419761D01*
X125266547Y-112343571D02*
X124961785Y-112343571D01*
X125152261Y-112076904D02*
X125152261Y-112762619D01*
X125114166Y-112838809D01*
X125037976Y-112876904D01*
X124961785Y-112876904D01*
X124809404Y-112343571D02*
X124504642Y-112343571D01*
X124695119Y-112076904D02*
X124695119Y-112762619D01*
X124657023Y-112838809D01*
X124580833Y-112876904D01*
X124504642Y-112876904D01*
X124237976Y-112343571D02*
X124237976Y-113143571D01*
X124237976Y-112381666D02*
X124161785Y-112343571D01*
X124009404Y-112343571D01*
X123933214Y-112381666D01*
X123895119Y-112419761D01*
X123857023Y-112495952D01*
X123857023Y-112724523D01*
X123895119Y-112800714D01*
X123933214Y-112838809D01*
X124009404Y-112876904D01*
X124161785Y-112876904D01*
X124237976Y-112838809D01*
X123552261Y-112838809D02*
X123476071Y-112876904D01*
X123323690Y-112876904D01*
X123247500Y-112838809D01*
X123209404Y-112762619D01*
X123209404Y-112724523D01*
X123247500Y-112648333D01*
X123323690Y-112610238D01*
X123437976Y-112610238D01*
X123514166Y-112572142D01*
X123552261Y-112495952D01*
X123552261Y-112457857D01*
X123514166Y-112381666D01*
X123437976Y-112343571D01*
X123323690Y-112343571D01*
X123247500Y-112381666D01*
X122866547Y-112800714D02*
X122828452Y-112838809D01*
X122866547Y-112876904D01*
X122904642Y-112838809D01*
X122866547Y-112800714D01*
X122866547Y-112876904D01*
X122866547Y-112381666D02*
X122828452Y-112419761D01*
X122866547Y-112457857D01*
X122904642Y-112419761D01*
X122866547Y-112381666D01*
X122866547Y-112457857D01*
X121914166Y-112038809D02*
X122599880Y-113067380D01*
X121076071Y-112038809D02*
X121761785Y-113067380D01*
X120466547Y-112343571D02*
X120466547Y-112991190D01*
X120504642Y-113067380D01*
X120542738Y-113105476D01*
X120618928Y-113143571D01*
X120733214Y-113143571D01*
X120809404Y-113105476D01*
X120466547Y-112838809D02*
X120542738Y-112876904D01*
X120695119Y-112876904D01*
X120771309Y-112838809D01*
X120809404Y-112800714D01*
X120847500Y-112724523D01*
X120847500Y-112495952D01*
X120809404Y-112419761D01*
X120771309Y-112381666D01*
X120695119Y-112343571D01*
X120542738Y-112343571D01*
X120466547Y-112381666D01*
X120085595Y-112876904D02*
X120085595Y-112343571D01*
X120085595Y-112076904D02*
X120123690Y-112115000D01*
X120085595Y-112153095D01*
X120047500Y-112115000D01*
X120085595Y-112076904D01*
X120085595Y-112153095D01*
X119818928Y-112343571D02*
X119514166Y-112343571D01*
X119704642Y-112076904D02*
X119704642Y-112762619D01*
X119666547Y-112838809D01*
X119590357Y-112876904D01*
X119514166Y-112876904D01*
X119247500Y-112876904D02*
X119247500Y-112076904D01*
X118904642Y-112876904D02*
X118904642Y-112457857D01*
X118942738Y-112381666D01*
X119018928Y-112343571D01*
X119133214Y-112343571D01*
X119209404Y-112381666D01*
X119247500Y-112419761D01*
X118180833Y-112343571D02*
X118180833Y-112876904D01*
X118523690Y-112343571D02*
X118523690Y-112762619D01*
X118485595Y-112838809D01*
X118409404Y-112876904D01*
X118295119Y-112876904D01*
X118218928Y-112838809D01*
X118180833Y-112800714D01*
X117799880Y-112876904D02*
X117799880Y-112076904D01*
X117799880Y-112381666D02*
X117723690Y-112343571D01*
X117571309Y-112343571D01*
X117495119Y-112381666D01*
X117457023Y-112419761D01*
X117418928Y-112495952D01*
X117418928Y-112724523D01*
X117457023Y-112800714D01*
X117495119Y-112838809D01*
X117571309Y-112876904D01*
X117723690Y-112876904D01*
X117799880Y-112838809D01*
X117076071Y-112800714D02*
X117037976Y-112838809D01*
X117076071Y-112876904D01*
X117114166Y-112838809D01*
X117076071Y-112800714D01*
X117076071Y-112876904D01*
X116352261Y-112838809D02*
X116428452Y-112876904D01*
X116580833Y-112876904D01*
X116657023Y-112838809D01*
X116695119Y-112800714D01*
X116733214Y-112724523D01*
X116733214Y-112495952D01*
X116695119Y-112419761D01*
X116657023Y-112381666D01*
X116580833Y-112343571D01*
X116428452Y-112343571D01*
X116352261Y-112381666D01*
X115895119Y-112876904D02*
X115971309Y-112838809D01*
X116009404Y-112800714D01*
X116047500Y-112724523D01*
X116047500Y-112495952D01*
X116009404Y-112419761D01*
X115971309Y-112381666D01*
X115895119Y-112343571D01*
X115780833Y-112343571D01*
X115704642Y-112381666D01*
X115666547Y-112419761D01*
X115628452Y-112495952D01*
X115628452Y-112724523D01*
X115666547Y-112800714D01*
X115704642Y-112838809D01*
X115780833Y-112876904D01*
X115895119Y-112876904D01*
X115285595Y-112876904D02*
X115285595Y-112343571D01*
X115285595Y-112419761D02*
X115247500Y-112381666D01*
X115171309Y-112343571D01*
X115057023Y-112343571D01*
X114980833Y-112381666D01*
X114942738Y-112457857D01*
X114942738Y-112876904D01*
X114942738Y-112457857D02*
X114904642Y-112381666D01*
X114828452Y-112343571D01*
X114714166Y-112343571D01*
X114637976Y-112381666D01*
X114599880Y-112457857D01*
X114599880Y-112876904D01*
X113647500Y-112038809D02*
X114333214Y-113067380D01*
X113418928Y-112838809D02*
X113342738Y-112876904D01*
X113190357Y-112876904D01*
X113114166Y-112838809D01*
X113076071Y-112762619D01*
X113076071Y-112724523D01*
X113114166Y-112648333D01*
X113190357Y-112610238D01*
X113304642Y-112610238D01*
X113380833Y-112572142D01*
X113418928Y-112495952D01*
X113418928Y-112457857D01*
X113380833Y-112381666D01*
X113304642Y-112343571D01*
X113190357Y-112343571D01*
X113114166Y-112381666D01*
X112618928Y-112876904D02*
X112695119Y-112838809D01*
X112733214Y-112800714D01*
X112771309Y-112724523D01*
X112771309Y-112495952D01*
X112733214Y-112419761D01*
X112695119Y-112381666D01*
X112618928Y-112343571D01*
X112504642Y-112343571D01*
X112428452Y-112381666D01*
X112390357Y-112419761D01*
X112352261Y-112495952D01*
X112352261Y-112724523D01*
X112390357Y-112800714D01*
X112428452Y-112838809D01*
X112504642Y-112876904D01*
X112618928Y-112876904D01*
X111895119Y-112876904D02*
X111971309Y-112838809D01*
X112009404Y-112762619D01*
X112009404Y-112076904D01*
X111247500Y-112876904D02*
X111247500Y-112457857D01*
X111285595Y-112381666D01*
X111361785Y-112343571D01*
X111514166Y-112343571D01*
X111590357Y-112381666D01*
X111247500Y-112838809D02*
X111323690Y-112876904D01*
X111514166Y-112876904D01*
X111590357Y-112838809D01*
X111628452Y-112762619D01*
X111628452Y-112686428D01*
X111590357Y-112610238D01*
X111514166Y-112572142D01*
X111323690Y-112572142D01*
X111247500Y-112534047D01*
X110866547Y-112876904D02*
X110866547Y-112343571D01*
X110866547Y-112495952D02*
X110828452Y-112419761D01*
X110790357Y-112381666D01*
X110714166Y-112343571D01*
X110637976Y-112343571D01*
X110371309Y-112876904D02*
X110371309Y-112343571D01*
X110371309Y-112419761D02*
X110333214Y-112381666D01*
X110257023Y-112343571D01*
X110142738Y-112343571D01*
X110066547Y-112381666D01*
X110028452Y-112457857D01*
X110028452Y-112876904D01*
X110028452Y-112457857D02*
X109990357Y-112381666D01*
X109914166Y-112343571D01*
X109799880Y-112343571D01*
X109723690Y-112381666D01*
X109685595Y-112457857D01*
X109685595Y-112876904D01*
X109190357Y-112876904D02*
X109266547Y-112838809D01*
X109304642Y-112800714D01*
X109342738Y-112724523D01*
X109342738Y-112495952D01*
X109304642Y-112419761D01*
X109266547Y-112381666D01*
X109190357Y-112343571D01*
X109076071Y-112343571D01*
X108999880Y-112381666D01*
X108961785Y-112419761D01*
X108923690Y-112495952D01*
X108923690Y-112724523D01*
X108961785Y-112800714D01*
X108999880Y-112838809D01*
X109076071Y-112876904D01*
X109190357Y-112876904D01*
X108580833Y-112343571D02*
X108580833Y-112876904D01*
X108580833Y-112419761D02*
X108542738Y-112381666D01*
X108466547Y-112343571D01*
X108352261Y-112343571D01*
X108276071Y-112381666D01*
X108237976Y-112457857D01*
X108237976Y-112876904D01*
X128142904Y-105037000D02*
X128238142Y-104989380D01*
X128381000Y-104989380D01*
X128523857Y-105037000D01*
X128619095Y-105132238D01*
X128666714Y-105227476D01*
X128714333Y-105417952D01*
X128714333Y-105560809D01*
X128666714Y-105751285D01*
X128619095Y-105846523D01*
X128523857Y-105941761D01*
X128381000Y-105989380D01*
X128285761Y-105989380D01*
X128142904Y-105941761D01*
X128095285Y-105894142D01*
X128095285Y-105560809D01*
X128285761Y-105560809D01*
X127666714Y-105989380D02*
X127666714Y-104989380D01*
X127095285Y-105989380D01*
X127095285Y-104989380D01*
X126619095Y-105989380D02*
X126619095Y-104989380D01*
X126381000Y-104989380D01*
X126238142Y-105037000D01*
X126142904Y-105132238D01*
X126095285Y-105227476D01*
X126047666Y-105417952D01*
X126047666Y-105560809D01*
X126095285Y-105751285D01*
X126142904Y-105846523D01*
X126238142Y-105941761D01*
X126381000Y-105989380D01*
X126619095Y-105989380D01*
X128666714Y-103068428D02*
X127904809Y-103068428D01*
X128285761Y-103449380D02*
X128285761Y-102687476D01*
X126952428Y-102449380D02*
X127428619Y-102449380D01*
X127476238Y-102925571D01*
X127428619Y-102877952D01*
X127333380Y-102830333D01*
X127095285Y-102830333D01*
X127000047Y-102877952D01*
X126952428Y-102925571D01*
X126904809Y-103020809D01*
X126904809Y-103258904D01*
X126952428Y-103354142D01*
X127000047Y-103401761D01*
X127095285Y-103449380D01*
X127333380Y-103449380D01*
X127428619Y-103401761D01*
X127476238Y-103354142D01*
X126619095Y-102449380D02*
X126285761Y-103449380D01*
X125952428Y-102449380D01*
X121562619Y-91844761D02*
X121419761Y-91892380D01*
X121181666Y-91892380D01*
X121086428Y-91844761D01*
X121038809Y-91797142D01*
X120991190Y-91701904D01*
X120991190Y-91606666D01*
X121038809Y-91511428D01*
X121086428Y-91463809D01*
X121181666Y-91416190D01*
X121372142Y-91368571D01*
X121467380Y-91320952D01*
X121515000Y-91273333D01*
X121562619Y-91178095D01*
X121562619Y-91082857D01*
X121515000Y-90987619D01*
X121467380Y-90940000D01*
X121372142Y-90892380D01*
X121134047Y-90892380D01*
X120991190Y-90940000D01*
X120657857Y-91225714D02*
X120419761Y-91892380D01*
X120181666Y-91225714D02*
X120419761Y-91892380D01*
X120515000Y-92130476D01*
X120562619Y-92178095D01*
X120657857Y-92225714D01*
X119800714Y-91225714D02*
X119800714Y-91892380D01*
X119800714Y-91320952D02*
X119753095Y-91273333D01*
X119657857Y-91225714D01*
X119515000Y-91225714D01*
X119419761Y-91273333D01*
X119372142Y-91368571D01*
X119372142Y-91892380D01*
X118467380Y-91844761D02*
X118562619Y-91892380D01*
X118753095Y-91892380D01*
X118848333Y-91844761D01*
X118895952Y-91797142D01*
X118943571Y-91701904D01*
X118943571Y-91416190D01*
X118895952Y-91320952D01*
X118848333Y-91273333D01*
X118753095Y-91225714D01*
X118562619Y-91225714D01*
X118467380Y-91273333D01*
X150534380Y-99274380D02*
X150201047Y-100274380D01*
X149867714Y-99274380D01*
X148820095Y-100226761D02*
X148677238Y-100274380D01*
X148439142Y-100274380D01*
X148343904Y-100226761D01*
X148296285Y-100179142D01*
X148248666Y-100083904D01*
X148248666Y-99988666D01*
X148296285Y-99893428D01*
X148343904Y-99845809D01*
X148439142Y-99798190D01*
X148629619Y-99750571D01*
X148724857Y-99702952D01*
X148772476Y-99655333D01*
X148820095Y-99560095D01*
X148820095Y-99464857D01*
X148772476Y-99369619D01*
X148724857Y-99322000D01*
X148629619Y-99274380D01*
X148391523Y-99274380D01*
X148248666Y-99322000D01*
X147915333Y-99607714D02*
X147677238Y-100274380D01*
X147439142Y-99607714D02*
X147677238Y-100274380D01*
X147772476Y-100512476D01*
X147820095Y-100560095D01*
X147915333Y-100607714D01*
X147058190Y-99607714D02*
X147058190Y-100274380D01*
X147058190Y-99702952D02*
X147010571Y-99655333D01*
X146915333Y-99607714D01*
X146772476Y-99607714D01*
X146677238Y-99655333D01*
X146629619Y-99750571D01*
X146629619Y-100274380D01*
X145724857Y-100226761D02*
X145820095Y-100274380D01*
X146010571Y-100274380D01*
X146105809Y-100226761D01*
X146153428Y-100179142D01*
X146201047Y-100083904D01*
X146201047Y-99798190D01*
X146153428Y-99702952D01*
X146105809Y-99655333D01*
X146010571Y-99607714D01*
X145820095Y-99607714D01*
X145724857Y-99655333D01*
X149923142Y-103608142D02*
X149970761Y-103655761D01*
X150113619Y-103703380D01*
X150208857Y-103703380D01*
X150351714Y-103655761D01*
X150446952Y-103560523D01*
X150494571Y-103465285D01*
X150542190Y-103274809D01*
X150542190Y-103131952D01*
X150494571Y-102941476D01*
X150446952Y-102846238D01*
X150351714Y-102751000D01*
X150208857Y-102703380D01*
X150113619Y-102703380D01*
X149970761Y-102751000D01*
X149923142Y-102798619D01*
X148780285Y-102655761D02*
X149637428Y-103941476D01*
X148446952Y-103703380D02*
X148446952Y-102703380D01*
X148446952Y-103179571D02*
X147875523Y-103179571D01*
X147875523Y-103703380D02*
X147875523Y-102703380D01*
X146685047Y-103655761D02*
X146542190Y-103703380D01*
X146304095Y-103703380D01*
X146208857Y-103655761D01*
X146161238Y-103608142D01*
X146113619Y-103512904D01*
X146113619Y-103417666D01*
X146161238Y-103322428D01*
X146208857Y-103274809D01*
X146304095Y-103227190D01*
X146494571Y-103179571D01*
X146589809Y-103131952D01*
X146637428Y-103084333D01*
X146685047Y-102989095D01*
X146685047Y-102893857D01*
X146637428Y-102798619D01*
X146589809Y-102751000D01*
X146494571Y-102703380D01*
X146256476Y-102703380D01*
X146113619Y-102751000D01*
X145780285Y-103036714D02*
X145542190Y-103703380D01*
X145304095Y-103036714D02*
X145542190Y-103703380D01*
X145637428Y-103941476D01*
X145685047Y-103989095D01*
X145780285Y-104036714D01*
X144923142Y-103036714D02*
X144923142Y-103703380D01*
X144923142Y-103131952D02*
X144875523Y-103084333D01*
X144780285Y-103036714D01*
X144637428Y-103036714D01*
X144542190Y-103084333D01*
X144494571Y-103179571D01*
X144494571Y-103703380D01*
X143589809Y-103655761D02*
X143685047Y-103703380D01*
X143875523Y-103703380D01*
X143970761Y-103655761D01*
X144018380Y-103608142D01*
X144066000Y-103512904D01*
X144066000Y-103227190D01*
X144018380Y-103131952D01*
X143970761Y-103084333D01*
X143875523Y-103036714D01*
X143685047Y-103036714D01*
X143589809Y-103084333D01*
X159027619Y-107084761D02*
X158884761Y-107132380D01*
X158646666Y-107132380D01*
X158551428Y-107084761D01*
X158503809Y-107037142D01*
X158456190Y-106941904D01*
X158456190Y-106846666D01*
X158503809Y-106751428D01*
X158551428Y-106703809D01*
X158646666Y-106656190D01*
X158837142Y-106608571D01*
X158932380Y-106560952D01*
X158980000Y-106513333D01*
X159027619Y-106418095D01*
X159027619Y-106322857D01*
X158980000Y-106227619D01*
X158932380Y-106180000D01*
X158837142Y-106132380D01*
X158599047Y-106132380D01*
X158456190Y-106180000D01*
X158122857Y-106465714D02*
X157884761Y-107132380D01*
X157646666Y-106465714D02*
X157884761Y-107132380D01*
X157980000Y-107370476D01*
X158027619Y-107418095D01*
X158122857Y-107465714D01*
X157265714Y-106465714D02*
X157265714Y-107132380D01*
X157265714Y-106560952D02*
X157218095Y-106513333D01*
X157122857Y-106465714D01*
X156980000Y-106465714D01*
X156884761Y-106513333D01*
X156837142Y-106608571D01*
X156837142Y-107132380D01*
X155932380Y-107084761D02*
X156027619Y-107132380D01*
X156218095Y-107132380D01*
X156313333Y-107084761D01*
X156360952Y-107037142D01*
X156408571Y-106941904D01*
X156408571Y-106656190D01*
X156360952Y-106560952D01*
X156313333Y-106513333D01*
X156218095Y-106465714D01*
X156027619Y-106465714D01*
X155932380Y-106513333D01*
X128396904Y-97369380D02*
X127825476Y-97369380D01*
X128111190Y-98369380D02*
X128111190Y-97369380D01*
X127587380Y-97369380D02*
X126920714Y-98369380D01*
X126920714Y-97369380D02*
X127587380Y-98369380D01*
X127928666Y-100909380D02*
X128262000Y-100433190D01*
X128500095Y-100909380D02*
X128500095Y-99909380D01*
X128119142Y-99909380D01*
X128023904Y-99957000D01*
X127976285Y-100004619D01*
X127928666Y-100099857D01*
X127928666Y-100242714D01*
X127976285Y-100337952D01*
X128023904Y-100385571D01*
X128119142Y-100433190D01*
X128500095Y-100433190D01*
X127595333Y-99909380D02*
X126928666Y-100909380D01*
X126928666Y-99909380D02*
X127595333Y-100909380D01*
X136425714Y-111885000D02*
X136068571Y-111885000D01*
X136497142Y-112099285D02*
X136247142Y-111349285D01*
X135997142Y-112099285D01*
X135354285Y-112099285D02*
X135782857Y-112099285D01*
X135568571Y-112099285D02*
X135568571Y-111349285D01*
X135640000Y-111456428D01*
X135711428Y-111527857D01*
X135782857Y-111563571D01*
X131218714Y-111885000D02*
X130861571Y-111885000D01*
X131290142Y-112099285D02*
X131040142Y-111349285D01*
X130790142Y-112099285D01*
X130397285Y-111349285D02*
X130325857Y-111349285D01*
X130254428Y-111385000D01*
X130218714Y-111420714D01*
X130183000Y-111492142D01*
X130147285Y-111635000D01*
X130147285Y-111813571D01*
X130183000Y-111956428D01*
X130218714Y-112027857D01*
X130254428Y-112063571D01*
X130325857Y-112099285D01*
X130397285Y-112099285D01*
X130468714Y-112063571D01*
X130504428Y-112027857D01*
X130540142Y-111956428D01*
X130575857Y-111813571D01*
X130575857Y-111635000D01*
X130540142Y-111492142D01*
X130504428Y-111420714D01*
X130468714Y-111385000D01*
X130397285Y-111349285D01*
D11*
%TO.C,CN3*%
X140970000Y-96647000D02*
X139700000Y-96647000D01*
X140970000Y-97917000D02*
X140970000Y-96647000D01*
X138657071Y-105917000D02*
X138260000Y-105917000D01*
X138657071Y-105157000D02*
X138260000Y-105157000D01*
X129600000Y-105917000D02*
X135600000Y-105917000D01*
X129600000Y-105157000D02*
X129600000Y-105917000D01*
X135600000Y-105157000D02*
X129600000Y-105157000D01*
X138260000Y-104267000D02*
X135600000Y-104267000D01*
X138657071Y-103377000D02*
X138260000Y-103377000D01*
X138657071Y-102617000D02*
X138260000Y-102617000D01*
X129600000Y-103377000D02*
X135600000Y-103377000D01*
X129600000Y-102617000D02*
X129600000Y-103377000D01*
X135600000Y-102617000D02*
X129600000Y-102617000D01*
X138260000Y-101727000D02*
X135600000Y-101727000D01*
X138657071Y-100837000D02*
X138260000Y-100837000D01*
X138657071Y-100077000D02*
X138260000Y-100077000D01*
X129600000Y-100837000D02*
X135600000Y-100837000D01*
X129600000Y-100077000D02*
X129600000Y-100837000D01*
X135600000Y-100077000D02*
X129600000Y-100077000D01*
X138260000Y-99187000D02*
X135600000Y-99187000D01*
X138590000Y-98297000D02*
X138260000Y-98297000D01*
X138590000Y-97537000D02*
X138260000Y-97537000D01*
X135600000Y-98197000D02*
X129600000Y-98197000D01*
X135600000Y-98077000D02*
X129600000Y-98077000D01*
X135600000Y-97957000D02*
X129600000Y-97957000D01*
X135600000Y-97837000D02*
X129600000Y-97837000D01*
X135600000Y-97717000D02*
X129600000Y-97717000D01*
X135600000Y-97597000D02*
X129600000Y-97597000D01*
X129600000Y-98297000D02*
X135600000Y-98297000D01*
X129600000Y-97537000D02*
X129600000Y-98297000D01*
X135600000Y-97537000D02*
X129600000Y-97537000D01*
X135600000Y-96587000D02*
X138260000Y-96587000D01*
X135600000Y-106867000D02*
X135600000Y-96587000D01*
X138260000Y-106867000D02*
X135600000Y-106867000D01*
X138260000Y-96587000D02*
X138260000Y-106867000D01*
%TO.C,JP1*%
X132650000Y-112760000D02*
X134050000Y-112760000D01*
X134750000Y-112060000D02*
X134750000Y-111460000D01*
X134050000Y-110760000D02*
X132650000Y-110760000D01*
X131950000Y-111460000D02*
X131950000Y-112060000D01*
X131950000Y-112060000D02*
G75*
G03*
X132650000Y-112760000I700000J0D01*
G01*
X132650000Y-110760000D02*
G75*
G03*
X131950000Y-111460000I0J-700000D01*
G01*
X134750000Y-111460000D02*
G75*
G03*
X134050000Y-110760000I-700000J0D01*
G01*
X134050000Y-112760000D02*
G75*
G03*
X134750000Y-112060000I0J700000D01*
G01*
%TO.C,JP2*%
X163830000Y-97790000D02*
X162560000Y-97790000D01*
X163830000Y-99060000D02*
X163830000Y-97790000D01*
X161517071Y-104520000D02*
X161120000Y-104520000D01*
X161517071Y-103760000D02*
X161120000Y-103760000D01*
X152460000Y-104520000D02*
X158460000Y-104520000D01*
X152460000Y-103760000D02*
X152460000Y-104520000D01*
X158460000Y-103760000D02*
X152460000Y-103760000D01*
X161120000Y-102870000D02*
X158460000Y-102870000D01*
X161517071Y-101980000D02*
X161120000Y-101980000D01*
X161517071Y-101220000D02*
X161120000Y-101220000D01*
X152460000Y-101980000D02*
X158460000Y-101980000D01*
X152460000Y-101220000D02*
X152460000Y-101980000D01*
X158460000Y-101220000D02*
X152460000Y-101220000D01*
X161120000Y-100330000D02*
X158460000Y-100330000D01*
X161450000Y-99440000D02*
X161120000Y-99440000D01*
X161450000Y-98680000D02*
X161120000Y-98680000D01*
X158460000Y-99340000D02*
X152460000Y-99340000D01*
X158460000Y-99220000D02*
X152460000Y-99220000D01*
X158460000Y-99100000D02*
X152460000Y-99100000D01*
X158460000Y-98980000D02*
X152460000Y-98980000D01*
X158460000Y-98860000D02*
X152460000Y-98860000D01*
X158460000Y-98740000D02*
X152460000Y-98740000D01*
X152460000Y-99440000D02*
X158460000Y-99440000D01*
X152460000Y-98680000D02*
X152460000Y-99440000D01*
X158460000Y-98680000D02*
X152460000Y-98680000D01*
X158460000Y-97730000D02*
X161120000Y-97730000D01*
X158460000Y-105470000D02*
X158460000Y-97730000D01*
X161120000Y-105470000D02*
X158460000Y-105470000D01*
X161120000Y-97730000D02*
X161120000Y-105470000D01*
%TO.C,R3*%
X163568748Y-90730000D02*
X164091252Y-90730000D01*
X163568748Y-92150000D02*
X164091252Y-92150000D01*
%TO.C,R2*%
X166930000Y-101338748D02*
X166930000Y-101861252D01*
X168350000Y-101338748D02*
X168350000Y-101861252D01*
%TO.C,R1*%
X169470000Y-101338748D02*
X169470000Y-101861252D01*
X170890000Y-101338748D02*
X170890000Y-101861252D01*
%TO.C,CN3*%
D10*
X143565476Y-98401142D02*
X143613095Y-98448761D01*
X143755952Y-98496380D01*
X143851190Y-98496380D01*
X143994047Y-98448761D01*
X144089285Y-98353523D01*
X144136904Y-98258285D01*
X144184523Y-98067809D01*
X144184523Y-97924952D01*
X144136904Y-97734476D01*
X144089285Y-97639238D01*
X143994047Y-97544000D01*
X143851190Y-97496380D01*
X143755952Y-97496380D01*
X143613095Y-97544000D01*
X143565476Y-97591619D01*
X143136904Y-98496380D02*
X143136904Y-97496380D01*
X142565476Y-98496380D01*
X142565476Y-97496380D01*
X142184523Y-97496380D02*
X141565476Y-97496380D01*
X141898809Y-97877333D01*
X141755952Y-97877333D01*
X141660714Y-97924952D01*
X141613095Y-97972571D01*
X141565476Y-98067809D01*
X141565476Y-98305904D01*
X141613095Y-98401142D01*
X141660714Y-98448761D01*
X141755952Y-98496380D01*
X142041666Y-98496380D01*
X142136904Y-98448761D01*
X142184523Y-98401142D01*
%TO.C,JP1*%
X139390333Y-111212380D02*
X139390333Y-111926666D01*
X139437952Y-112069523D01*
X139533190Y-112164761D01*
X139676047Y-112212380D01*
X139771285Y-112212380D01*
X138914142Y-112212380D02*
X138914142Y-111212380D01*
X138533190Y-111212380D01*
X138437952Y-111260000D01*
X138390333Y-111307619D01*
X138342714Y-111402857D01*
X138342714Y-111545714D01*
X138390333Y-111640952D01*
X138437952Y-111688571D01*
X138533190Y-111736190D01*
X138914142Y-111736190D01*
X137390333Y-112212380D02*
X137961761Y-112212380D01*
X137676047Y-112212380D02*
X137676047Y-111212380D01*
X137771285Y-111355238D01*
X137866523Y-111450476D01*
X137961761Y-111498095D01*
%TO.C,JP2*%
X163393333Y-106132380D02*
X163393333Y-106846666D01*
X163440952Y-106989523D01*
X163536190Y-107084761D01*
X163679047Y-107132380D01*
X163774285Y-107132380D01*
X162917142Y-107132380D02*
X162917142Y-106132380D01*
X162536190Y-106132380D01*
X162440952Y-106180000D01*
X162393333Y-106227619D01*
X162345714Y-106322857D01*
X162345714Y-106465714D01*
X162393333Y-106560952D01*
X162440952Y-106608571D01*
X162536190Y-106656190D01*
X162917142Y-106656190D01*
X161964761Y-106227619D02*
X161917142Y-106180000D01*
X161821904Y-106132380D01*
X161583809Y-106132380D01*
X161488571Y-106180000D01*
X161440952Y-106227619D01*
X161393333Y-106322857D01*
X161393333Y-106418095D01*
X161440952Y-106560952D01*
X162012380Y-107132380D01*
X161393333Y-107132380D01*
%TO.C,R3*%
X167171666Y-91892380D02*
X167505000Y-91416190D01*
X167743095Y-91892380D02*
X167743095Y-90892380D01*
X167362142Y-90892380D01*
X167266904Y-90940000D01*
X167219285Y-90987619D01*
X167171666Y-91082857D01*
X167171666Y-91225714D01*
X167219285Y-91320952D01*
X167266904Y-91368571D01*
X167362142Y-91416190D01*
X167743095Y-91416190D01*
X166838333Y-90892380D02*
X166219285Y-90892380D01*
X166552619Y-91273333D01*
X166409761Y-91273333D01*
X166314523Y-91320952D01*
X166266904Y-91368571D01*
X166219285Y-91463809D01*
X166219285Y-91701904D01*
X166266904Y-91797142D01*
X166314523Y-91844761D01*
X166409761Y-91892380D01*
X166695476Y-91892380D01*
X166790714Y-91844761D01*
X166838333Y-91797142D01*
X161583571Y-91100714D02*
X161547857Y-91065000D01*
X161476428Y-91029285D01*
X161297857Y-91029285D01*
X161226428Y-91065000D01*
X161190714Y-91100714D01*
X161155000Y-91172142D01*
X161155000Y-91243571D01*
X161190714Y-91350714D01*
X161619285Y-91779285D01*
X161155000Y-91779285D01*
X160905000Y-91029285D02*
X160405000Y-91029285D01*
X160726428Y-91779285D01*
X159976428Y-91029285D02*
X159905000Y-91029285D01*
X159833571Y-91065000D01*
X159797857Y-91100714D01*
X159762142Y-91172142D01*
X159726428Y-91315000D01*
X159726428Y-91493571D01*
X159762142Y-91636428D01*
X159797857Y-91707857D01*
X159833571Y-91743571D01*
X159905000Y-91779285D01*
X159976428Y-91779285D01*
X160047857Y-91743571D01*
X160083571Y-91707857D01*
X160119285Y-91636428D01*
X160155000Y-91493571D01*
X160155000Y-91315000D01*
X160119285Y-91172142D01*
X160083571Y-91100714D01*
X160047857Y-91065000D01*
X159976428Y-91029285D01*
%TO.C,R2*%
X167806666Y-104973380D02*
X168140000Y-104497190D01*
X168378095Y-104973380D02*
X168378095Y-103973380D01*
X167997142Y-103973380D01*
X167901904Y-104021000D01*
X167854285Y-104068619D01*
X167806666Y-104163857D01*
X167806666Y-104306714D01*
X167854285Y-104401952D01*
X167901904Y-104449571D01*
X167997142Y-104497190D01*
X168378095Y-104497190D01*
X167425714Y-104068619D02*
X167378095Y-104021000D01*
X167282857Y-103973380D01*
X167044761Y-103973380D01*
X166949523Y-104021000D01*
X166901904Y-104068619D01*
X166854285Y-104163857D01*
X166854285Y-104259095D01*
X166901904Y-104401952D01*
X167473333Y-104973380D01*
X166854285Y-104973380D01*
X168026857Y-98899285D02*
X168026857Y-99399285D01*
X168205428Y-98613571D02*
X168384000Y-99149285D01*
X167919714Y-99149285D01*
X167634000Y-99327857D02*
X167598285Y-99363571D01*
X167634000Y-99399285D01*
X167669714Y-99363571D01*
X167634000Y-99327857D01*
X167634000Y-99399285D01*
X167348285Y-98649285D02*
X166848285Y-98649285D01*
X167169714Y-99399285D01*
X166562571Y-99399285D02*
X166562571Y-98649285D01*
X166134000Y-99399285D02*
X166455428Y-98970714D01*
X166134000Y-98649285D02*
X166562571Y-99077857D01*
%TO.C,R1*%
X170346666Y-104973380D02*
X170680000Y-104497190D01*
X170918095Y-104973380D02*
X170918095Y-103973380D01*
X170537142Y-103973380D01*
X170441904Y-104021000D01*
X170394285Y-104068619D01*
X170346666Y-104163857D01*
X170346666Y-104306714D01*
X170394285Y-104401952D01*
X170441904Y-104449571D01*
X170537142Y-104497190D01*
X170918095Y-104497190D01*
X169394285Y-104973380D02*
X169965714Y-104973380D01*
X169680000Y-104973380D02*
X169680000Y-103973380D01*
X169775238Y-104116238D01*
X169870476Y-104211476D01*
X169965714Y-104259095D01*
X171201857Y-98899285D02*
X171201857Y-99399285D01*
X171380428Y-98613571D02*
X171559000Y-99149285D01*
X171094714Y-99149285D01*
X170809000Y-99327857D02*
X170773285Y-99363571D01*
X170809000Y-99399285D01*
X170844714Y-99363571D01*
X170809000Y-99327857D01*
X170809000Y-99399285D01*
X170523285Y-98649285D02*
X170023285Y-98649285D01*
X170344714Y-99399285D01*
X169737571Y-99399285D02*
X169737571Y-98649285D01*
X169309000Y-99399285D02*
X169630428Y-98970714D01*
X169309000Y-98649285D02*
X169737571Y-99077857D01*
%TD*%
M02*
