M48
; DRILL file {KiCad (5.1.9)-1} date 04/08/21 22:41:16
; FORMAT={-:-/ absolute / inch / decimal}
; #@! TF.CreationDate,2021-04-08T22:41:16+01:00
; #@! TF.GenerationSoftware,Kicad,Pcbnew,(5.1.9)-1
; #@! TF.FileFunction,Plated,1,2,PTH
FMAT,2
INCH
T1C0.0157
T2C0.0394
%
G90
G05
T1
X6.475Y-3.9
X6.775Y-4.1
T2
X4.6Y-3.6
X4.6Y-3.7
X4.6Y-3.8
X4.6Y-3.9
X4.6Y-4.0
X4.6Y-4.1
X4.8Y-3.7
X4.8Y-4.3
X4.9Y-3.7
X4.9Y-4.3
X5.0Y-3.7
X5.0Y-4.3
X5.1Y-3.7
X5.1Y-4.3
X5.2Y-3.7
X5.2Y-4.3
X5.3Y-3.7
X5.3Y-4.3
X5.4Y-3.7
X5.4Y-4.3
X5.5Y-3.7
X5.5Y-3.855
X5.5Y-3.955
X5.5Y-4.055
X5.5Y-4.155
X5.5Y-4.3
X5.6Y-3.7
X5.6Y-4.3
X5.7Y-3.7
X5.7Y-4.3
X5.8Y-3.7
X5.8Y-4.3
X5.9Y-3.7
X5.9Y-4.3
X6.0Y-3.7
X6.0Y-4.3
X6.1Y-3.7
X6.1Y-4.3
X6.2Y-3.7
X6.2Y-4.3
X6.3Y-3.7
X6.3Y-4.3
X6.4Y-3.7
X6.4Y-3.9
X6.4Y-4.0
X6.4Y-4.1
X6.4Y-4.3
X6.5Y-3.7
X6.5Y-4.3
X6.6Y-3.7
X6.6Y-4.3
X6.7Y-3.7
X6.7Y-4.3
X6.9Y-3.6
X6.9Y-3.7
X6.9Y-3.8
X6.9Y-3.9
X6.9Y-4.0
X6.9Y-4.1
X6.9Y-4.2
X6.9Y-4.3
X6.9Y-4.4
X7.0Y-4.1
X7.0Y-4.2
X7.0Y-4.3
X7.0Y-4.4
T0
M30
