%TF.GenerationSoftware,KiCad,Pcbnew,(5.1.9)-1*%
%TF.CreationDate,2021-04-08T22:41:19+01:00*%
%TF.ProjectId,FF OSD Adapter,4646204f-5344-4204-9164-61707465722e,rev?*%
%TF.SameCoordinates,Original*%
%TF.FileFunction,Copper,L2,Bot*%
%TF.FilePolarity,Positive*%
%FSLAX46Y46*%
G04 Gerber Fmt 4.6, Leading zero omitted, Abs format (unit mm)*
G04 Created by KiCad (PCBNEW (5.1.9)-1) date 2021-04-08 22:41:19*
%MOMM*%
%LPD*%
G01*
G04 APERTURE LIST*
%TA.AperFunction,ComponentPad*%
%ADD10O,1.700000X1.700000*%
%TD*%
%TA.AperFunction,ComponentPad*%
%ADD11R,1.700000X1.700000*%
%TD*%
%TA.AperFunction,SMDPad,CuDef*%
%ADD12C,0.100000*%
%TD*%
%TA.AperFunction,ComponentPad*%
%ADD13C,1.700000*%
%TD*%
%TA.AperFunction,ViaPad*%
%ADD14C,0.800000*%
%TD*%
%TA.AperFunction,Conductor*%
%ADD15C,0.250000*%
%TD*%
%TA.AperFunction,Conductor*%
%ADD16C,0.254000*%
%TD*%
%TA.AperFunction,Conductor*%
%ADD17C,0.100000*%
%TD*%
G04 APERTURE END LIST*
D10*
%TO.P,CN4,4*%
%TO.N,SCL*%
X177800000Y-104140000D03*
%TO.P,CN4,3*%
%TO.N,SDA*%
X177800000Y-106680000D03*
%TO.P,CN4,2*%
%TO.N,+3V3*%
X177800000Y-109220000D03*
D11*
%TO.P,CN4,1*%
%TO.N,GND*%
X177800000Y-111760000D03*
%TD*%
D10*
%TO.P,CN2,9*%
%TO.N,GND*%
X175260000Y-111760000D03*
%TO.P,CN2,8*%
%TO.N,+3V3*%
X175260000Y-109220000D03*
%TO.P,CN2,7*%
%TO.N,SDA*%
X175260000Y-106680000D03*
%TO.P,CN2,6*%
%TO.N,SCL*%
X175260000Y-104140000D03*
%TO.P,CN2,5*%
%TO.N,KB_CLOCK*%
X175260000Y-101600000D03*
%TO.P,CN2,4*%
%TO.N,KB_DATA*%
X175260000Y-99060000D03*
%TO.P,CN2,3*%
%TO.N,SYNC*%
X175260000Y-96520000D03*
%TO.P,CN2,2*%
%TO.N,DISPLAY_OUTPUT_BUFFERED*%
X175260000Y-93980000D03*
D11*
%TO.P,CN2,1*%
%TO.N,Net-(CN2-Pad1)*%
X175260000Y-91440000D03*
%TD*%
D10*
%TO.P,CN3,4*%
%TO.N,GND*%
X139700000Y-105537000D03*
%TO.P,CN3,3*%
%TO.N,+5V*%
X139700000Y-102997000D03*
%TO.P,CN3,2*%
%TO.N,TX*%
X139700000Y-100457000D03*
D11*
%TO.P,CN3,1*%
%TO.N,RX*%
X139700000Y-97917000D03*
%TD*%
%TA.AperFunction,SMDPad,CuDef*%
D12*
%TO.P,JP1,2*%
%TO.N,A1*%
G36*
X134000000Y-111010602D02*
G01*
X134024534Y-111010602D01*
X134073365Y-111015412D01*
X134121490Y-111024984D01*
X134168445Y-111039228D01*
X134213778Y-111058005D01*
X134257051Y-111081136D01*
X134297850Y-111108396D01*
X134335779Y-111139524D01*
X134370476Y-111174221D01*
X134401604Y-111212150D01*
X134428864Y-111252949D01*
X134451995Y-111296222D01*
X134470772Y-111341555D01*
X134485016Y-111388510D01*
X134494588Y-111436635D01*
X134499398Y-111485466D01*
X134499398Y-111510000D01*
X134500000Y-111510000D01*
X134500000Y-112010000D01*
X134499398Y-112010000D01*
X134499398Y-112034534D01*
X134494588Y-112083365D01*
X134485016Y-112131490D01*
X134470772Y-112178445D01*
X134451995Y-112223778D01*
X134428864Y-112267051D01*
X134401604Y-112307850D01*
X134370476Y-112345779D01*
X134335779Y-112380476D01*
X134297850Y-112411604D01*
X134257051Y-112438864D01*
X134213778Y-112461995D01*
X134168445Y-112480772D01*
X134121490Y-112495016D01*
X134073365Y-112504588D01*
X134024534Y-112509398D01*
X134000000Y-112509398D01*
X134000000Y-112510000D01*
X133500000Y-112510000D01*
X133500000Y-111010000D01*
X134000000Y-111010000D01*
X134000000Y-111010602D01*
G37*
%TD.AperFunction*%
%TA.AperFunction,SMDPad,CuDef*%
%TO.P,JP1,1*%
%TO.N,A0*%
G36*
X133200000Y-112510000D02*
G01*
X132700000Y-112510000D01*
X132700000Y-112509398D01*
X132675466Y-112509398D01*
X132626635Y-112504588D01*
X132578510Y-112495016D01*
X132531555Y-112480772D01*
X132486222Y-112461995D01*
X132442949Y-112438864D01*
X132402150Y-112411604D01*
X132364221Y-112380476D01*
X132329524Y-112345779D01*
X132298396Y-112307850D01*
X132271136Y-112267051D01*
X132248005Y-112223778D01*
X132229228Y-112178445D01*
X132214984Y-112131490D01*
X132205412Y-112083365D01*
X132200602Y-112034534D01*
X132200602Y-112010000D01*
X132200000Y-112010000D01*
X132200000Y-111510000D01*
X132200602Y-111510000D01*
X132200602Y-111485466D01*
X132205412Y-111436635D01*
X132214984Y-111388510D01*
X132229228Y-111341555D01*
X132248005Y-111296222D01*
X132271136Y-111252949D01*
X132298396Y-111212150D01*
X132329524Y-111174221D01*
X132364221Y-111139524D01*
X132402150Y-111108396D01*
X132442949Y-111081136D01*
X132486222Y-111058005D01*
X132531555Y-111039228D01*
X132578510Y-111024984D01*
X132626635Y-111015412D01*
X132675466Y-111010602D01*
X132700000Y-111010602D01*
X132700000Y-111010000D01*
X133200000Y-111010000D01*
X133200000Y-112510000D01*
G37*
%TD.AperFunction*%
%TD*%
D10*
%TO.P,JP2,3*%
%TO.N,C_H_SYNC*%
X162560000Y-104140000D03*
%TO.P,JP2,2*%
%TO.N,SYNC*%
X162560000Y-101600000D03*
D11*
%TO.P,JP2,1*%
%TO.N,V_SYNC*%
X162560000Y-99060000D03*
%TD*%
%TO.P,R3,2*%
%TO.N,Net-(CN2-Pad1)*%
%TA.AperFunction,SMDPad,CuDef*%
G36*
G01*
X164280000Y-91890001D02*
X164280000Y-90989999D01*
G75*
G02*
X164529999Y-90740000I249999J0D01*
G01*
X165180001Y-90740000D01*
G75*
G02*
X165430000Y-90989999I0J-249999D01*
G01*
X165430000Y-91890001D01*
G75*
G02*
X165180001Y-92140000I-249999J0D01*
G01*
X164529999Y-92140000D01*
G75*
G02*
X164280000Y-91890001I0J249999D01*
G01*
G37*
%TD.AperFunction*%
%TO.P,R3,1*%
%TO.N,DISPLAY_OUTPUT*%
%TA.AperFunction,SMDPad,CuDef*%
G36*
G01*
X162230000Y-91890001D02*
X162230000Y-90989999D01*
G75*
G02*
X162479999Y-90740000I249999J0D01*
G01*
X163130001Y-90740000D01*
G75*
G02*
X163380000Y-90989999I0J-249999D01*
G01*
X163380000Y-91890001D01*
G75*
G02*
X163130001Y-92140000I-249999J0D01*
G01*
X162479999Y-92140000D01*
G75*
G02*
X162230000Y-91890001I0J249999D01*
G01*
G37*
%TD.AperFunction*%
%TD*%
D13*
%TO.P,U1,40*%
%TO.N,GND*%
X170180000Y-109220000D03*
D11*
%TO.P,U1,1*%
%TO.N,Net-(U1-Pad1)*%
X170180000Y-93980000D03*
D13*
%TO.P,U1,39*%
%TO.N,GND*%
X167640000Y-109220000D03*
%TO.P,U1,2*%
%TO.N,Net-(U1-Pad2)*%
X167640000Y-93980000D03*
%TO.P,U1,38*%
%TO.N,+3V3*%
X165100000Y-109220000D03*
%TO.P,U1,3*%
%TO.N,V_SYNC*%
X165100000Y-93980000D03*
%TO.P,U1,37*%
%TO.N,Net-(U1-Pad37)*%
X162560000Y-109220000D03*
%TO.P,U1,4*%
%TO.N,DISPLAY_OUTPUT*%
X162560000Y-93980000D03*
%TO.P,U1,36*%
%TO.N,Net-(U1-Pad36)*%
X160020000Y-109220000D03*
%TO.P,U1,5*%
%TO.N,C_H_SYNC*%
X160020000Y-93980000D03*
%TO.P,U1,35*%
%TO.N,Net-(U1-Pad35)*%
X157480000Y-109220000D03*
%TO.P,U1,6*%
%TO.N,TX*%
X157480000Y-93980000D03*
%TO.P,U1,34*%
%TO.N,Net-(U1-Pad34)*%
X154940000Y-109220000D03*
%TO.P,U1,7*%
%TO.N,RX*%
X154940000Y-93980000D03*
%TO.P,U1,33*%
%TO.N,Net-(U1-Pad33)*%
X152400000Y-109220000D03*
%TO.P,U1,8*%
%TO.N,Net-(U1-Pad8)*%
X152400000Y-93980000D03*
%TO.P,U1,32*%
%TO.N,Net-(U1-Pad32)*%
X149860000Y-109220000D03*
%TO.P,U1,9*%
%TO.N,Net-(U1-Pad9)*%
X149860000Y-93980000D03*
%TO.P,U1,31*%
%TO.N,Net-(U1-Pad31)*%
X147320000Y-109220000D03*
%TO.P,U1,10*%
%TO.N,DISPLAY_ENABLE*%
X147320000Y-93980000D03*
%TO.P,U1,30*%
%TO.N,Net-(U1-Pad30)*%
X144780000Y-109220000D03*
%TO.P,U1,11*%
%TO.N,KB_DATA*%
X144780000Y-93980000D03*
%TO.P,U1,29*%
%TO.N,Net-(U1-Pad29)*%
X142240000Y-109220000D03*
%TO.P,U1,12*%
%TO.N,KB_CLOCK*%
X142240000Y-93980000D03*
%TO.P,U1,28*%
%TO.N,Net-(U1-Pad28)*%
X139700000Y-109220000D03*
%TO.P,U1,13*%
%TO.N,Net-(U1-Pad13)*%
X139700000Y-93980000D03*
%TO.P,U1,27*%
%TO.N,Net-(U1-Pad27)*%
X137160000Y-109220000D03*
%TO.P,U1,14*%
%TO.N,SCL*%
X137160000Y-93980000D03*
%TO.P,U1,26*%
%TO.N,A1*%
X134620000Y-109220000D03*
%TO.P,U1,15*%
%TO.N,SDA*%
X134620000Y-93980000D03*
%TO.P,U1,25*%
%TO.N,A0*%
X132080000Y-109220000D03*
%TO.P,U1,16*%
%TO.N,Net-(U1-Pad16)*%
X132080000Y-93980000D03*
%TO.P,U1,24*%
%TO.N,Net-(U1-Pad24)*%
X129540000Y-109220000D03*
%TO.P,U1,17*%
%TO.N,Net-(U1-Pad17)*%
X129540000Y-93980000D03*
%TO.P,U1,23*%
%TO.N,Net-(U1-Pad23)*%
X127000000Y-109220000D03*
%TO.P,U1,18*%
%TO.N,+5V*%
X127000000Y-93980000D03*
%TO.P,U1,22*%
%TO.N,Net-(U1-Pad22)*%
X124460000Y-109220000D03*
%TO.P,U1,19*%
%TO.N,GND*%
X124460000Y-93980000D03*
%TO.P,U1,21*%
%TO.N,Net-(U1-Pad21)*%
X121920000Y-109220000D03*
%TO.P,U1,20*%
%TO.N,Net-(U1-Pad20)*%
X121920000Y-93980000D03*
%TD*%
%TO.P,R2,2*%
%TO.N,+3V3*%
%TA.AperFunction,SMDPad,CuDef*%
G36*
G01*
X167189999Y-102050000D02*
X168090001Y-102050000D01*
G75*
G02*
X168340000Y-102299999I0J-249999D01*
G01*
X168340000Y-102950001D01*
G75*
G02*
X168090001Y-103200000I-249999J0D01*
G01*
X167189999Y-103200000D01*
G75*
G02*
X166940000Y-102950001I0J249999D01*
G01*
X166940000Y-102299999D01*
G75*
G02*
X167189999Y-102050000I249999J0D01*
G01*
G37*
%TD.AperFunction*%
%TO.P,R2,1*%
%TO.N,SDA*%
%TA.AperFunction,SMDPad,CuDef*%
G36*
G01*
X167189999Y-100000000D02*
X168090001Y-100000000D01*
G75*
G02*
X168340000Y-100249999I0J-249999D01*
G01*
X168340000Y-100900001D01*
G75*
G02*
X168090001Y-101150000I-249999J0D01*
G01*
X167189999Y-101150000D01*
G75*
G02*
X166940000Y-100900001I0J249999D01*
G01*
X166940000Y-100249999D01*
G75*
G02*
X167189999Y-100000000I249999J0D01*
G01*
G37*
%TD.AperFunction*%
%TD*%
%TO.P,R1,2*%
%TO.N,+3V3*%
%TA.AperFunction,SMDPad,CuDef*%
G36*
G01*
X169729999Y-102050000D02*
X170630001Y-102050000D01*
G75*
G02*
X170880000Y-102299999I0J-249999D01*
G01*
X170880000Y-102950001D01*
G75*
G02*
X170630001Y-103200000I-249999J0D01*
G01*
X169729999Y-103200000D01*
G75*
G02*
X169480000Y-102950001I0J249999D01*
G01*
X169480000Y-102299999D01*
G75*
G02*
X169729999Y-102050000I249999J0D01*
G01*
G37*
%TD.AperFunction*%
%TO.P,R1,1*%
%TO.N,SCL*%
%TA.AperFunction,SMDPad,CuDef*%
G36*
G01*
X169729999Y-100000000D02*
X170630001Y-100000000D01*
G75*
G02*
X170880000Y-100249999I0J-249999D01*
G01*
X170880000Y-100900001D01*
G75*
G02*
X170630001Y-101150000I-249999J0D01*
G01*
X169729999Y-101150000D01*
G75*
G02*
X169480000Y-100900001I0J249999D01*
G01*
X169480000Y-100249999D01*
G75*
G02*
X169729999Y-100000000I249999J0D01*
G01*
G37*
%TD.AperFunction*%
%TD*%
D10*
%TO.P,CN1,6*%
%TO.N,GND*%
X116840000Y-104140000D03*
%TO.P,CN1,5*%
%TO.N,+5V*%
X116840000Y-101600000D03*
%TO.P,CN1,4*%
%TO.N,DISPLAY_OUTPUT_BUFFERED*%
X116840000Y-99060000D03*
%TO.P,CN1,3*%
%TO.N,DISPLAY_ENABLE*%
X116840000Y-96520000D03*
%TO.P,CN1,2*%
%TO.N,DISPLAY_OUTPUT*%
X116840000Y-93980000D03*
D11*
%TO.P,CN1,1*%
%TO.N,SYNC*%
X116840000Y-91440000D03*
%TD*%
D14*
%TO.N,GND*%
X172085000Y-104140000D03*
X164465000Y-99060000D03*
%TD*%
D15*
%TO.N,SCL*%
X171695000Y-100575000D02*
X175260000Y-104140000D01*
X170180000Y-100575000D02*
X171695000Y-100575000D01*
X167395000Y-97790000D02*
X170180000Y-100575000D01*
X142875000Y-97790000D02*
X167395000Y-97790000D01*
X140843000Y-95758000D02*
X142875000Y-97790000D01*
X138938000Y-95758000D02*
X140843000Y-95758000D01*
X137160000Y-93980000D02*
X138938000Y-95758000D01*
X175260000Y-104140000D02*
X177800000Y-104140000D01*
%TO.N,SDA*%
X175260000Y-105918000D02*
X175260000Y-106680000D01*
X170942000Y-101600000D02*
X175260000Y-105918000D01*
X168665000Y-101600000D02*
X170942000Y-101600000D01*
X167640000Y-100575000D02*
X168665000Y-101600000D01*
X167395000Y-100330000D02*
X167640000Y-100575000D01*
X148463000Y-100330000D02*
X167395000Y-100330000D01*
X138684998Y-99187000D02*
X147320000Y-99187000D01*
X147320000Y-99187000D02*
X148463000Y-100330000D01*
X134620000Y-95122002D02*
X138684998Y-99187000D01*
X134620000Y-93980000D02*
X134620000Y-95122002D01*
X175260000Y-106680000D02*
X177800000Y-106680000D01*
%TO.N,KB_DATA*%
X171958000Y-95758000D02*
X146558000Y-95758000D01*
X146558000Y-95758000D02*
X144780000Y-93980000D01*
X175260000Y-99060000D02*
X171958000Y-95758000D01*
%TO.N,KB_CLOCK*%
X144907000Y-96647000D02*
X142240000Y-93980000D01*
X170307000Y-96647000D02*
X144907000Y-96647000D01*
X175260000Y-101600000D02*
X170307000Y-96647000D01*
%TO.N,A1*%
X134620000Y-111140000D02*
X134000000Y-111760000D01*
X134620000Y-109220000D02*
X134620000Y-111140000D01*
%TO.N,A0*%
X132080000Y-111140000D02*
X132700000Y-111760000D01*
X132080000Y-109220000D02*
X132080000Y-111140000D01*
%TO.N,DISPLAY_OUTPUT*%
X162805000Y-93735000D02*
X162560000Y-93980000D01*
X162805000Y-91440000D02*
X162805000Y-93735000D01*
X117689999Y-93130001D02*
X116840000Y-93980000D01*
X119380000Y-91440000D02*
X117689999Y-93130001D01*
X160020000Y-91440000D02*
X119380000Y-91440000D01*
X162560000Y-93980000D02*
X160020000Y-91440000D01*
%TO.N,SYNC*%
X159893000Y-104267000D02*
X162560000Y-101600000D01*
X120650000Y-95250000D02*
X129667000Y-104267000D01*
X116370998Y-95250000D02*
X120650000Y-95250000D01*
X115664999Y-94544001D02*
X116370998Y-95250000D01*
X115664999Y-92615001D02*
X115664999Y-94544001D01*
X129667000Y-104267000D02*
X159893000Y-104267000D01*
X116840000Y-91440000D02*
X115664999Y-92615001D01*
%TO.N,Net-(CN2-Pad1)*%
X164855000Y-91440000D02*
X175260000Y-91440000D01*
%TD*%
D16*
%TO.N,GND*%
X184317441Y-89959364D02*
X184478501Y-90007992D01*
X184627054Y-90086979D01*
X184757430Y-90193310D01*
X184864674Y-90322946D01*
X184944695Y-90470942D01*
X184994446Y-90631661D01*
X185014000Y-90817707D01*
X185014001Y-112375136D01*
X184995636Y-112562441D01*
X184947008Y-112723503D01*
X184868023Y-112872051D01*
X184761689Y-113002430D01*
X184632054Y-113109674D01*
X184484058Y-113189695D01*
X184323339Y-113239446D01*
X184137293Y-113259000D01*
X107969854Y-113259000D01*
X107782559Y-113240636D01*
X107621497Y-113192008D01*
X107472949Y-113113023D01*
X107342570Y-113006689D01*
X107235326Y-112877054D01*
X107155305Y-112729058D01*
X107105554Y-112568339D01*
X107086000Y-112382293D01*
X107086000Y-109098757D01*
X120689000Y-109098757D01*
X120689000Y-109341243D01*
X120736307Y-109579069D01*
X120829102Y-109803097D01*
X120963820Y-110004717D01*
X121135283Y-110176180D01*
X121336903Y-110310898D01*
X121560931Y-110403693D01*
X121798757Y-110451000D01*
X122041243Y-110451000D01*
X122279069Y-110403693D01*
X122503097Y-110310898D01*
X122704717Y-110176180D01*
X122876180Y-110004717D01*
X123010898Y-109803097D01*
X123103693Y-109579069D01*
X123151000Y-109341243D01*
X123151000Y-109098757D01*
X123229000Y-109098757D01*
X123229000Y-109341243D01*
X123276307Y-109579069D01*
X123369102Y-109803097D01*
X123503820Y-110004717D01*
X123675283Y-110176180D01*
X123876903Y-110310898D01*
X124100931Y-110403693D01*
X124338757Y-110451000D01*
X124581243Y-110451000D01*
X124819069Y-110403693D01*
X125043097Y-110310898D01*
X125244717Y-110176180D01*
X125416180Y-110004717D01*
X125550898Y-109803097D01*
X125643693Y-109579069D01*
X125691000Y-109341243D01*
X125691000Y-109098757D01*
X125769000Y-109098757D01*
X125769000Y-109341243D01*
X125816307Y-109579069D01*
X125909102Y-109803097D01*
X126043820Y-110004717D01*
X126215283Y-110176180D01*
X126416903Y-110310898D01*
X126640931Y-110403693D01*
X126878757Y-110451000D01*
X127121243Y-110451000D01*
X127359069Y-110403693D01*
X127583097Y-110310898D01*
X127784717Y-110176180D01*
X127956180Y-110004717D01*
X128090898Y-109803097D01*
X128183693Y-109579069D01*
X128231000Y-109341243D01*
X128231000Y-109098757D01*
X128309000Y-109098757D01*
X128309000Y-109341243D01*
X128356307Y-109579069D01*
X128449102Y-109803097D01*
X128583820Y-110004717D01*
X128755283Y-110176180D01*
X128956903Y-110310898D01*
X129180931Y-110403693D01*
X129418757Y-110451000D01*
X129661243Y-110451000D01*
X129899069Y-110403693D01*
X130123097Y-110310898D01*
X130324717Y-110176180D01*
X130496180Y-110004717D01*
X130630898Y-109803097D01*
X130723693Y-109579069D01*
X130771000Y-109341243D01*
X130771000Y-109098757D01*
X130849000Y-109098757D01*
X130849000Y-109341243D01*
X130896307Y-109579069D01*
X130989102Y-109803097D01*
X131123820Y-110004717D01*
X131295283Y-110176180D01*
X131496903Y-110310898D01*
X131574001Y-110342833D01*
X131574001Y-111115144D01*
X131571553Y-111140000D01*
X131581322Y-111239192D01*
X131610255Y-111334574D01*
X131610256Y-111334575D01*
X131657242Y-111422479D01*
X131720474Y-111499527D01*
X131739780Y-111515371D01*
X131817157Y-111592748D01*
X131817157Y-112010000D01*
X131819565Y-112034450D01*
X131819565Y-112059009D01*
X131826921Y-112133698D01*
X131846043Y-112229831D01*
X131867828Y-112301648D01*
X131905337Y-112392204D01*
X131940717Y-112458394D01*
X131995173Y-112539893D01*
X132042784Y-112597908D01*
X132112092Y-112667216D01*
X132170107Y-112714827D01*
X132251606Y-112769283D01*
X132317796Y-112804663D01*
X132408352Y-112842172D01*
X132480169Y-112863957D01*
X132576302Y-112883079D01*
X132650991Y-112890435D01*
X132675550Y-112890435D01*
X132700000Y-112892843D01*
X133200000Y-112892843D01*
X133274689Y-112885487D01*
X133346508Y-112863701D01*
X133350000Y-112861834D01*
X133353492Y-112863701D01*
X133425311Y-112885487D01*
X133500000Y-112892843D01*
X134000000Y-112892843D01*
X134024450Y-112890435D01*
X134049009Y-112890435D01*
X134123698Y-112883079D01*
X134219831Y-112863957D01*
X134291648Y-112842172D01*
X134382204Y-112804663D01*
X134448394Y-112769283D01*
X134529893Y-112714827D01*
X134587908Y-112667216D01*
X134657216Y-112597908D01*
X134704827Y-112539893D01*
X134759283Y-112458394D01*
X134794663Y-112392204D01*
X134832172Y-112301648D01*
X134853957Y-112229831D01*
X134873079Y-112133698D01*
X134878665Y-112076980D01*
X174070511Y-112076980D01*
X174094866Y-112157288D01*
X174194761Y-112376961D01*
X174335592Y-112572924D01*
X174511948Y-112737647D01*
X174717051Y-112864799D01*
X174943019Y-112949495D01*
X175133000Y-112889187D01*
X175133000Y-111887000D01*
X175387000Y-111887000D01*
X175387000Y-112889187D01*
X175576981Y-112949495D01*
X175802949Y-112864799D01*
X176008052Y-112737647D01*
X176144713Y-112610000D01*
X176567157Y-112610000D01*
X176574513Y-112684689D01*
X176596299Y-112756508D01*
X176631678Y-112822696D01*
X176679289Y-112880711D01*
X176737304Y-112928322D01*
X176803492Y-112963701D01*
X176875311Y-112985487D01*
X176950000Y-112992843D01*
X177577750Y-112991000D01*
X177673000Y-112895750D01*
X177673000Y-111887000D01*
X177927000Y-111887000D01*
X177927000Y-112895750D01*
X178022250Y-112991000D01*
X178650000Y-112992843D01*
X178724689Y-112985487D01*
X178796508Y-112963701D01*
X178862696Y-112928322D01*
X178920711Y-112880711D01*
X178968322Y-112822696D01*
X179003701Y-112756508D01*
X179025487Y-112684689D01*
X179032843Y-112610000D01*
X179031000Y-111982250D01*
X178935750Y-111887000D01*
X177927000Y-111887000D01*
X177673000Y-111887000D01*
X176664250Y-111887000D01*
X176569000Y-111982250D01*
X176567157Y-112610000D01*
X176144713Y-112610000D01*
X176184408Y-112572924D01*
X176325239Y-112376961D01*
X176425134Y-112157288D01*
X176449489Y-112076980D01*
X176388627Y-111887000D01*
X175387000Y-111887000D01*
X175133000Y-111887000D01*
X174131373Y-111887000D01*
X174070511Y-112076980D01*
X134878665Y-112076980D01*
X134880435Y-112059009D01*
X134880435Y-112034450D01*
X134882843Y-112010000D01*
X134882843Y-111592749D01*
X134960220Y-111515372D01*
X134979527Y-111499527D01*
X135042759Y-111422479D01*
X135089745Y-111334575D01*
X135118678Y-111239193D01*
X135126000Y-111164854D01*
X135126000Y-111164847D01*
X135128447Y-111140001D01*
X135126000Y-111115155D01*
X135126000Y-110342832D01*
X135203097Y-110310898D01*
X135404717Y-110176180D01*
X135576180Y-110004717D01*
X135710898Y-109803097D01*
X135803693Y-109579069D01*
X135851000Y-109341243D01*
X135851000Y-109098757D01*
X135929000Y-109098757D01*
X135929000Y-109341243D01*
X135976307Y-109579069D01*
X136069102Y-109803097D01*
X136203820Y-110004717D01*
X136375283Y-110176180D01*
X136576903Y-110310898D01*
X136800931Y-110403693D01*
X137038757Y-110451000D01*
X137281243Y-110451000D01*
X137519069Y-110403693D01*
X137743097Y-110310898D01*
X137944717Y-110176180D01*
X138116180Y-110004717D01*
X138250898Y-109803097D01*
X138343693Y-109579069D01*
X138391000Y-109341243D01*
X138391000Y-109098757D01*
X138469000Y-109098757D01*
X138469000Y-109341243D01*
X138516307Y-109579069D01*
X138609102Y-109803097D01*
X138743820Y-110004717D01*
X138915283Y-110176180D01*
X139116903Y-110310898D01*
X139340931Y-110403693D01*
X139578757Y-110451000D01*
X139821243Y-110451000D01*
X140059069Y-110403693D01*
X140283097Y-110310898D01*
X140484717Y-110176180D01*
X140656180Y-110004717D01*
X140790898Y-109803097D01*
X140883693Y-109579069D01*
X140931000Y-109341243D01*
X140931000Y-109098757D01*
X141009000Y-109098757D01*
X141009000Y-109341243D01*
X141056307Y-109579069D01*
X141149102Y-109803097D01*
X141283820Y-110004717D01*
X141455283Y-110176180D01*
X141656903Y-110310898D01*
X141880931Y-110403693D01*
X142118757Y-110451000D01*
X142361243Y-110451000D01*
X142599069Y-110403693D01*
X142823097Y-110310898D01*
X143024717Y-110176180D01*
X143196180Y-110004717D01*
X143330898Y-109803097D01*
X143423693Y-109579069D01*
X143471000Y-109341243D01*
X143471000Y-109098757D01*
X143549000Y-109098757D01*
X143549000Y-109341243D01*
X143596307Y-109579069D01*
X143689102Y-109803097D01*
X143823820Y-110004717D01*
X143995283Y-110176180D01*
X144196903Y-110310898D01*
X144420931Y-110403693D01*
X144658757Y-110451000D01*
X144901243Y-110451000D01*
X145139069Y-110403693D01*
X145363097Y-110310898D01*
X145564717Y-110176180D01*
X145736180Y-110004717D01*
X145870898Y-109803097D01*
X145963693Y-109579069D01*
X146011000Y-109341243D01*
X146011000Y-109098757D01*
X146089000Y-109098757D01*
X146089000Y-109341243D01*
X146136307Y-109579069D01*
X146229102Y-109803097D01*
X146363820Y-110004717D01*
X146535283Y-110176180D01*
X146736903Y-110310898D01*
X146960931Y-110403693D01*
X147198757Y-110451000D01*
X147441243Y-110451000D01*
X147679069Y-110403693D01*
X147903097Y-110310898D01*
X148104717Y-110176180D01*
X148276180Y-110004717D01*
X148410898Y-109803097D01*
X148503693Y-109579069D01*
X148551000Y-109341243D01*
X148551000Y-109098757D01*
X148629000Y-109098757D01*
X148629000Y-109341243D01*
X148676307Y-109579069D01*
X148769102Y-109803097D01*
X148903820Y-110004717D01*
X149075283Y-110176180D01*
X149276903Y-110310898D01*
X149500931Y-110403693D01*
X149738757Y-110451000D01*
X149981243Y-110451000D01*
X150219069Y-110403693D01*
X150443097Y-110310898D01*
X150644717Y-110176180D01*
X150816180Y-110004717D01*
X150950898Y-109803097D01*
X151043693Y-109579069D01*
X151091000Y-109341243D01*
X151091000Y-109098757D01*
X151169000Y-109098757D01*
X151169000Y-109341243D01*
X151216307Y-109579069D01*
X151309102Y-109803097D01*
X151443820Y-110004717D01*
X151615283Y-110176180D01*
X151816903Y-110310898D01*
X152040931Y-110403693D01*
X152278757Y-110451000D01*
X152521243Y-110451000D01*
X152759069Y-110403693D01*
X152983097Y-110310898D01*
X153184717Y-110176180D01*
X153356180Y-110004717D01*
X153490898Y-109803097D01*
X153583693Y-109579069D01*
X153631000Y-109341243D01*
X153631000Y-109098757D01*
X153709000Y-109098757D01*
X153709000Y-109341243D01*
X153756307Y-109579069D01*
X153849102Y-109803097D01*
X153983820Y-110004717D01*
X154155283Y-110176180D01*
X154356903Y-110310898D01*
X154580931Y-110403693D01*
X154818757Y-110451000D01*
X155061243Y-110451000D01*
X155299069Y-110403693D01*
X155523097Y-110310898D01*
X155724717Y-110176180D01*
X155896180Y-110004717D01*
X156030898Y-109803097D01*
X156123693Y-109579069D01*
X156171000Y-109341243D01*
X156171000Y-109098757D01*
X156249000Y-109098757D01*
X156249000Y-109341243D01*
X156296307Y-109579069D01*
X156389102Y-109803097D01*
X156523820Y-110004717D01*
X156695283Y-110176180D01*
X156896903Y-110310898D01*
X157120931Y-110403693D01*
X157358757Y-110451000D01*
X157601243Y-110451000D01*
X157839069Y-110403693D01*
X158063097Y-110310898D01*
X158264717Y-110176180D01*
X158436180Y-110004717D01*
X158570898Y-109803097D01*
X158663693Y-109579069D01*
X158711000Y-109341243D01*
X158711000Y-109098757D01*
X158789000Y-109098757D01*
X158789000Y-109341243D01*
X158836307Y-109579069D01*
X158929102Y-109803097D01*
X159063820Y-110004717D01*
X159235283Y-110176180D01*
X159436903Y-110310898D01*
X159660931Y-110403693D01*
X159898757Y-110451000D01*
X160141243Y-110451000D01*
X160379069Y-110403693D01*
X160603097Y-110310898D01*
X160804717Y-110176180D01*
X160976180Y-110004717D01*
X161110898Y-109803097D01*
X161203693Y-109579069D01*
X161251000Y-109341243D01*
X161251000Y-109098757D01*
X161203693Y-108860931D01*
X161110898Y-108636903D01*
X160976180Y-108435283D01*
X160804717Y-108263820D01*
X160603097Y-108129102D01*
X160379069Y-108036307D01*
X160141243Y-107989000D01*
X159898757Y-107989000D01*
X159660931Y-108036307D01*
X159436903Y-108129102D01*
X159235283Y-108263820D01*
X159063820Y-108435283D01*
X158929102Y-108636903D01*
X158836307Y-108860931D01*
X158789000Y-109098757D01*
X158711000Y-109098757D01*
X158663693Y-108860931D01*
X158570898Y-108636903D01*
X158436180Y-108435283D01*
X158264717Y-108263820D01*
X158063097Y-108129102D01*
X157839069Y-108036307D01*
X157601243Y-107989000D01*
X157358757Y-107989000D01*
X157120931Y-108036307D01*
X156896903Y-108129102D01*
X156695283Y-108263820D01*
X156523820Y-108435283D01*
X156389102Y-108636903D01*
X156296307Y-108860931D01*
X156249000Y-109098757D01*
X156171000Y-109098757D01*
X156123693Y-108860931D01*
X156030898Y-108636903D01*
X155896180Y-108435283D01*
X155724717Y-108263820D01*
X155523097Y-108129102D01*
X155299069Y-108036307D01*
X155061243Y-107989000D01*
X154818757Y-107989000D01*
X154580931Y-108036307D01*
X154356903Y-108129102D01*
X154155283Y-108263820D01*
X153983820Y-108435283D01*
X153849102Y-108636903D01*
X153756307Y-108860931D01*
X153709000Y-109098757D01*
X153631000Y-109098757D01*
X153583693Y-108860931D01*
X153490898Y-108636903D01*
X153356180Y-108435283D01*
X153184717Y-108263820D01*
X152983097Y-108129102D01*
X152759069Y-108036307D01*
X152521243Y-107989000D01*
X152278757Y-107989000D01*
X152040931Y-108036307D01*
X151816903Y-108129102D01*
X151615283Y-108263820D01*
X151443820Y-108435283D01*
X151309102Y-108636903D01*
X151216307Y-108860931D01*
X151169000Y-109098757D01*
X151091000Y-109098757D01*
X151043693Y-108860931D01*
X150950898Y-108636903D01*
X150816180Y-108435283D01*
X150644717Y-108263820D01*
X150443097Y-108129102D01*
X150219069Y-108036307D01*
X149981243Y-107989000D01*
X149738757Y-107989000D01*
X149500931Y-108036307D01*
X149276903Y-108129102D01*
X149075283Y-108263820D01*
X148903820Y-108435283D01*
X148769102Y-108636903D01*
X148676307Y-108860931D01*
X148629000Y-109098757D01*
X148551000Y-109098757D01*
X148503693Y-108860931D01*
X148410898Y-108636903D01*
X148276180Y-108435283D01*
X148104717Y-108263820D01*
X147903097Y-108129102D01*
X147679069Y-108036307D01*
X147441243Y-107989000D01*
X147198757Y-107989000D01*
X146960931Y-108036307D01*
X146736903Y-108129102D01*
X146535283Y-108263820D01*
X146363820Y-108435283D01*
X146229102Y-108636903D01*
X146136307Y-108860931D01*
X146089000Y-109098757D01*
X146011000Y-109098757D01*
X145963693Y-108860931D01*
X145870898Y-108636903D01*
X145736180Y-108435283D01*
X145564717Y-108263820D01*
X145363097Y-108129102D01*
X145139069Y-108036307D01*
X144901243Y-107989000D01*
X144658757Y-107989000D01*
X144420931Y-108036307D01*
X144196903Y-108129102D01*
X143995283Y-108263820D01*
X143823820Y-108435283D01*
X143689102Y-108636903D01*
X143596307Y-108860931D01*
X143549000Y-109098757D01*
X143471000Y-109098757D01*
X143423693Y-108860931D01*
X143330898Y-108636903D01*
X143196180Y-108435283D01*
X143024717Y-108263820D01*
X142823097Y-108129102D01*
X142599069Y-108036307D01*
X142361243Y-107989000D01*
X142118757Y-107989000D01*
X141880931Y-108036307D01*
X141656903Y-108129102D01*
X141455283Y-108263820D01*
X141283820Y-108435283D01*
X141149102Y-108636903D01*
X141056307Y-108860931D01*
X141009000Y-109098757D01*
X140931000Y-109098757D01*
X140883693Y-108860931D01*
X140790898Y-108636903D01*
X140656180Y-108435283D01*
X140484717Y-108263820D01*
X140283097Y-108129102D01*
X140059069Y-108036307D01*
X139821243Y-107989000D01*
X139578757Y-107989000D01*
X139340931Y-108036307D01*
X139116903Y-108129102D01*
X138915283Y-108263820D01*
X138743820Y-108435283D01*
X138609102Y-108636903D01*
X138516307Y-108860931D01*
X138469000Y-109098757D01*
X138391000Y-109098757D01*
X138343693Y-108860931D01*
X138250898Y-108636903D01*
X138116180Y-108435283D01*
X137944717Y-108263820D01*
X137743097Y-108129102D01*
X137519069Y-108036307D01*
X137281243Y-107989000D01*
X137038757Y-107989000D01*
X136800931Y-108036307D01*
X136576903Y-108129102D01*
X136375283Y-108263820D01*
X136203820Y-108435283D01*
X136069102Y-108636903D01*
X135976307Y-108860931D01*
X135929000Y-109098757D01*
X135851000Y-109098757D01*
X135803693Y-108860931D01*
X135710898Y-108636903D01*
X135576180Y-108435283D01*
X135404717Y-108263820D01*
X135203097Y-108129102D01*
X134979069Y-108036307D01*
X134741243Y-107989000D01*
X134498757Y-107989000D01*
X134260931Y-108036307D01*
X134036903Y-108129102D01*
X133835283Y-108263820D01*
X133663820Y-108435283D01*
X133529102Y-108636903D01*
X133436307Y-108860931D01*
X133389000Y-109098757D01*
X133389000Y-109341243D01*
X133436307Y-109579069D01*
X133529102Y-109803097D01*
X133663820Y-110004717D01*
X133835283Y-110176180D01*
X134036903Y-110310898D01*
X134114001Y-110342833D01*
X134114001Y-110635966D01*
X134049009Y-110629565D01*
X134024450Y-110629565D01*
X134000000Y-110627157D01*
X133500000Y-110627157D01*
X133425311Y-110634513D01*
X133353492Y-110656299D01*
X133350000Y-110658166D01*
X133346508Y-110656299D01*
X133274689Y-110634513D01*
X133200000Y-110627157D01*
X132700000Y-110627157D01*
X132675550Y-110629565D01*
X132650991Y-110629565D01*
X132586000Y-110635966D01*
X132586000Y-110342832D01*
X132663097Y-110310898D01*
X132864717Y-110176180D01*
X133036180Y-110004717D01*
X133170898Y-109803097D01*
X133263693Y-109579069D01*
X133311000Y-109341243D01*
X133311000Y-109098757D01*
X133263693Y-108860931D01*
X133170898Y-108636903D01*
X133036180Y-108435283D01*
X132864717Y-108263820D01*
X132663097Y-108129102D01*
X132439069Y-108036307D01*
X132201243Y-107989000D01*
X131958757Y-107989000D01*
X131720931Y-108036307D01*
X131496903Y-108129102D01*
X131295283Y-108263820D01*
X131123820Y-108435283D01*
X130989102Y-108636903D01*
X130896307Y-108860931D01*
X130849000Y-109098757D01*
X130771000Y-109098757D01*
X130723693Y-108860931D01*
X130630898Y-108636903D01*
X130496180Y-108435283D01*
X130324717Y-108263820D01*
X130123097Y-108129102D01*
X129899069Y-108036307D01*
X129661243Y-107989000D01*
X129418757Y-107989000D01*
X129180931Y-108036307D01*
X128956903Y-108129102D01*
X128755283Y-108263820D01*
X128583820Y-108435283D01*
X128449102Y-108636903D01*
X128356307Y-108860931D01*
X128309000Y-109098757D01*
X128231000Y-109098757D01*
X128183693Y-108860931D01*
X128090898Y-108636903D01*
X127956180Y-108435283D01*
X127784717Y-108263820D01*
X127583097Y-108129102D01*
X127359069Y-108036307D01*
X127121243Y-107989000D01*
X126878757Y-107989000D01*
X126640931Y-108036307D01*
X126416903Y-108129102D01*
X126215283Y-108263820D01*
X126043820Y-108435283D01*
X125909102Y-108636903D01*
X125816307Y-108860931D01*
X125769000Y-109098757D01*
X125691000Y-109098757D01*
X125643693Y-108860931D01*
X125550898Y-108636903D01*
X125416180Y-108435283D01*
X125244717Y-108263820D01*
X125043097Y-108129102D01*
X124819069Y-108036307D01*
X124581243Y-107989000D01*
X124338757Y-107989000D01*
X124100931Y-108036307D01*
X123876903Y-108129102D01*
X123675283Y-108263820D01*
X123503820Y-108435283D01*
X123369102Y-108636903D01*
X123276307Y-108860931D01*
X123229000Y-109098757D01*
X123151000Y-109098757D01*
X123103693Y-108860931D01*
X123010898Y-108636903D01*
X122876180Y-108435283D01*
X122704717Y-108263820D01*
X122503097Y-108129102D01*
X122279069Y-108036307D01*
X122041243Y-107989000D01*
X121798757Y-107989000D01*
X121560931Y-108036307D01*
X121336903Y-108129102D01*
X121135283Y-108263820D01*
X120963820Y-108435283D01*
X120829102Y-108636903D01*
X120736307Y-108860931D01*
X120689000Y-109098757D01*
X107086000Y-109098757D01*
X107086000Y-105853980D01*
X138510511Y-105853980D01*
X138534866Y-105934288D01*
X138634761Y-106153961D01*
X138775592Y-106349924D01*
X138951948Y-106514647D01*
X139157051Y-106641799D01*
X139383019Y-106726495D01*
X139573000Y-106666187D01*
X139573000Y-105664000D01*
X139827000Y-105664000D01*
X139827000Y-106666187D01*
X140016981Y-106726495D01*
X140242949Y-106641799D01*
X140448052Y-106514647D01*
X140624408Y-106349924D01*
X140765239Y-106153961D01*
X140865134Y-105934288D01*
X140889489Y-105853980D01*
X140828627Y-105664000D01*
X139827000Y-105664000D01*
X139573000Y-105664000D01*
X138571373Y-105664000D01*
X138510511Y-105853980D01*
X107086000Y-105853980D01*
X107086000Y-104456980D01*
X115650511Y-104456980D01*
X115674866Y-104537288D01*
X115774761Y-104756961D01*
X115915592Y-104952924D01*
X116091948Y-105117647D01*
X116297051Y-105244799D01*
X116523019Y-105329495D01*
X116713000Y-105269187D01*
X116713000Y-104267000D01*
X116967000Y-104267000D01*
X116967000Y-105269187D01*
X117156981Y-105329495D01*
X117382949Y-105244799D01*
X117588052Y-105117647D01*
X117764408Y-104952924D01*
X117905239Y-104756961D01*
X118005134Y-104537288D01*
X118029489Y-104456980D01*
X117968627Y-104267000D01*
X116967000Y-104267000D01*
X116713000Y-104267000D01*
X115711373Y-104267000D01*
X115650511Y-104456980D01*
X107086000Y-104456980D01*
X107086000Y-103823020D01*
X115650511Y-103823020D01*
X115711373Y-104013000D01*
X116713000Y-104013000D01*
X116713000Y-103010813D01*
X116967000Y-103010813D01*
X116967000Y-104013000D01*
X117968627Y-104013000D01*
X118029489Y-103823020D01*
X118005134Y-103742712D01*
X117905239Y-103523039D01*
X117764408Y-103327076D01*
X117588052Y-103162353D01*
X117382949Y-103035201D01*
X117156981Y-102950505D01*
X116967000Y-103010813D01*
X116713000Y-103010813D01*
X116523019Y-102950505D01*
X116297051Y-103035201D01*
X116091948Y-103162353D01*
X115915592Y-103327076D01*
X115774761Y-103523039D01*
X115674866Y-103742712D01*
X115650511Y-103823020D01*
X107086000Y-103823020D01*
X107086000Y-101478757D01*
X115609000Y-101478757D01*
X115609000Y-101721243D01*
X115656307Y-101959069D01*
X115749102Y-102183097D01*
X115883820Y-102384717D01*
X116055283Y-102556180D01*
X116256903Y-102690898D01*
X116480931Y-102783693D01*
X116718757Y-102831000D01*
X116961243Y-102831000D01*
X117199069Y-102783693D01*
X117423097Y-102690898D01*
X117624717Y-102556180D01*
X117796180Y-102384717D01*
X117930898Y-102183097D01*
X118023693Y-101959069D01*
X118071000Y-101721243D01*
X118071000Y-101478757D01*
X118023693Y-101240931D01*
X117930898Y-101016903D01*
X117796180Y-100815283D01*
X117624717Y-100643820D01*
X117423097Y-100509102D01*
X117199069Y-100416307D01*
X116961243Y-100369000D01*
X116718757Y-100369000D01*
X116480931Y-100416307D01*
X116256903Y-100509102D01*
X116055283Y-100643820D01*
X115883820Y-100815283D01*
X115749102Y-101016903D01*
X115656307Y-101240931D01*
X115609000Y-101478757D01*
X107086000Y-101478757D01*
X107086000Y-98938757D01*
X115609000Y-98938757D01*
X115609000Y-99181243D01*
X115656307Y-99419069D01*
X115749102Y-99643097D01*
X115883820Y-99844717D01*
X116055283Y-100016180D01*
X116256903Y-100150898D01*
X116480931Y-100243693D01*
X116718757Y-100291000D01*
X116961243Y-100291000D01*
X117199069Y-100243693D01*
X117423097Y-100150898D01*
X117624717Y-100016180D01*
X117796180Y-99844717D01*
X117930898Y-99643097D01*
X118023693Y-99419069D01*
X118071000Y-99181243D01*
X118071000Y-98938757D01*
X118023693Y-98700931D01*
X117930898Y-98476903D01*
X117796180Y-98275283D01*
X117624717Y-98103820D01*
X117423097Y-97969102D01*
X117199069Y-97876307D01*
X116961243Y-97829000D01*
X116718757Y-97829000D01*
X116480931Y-97876307D01*
X116256903Y-97969102D01*
X116055283Y-98103820D01*
X115883820Y-98275283D01*
X115749102Y-98476903D01*
X115656307Y-98700931D01*
X115609000Y-98938757D01*
X107086000Y-98938757D01*
X107086000Y-92615001D01*
X115156552Y-92615001D01*
X115158999Y-92639847D01*
X115159000Y-94519145D01*
X115156552Y-94544001D01*
X115166321Y-94643193D01*
X115195254Y-94738575D01*
X115195255Y-94738576D01*
X115242241Y-94826480D01*
X115305473Y-94903528D01*
X115324779Y-94919372D01*
X115995626Y-95590220D01*
X116010617Y-95608486D01*
X115883820Y-95735283D01*
X115749102Y-95936903D01*
X115656307Y-96160931D01*
X115609000Y-96398757D01*
X115609000Y-96641243D01*
X115656307Y-96879069D01*
X115749102Y-97103097D01*
X115883820Y-97304717D01*
X116055283Y-97476180D01*
X116256903Y-97610898D01*
X116480931Y-97703693D01*
X116718757Y-97751000D01*
X116961243Y-97751000D01*
X117199069Y-97703693D01*
X117423097Y-97610898D01*
X117624717Y-97476180D01*
X117796180Y-97304717D01*
X117930898Y-97103097D01*
X118023693Y-96879069D01*
X118071000Y-96641243D01*
X118071000Y-96398757D01*
X118023693Y-96160931D01*
X117930898Y-95936903D01*
X117810023Y-95756000D01*
X120440409Y-95756000D01*
X129291628Y-104607220D01*
X129307473Y-104626527D01*
X129384521Y-104689759D01*
X129472425Y-104736745D01*
X129567807Y-104765678D01*
X129667000Y-104775448D01*
X129691854Y-104773000D01*
X138740432Y-104773000D01*
X138634761Y-104920039D01*
X138534866Y-105139712D01*
X138510511Y-105220020D01*
X138571373Y-105410000D01*
X139573000Y-105410000D01*
X139573000Y-105390000D01*
X139827000Y-105390000D01*
X139827000Y-105410000D01*
X140828627Y-105410000D01*
X140889489Y-105220020D01*
X140865134Y-105139712D01*
X140765239Y-104920039D01*
X140659568Y-104773000D01*
X159868154Y-104773000D01*
X159893000Y-104775447D01*
X159917846Y-104773000D01*
X159917854Y-104773000D01*
X159992193Y-104765678D01*
X160087575Y-104736745D01*
X160175479Y-104689759D01*
X160252527Y-104626527D01*
X160268376Y-104607215D01*
X160856834Y-104018757D01*
X161329000Y-104018757D01*
X161329000Y-104261243D01*
X161376307Y-104499069D01*
X161469102Y-104723097D01*
X161603820Y-104924717D01*
X161775283Y-105096180D01*
X161976903Y-105230898D01*
X162200931Y-105323693D01*
X162438757Y-105371000D01*
X162681243Y-105371000D01*
X162919069Y-105323693D01*
X163143097Y-105230898D01*
X163344717Y-105096180D01*
X163516180Y-104924717D01*
X163650898Y-104723097D01*
X163743693Y-104499069D01*
X163791000Y-104261243D01*
X163791000Y-104018757D01*
X163743693Y-103780931D01*
X163650898Y-103556903D01*
X163516180Y-103355283D01*
X163344717Y-103183820D01*
X163143097Y-103049102D01*
X162919069Y-102956307D01*
X162681243Y-102909000D01*
X162438757Y-102909000D01*
X162200931Y-102956307D01*
X161976903Y-103049102D01*
X161775283Y-103183820D01*
X161603820Y-103355283D01*
X161469102Y-103556903D01*
X161376307Y-103780931D01*
X161329000Y-104018757D01*
X160856834Y-104018757D01*
X162123833Y-102751758D01*
X162200931Y-102783693D01*
X162438757Y-102831000D01*
X162681243Y-102831000D01*
X162919069Y-102783693D01*
X163143097Y-102690898D01*
X163344717Y-102556180D01*
X163516180Y-102384717D01*
X163650898Y-102183097D01*
X163743693Y-101959069D01*
X163791000Y-101721243D01*
X163791000Y-101478757D01*
X163743693Y-101240931D01*
X163650898Y-101016903D01*
X163530023Y-100836000D01*
X166557157Y-100836000D01*
X166557157Y-100900001D01*
X166569317Y-101023462D01*
X166605329Y-101142179D01*
X166663810Y-101251589D01*
X166742512Y-101347488D01*
X166838411Y-101426190D01*
X166947821Y-101484671D01*
X167066538Y-101520683D01*
X167189999Y-101532843D01*
X167882251Y-101532843D01*
X167949408Y-101600000D01*
X167251000Y-101600000D01*
X167201270Y-101603259D01*
X167071860Y-101620296D01*
X166975788Y-101646039D01*
X166855198Y-101695989D01*
X166769060Y-101745721D01*
X166665507Y-101825181D01*
X166595181Y-101895507D01*
X166515721Y-101999060D01*
X166465989Y-102085198D01*
X166416039Y-102205788D01*
X166390296Y-102301860D01*
X166373259Y-102431270D01*
X166370000Y-102481000D01*
X166370000Y-104758025D01*
X166362769Y-104812952D01*
X166351211Y-104840855D01*
X166332821Y-104864821D01*
X166308855Y-104883211D01*
X166280952Y-104894769D01*
X166226025Y-104902000D01*
X164584000Y-104902000D01*
X164534270Y-104905259D01*
X164404860Y-104922296D01*
X164308788Y-104948039D01*
X164188198Y-104997989D01*
X164102060Y-105047721D01*
X163998507Y-105127181D01*
X163928181Y-105197507D01*
X163848721Y-105301060D01*
X163798989Y-105387198D01*
X163749039Y-105507788D01*
X163723296Y-105603860D01*
X163706259Y-105733270D01*
X163703000Y-105783000D01*
X163703000Y-108762689D01*
X163650898Y-108636903D01*
X163516180Y-108435283D01*
X163344717Y-108263820D01*
X163143097Y-108129102D01*
X162919069Y-108036307D01*
X162681243Y-107989000D01*
X162438757Y-107989000D01*
X162200931Y-108036307D01*
X161976903Y-108129102D01*
X161775283Y-108263820D01*
X161603820Y-108435283D01*
X161469102Y-108636903D01*
X161376307Y-108860931D01*
X161329000Y-109098757D01*
X161329000Y-109341243D01*
X161376307Y-109579069D01*
X161469102Y-109803097D01*
X161603820Y-110004717D01*
X161775283Y-110176180D01*
X161976903Y-110310898D01*
X162200931Y-110403693D01*
X162438757Y-110451000D01*
X162681243Y-110451000D01*
X162919069Y-110403693D01*
X163143097Y-110310898D01*
X163344717Y-110176180D01*
X163516180Y-110004717D01*
X163650898Y-109803097D01*
X163703000Y-109677311D01*
X163703000Y-109863000D01*
X163706259Y-109912730D01*
X163723296Y-110042140D01*
X163749039Y-110138212D01*
X163798989Y-110258802D01*
X163848721Y-110344940D01*
X163928181Y-110448493D01*
X163998507Y-110518819D01*
X164102060Y-110598279D01*
X164188198Y-110648011D01*
X164308788Y-110697961D01*
X164404860Y-110723704D01*
X164534270Y-110740741D01*
X164584000Y-110744000D01*
X165743000Y-110744000D01*
X165792730Y-110740741D01*
X165922140Y-110723704D01*
X166018212Y-110697961D01*
X166138802Y-110648011D01*
X166224940Y-110598279D01*
X166328493Y-110518819D01*
X166398819Y-110448493D01*
X166478279Y-110344940D01*
X166528011Y-110258802D01*
X166577961Y-110138212D01*
X166584957Y-110112100D01*
X166927505Y-110112100D01*
X167019523Y-110290078D01*
X167240207Y-110390566D01*
X167476255Y-110446069D01*
X167718596Y-110454456D01*
X167957917Y-110415402D01*
X168185020Y-110330411D01*
X168260477Y-110290078D01*
X168352495Y-110112100D01*
X169467505Y-110112100D01*
X169559523Y-110290078D01*
X169780207Y-110390566D01*
X170016255Y-110446069D01*
X170258596Y-110454456D01*
X170497917Y-110415402D01*
X170725020Y-110330411D01*
X170800477Y-110290078D01*
X170892495Y-110112100D01*
X170180000Y-109399605D01*
X169467505Y-110112100D01*
X168352495Y-110112100D01*
X167640000Y-109399605D01*
X166927505Y-110112100D01*
X166584957Y-110112100D01*
X166603704Y-110042140D01*
X166620741Y-109912730D01*
X166623655Y-109868258D01*
X166747900Y-109932495D01*
X167460395Y-109220000D01*
X167819605Y-109220000D01*
X168532100Y-109932495D01*
X168710078Y-109840477D01*
X168810566Y-109619793D01*
X168866069Y-109383745D01*
X168869015Y-109298596D01*
X168945544Y-109298596D01*
X168984598Y-109537917D01*
X169069589Y-109765020D01*
X169109922Y-109840477D01*
X169287900Y-109932495D01*
X170000395Y-109220000D01*
X170359605Y-109220000D01*
X171072100Y-109932495D01*
X171250078Y-109840477D01*
X171350566Y-109619793D01*
X171406069Y-109383745D01*
X171414456Y-109141404D01*
X171375402Y-108902083D01*
X171290411Y-108674980D01*
X171250078Y-108599523D01*
X171072100Y-108507505D01*
X170359605Y-109220000D01*
X170000395Y-109220000D01*
X169287900Y-108507505D01*
X169109922Y-108599523D01*
X169009434Y-108820207D01*
X168953931Y-109056255D01*
X168945544Y-109298596D01*
X168869015Y-109298596D01*
X168874456Y-109141404D01*
X168835402Y-108902083D01*
X168750411Y-108674980D01*
X168710078Y-108599523D01*
X168532100Y-108507505D01*
X167819605Y-109220000D01*
X167460395Y-109220000D01*
X166747900Y-108507505D01*
X166624000Y-108571564D01*
X166624000Y-108327900D01*
X166927505Y-108327900D01*
X167640000Y-109040395D01*
X168352495Y-108327900D01*
X169467505Y-108327900D01*
X170180000Y-109040395D01*
X170892495Y-108327900D01*
X170800477Y-108149922D01*
X170579793Y-108049434D01*
X170343745Y-107993931D01*
X170101404Y-107985544D01*
X169862083Y-108024598D01*
X169634980Y-108109589D01*
X169559523Y-108149922D01*
X169467505Y-108327900D01*
X168352495Y-108327900D01*
X168260477Y-108149922D01*
X168039793Y-108049434D01*
X167803745Y-107993931D01*
X167561404Y-107985544D01*
X167322083Y-108024598D01*
X167094980Y-108109589D01*
X167019523Y-108149922D01*
X166927505Y-108327900D01*
X166624000Y-108327900D01*
X166624000Y-107839975D01*
X166631231Y-107785048D01*
X166642789Y-107757145D01*
X166661179Y-107733179D01*
X166685145Y-107714789D01*
X166713048Y-107703231D01*
X166767975Y-107696000D01*
X171306025Y-107696000D01*
X171360952Y-107703231D01*
X171388855Y-107714789D01*
X171412821Y-107733179D01*
X171431211Y-107757145D01*
X171442769Y-107785048D01*
X171450000Y-107839975D01*
X171450000Y-109990000D01*
X171453259Y-110039730D01*
X171470296Y-110169140D01*
X171496039Y-110265212D01*
X171545989Y-110385802D01*
X171595721Y-110471940D01*
X171675181Y-110575493D01*
X171745507Y-110645819D01*
X171849060Y-110725279D01*
X171935198Y-110775011D01*
X172055788Y-110824961D01*
X172151860Y-110850704D01*
X172281270Y-110867741D01*
X172331000Y-110871000D01*
X174417041Y-110871000D01*
X174335592Y-110947076D01*
X174194761Y-111143039D01*
X174094866Y-111362712D01*
X174070511Y-111443020D01*
X174131373Y-111633000D01*
X175133000Y-111633000D01*
X175133000Y-111613000D01*
X175387000Y-111613000D01*
X175387000Y-111633000D01*
X176388627Y-111633000D01*
X176449489Y-111443020D01*
X176425134Y-111362712D01*
X176325239Y-111143039D01*
X176184408Y-110947076D01*
X176102959Y-110871000D01*
X176570998Y-110871000D01*
X176567157Y-110910000D01*
X176569000Y-111537750D01*
X176664250Y-111633000D01*
X177673000Y-111633000D01*
X177673000Y-111613000D01*
X177927000Y-111613000D01*
X177927000Y-111633000D01*
X178935750Y-111633000D01*
X179031000Y-111537750D01*
X179032843Y-110910000D01*
X179025487Y-110835311D01*
X179003701Y-110763492D01*
X178999468Y-110755574D01*
X179051940Y-110725279D01*
X179155493Y-110645819D01*
X179225819Y-110575493D01*
X179305279Y-110471940D01*
X179355011Y-110385802D01*
X179404961Y-110265212D01*
X179430704Y-110169140D01*
X179447741Y-110039730D01*
X179451000Y-109990000D01*
X179451000Y-108450000D01*
X179447741Y-108400270D01*
X179430704Y-108270860D01*
X179404961Y-108174788D01*
X179355011Y-108054198D01*
X179305279Y-107968060D01*
X179225819Y-107864507D01*
X179155493Y-107794181D01*
X179051940Y-107714721D01*
X178965802Y-107664989D01*
X178845212Y-107615039D01*
X178749140Y-107589296D01*
X178645275Y-107575622D01*
X178756180Y-107464717D01*
X178890898Y-107263097D01*
X178983693Y-107039069D01*
X179031000Y-106801243D01*
X179031000Y-106558757D01*
X178983693Y-106320931D01*
X178890898Y-106096903D01*
X178756180Y-105895283D01*
X178584717Y-105723820D01*
X178383097Y-105589102D01*
X178159069Y-105496307D01*
X177921243Y-105449000D01*
X177678757Y-105449000D01*
X177440931Y-105496307D01*
X177216903Y-105589102D01*
X177015283Y-105723820D01*
X176843820Y-105895283D01*
X176709102Y-106096903D01*
X176677168Y-106174000D01*
X176382832Y-106174000D01*
X176350898Y-106096903D01*
X176216180Y-105895283D01*
X176044717Y-105723820D01*
X175843097Y-105589102D01*
X175619069Y-105496307D01*
X175537717Y-105480125D01*
X175420736Y-105363144D01*
X175619069Y-105323693D01*
X175843097Y-105230898D01*
X176044717Y-105096180D01*
X176216180Y-104924717D01*
X176350898Y-104723097D01*
X176382832Y-104646000D01*
X176677168Y-104646000D01*
X176709102Y-104723097D01*
X176843820Y-104924717D01*
X177015283Y-105096180D01*
X177216903Y-105230898D01*
X177440931Y-105323693D01*
X177678757Y-105371000D01*
X177921243Y-105371000D01*
X178159069Y-105323693D01*
X178383097Y-105230898D01*
X178584717Y-105096180D01*
X178756180Y-104924717D01*
X178890898Y-104723097D01*
X178983693Y-104499069D01*
X179031000Y-104261243D01*
X179031000Y-104018757D01*
X178983693Y-103780931D01*
X178890898Y-103556903D01*
X178756180Y-103355283D01*
X178584717Y-103183820D01*
X178383097Y-103049102D01*
X178159069Y-102956307D01*
X177921243Y-102909000D01*
X177678757Y-102909000D01*
X177440931Y-102956307D01*
X177216903Y-103049102D01*
X177015283Y-103183820D01*
X176843820Y-103355283D01*
X176709102Y-103556903D01*
X176677168Y-103634000D01*
X176382832Y-103634000D01*
X176350898Y-103556903D01*
X176216180Y-103355283D01*
X176044717Y-103183820D01*
X175843097Y-103049102D01*
X175619069Y-102956307D01*
X175381243Y-102909000D01*
X175138757Y-102909000D01*
X174900931Y-102956307D01*
X174823833Y-102988242D01*
X172070376Y-100234785D01*
X172054527Y-100215473D01*
X171977479Y-100152241D01*
X171889575Y-100105255D01*
X171794193Y-100076322D01*
X171719854Y-100069000D01*
X171719846Y-100069000D01*
X171695000Y-100066553D01*
X171670154Y-100069000D01*
X171233229Y-100069000D01*
X171214671Y-100007821D01*
X171156190Y-99898411D01*
X171077488Y-99802512D01*
X170981589Y-99723810D01*
X170872179Y-99665329D01*
X170753462Y-99629317D01*
X170630001Y-99617157D01*
X169937749Y-99617157D01*
X167770376Y-97449785D01*
X167754527Y-97430473D01*
X167677479Y-97367241D01*
X167589575Y-97320255D01*
X167494193Y-97291322D01*
X167419854Y-97284000D01*
X167419846Y-97284000D01*
X167395000Y-97281553D01*
X167370154Y-97284000D01*
X143084592Y-97284000D01*
X141218376Y-95417785D01*
X141202527Y-95398473D01*
X141125479Y-95335241D01*
X141037575Y-95288255D01*
X140942193Y-95259322D01*
X140867854Y-95252000D01*
X140867846Y-95252000D01*
X140843000Y-95249553D01*
X140818154Y-95252000D01*
X139147592Y-95252000D01*
X138311758Y-94416167D01*
X138343693Y-94339069D01*
X138391000Y-94101243D01*
X138391000Y-93858757D01*
X138469000Y-93858757D01*
X138469000Y-94101243D01*
X138516307Y-94339069D01*
X138609102Y-94563097D01*
X138743820Y-94764717D01*
X138915283Y-94936180D01*
X139116903Y-95070898D01*
X139340931Y-95163693D01*
X139578757Y-95211000D01*
X139821243Y-95211000D01*
X140059069Y-95163693D01*
X140283097Y-95070898D01*
X140484717Y-94936180D01*
X140656180Y-94764717D01*
X140790898Y-94563097D01*
X140883693Y-94339069D01*
X140931000Y-94101243D01*
X140931000Y-93858757D01*
X141009000Y-93858757D01*
X141009000Y-94101243D01*
X141056307Y-94339069D01*
X141149102Y-94563097D01*
X141283820Y-94764717D01*
X141455283Y-94936180D01*
X141656903Y-95070898D01*
X141880931Y-95163693D01*
X142118757Y-95211000D01*
X142361243Y-95211000D01*
X142599069Y-95163693D01*
X142676167Y-95131758D01*
X144531628Y-96987220D01*
X144547473Y-97006527D01*
X144624521Y-97069759D01*
X144686892Y-97103097D01*
X144712425Y-97116745D01*
X144807807Y-97145678D01*
X144907000Y-97155448D01*
X144931854Y-97153000D01*
X170097409Y-97153000D01*
X174108242Y-101163834D01*
X174076307Y-101240931D01*
X174029000Y-101478757D01*
X174029000Y-101721243D01*
X174076307Y-101959069D01*
X174169102Y-102183097D01*
X174303820Y-102384717D01*
X174475283Y-102556180D01*
X174676903Y-102690898D01*
X174900931Y-102783693D01*
X175138757Y-102831000D01*
X175381243Y-102831000D01*
X175619069Y-102783693D01*
X175843097Y-102690898D01*
X176044717Y-102556180D01*
X176216180Y-102384717D01*
X176350898Y-102183097D01*
X176443693Y-101959069D01*
X176491000Y-101721243D01*
X176491000Y-101478757D01*
X176443693Y-101240931D01*
X176350898Y-101016903D01*
X176216180Y-100815283D01*
X176044717Y-100643820D01*
X175843097Y-100509102D01*
X175619069Y-100416307D01*
X175381243Y-100369000D01*
X175138757Y-100369000D01*
X174900931Y-100416307D01*
X174823834Y-100448242D01*
X170682376Y-96306785D01*
X170666527Y-96287473D01*
X170637925Y-96264000D01*
X171748409Y-96264000D01*
X174108242Y-98623833D01*
X174076307Y-98700931D01*
X174029000Y-98938757D01*
X174029000Y-99181243D01*
X174076307Y-99419069D01*
X174169102Y-99643097D01*
X174303820Y-99844717D01*
X174475283Y-100016180D01*
X174676903Y-100150898D01*
X174900931Y-100243693D01*
X175138757Y-100291000D01*
X175381243Y-100291000D01*
X175619069Y-100243693D01*
X175843097Y-100150898D01*
X176044717Y-100016180D01*
X176216180Y-99844717D01*
X176350898Y-99643097D01*
X176443693Y-99419069D01*
X176491000Y-99181243D01*
X176491000Y-98938757D01*
X176443693Y-98700931D01*
X176350898Y-98476903D01*
X176216180Y-98275283D01*
X176044717Y-98103820D01*
X175843097Y-97969102D01*
X175619069Y-97876307D01*
X175381243Y-97829000D01*
X175138757Y-97829000D01*
X174900931Y-97876307D01*
X174823833Y-97908242D01*
X173314348Y-96398757D01*
X174029000Y-96398757D01*
X174029000Y-96641243D01*
X174076307Y-96879069D01*
X174169102Y-97103097D01*
X174303820Y-97304717D01*
X174475283Y-97476180D01*
X174676903Y-97610898D01*
X174900931Y-97703693D01*
X175138757Y-97751000D01*
X175381243Y-97751000D01*
X175619069Y-97703693D01*
X175843097Y-97610898D01*
X176044717Y-97476180D01*
X176216180Y-97304717D01*
X176350898Y-97103097D01*
X176443693Y-96879069D01*
X176491000Y-96641243D01*
X176491000Y-96398757D01*
X176443693Y-96160931D01*
X176350898Y-95936903D01*
X176216180Y-95735283D01*
X176044717Y-95563820D01*
X175843097Y-95429102D01*
X175619069Y-95336307D01*
X175381243Y-95289000D01*
X175138757Y-95289000D01*
X174900931Y-95336307D01*
X174676903Y-95429102D01*
X174475283Y-95563820D01*
X174303820Y-95735283D01*
X174169102Y-95936903D01*
X174076307Y-96160931D01*
X174029000Y-96398757D01*
X173314348Y-96398757D01*
X172333376Y-95417785D01*
X172317527Y-95398473D01*
X172240479Y-95335241D01*
X172152575Y-95288255D01*
X172057193Y-95259322D01*
X171982854Y-95252000D01*
X171982846Y-95252000D01*
X171958000Y-95249553D01*
X171933154Y-95252000D01*
X146767592Y-95252000D01*
X145931758Y-94416167D01*
X145963693Y-94339069D01*
X146011000Y-94101243D01*
X146011000Y-93858757D01*
X146089000Y-93858757D01*
X146089000Y-94101243D01*
X146136307Y-94339069D01*
X146229102Y-94563097D01*
X146363820Y-94764717D01*
X146535283Y-94936180D01*
X146736903Y-95070898D01*
X146960931Y-95163693D01*
X147198757Y-95211000D01*
X147441243Y-95211000D01*
X147679069Y-95163693D01*
X147903097Y-95070898D01*
X148104717Y-94936180D01*
X148276180Y-94764717D01*
X148410898Y-94563097D01*
X148503693Y-94339069D01*
X148551000Y-94101243D01*
X148551000Y-93858757D01*
X148629000Y-93858757D01*
X148629000Y-94101243D01*
X148676307Y-94339069D01*
X148769102Y-94563097D01*
X148903820Y-94764717D01*
X149075283Y-94936180D01*
X149276903Y-95070898D01*
X149500931Y-95163693D01*
X149738757Y-95211000D01*
X149981243Y-95211000D01*
X150219069Y-95163693D01*
X150443097Y-95070898D01*
X150644717Y-94936180D01*
X150816180Y-94764717D01*
X150950898Y-94563097D01*
X151043693Y-94339069D01*
X151091000Y-94101243D01*
X151091000Y-93858757D01*
X151169000Y-93858757D01*
X151169000Y-94101243D01*
X151216307Y-94339069D01*
X151309102Y-94563097D01*
X151443820Y-94764717D01*
X151615283Y-94936180D01*
X151816903Y-95070898D01*
X152040931Y-95163693D01*
X152278757Y-95211000D01*
X152521243Y-95211000D01*
X152759069Y-95163693D01*
X152983097Y-95070898D01*
X153184717Y-94936180D01*
X153356180Y-94764717D01*
X153490898Y-94563097D01*
X153583693Y-94339069D01*
X153631000Y-94101243D01*
X153631000Y-93858757D01*
X153709000Y-93858757D01*
X153709000Y-94101243D01*
X153756307Y-94339069D01*
X153849102Y-94563097D01*
X153983820Y-94764717D01*
X154155283Y-94936180D01*
X154356903Y-95070898D01*
X154580931Y-95163693D01*
X154818757Y-95211000D01*
X155061243Y-95211000D01*
X155299069Y-95163693D01*
X155523097Y-95070898D01*
X155724717Y-94936180D01*
X155896180Y-94764717D01*
X156030898Y-94563097D01*
X156123693Y-94339069D01*
X156171000Y-94101243D01*
X156171000Y-93858757D01*
X156249000Y-93858757D01*
X156249000Y-94101243D01*
X156296307Y-94339069D01*
X156389102Y-94563097D01*
X156523820Y-94764717D01*
X156695283Y-94936180D01*
X156896903Y-95070898D01*
X157120931Y-95163693D01*
X157358757Y-95211000D01*
X157601243Y-95211000D01*
X157839069Y-95163693D01*
X158063097Y-95070898D01*
X158264717Y-94936180D01*
X158436180Y-94764717D01*
X158570898Y-94563097D01*
X158663693Y-94339069D01*
X158711000Y-94101243D01*
X158711000Y-93858757D01*
X158789000Y-93858757D01*
X158789000Y-94101243D01*
X158836307Y-94339069D01*
X158929102Y-94563097D01*
X159063820Y-94764717D01*
X159235283Y-94936180D01*
X159436903Y-95070898D01*
X159660931Y-95163693D01*
X159898757Y-95211000D01*
X160141243Y-95211000D01*
X160379069Y-95163693D01*
X160603097Y-95070898D01*
X160804717Y-94936180D01*
X160976180Y-94764717D01*
X161110898Y-94563097D01*
X161203693Y-94339069D01*
X161251000Y-94101243D01*
X161251000Y-93858757D01*
X161203693Y-93620931D01*
X161110898Y-93396903D01*
X160976180Y-93195283D01*
X160804717Y-93023820D01*
X160603097Y-92889102D01*
X160379069Y-92796307D01*
X160141243Y-92749000D01*
X159898757Y-92749000D01*
X159660931Y-92796307D01*
X159436903Y-92889102D01*
X159235283Y-93023820D01*
X159063820Y-93195283D01*
X158929102Y-93396903D01*
X158836307Y-93620931D01*
X158789000Y-93858757D01*
X158711000Y-93858757D01*
X158663693Y-93620931D01*
X158570898Y-93396903D01*
X158436180Y-93195283D01*
X158264717Y-93023820D01*
X158063097Y-92889102D01*
X157839069Y-92796307D01*
X157601243Y-92749000D01*
X157358757Y-92749000D01*
X157120931Y-92796307D01*
X156896903Y-92889102D01*
X156695283Y-93023820D01*
X156523820Y-93195283D01*
X156389102Y-93396903D01*
X156296307Y-93620931D01*
X156249000Y-93858757D01*
X156171000Y-93858757D01*
X156123693Y-93620931D01*
X156030898Y-93396903D01*
X155896180Y-93195283D01*
X155724717Y-93023820D01*
X155523097Y-92889102D01*
X155299069Y-92796307D01*
X155061243Y-92749000D01*
X154818757Y-92749000D01*
X154580931Y-92796307D01*
X154356903Y-92889102D01*
X154155283Y-93023820D01*
X153983820Y-93195283D01*
X153849102Y-93396903D01*
X153756307Y-93620931D01*
X153709000Y-93858757D01*
X153631000Y-93858757D01*
X153583693Y-93620931D01*
X153490898Y-93396903D01*
X153356180Y-93195283D01*
X153184717Y-93023820D01*
X152983097Y-92889102D01*
X152759069Y-92796307D01*
X152521243Y-92749000D01*
X152278757Y-92749000D01*
X152040931Y-92796307D01*
X151816903Y-92889102D01*
X151615283Y-93023820D01*
X151443820Y-93195283D01*
X151309102Y-93396903D01*
X151216307Y-93620931D01*
X151169000Y-93858757D01*
X151091000Y-93858757D01*
X151043693Y-93620931D01*
X150950898Y-93396903D01*
X150816180Y-93195283D01*
X150644717Y-93023820D01*
X150443097Y-92889102D01*
X150219069Y-92796307D01*
X149981243Y-92749000D01*
X149738757Y-92749000D01*
X149500931Y-92796307D01*
X149276903Y-92889102D01*
X149075283Y-93023820D01*
X148903820Y-93195283D01*
X148769102Y-93396903D01*
X148676307Y-93620931D01*
X148629000Y-93858757D01*
X148551000Y-93858757D01*
X148503693Y-93620931D01*
X148410898Y-93396903D01*
X148276180Y-93195283D01*
X148104717Y-93023820D01*
X147903097Y-92889102D01*
X147679069Y-92796307D01*
X147441243Y-92749000D01*
X147198757Y-92749000D01*
X146960931Y-92796307D01*
X146736903Y-92889102D01*
X146535283Y-93023820D01*
X146363820Y-93195283D01*
X146229102Y-93396903D01*
X146136307Y-93620931D01*
X146089000Y-93858757D01*
X146011000Y-93858757D01*
X145963693Y-93620931D01*
X145870898Y-93396903D01*
X145736180Y-93195283D01*
X145564717Y-93023820D01*
X145363097Y-92889102D01*
X145139069Y-92796307D01*
X144901243Y-92749000D01*
X144658757Y-92749000D01*
X144420931Y-92796307D01*
X144196903Y-92889102D01*
X143995283Y-93023820D01*
X143823820Y-93195283D01*
X143689102Y-93396903D01*
X143596307Y-93620931D01*
X143549000Y-93858757D01*
X143549000Y-94101243D01*
X143596307Y-94339069D01*
X143689102Y-94563097D01*
X143823820Y-94764717D01*
X143995283Y-94936180D01*
X144196903Y-95070898D01*
X144420931Y-95163693D01*
X144658757Y-95211000D01*
X144901243Y-95211000D01*
X145139069Y-95163693D01*
X145216167Y-95131758D01*
X146182628Y-96098220D01*
X146198473Y-96117527D01*
X146227075Y-96141000D01*
X145116592Y-96141000D01*
X143391758Y-94416167D01*
X143423693Y-94339069D01*
X143471000Y-94101243D01*
X143471000Y-93858757D01*
X143423693Y-93620931D01*
X143330898Y-93396903D01*
X143196180Y-93195283D01*
X143024717Y-93023820D01*
X142823097Y-92889102D01*
X142599069Y-92796307D01*
X142361243Y-92749000D01*
X142118757Y-92749000D01*
X141880931Y-92796307D01*
X141656903Y-92889102D01*
X141455283Y-93023820D01*
X141283820Y-93195283D01*
X141149102Y-93396903D01*
X141056307Y-93620931D01*
X141009000Y-93858757D01*
X140931000Y-93858757D01*
X140883693Y-93620931D01*
X140790898Y-93396903D01*
X140656180Y-93195283D01*
X140484717Y-93023820D01*
X140283097Y-92889102D01*
X140059069Y-92796307D01*
X139821243Y-92749000D01*
X139578757Y-92749000D01*
X139340931Y-92796307D01*
X139116903Y-92889102D01*
X138915283Y-93023820D01*
X138743820Y-93195283D01*
X138609102Y-93396903D01*
X138516307Y-93620931D01*
X138469000Y-93858757D01*
X138391000Y-93858757D01*
X138343693Y-93620931D01*
X138250898Y-93396903D01*
X138116180Y-93195283D01*
X137944717Y-93023820D01*
X137743097Y-92889102D01*
X137519069Y-92796307D01*
X137281243Y-92749000D01*
X137038757Y-92749000D01*
X136800931Y-92796307D01*
X136576903Y-92889102D01*
X136375283Y-93023820D01*
X136203820Y-93195283D01*
X136069102Y-93396903D01*
X135976307Y-93620931D01*
X135929000Y-93858757D01*
X135929000Y-94101243D01*
X135976307Y-94339069D01*
X136069102Y-94563097D01*
X136203820Y-94764717D01*
X136375283Y-94936180D01*
X136576903Y-95070898D01*
X136800931Y-95163693D01*
X137038757Y-95211000D01*
X137281243Y-95211000D01*
X137519069Y-95163693D01*
X137596167Y-95131758D01*
X138562628Y-96098220D01*
X138578473Y-96117527D01*
X138655521Y-96180759D01*
X138743425Y-96227745D01*
X138838807Y-96256678D01*
X138938000Y-96266448D01*
X138962854Y-96264000D01*
X140633409Y-96264000D01*
X142499628Y-98130220D01*
X142515473Y-98149527D01*
X142592521Y-98212759D01*
X142680425Y-98259745D01*
X142775807Y-98288678D01*
X142850146Y-98296000D01*
X142850154Y-98296000D01*
X142875000Y-98298447D01*
X142899846Y-98296000D01*
X161327157Y-98296000D01*
X161327157Y-99824000D01*
X148672592Y-99824000D01*
X147695376Y-98846785D01*
X147679527Y-98827473D01*
X147602479Y-98764241D01*
X147514575Y-98717255D01*
X147419193Y-98688322D01*
X147344854Y-98681000D01*
X147344846Y-98681000D01*
X147320000Y-98678553D01*
X147295154Y-98681000D01*
X140932843Y-98681000D01*
X140932843Y-97067000D01*
X140925487Y-96992311D01*
X140903701Y-96920492D01*
X140868322Y-96854304D01*
X140820711Y-96796289D01*
X140762696Y-96748678D01*
X140696508Y-96713299D01*
X140624689Y-96691513D01*
X140550000Y-96684157D01*
X138850000Y-96684157D01*
X138775311Y-96691513D01*
X138703492Y-96713299D01*
X138637304Y-96748678D01*
X138579289Y-96796289D01*
X138531678Y-96854304D01*
X138496299Y-96920492D01*
X138474513Y-96992311D01*
X138467157Y-97067000D01*
X138467157Y-98253567D01*
X135251887Y-95038298D01*
X135404717Y-94936180D01*
X135576180Y-94764717D01*
X135710898Y-94563097D01*
X135803693Y-94339069D01*
X135851000Y-94101243D01*
X135851000Y-93858757D01*
X135803693Y-93620931D01*
X135710898Y-93396903D01*
X135576180Y-93195283D01*
X135404717Y-93023820D01*
X135203097Y-92889102D01*
X134979069Y-92796307D01*
X134741243Y-92749000D01*
X134498757Y-92749000D01*
X134260931Y-92796307D01*
X134036903Y-92889102D01*
X133835283Y-93023820D01*
X133663820Y-93195283D01*
X133529102Y-93396903D01*
X133436307Y-93620931D01*
X133389000Y-93858757D01*
X133389000Y-94101243D01*
X133436307Y-94339069D01*
X133529102Y-94563097D01*
X133663820Y-94764717D01*
X133835283Y-94936180D01*
X134036903Y-95070898D01*
X134113463Y-95102610D01*
X134111553Y-95122002D01*
X134121322Y-95221194D01*
X134150255Y-95316576D01*
X134160802Y-95336307D01*
X134197242Y-95404481D01*
X134260474Y-95481529D01*
X134279781Y-95497374D01*
X138309626Y-99527220D01*
X138325471Y-99546527D01*
X138402519Y-99609759D01*
X138490423Y-99656745D01*
X138563605Y-99678944D01*
X138585804Y-99685678D01*
X138595692Y-99686652D01*
X138660144Y-99693000D01*
X138660151Y-99693000D01*
X138684997Y-99695447D01*
X138709843Y-99693000D01*
X138729977Y-99693000D01*
X138609102Y-99873903D01*
X138516307Y-100097931D01*
X138469000Y-100335757D01*
X138469000Y-100578243D01*
X138516307Y-100816069D01*
X138609102Y-101040097D01*
X138743820Y-101241717D01*
X138915283Y-101413180D01*
X139116903Y-101547898D01*
X139340931Y-101640693D01*
X139578757Y-101688000D01*
X139821243Y-101688000D01*
X140059069Y-101640693D01*
X140283097Y-101547898D01*
X140484717Y-101413180D01*
X140656180Y-101241717D01*
X140790898Y-101040097D01*
X140883693Y-100816069D01*
X140931000Y-100578243D01*
X140931000Y-100335757D01*
X140883693Y-100097931D01*
X140790898Y-99873903D01*
X140670023Y-99693000D01*
X147110409Y-99693000D01*
X148087628Y-100670220D01*
X148103473Y-100689527D01*
X148180521Y-100752759D01*
X148268425Y-100799745D01*
X148363806Y-100828678D01*
X148373694Y-100829652D01*
X148438146Y-100836000D01*
X148438153Y-100836000D01*
X148462999Y-100838447D01*
X148487845Y-100836000D01*
X161589977Y-100836000D01*
X161469102Y-101016903D01*
X161376307Y-101240931D01*
X161329000Y-101478757D01*
X161329000Y-101721243D01*
X161376307Y-101959069D01*
X161408242Y-102036167D01*
X159683409Y-103761000D01*
X140670023Y-103761000D01*
X140790898Y-103580097D01*
X140883693Y-103356069D01*
X140931000Y-103118243D01*
X140931000Y-102875757D01*
X140883693Y-102637931D01*
X140790898Y-102413903D01*
X140656180Y-102212283D01*
X140484717Y-102040820D01*
X140283097Y-101906102D01*
X140059069Y-101813307D01*
X139821243Y-101766000D01*
X139578757Y-101766000D01*
X139340931Y-101813307D01*
X139116903Y-101906102D01*
X138915283Y-102040820D01*
X138743820Y-102212283D01*
X138609102Y-102413903D01*
X138516307Y-102637931D01*
X138469000Y-102875757D01*
X138469000Y-103118243D01*
X138516307Y-103356069D01*
X138609102Y-103580097D01*
X138729977Y-103761000D01*
X129876592Y-103761000D01*
X121025376Y-94909785D01*
X121009527Y-94890473D01*
X120932479Y-94827241D01*
X120844575Y-94780255D01*
X120749193Y-94751322D01*
X120674854Y-94744000D01*
X120674846Y-94744000D01*
X120650000Y-94741553D01*
X120625154Y-94744000D01*
X117810023Y-94744000D01*
X117930898Y-94563097D01*
X118023693Y-94339069D01*
X118071000Y-94101243D01*
X118071000Y-93858757D01*
X120689000Y-93858757D01*
X120689000Y-94101243D01*
X120736307Y-94339069D01*
X120829102Y-94563097D01*
X120963820Y-94764717D01*
X121135283Y-94936180D01*
X121336903Y-95070898D01*
X121560931Y-95163693D01*
X121798757Y-95211000D01*
X122041243Y-95211000D01*
X122279069Y-95163693D01*
X122503097Y-95070898D01*
X122704717Y-94936180D01*
X122768797Y-94872100D01*
X123747505Y-94872100D01*
X123839523Y-95050078D01*
X124060207Y-95150566D01*
X124296255Y-95206069D01*
X124538596Y-95214456D01*
X124777917Y-95175402D01*
X125005020Y-95090411D01*
X125080477Y-95050078D01*
X125172495Y-94872100D01*
X124460000Y-94159605D01*
X123747505Y-94872100D01*
X122768797Y-94872100D01*
X122876180Y-94764717D01*
X123010898Y-94563097D01*
X123103693Y-94339069D01*
X123151000Y-94101243D01*
X123151000Y-94058596D01*
X123225544Y-94058596D01*
X123264598Y-94297917D01*
X123349589Y-94525020D01*
X123389922Y-94600477D01*
X123567900Y-94692495D01*
X124280395Y-93980000D01*
X124639605Y-93980000D01*
X125352100Y-94692495D01*
X125530078Y-94600477D01*
X125630566Y-94379793D01*
X125686069Y-94143745D01*
X125694456Y-93901404D01*
X125687497Y-93858757D01*
X125769000Y-93858757D01*
X125769000Y-94101243D01*
X125816307Y-94339069D01*
X125909102Y-94563097D01*
X126043820Y-94764717D01*
X126215283Y-94936180D01*
X126416903Y-95070898D01*
X126640931Y-95163693D01*
X126878757Y-95211000D01*
X127121243Y-95211000D01*
X127359069Y-95163693D01*
X127583097Y-95070898D01*
X127784717Y-94936180D01*
X127956180Y-94764717D01*
X128090898Y-94563097D01*
X128183693Y-94339069D01*
X128231000Y-94101243D01*
X128231000Y-93858757D01*
X128309000Y-93858757D01*
X128309000Y-94101243D01*
X128356307Y-94339069D01*
X128449102Y-94563097D01*
X128583820Y-94764717D01*
X128755283Y-94936180D01*
X128956903Y-95070898D01*
X129180931Y-95163693D01*
X129418757Y-95211000D01*
X129661243Y-95211000D01*
X129899069Y-95163693D01*
X130123097Y-95070898D01*
X130324717Y-94936180D01*
X130496180Y-94764717D01*
X130630898Y-94563097D01*
X130723693Y-94339069D01*
X130771000Y-94101243D01*
X130771000Y-93858757D01*
X130849000Y-93858757D01*
X130849000Y-94101243D01*
X130896307Y-94339069D01*
X130989102Y-94563097D01*
X131123820Y-94764717D01*
X131295283Y-94936180D01*
X131496903Y-95070898D01*
X131720931Y-95163693D01*
X131958757Y-95211000D01*
X132201243Y-95211000D01*
X132439069Y-95163693D01*
X132663097Y-95070898D01*
X132864717Y-94936180D01*
X133036180Y-94764717D01*
X133170898Y-94563097D01*
X133263693Y-94339069D01*
X133311000Y-94101243D01*
X133311000Y-93858757D01*
X133263693Y-93620931D01*
X133170898Y-93396903D01*
X133036180Y-93195283D01*
X132864717Y-93023820D01*
X132663097Y-92889102D01*
X132439069Y-92796307D01*
X132201243Y-92749000D01*
X131958757Y-92749000D01*
X131720931Y-92796307D01*
X131496903Y-92889102D01*
X131295283Y-93023820D01*
X131123820Y-93195283D01*
X130989102Y-93396903D01*
X130896307Y-93620931D01*
X130849000Y-93858757D01*
X130771000Y-93858757D01*
X130723693Y-93620931D01*
X130630898Y-93396903D01*
X130496180Y-93195283D01*
X130324717Y-93023820D01*
X130123097Y-92889102D01*
X129899069Y-92796307D01*
X129661243Y-92749000D01*
X129418757Y-92749000D01*
X129180931Y-92796307D01*
X128956903Y-92889102D01*
X128755283Y-93023820D01*
X128583820Y-93195283D01*
X128449102Y-93396903D01*
X128356307Y-93620931D01*
X128309000Y-93858757D01*
X128231000Y-93858757D01*
X128183693Y-93620931D01*
X128090898Y-93396903D01*
X127956180Y-93195283D01*
X127784717Y-93023820D01*
X127583097Y-92889102D01*
X127359069Y-92796307D01*
X127121243Y-92749000D01*
X126878757Y-92749000D01*
X126640931Y-92796307D01*
X126416903Y-92889102D01*
X126215283Y-93023820D01*
X126043820Y-93195283D01*
X125909102Y-93396903D01*
X125816307Y-93620931D01*
X125769000Y-93858757D01*
X125687497Y-93858757D01*
X125655402Y-93662083D01*
X125570411Y-93434980D01*
X125530078Y-93359523D01*
X125352100Y-93267505D01*
X124639605Y-93980000D01*
X124280395Y-93980000D01*
X123567900Y-93267505D01*
X123389922Y-93359523D01*
X123289434Y-93580207D01*
X123233931Y-93816255D01*
X123225544Y-94058596D01*
X123151000Y-94058596D01*
X123151000Y-93858757D01*
X123103693Y-93620931D01*
X123010898Y-93396903D01*
X122876180Y-93195283D01*
X122768797Y-93087900D01*
X123747505Y-93087900D01*
X124460000Y-93800395D01*
X125172495Y-93087900D01*
X125080477Y-92909922D01*
X124859793Y-92809434D01*
X124623745Y-92753931D01*
X124381404Y-92745544D01*
X124142083Y-92784598D01*
X123914980Y-92869589D01*
X123839523Y-92909922D01*
X123747505Y-93087900D01*
X122768797Y-93087900D01*
X122704717Y-93023820D01*
X122503097Y-92889102D01*
X122279069Y-92796307D01*
X122041243Y-92749000D01*
X121798757Y-92749000D01*
X121560931Y-92796307D01*
X121336903Y-92889102D01*
X121135283Y-93023820D01*
X120963820Y-93195283D01*
X120829102Y-93396903D01*
X120736307Y-93620931D01*
X120689000Y-93858757D01*
X118071000Y-93858757D01*
X118023693Y-93620931D01*
X117991758Y-93543834D01*
X118065369Y-93470223D01*
X118065373Y-93470218D01*
X119589592Y-91946000D01*
X159810409Y-91946000D01*
X161408242Y-93543833D01*
X161376307Y-93620931D01*
X161329000Y-93858757D01*
X161329000Y-94101243D01*
X161376307Y-94339069D01*
X161469102Y-94563097D01*
X161603820Y-94764717D01*
X161775283Y-94936180D01*
X161976903Y-95070898D01*
X162200931Y-95163693D01*
X162438757Y-95211000D01*
X162681243Y-95211000D01*
X162919069Y-95163693D01*
X163143097Y-95070898D01*
X163344717Y-94936180D01*
X163516180Y-94764717D01*
X163650898Y-94563097D01*
X163743693Y-94339069D01*
X163791000Y-94101243D01*
X163791000Y-93858757D01*
X163869000Y-93858757D01*
X163869000Y-94101243D01*
X163916307Y-94339069D01*
X164009102Y-94563097D01*
X164143820Y-94764717D01*
X164315283Y-94936180D01*
X164516903Y-95070898D01*
X164740931Y-95163693D01*
X164978757Y-95211000D01*
X165221243Y-95211000D01*
X165459069Y-95163693D01*
X165683097Y-95070898D01*
X165884717Y-94936180D01*
X166056180Y-94764717D01*
X166190898Y-94563097D01*
X166283693Y-94339069D01*
X166331000Y-94101243D01*
X166331000Y-93858757D01*
X166409000Y-93858757D01*
X166409000Y-94101243D01*
X166456307Y-94339069D01*
X166549102Y-94563097D01*
X166683820Y-94764717D01*
X166855283Y-94936180D01*
X167056903Y-95070898D01*
X167280931Y-95163693D01*
X167518757Y-95211000D01*
X167761243Y-95211000D01*
X167999069Y-95163693D01*
X168223097Y-95070898D01*
X168424717Y-94936180D01*
X168596180Y-94764717D01*
X168730898Y-94563097D01*
X168823693Y-94339069D01*
X168871000Y-94101243D01*
X168871000Y-93858757D01*
X168823693Y-93620931D01*
X168730898Y-93396903D01*
X168596180Y-93195283D01*
X168530897Y-93130000D01*
X168947157Y-93130000D01*
X168947157Y-94830000D01*
X168954513Y-94904689D01*
X168976299Y-94976508D01*
X169011678Y-95042696D01*
X169059289Y-95100711D01*
X169117304Y-95148322D01*
X169183492Y-95183701D01*
X169255311Y-95205487D01*
X169330000Y-95212843D01*
X171030000Y-95212843D01*
X171104689Y-95205487D01*
X171176508Y-95183701D01*
X171242696Y-95148322D01*
X171300711Y-95100711D01*
X171348322Y-95042696D01*
X171383701Y-94976508D01*
X171405487Y-94904689D01*
X171412843Y-94830000D01*
X171412843Y-93858757D01*
X174029000Y-93858757D01*
X174029000Y-94101243D01*
X174076307Y-94339069D01*
X174169102Y-94563097D01*
X174303820Y-94764717D01*
X174475283Y-94936180D01*
X174676903Y-95070898D01*
X174900931Y-95163693D01*
X175138757Y-95211000D01*
X175381243Y-95211000D01*
X175619069Y-95163693D01*
X175843097Y-95070898D01*
X176044717Y-94936180D01*
X176216180Y-94764717D01*
X176350898Y-94563097D01*
X176443693Y-94339069D01*
X176491000Y-94101243D01*
X176491000Y-93858757D01*
X176443693Y-93620931D01*
X176350898Y-93396903D01*
X176216180Y-93195283D01*
X176044717Y-93023820D01*
X175843097Y-92889102D01*
X175619069Y-92796307D01*
X175381243Y-92749000D01*
X175138757Y-92749000D01*
X174900931Y-92796307D01*
X174676903Y-92889102D01*
X174475283Y-93023820D01*
X174303820Y-93195283D01*
X174169102Y-93396903D01*
X174076307Y-93620931D01*
X174029000Y-93858757D01*
X171412843Y-93858757D01*
X171412843Y-93130000D01*
X171405487Y-93055311D01*
X171383701Y-92983492D01*
X171348322Y-92917304D01*
X171300711Y-92859289D01*
X171242696Y-92811678D01*
X171176508Y-92776299D01*
X171104689Y-92754513D01*
X171030000Y-92747157D01*
X169330000Y-92747157D01*
X169255311Y-92754513D01*
X169183492Y-92776299D01*
X169117304Y-92811678D01*
X169059289Y-92859289D01*
X169011678Y-92917304D01*
X168976299Y-92983492D01*
X168954513Y-93055311D01*
X168947157Y-93130000D01*
X168530897Y-93130000D01*
X168424717Y-93023820D01*
X168223097Y-92889102D01*
X167999069Y-92796307D01*
X167761243Y-92749000D01*
X167518757Y-92749000D01*
X167280931Y-92796307D01*
X167056903Y-92889102D01*
X166855283Y-93023820D01*
X166683820Y-93195283D01*
X166549102Y-93396903D01*
X166456307Y-93620931D01*
X166409000Y-93858757D01*
X166331000Y-93858757D01*
X166283693Y-93620931D01*
X166190898Y-93396903D01*
X166056180Y-93195283D01*
X165884717Y-93023820D01*
X165683097Y-92889102D01*
X165459069Y-92796307D01*
X165221243Y-92749000D01*
X164978757Y-92749000D01*
X164740931Y-92796307D01*
X164516903Y-92889102D01*
X164315283Y-93023820D01*
X164143820Y-93195283D01*
X164009102Y-93396903D01*
X163916307Y-93620931D01*
X163869000Y-93858757D01*
X163791000Y-93858757D01*
X163743693Y-93620931D01*
X163650898Y-93396903D01*
X163516180Y-93195283D01*
X163344717Y-93023820D01*
X163311000Y-93001291D01*
X163311000Y-92493229D01*
X163372179Y-92474671D01*
X163481589Y-92416190D01*
X163577488Y-92337488D01*
X163656190Y-92241589D01*
X163714671Y-92132179D01*
X163750683Y-92013462D01*
X163762843Y-91890001D01*
X163762843Y-90989999D01*
X163897157Y-90989999D01*
X163897157Y-91890001D01*
X163909317Y-92013462D01*
X163945329Y-92132179D01*
X164003810Y-92241589D01*
X164082512Y-92337488D01*
X164178411Y-92416190D01*
X164287821Y-92474671D01*
X164406538Y-92510683D01*
X164529999Y-92522843D01*
X165180001Y-92522843D01*
X165303462Y-92510683D01*
X165422179Y-92474671D01*
X165531589Y-92416190D01*
X165627488Y-92337488D01*
X165706190Y-92241589D01*
X165764671Y-92132179D01*
X165800683Y-92013462D01*
X165807328Y-91946000D01*
X174027157Y-91946000D01*
X174027157Y-92290000D01*
X174034513Y-92364689D01*
X174056299Y-92436508D01*
X174091678Y-92502696D01*
X174139289Y-92560711D01*
X174197304Y-92608322D01*
X174263492Y-92643701D01*
X174335311Y-92665487D01*
X174410000Y-92672843D01*
X176110000Y-92672843D01*
X176184689Y-92665487D01*
X176256508Y-92643701D01*
X176322696Y-92608322D01*
X176380711Y-92560711D01*
X176428322Y-92502696D01*
X176463701Y-92436508D01*
X176485487Y-92364689D01*
X176492843Y-92290000D01*
X176492843Y-90590000D01*
X176485487Y-90515311D01*
X176463701Y-90443492D01*
X176428322Y-90377304D01*
X176380711Y-90319289D01*
X176322696Y-90271678D01*
X176256508Y-90236299D01*
X176184689Y-90214513D01*
X176110000Y-90207157D01*
X174410000Y-90207157D01*
X174335311Y-90214513D01*
X174263492Y-90236299D01*
X174197304Y-90271678D01*
X174139289Y-90319289D01*
X174091678Y-90377304D01*
X174056299Y-90443492D01*
X174034513Y-90515311D01*
X174027157Y-90590000D01*
X174027157Y-90934000D01*
X165807328Y-90934000D01*
X165800683Y-90866538D01*
X165764671Y-90747821D01*
X165706190Y-90638411D01*
X165627488Y-90542512D01*
X165531589Y-90463810D01*
X165422179Y-90405329D01*
X165303462Y-90369317D01*
X165180001Y-90357157D01*
X164529999Y-90357157D01*
X164406538Y-90369317D01*
X164287821Y-90405329D01*
X164178411Y-90463810D01*
X164082512Y-90542512D01*
X164003810Y-90638411D01*
X163945329Y-90747821D01*
X163909317Y-90866538D01*
X163897157Y-90989999D01*
X163762843Y-90989999D01*
X163750683Y-90866538D01*
X163714671Y-90747821D01*
X163656190Y-90638411D01*
X163577488Y-90542512D01*
X163481589Y-90463810D01*
X163372179Y-90405329D01*
X163253462Y-90369317D01*
X163130001Y-90357157D01*
X162479999Y-90357157D01*
X162356538Y-90369317D01*
X162237821Y-90405329D01*
X162128411Y-90463810D01*
X162032512Y-90542512D01*
X161953810Y-90638411D01*
X161895329Y-90747821D01*
X161859317Y-90866538D01*
X161847157Y-90989999D01*
X161847157Y-91890001D01*
X161859317Y-92013462D01*
X161895329Y-92132179D01*
X161953810Y-92241589D01*
X162032512Y-92337488D01*
X162128411Y-92416190D01*
X162237821Y-92474671D01*
X162299000Y-92493229D01*
X162299001Y-92776800D01*
X162200931Y-92796307D01*
X162123833Y-92828242D01*
X160395376Y-91099785D01*
X160379527Y-91080473D01*
X160302479Y-91017241D01*
X160214575Y-90970255D01*
X160119193Y-90941322D01*
X160044854Y-90934000D01*
X160044846Y-90934000D01*
X160020000Y-90931553D01*
X159995154Y-90934000D01*
X119404845Y-90934000D01*
X119379999Y-90931553D01*
X119355153Y-90934000D01*
X119355146Y-90934000D01*
X119290694Y-90940348D01*
X119280806Y-90941322D01*
X119264841Y-90946165D01*
X119185425Y-90970255D01*
X119097521Y-91017241D01*
X119020473Y-91080473D01*
X119004628Y-91099780D01*
X118072843Y-92031566D01*
X118072843Y-90590000D01*
X118065487Y-90515311D01*
X118043701Y-90443492D01*
X118008322Y-90377304D01*
X117960711Y-90319289D01*
X117902696Y-90271678D01*
X117836508Y-90236299D01*
X117764689Y-90214513D01*
X117690000Y-90207157D01*
X115990000Y-90207157D01*
X115915311Y-90214513D01*
X115843492Y-90236299D01*
X115777304Y-90271678D01*
X115719289Y-90319289D01*
X115671678Y-90377304D01*
X115636299Y-90443492D01*
X115614513Y-90515311D01*
X115607157Y-90590000D01*
X115607157Y-91957252D01*
X115324784Y-92239625D01*
X115305472Y-92255474D01*
X115242240Y-92332522D01*
X115195254Y-92420427D01*
X115166321Y-92515809D01*
X115158999Y-92590148D01*
X115158999Y-92590155D01*
X115156552Y-92615001D01*
X107086000Y-92615001D01*
X107086000Y-90824854D01*
X107104364Y-90637559D01*
X107152992Y-90476499D01*
X107231979Y-90327946D01*
X107338310Y-90197570D01*
X107467946Y-90090326D01*
X107615942Y-90010305D01*
X107776661Y-89960554D01*
X107962707Y-89941000D01*
X184130146Y-89941000D01*
X184317441Y-89959364D01*
%TA.AperFunction,Conductor*%
D17*
G36*
X184317441Y-89959364D02*
G01*
X184478501Y-90007992D01*
X184627054Y-90086979D01*
X184757430Y-90193310D01*
X184864674Y-90322946D01*
X184944695Y-90470942D01*
X184994446Y-90631661D01*
X185014000Y-90817707D01*
X185014001Y-112375136D01*
X184995636Y-112562441D01*
X184947008Y-112723503D01*
X184868023Y-112872051D01*
X184761689Y-113002430D01*
X184632054Y-113109674D01*
X184484058Y-113189695D01*
X184323339Y-113239446D01*
X184137293Y-113259000D01*
X107969854Y-113259000D01*
X107782559Y-113240636D01*
X107621497Y-113192008D01*
X107472949Y-113113023D01*
X107342570Y-113006689D01*
X107235326Y-112877054D01*
X107155305Y-112729058D01*
X107105554Y-112568339D01*
X107086000Y-112382293D01*
X107086000Y-109098757D01*
X120689000Y-109098757D01*
X120689000Y-109341243D01*
X120736307Y-109579069D01*
X120829102Y-109803097D01*
X120963820Y-110004717D01*
X121135283Y-110176180D01*
X121336903Y-110310898D01*
X121560931Y-110403693D01*
X121798757Y-110451000D01*
X122041243Y-110451000D01*
X122279069Y-110403693D01*
X122503097Y-110310898D01*
X122704717Y-110176180D01*
X122876180Y-110004717D01*
X123010898Y-109803097D01*
X123103693Y-109579069D01*
X123151000Y-109341243D01*
X123151000Y-109098757D01*
X123229000Y-109098757D01*
X123229000Y-109341243D01*
X123276307Y-109579069D01*
X123369102Y-109803097D01*
X123503820Y-110004717D01*
X123675283Y-110176180D01*
X123876903Y-110310898D01*
X124100931Y-110403693D01*
X124338757Y-110451000D01*
X124581243Y-110451000D01*
X124819069Y-110403693D01*
X125043097Y-110310898D01*
X125244717Y-110176180D01*
X125416180Y-110004717D01*
X125550898Y-109803097D01*
X125643693Y-109579069D01*
X125691000Y-109341243D01*
X125691000Y-109098757D01*
X125769000Y-109098757D01*
X125769000Y-109341243D01*
X125816307Y-109579069D01*
X125909102Y-109803097D01*
X126043820Y-110004717D01*
X126215283Y-110176180D01*
X126416903Y-110310898D01*
X126640931Y-110403693D01*
X126878757Y-110451000D01*
X127121243Y-110451000D01*
X127359069Y-110403693D01*
X127583097Y-110310898D01*
X127784717Y-110176180D01*
X127956180Y-110004717D01*
X128090898Y-109803097D01*
X128183693Y-109579069D01*
X128231000Y-109341243D01*
X128231000Y-109098757D01*
X128309000Y-109098757D01*
X128309000Y-109341243D01*
X128356307Y-109579069D01*
X128449102Y-109803097D01*
X128583820Y-110004717D01*
X128755283Y-110176180D01*
X128956903Y-110310898D01*
X129180931Y-110403693D01*
X129418757Y-110451000D01*
X129661243Y-110451000D01*
X129899069Y-110403693D01*
X130123097Y-110310898D01*
X130324717Y-110176180D01*
X130496180Y-110004717D01*
X130630898Y-109803097D01*
X130723693Y-109579069D01*
X130771000Y-109341243D01*
X130771000Y-109098757D01*
X130849000Y-109098757D01*
X130849000Y-109341243D01*
X130896307Y-109579069D01*
X130989102Y-109803097D01*
X131123820Y-110004717D01*
X131295283Y-110176180D01*
X131496903Y-110310898D01*
X131574001Y-110342833D01*
X131574001Y-111115144D01*
X131571553Y-111140000D01*
X131581322Y-111239192D01*
X131610255Y-111334574D01*
X131610256Y-111334575D01*
X131657242Y-111422479D01*
X131720474Y-111499527D01*
X131739780Y-111515371D01*
X131817157Y-111592748D01*
X131817157Y-112010000D01*
X131819565Y-112034450D01*
X131819565Y-112059009D01*
X131826921Y-112133698D01*
X131846043Y-112229831D01*
X131867828Y-112301648D01*
X131905337Y-112392204D01*
X131940717Y-112458394D01*
X131995173Y-112539893D01*
X132042784Y-112597908D01*
X132112092Y-112667216D01*
X132170107Y-112714827D01*
X132251606Y-112769283D01*
X132317796Y-112804663D01*
X132408352Y-112842172D01*
X132480169Y-112863957D01*
X132576302Y-112883079D01*
X132650991Y-112890435D01*
X132675550Y-112890435D01*
X132700000Y-112892843D01*
X133200000Y-112892843D01*
X133274689Y-112885487D01*
X133346508Y-112863701D01*
X133350000Y-112861834D01*
X133353492Y-112863701D01*
X133425311Y-112885487D01*
X133500000Y-112892843D01*
X134000000Y-112892843D01*
X134024450Y-112890435D01*
X134049009Y-112890435D01*
X134123698Y-112883079D01*
X134219831Y-112863957D01*
X134291648Y-112842172D01*
X134382204Y-112804663D01*
X134448394Y-112769283D01*
X134529893Y-112714827D01*
X134587908Y-112667216D01*
X134657216Y-112597908D01*
X134704827Y-112539893D01*
X134759283Y-112458394D01*
X134794663Y-112392204D01*
X134832172Y-112301648D01*
X134853957Y-112229831D01*
X134873079Y-112133698D01*
X134878665Y-112076980D01*
X174070511Y-112076980D01*
X174094866Y-112157288D01*
X174194761Y-112376961D01*
X174335592Y-112572924D01*
X174511948Y-112737647D01*
X174717051Y-112864799D01*
X174943019Y-112949495D01*
X175133000Y-112889187D01*
X175133000Y-111887000D01*
X175387000Y-111887000D01*
X175387000Y-112889187D01*
X175576981Y-112949495D01*
X175802949Y-112864799D01*
X176008052Y-112737647D01*
X176144713Y-112610000D01*
X176567157Y-112610000D01*
X176574513Y-112684689D01*
X176596299Y-112756508D01*
X176631678Y-112822696D01*
X176679289Y-112880711D01*
X176737304Y-112928322D01*
X176803492Y-112963701D01*
X176875311Y-112985487D01*
X176950000Y-112992843D01*
X177577750Y-112991000D01*
X177673000Y-112895750D01*
X177673000Y-111887000D01*
X177927000Y-111887000D01*
X177927000Y-112895750D01*
X178022250Y-112991000D01*
X178650000Y-112992843D01*
X178724689Y-112985487D01*
X178796508Y-112963701D01*
X178862696Y-112928322D01*
X178920711Y-112880711D01*
X178968322Y-112822696D01*
X179003701Y-112756508D01*
X179025487Y-112684689D01*
X179032843Y-112610000D01*
X179031000Y-111982250D01*
X178935750Y-111887000D01*
X177927000Y-111887000D01*
X177673000Y-111887000D01*
X176664250Y-111887000D01*
X176569000Y-111982250D01*
X176567157Y-112610000D01*
X176144713Y-112610000D01*
X176184408Y-112572924D01*
X176325239Y-112376961D01*
X176425134Y-112157288D01*
X176449489Y-112076980D01*
X176388627Y-111887000D01*
X175387000Y-111887000D01*
X175133000Y-111887000D01*
X174131373Y-111887000D01*
X174070511Y-112076980D01*
X134878665Y-112076980D01*
X134880435Y-112059009D01*
X134880435Y-112034450D01*
X134882843Y-112010000D01*
X134882843Y-111592749D01*
X134960220Y-111515372D01*
X134979527Y-111499527D01*
X135042759Y-111422479D01*
X135089745Y-111334575D01*
X135118678Y-111239193D01*
X135126000Y-111164854D01*
X135126000Y-111164847D01*
X135128447Y-111140001D01*
X135126000Y-111115155D01*
X135126000Y-110342832D01*
X135203097Y-110310898D01*
X135404717Y-110176180D01*
X135576180Y-110004717D01*
X135710898Y-109803097D01*
X135803693Y-109579069D01*
X135851000Y-109341243D01*
X135851000Y-109098757D01*
X135929000Y-109098757D01*
X135929000Y-109341243D01*
X135976307Y-109579069D01*
X136069102Y-109803097D01*
X136203820Y-110004717D01*
X136375283Y-110176180D01*
X136576903Y-110310898D01*
X136800931Y-110403693D01*
X137038757Y-110451000D01*
X137281243Y-110451000D01*
X137519069Y-110403693D01*
X137743097Y-110310898D01*
X137944717Y-110176180D01*
X138116180Y-110004717D01*
X138250898Y-109803097D01*
X138343693Y-109579069D01*
X138391000Y-109341243D01*
X138391000Y-109098757D01*
X138469000Y-109098757D01*
X138469000Y-109341243D01*
X138516307Y-109579069D01*
X138609102Y-109803097D01*
X138743820Y-110004717D01*
X138915283Y-110176180D01*
X139116903Y-110310898D01*
X139340931Y-110403693D01*
X139578757Y-110451000D01*
X139821243Y-110451000D01*
X140059069Y-110403693D01*
X140283097Y-110310898D01*
X140484717Y-110176180D01*
X140656180Y-110004717D01*
X140790898Y-109803097D01*
X140883693Y-109579069D01*
X140931000Y-109341243D01*
X140931000Y-109098757D01*
X141009000Y-109098757D01*
X141009000Y-109341243D01*
X141056307Y-109579069D01*
X141149102Y-109803097D01*
X141283820Y-110004717D01*
X141455283Y-110176180D01*
X141656903Y-110310898D01*
X141880931Y-110403693D01*
X142118757Y-110451000D01*
X142361243Y-110451000D01*
X142599069Y-110403693D01*
X142823097Y-110310898D01*
X143024717Y-110176180D01*
X143196180Y-110004717D01*
X143330898Y-109803097D01*
X143423693Y-109579069D01*
X143471000Y-109341243D01*
X143471000Y-109098757D01*
X143549000Y-109098757D01*
X143549000Y-109341243D01*
X143596307Y-109579069D01*
X143689102Y-109803097D01*
X143823820Y-110004717D01*
X143995283Y-110176180D01*
X144196903Y-110310898D01*
X144420931Y-110403693D01*
X144658757Y-110451000D01*
X144901243Y-110451000D01*
X145139069Y-110403693D01*
X145363097Y-110310898D01*
X145564717Y-110176180D01*
X145736180Y-110004717D01*
X145870898Y-109803097D01*
X145963693Y-109579069D01*
X146011000Y-109341243D01*
X146011000Y-109098757D01*
X146089000Y-109098757D01*
X146089000Y-109341243D01*
X146136307Y-109579069D01*
X146229102Y-109803097D01*
X146363820Y-110004717D01*
X146535283Y-110176180D01*
X146736903Y-110310898D01*
X146960931Y-110403693D01*
X147198757Y-110451000D01*
X147441243Y-110451000D01*
X147679069Y-110403693D01*
X147903097Y-110310898D01*
X148104717Y-110176180D01*
X148276180Y-110004717D01*
X148410898Y-109803097D01*
X148503693Y-109579069D01*
X148551000Y-109341243D01*
X148551000Y-109098757D01*
X148629000Y-109098757D01*
X148629000Y-109341243D01*
X148676307Y-109579069D01*
X148769102Y-109803097D01*
X148903820Y-110004717D01*
X149075283Y-110176180D01*
X149276903Y-110310898D01*
X149500931Y-110403693D01*
X149738757Y-110451000D01*
X149981243Y-110451000D01*
X150219069Y-110403693D01*
X150443097Y-110310898D01*
X150644717Y-110176180D01*
X150816180Y-110004717D01*
X150950898Y-109803097D01*
X151043693Y-109579069D01*
X151091000Y-109341243D01*
X151091000Y-109098757D01*
X151169000Y-109098757D01*
X151169000Y-109341243D01*
X151216307Y-109579069D01*
X151309102Y-109803097D01*
X151443820Y-110004717D01*
X151615283Y-110176180D01*
X151816903Y-110310898D01*
X152040931Y-110403693D01*
X152278757Y-110451000D01*
X152521243Y-110451000D01*
X152759069Y-110403693D01*
X152983097Y-110310898D01*
X153184717Y-110176180D01*
X153356180Y-110004717D01*
X153490898Y-109803097D01*
X153583693Y-109579069D01*
X153631000Y-109341243D01*
X153631000Y-109098757D01*
X153709000Y-109098757D01*
X153709000Y-109341243D01*
X153756307Y-109579069D01*
X153849102Y-109803097D01*
X153983820Y-110004717D01*
X154155283Y-110176180D01*
X154356903Y-110310898D01*
X154580931Y-110403693D01*
X154818757Y-110451000D01*
X155061243Y-110451000D01*
X155299069Y-110403693D01*
X155523097Y-110310898D01*
X155724717Y-110176180D01*
X155896180Y-110004717D01*
X156030898Y-109803097D01*
X156123693Y-109579069D01*
X156171000Y-109341243D01*
X156171000Y-109098757D01*
X156249000Y-109098757D01*
X156249000Y-109341243D01*
X156296307Y-109579069D01*
X156389102Y-109803097D01*
X156523820Y-110004717D01*
X156695283Y-110176180D01*
X156896903Y-110310898D01*
X157120931Y-110403693D01*
X157358757Y-110451000D01*
X157601243Y-110451000D01*
X157839069Y-110403693D01*
X158063097Y-110310898D01*
X158264717Y-110176180D01*
X158436180Y-110004717D01*
X158570898Y-109803097D01*
X158663693Y-109579069D01*
X158711000Y-109341243D01*
X158711000Y-109098757D01*
X158789000Y-109098757D01*
X158789000Y-109341243D01*
X158836307Y-109579069D01*
X158929102Y-109803097D01*
X159063820Y-110004717D01*
X159235283Y-110176180D01*
X159436903Y-110310898D01*
X159660931Y-110403693D01*
X159898757Y-110451000D01*
X160141243Y-110451000D01*
X160379069Y-110403693D01*
X160603097Y-110310898D01*
X160804717Y-110176180D01*
X160976180Y-110004717D01*
X161110898Y-109803097D01*
X161203693Y-109579069D01*
X161251000Y-109341243D01*
X161251000Y-109098757D01*
X161203693Y-108860931D01*
X161110898Y-108636903D01*
X160976180Y-108435283D01*
X160804717Y-108263820D01*
X160603097Y-108129102D01*
X160379069Y-108036307D01*
X160141243Y-107989000D01*
X159898757Y-107989000D01*
X159660931Y-108036307D01*
X159436903Y-108129102D01*
X159235283Y-108263820D01*
X159063820Y-108435283D01*
X158929102Y-108636903D01*
X158836307Y-108860931D01*
X158789000Y-109098757D01*
X158711000Y-109098757D01*
X158663693Y-108860931D01*
X158570898Y-108636903D01*
X158436180Y-108435283D01*
X158264717Y-108263820D01*
X158063097Y-108129102D01*
X157839069Y-108036307D01*
X157601243Y-107989000D01*
X157358757Y-107989000D01*
X157120931Y-108036307D01*
X156896903Y-108129102D01*
X156695283Y-108263820D01*
X156523820Y-108435283D01*
X156389102Y-108636903D01*
X156296307Y-108860931D01*
X156249000Y-109098757D01*
X156171000Y-109098757D01*
X156123693Y-108860931D01*
X156030898Y-108636903D01*
X155896180Y-108435283D01*
X155724717Y-108263820D01*
X155523097Y-108129102D01*
X155299069Y-108036307D01*
X155061243Y-107989000D01*
X154818757Y-107989000D01*
X154580931Y-108036307D01*
X154356903Y-108129102D01*
X154155283Y-108263820D01*
X153983820Y-108435283D01*
X153849102Y-108636903D01*
X153756307Y-108860931D01*
X153709000Y-109098757D01*
X153631000Y-109098757D01*
X153583693Y-108860931D01*
X153490898Y-108636903D01*
X153356180Y-108435283D01*
X153184717Y-108263820D01*
X152983097Y-108129102D01*
X152759069Y-108036307D01*
X152521243Y-107989000D01*
X152278757Y-107989000D01*
X152040931Y-108036307D01*
X151816903Y-108129102D01*
X151615283Y-108263820D01*
X151443820Y-108435283D01*
X151309102Y-108636903D01*
X151216307Y-108860931D01*
X151169000Y-109098757D01*
X151091000Y-109098757D01*
X151043693Y-108860931D01*
X150950898Y-108636903D01*
X150816180Y-108435283D01*
X150644717Y-108263820D01*
X150443097Y-108129102D01*
X150219069Y-108036307D01*
X149981243Y-107989000D01*
X149738757Y-107989000D01*
X149500931Y-108036307D01*
X149276903Y-108129102D01*
X149075283Y-108263820D01*
X148903820Y-108435283D01*
X148769102Y-108636903D01*
X148676307Y-108860931D01*
X148629000Y-109098757D01*
X148551000Y-109098757D01*
X148503693Y-108860931D01*
X148410898Y-108636903D01*
X148276180Y-108435283D01*
X148104717Y-108263820D01*
X147903097Y-108129102D01*
X147679069Y-108036307D01*
X147441243Y-107989000D01*
X147198757Y-107989000D01*
X146960931Y-108036307D01*
X146736903Y-108129102D01*
X146535283Y-108263820D01*
X146363820Y-108435283D01*
X146229102Y-108636903D01*
X146136307Y-108860931D01*
X146089000Y-109098757D01*
X146011000Y-109098757D01*
X145963693Y-108860931D01*
X145870898Y-108636903D01*
X145736180Y-108435283D01*
X145564717Y-108263820D01*
X145363097Y-108129102D01*
X145139069Y-108036307D01*
X144901243Y-107989000D01*
X144658757Y-107989000D01*
X144420931Y-108036307D01*
X144196903Y-108129102D01*
X143995283Y-108263820D01*
X143823820Y-108435283D01*
X143689102Y-108636903D01*
X143596307Y-108860931D01*
X143549000Y-109098757D01*
X143471000Y-109098757D01*
X143423693Y-108860931D01*
X143330898Y-108636903D01*
X143196180Y-108435283D01*
X143024717Y-108263820D01*
X142823097Y-108129102D01*
X142599069Y-108036307D01*
X142361243Y-107989000D01*
X142118757Y-107989000D01*
X141880931Y-108036307D01*
X141656903Y-108129102D01*
X141455283Y-108263820D01*
X141283820Y-108435283D01*
X141149102Y-108636903D01*
X141056307Y-108860931D01*
X141009000Y-109098757D01*
X140931000Y-109098757D01*
X140883693Y-108860931D01*
X140790898Y-108636903D01*
X140656180Y-108435283D01*
X140484717Y-108263820D01*
X140283097Y-108129102D01*
X140059069Y-108036307D01*
X139821243Y-107989000D01*
X139578757Y-107989000D01*
X139340931Y-108036307D01*
X139116903Y-108129102D01*
X138915283Y-108263820D01*
X138743820Y-108435283D01*
X138609102Y-108636903D01*
X138516307Y-108860931D01*
X138469000Y-109098757D01*
X138391000Y-109098757D01*
X138343693Y-108860931D01*
X138250898Y-108636903D01*
X138116180Y-108435283D01*
X137944717Y-108263820D01*
X137743097Y-108129102D01*
X137519069Y-108036307D01*
X137281243Y-107989000D01*
X137038757Y-107989000D01*
X136800931Y-108036307D01*
X136576903Y-108129102D01*
X136375283Y-108263820D01*
X136203820Y-108435283D01*
X136069102Y-108636903D01*
X135976307Y-108860931D01*
X135929000Y-109098757D01*
X135851000Y-109098757D01*
X135803693Y-108860931D01*
X135710898Y-108636903D01*
X135576180Y-108435283D01*
X135404717Y-108263820D01*
X135203097Y-108129102D01*
X134979069Y-108036307D01*
X134741243Y-107989000D01*
X134498757Y-107989000D01*
X134260931Y-108036307D01*
X134036903Y-108129102D01*
X133835283Y-108263820D01*
X133663820Y-108435283D01*
X133529102Y-108636903D01*
X133436307Y-108860931D01*
X133389000Y-109098757D01*
X133389000Y-109341243D01*
X133436307Y-109579069D01*
X133529102Y-109803097D01*
X133663820Y-110004717D01*
X133835283Y-110176180D01*
X134036903Y-110310898D01*
X134114001Y-110342833D01*
X134114001Y-110635966D01*
X134049009Y-110629565D01*
X134024450Y-110629565D01*
X134000000Y-110627157D01*
X133500000Y-110627157D01*
X133425311Y-110634513D01*
X133353492Y-110656299D01*
X133350000Y-110658166D01*
X133346508Y-110656299D01*
X133274689Y-110634513D01*
X133200000Y-110627157D01*
X132700000Y-110627157D01*
X132675550Y-110629565D01*
X132650991Y-110629565D01*
X132586000Y-110635966D01*
X132586000Y-110342832D01*
X132663097Y-110310898D01*
X132864717Y-110176180D01*
X133036180Y-110004717D01*
X133170898Y-109803097D01*
X133263693Y-109579069D01*
X133311000Y-109341243D01*
X133311000Y-109098757D01*
X133263693Y-108860931D01*
X133170898Y-108636903D01*
X133036180Y-108435283D01*
X132864717Y-108263820D01*
X132663097Y-108129102D01*
X132439069Y-108036307D01*
X132201243Y-107989000D01*
X131958757Y-107989000D01*
X131720931Y-108036307D01*
X131496903Y-108129102D01*
X131295283Y-108263820D01*
X131123820Y-108435283D01*
X130989102Y-108636903D01*
X130896307Y-108860931D01*
X130849000Y-109098757D01*
X130771000Y-109098757D01*
X130723693Y-108860931D01*
X130630898Y-108636903D01*
X130496180Y-108435283D01*
X130324717Y-108263820D01*
X130123097Y-108129102D01*
X129899069Y-108036307D01*
X129661243Y-107989000D01*
X129418757Y-107989000D01*
X129180931Y-108036307D01*
X128956903Y-108129102D01*
X128755283Y-108263820D01*
X128583820Y-108435283D01*
X128449102Y-108636903D01*
X128356307Y-108860931D01*
X128309000Y-109098757D01*
X128231000Y-109098757D01*
X128183693Y-108860931D01*
X128090898Y-108636903D01*
X127956180Y-108435283D01*
X127784717Y-108263820D01*
X127583097Y-108129102D01*
X127359069Y-108036307D01*
X127121243Y-107989000D01*
X126878757Y-107989000D01*
X126640931Y-108036307D01*
X126416903Y-108129102D01*
X126215283Y-108263820D01*
X126043820Y-108435283D01*
X125909102Y-108636903D01*
X125816307Y-108860931D01*
X125769000Y-109098757D01*
X125691000Y-109098757D01*
X125643693Y-108860931D01*
X125550898Y-108636903D01*
X125416180Y-108435283D01*
X125244717Y-108263820D01*
X125043097Y-108129102D01*
X124819069Y-108036307D01*
X124581243Y-107989000D01*
X124338757Y-107989000D01*
X124100931Y-108036307D01*
X123876903Y-108129102D01*
X123675283Y-108263820D01*
X123503820Y-108435283D01*
X123369102Y-108636903D01*
X123276307Y-108860931D01*
X123229000Y-109098757D01*
X123151000Y-109098757D01*
X123103693Y-108860931D01*
X123010898Y-108636903D01*
X122876180Y-108435283D01*
X122704717Y-108263820D01*
X122503097Y-108129102D01*
X122279069Y-108036307D01*
X122041243Y-107989000D01*
X121798757Y-107989000D01*
X121560931Y-108036307D01*
X121336903Y-108129102D01*
X121135283Y-108263820D01*
X120963820Y-108435283D01*
X120829102Y-108636903D01*
X120736307Y-108860931D01*
X120689000Y-109098757D01*
X107086000Y-109098757D01*
X107086000Y-105853980D01*
X138510511Y-105853980D01*
X138534866Y-105934288D01*
X138634761Y-106153961D01*
X138775592Y-106349924D01*
X138951948Y-106514647D01*
X139157051Y-106641799D01*
X139383019Y-106726495D01*
X139573000Y-106666187D01*
X139573000Y-105664000D01*
X139827000Y-105664000D01*
X139827000Y-106666187D01*
X140016981Y-106726495D01*
X140242949Y-106641799D01*
X140448052Y-106514647D01*
X140624408Y-106349924D01*
X140765239Y-106153961D01*
X140865134Y-105934288D01*
X140889489Y-105853980D01*
X140828627Y-105664000D01*
X139827000Y-105664000D01*
X139573000Y-105664000D01*
X138571373Y-105664000D01*
X138510511Y-105853980D01*
X107086000Y-105853980D01*
X107086000Y-104456980D01*
X115650511Y-104456980D01*
X115674866Y-104537288D01*
X115774761Y-104756961D01*
X115915592Y-104952924D01*
X116091948Y-105117647D01*
X116297051Y-105244799D01*
X116523019Y-105329495D01*
X116713000Y-105269187D01*
X116713000Y-104267000D01*
X116967000Y-104267000D01*
X116967000Y-105269187D01*
X117156981Y-105329495D01*
X117382949Y-105244799D01*
X117588052Y-105117647D01*
X117764408Y-104952924D01*
X117905239Y-104756961D01*
X118005134Y-104537288D01*
X118029489Y-104456980D01*
X117968627Y-104267000D01*
X116967000Y-104267000D01*
X116713000Y-104267000D01*
X115711373Y-104267000D01*
X115650511Y-104456980D01*
X107086000Y-104456980D01*
X107086000Y-103823020D01*
X115650511Y-103823020D01*
X115711373Y-104013000D01*
X116713000Y-104013000D01*
X116713000Y-103010813D01*
X116967000Y-103010813D01*
X116967000Y-104013000D01*
X117968627Y-104013000D01*
X118029489Y-103823020D01*
X118005134Y-103742712D01*
X117905239Y-103523039D01*
X117764408Y-103327076D01*
X117588052Y-103162353D01*
X117382949Y-103035201D01*
X117156981Y-102950505D01*
X116967000Y-103010813D01*
X116713000Y-103010813D01*
X116523019Y-102950505D01*
X116297051Y-103035201D01*
X116091948Y-103162353D01*
X115915592Y-103327076D01*
X115774761Y-103523039D01*
X115674866Y-103742712D01*
X115650511Y-103823020D01*
X107086000Y-103823020D01*
X107086000Y-101478757D01*
X115609000Y-101478757D01*
X115609000Y-101721243D01*
X115656307Y-101959069D01*
X115749102Y-102183097D01*
X115883820Y-102384717D01*
X116055283Y-102556180D01*
X116256903Y-102690898D01*
X116480931Y-102783693D01*
X116718757Y-102831000D01*
X116961243Y-102831000D01*
X117199069Y-102783693D01*
X117423097Y-102690898D01*
X117624717Y-102556180D01*
X117796180Y-102384717D01*
X117930898Y-102183097D01*
X118023693Y-101959069D01*
X118071000Y-101721243D01*
X118071000Y-101478757D01*
X118023693Y-101240931D01*
X117930898Y-101016903D01*
X117796180Y-100815283D01*
X117624717Y-100643820D01*
X117423097Y-100509102D01*
X117199069Y-100416307D01*
X116961243Y-100369000D01*
X116718757Y-100369000D01*
X116480931Y-100416307D01*
X116256903Y-100509102D01*
X116055283Y-100643820D01*
X115883820Y-100815283D01*
X115749102Y-101016903D01*
X115656307Y-101240931D01*
X115609000Y-101478757D01*
X107086000Y-101478757D01*
X107086000Y-98938757D01*
X115609000Y-98938757D01*
X115609000Y-99181243D01*
X115656307Y-99419069D01*
X115749102Y-99643097D01*
X115883820Y-99844717D01*
X116055283Y-100016180D01*
X116256903Y-100150898D01*
X116480931Y-100243693D01*
X116718757Y-100291000D01*
X116961243Y-100291000D01*
X117199069Y-100243693D01*
X117423097Y-100150898D01*
X117624717Y-100016180D01*
X117796180Y-99844717D01*
X117930898Y-99643097D01*
X118023693Y-99419069D01*
X118071000Y-99181243D01*
X118071000Y-98938757D01*
X118023693Y-98700931D01*
X117930898Y-98476903D01*
X117796180Y-98275283D01*
X117624717Y-98103820D01*
X117423097Y-97969102D01*
X117199069Y-97876307D01*
X116961243Y-97829000D01*
X116718757Y-97829000D01*
X116480931Y-97876307D01*
X116256903Y-97969102D01*
X116055283Y-98103820D01*
X115883820Y-98275283D01*
X115749102Y-98476903D01*
X115656307Y-98700931D01*
X115609000Y-98938757D01*
X107086000Y-98938757D01*
X107086000Y-92615001D01*
X115156552Y-92615001D01*
X115158999Y-92639847D01*
X115159000Y-94519145D01*
X115156552Y-94544001D01*
X115166321Y-94643193D01*
X115195254Y-94738575D01*
X115195255Y-94738576D01*
X115242241Y-94826480D01*
X115305473Y-94903528D01*
X115324779Y-94919372D01*
X115995626Y-95590220D01*
X116010617Y-95608486D01*
X115883820Y-95735283D01*
X115749102Y-95936903D01*
X115656307Y-96160931D01*
X115609000Y-96398757D01*
X115609000Y-96641243D01*
X115656307Y-96879069D01*
X115749102Y-97103097D01*
X115883820Y-97304717D01*
X116055283Y-97476180D01*
X116256903Y-97610898D01*
X116480931Y-97703693D01*
X116718757Y-97751000D01*
X116961243Y-97751000D01*
X117199069Y-97703693D01*
X117423097Y-97610898D01*
X117624717Y-97476180D01*
X117796180Y-97304717D01*
X117930898Y-97103097D01*
X118023693Y-96879069D01*
X118071000Y-96641243D01*
X118071000Y-96398757D01*
X118023693Y-96160931D01*
X117930898Y-95936903D01*
X117810023Y-95756000D01*
X120440409Y-95756000D01*
X129291628Y-104607220D01*
X129307473Y-104626527D01*
X129384521Y-104689759D01*
X129472425Y-104736745D01*
X129567807Y-104765678D01*
X129667000Y-104775448D01*
X129691854Y-104773000D01*
X138740432Y-104773000D01*
X138634761Y-104920039D01*
X138534866Y-105139712D01*
X138510511Y-105220020D01*
X138571373Y-105410000D01*
X139573000Y-105410000D01*
X139573000Y-105390000D01*
X139827000Y-105390000D01*
X139827000Y-105410000D01*
X140828627Y-105410000D01*
X140889489Y-105220020D01*
X140865134Y-105139712D01*
X140765239Y-104920039D01*
X140659568Y-104773000D01*
X159868154Y-104773000D01*
X159893000Y-104775447D01*
X159917846Y-104773000D01*
X159917854Y-104773000D01*
X159992193Y-104765678D01*
X160087575Y-104736745D01*
X160175479Y-104689759D01*
X160252527Y-104626527D01*
X160268376Y-104607215D01*
X160856834Y-104018757D01*
X161329000Y-104018757D01*
X161329000Y-104261243D01*
X161376307Y-104499069D01*
X161469102Y-104723097D01*
X161603820Y-104924717D01*
X161775283Y-105096180D01*
X161976903Y-105230898D01*
X162200931Y-105323693D01*
X162438757Y-105371000D01*
X162681243Y-105371000D01*
X162919069Y-105323693D01*
X163143097Y-105230898D01*
X163344717Y-105096180D01*
X163516180Y-104924717D01*
X163650898Y-104723097D01*
X163743693Y-104499069D01*
X163791000Y-104261243D01*
X163791000Y-104018757D01*
X163743693Y-103780931D01*
X163650898Y-103556903D01*
X163516180Y-103355283D01*
X163344717Y-103183820D01*
X163143097Y-103049102D01*
X162919069Y-102956307D01*
X162681243Y-102909000D01*
X162438757Y-102909000D01*
X162200931Y-102956307D01*
X161976903Y-103049102D01*
X161775283Y-103183820D01*
X161603820Y-103355283D01*
X161469102Y-103556903D01*
X161376307Y-103780931D01*
X161329000Y-104018757D01*
X160856834Y-104018757D01*
X162123833Y-102751758D01*
X162200931Y-102783693D01*
X162438757Y-102831000D01*
X162681243Y-102831000D01*
X162919069Y-102783693D01*
X163143097Y-102690898D01*
X163344717Y-102556180D01*
X163516180Y-102384717D01*
X163650898Y-102183097D01*
X163743693Y-101959069D01*
X163791000Y-101721243D01*
X163791000Y-101478757D01*
X163743693Y-101240931D01*
X163650898Y-101016903D01*
X163530023Y-100836000D01*
X166557157Y-100836000D01*
X166557157Y-100900001D01*
X166569317Y-101023462D01*
X166605329Y-101142179D01*
X166663810Y-101251589D01*
X166742512Y-101347488D01*
X166838411Y-101426190D01*
X166947821Y-101484671D01*
X167066538Y-101520683D01*
X167189999Y-101532843D01*
X167882251Y-101532843D01*
X167949408Y-101600000D01*
X167251000Y-101600000D01*
X167201270Y-101603259D01*
X167071860Y-101620296D01*
X166975788Y-101646039D01*
X166855198Y-101695989D01*
X166769060Y-101745721D01*
X166665507Y-101825181D01*
X166595181Y-101895507D01*
X166515721Y-101999060D01*
X166465989Y-102085198D01*
X166416039Y-102205788D01*
X166390296Y-102301860D01*
X166373259Y-102431270D01*
X166370000Y-102481000D01*
X166370000Y-104758025D01*
X166362769Y-104812952D01*
X166351211Y-104840855D01*
X166332821Y-104864821D01*
X166308855Y-104883211D01*
X166280952Y-104894769D01*
X166226025Y-104902000D01*
X164584000Y-104902000D01*
X164534270Y-104905259D01*
X164404860Y-104922296D01*
X164308788Y-104948039D01*
X164188198Y-104997989D01*
X164102060Y-105047721D01*
X163998507Y-105127181D01*
X163928181Y-105197507D01*
X163848721Y-105301060D01*
X163798989Y-105387198D01*
X163749039Y-105507788D01*
X163723296Y-105603860D01*
X163706259Y-105733270D01*
X163703000Y-105783000D01*
X163703000Y-108762689D01*
X163650898Y-108636903D01*
X163516180Y-108435283D01*
X163344717Y-108263820D01*
X163143097Y-108129102D01*
X162919069Y-108036307D01*
X162681243Y-107989000D01*
X162438757Y-107989000D01*
X162200931Y-108036307D01*
X161976903Y-108129102D01*
X161775283Y-108263820D01*
X161603820Y-108435283D01*
X161469102Y-108636903D01*
X161376307Y-108860931D01*
X161329000Y-109098757D01*
X161329000Y-109341243D01*
X161376307Y-109579069D01*
X161469102Y-109803097D01*
X161603820Y-110004717D01*
X161775283Y-110176180D01*
X161976903Y-110310898D01*
X162200931Y-110403693D01*
X162438757Y-110451000D01*
X162681243Y-110451000D01*
X162919069Y-110403693D01*
X163143097Y-110310898D01*
X163344717Y-110176180D01*
X163516180Y-110004717D01*
X163650898Y-109803097D01*
X163703000Y-109677311D01*
X163703000Y-109863000D01*
X163706259Y-109912730D01*
X163723296Y-110042140D01*
X163749039Y-110138212D01*
X163798989Y-110258802D01*
X163848721Y-110344940D01*
X163928181Y-110448493D01*
X163998507Y-110518819D01*
X164102060Y-110598279D01*
X164188198Y-110648011D01*
X164308788Y-110697961D01*
X164404860Y-110723704D01*
X164534270Y-110740741D01*
X164584000Y-110744000D01*
X165743000Y-110744000D01*
X165792730Y-110740741D01*
X165922140Y-110723704D01*
X166018212Y-110697961D01*
X166138802Y-110648011D01*
X166224940Y-110598279D01*
X166328493Y-110518819D01*
X166398819Y-110448493D01*
X166478279Y-110344940D01*
X166528011Y-110258802D01*
X166577961Y-110138212D01*
X166584957Y-110112100D01*
X166927505Y-110112100D01*
X167019523Y-110290078D01*
X167240207Y-110390566D01*
X167476255Y-110446069D01*
X167718596Y-110454456D01*
X167957917Y-110415402D01*
X168185020Y-110330411D01*
X168260477Y-110290078D01*
X168352495Y-110112100D01*
X169467505Y-110112100D01*
X169559523Y-110290078D01*
X169780207Y-110390566D01*
X170016255Y-110446069D01*
X170258596Y-110454456D01*
X170497917Y-110415402D01*
X170725020Y-110330411D01*
X170800477Y-110290078D01*
X170892495Y-110112100D01*
X170180000Y-109399605D01*
X169467505Y-110112100D01*
X168352495Y-110112100D01*
X167640000Y-109399605D01*
X166927505Y-110112100D01*
X166584957Y-110112100D01*
X166603704Y-110042140D01*
X166620741Y-109912730D01*
X166623655Y-109868258D01*
X166747900Y-109932495D01*
X167460395Y-109220000D01*
X167819605Y-109220000D01*
X168532100Y-109932495D01*
X168710078Y-109840477D01*
X168810566Y-109619793D01*
X168866069Y-109383745D01*
X168869015Y-109298596D01*
X168945544Y-109298596D01*
X168984598Y-109537917D01*
X169069589Y-109765020D01*
X169109922Y-109840477D01*
X169287900Y-109932495D01*
X170000395Y-109220000D01*
X170359605Y-109220000D01*
X171072100Y-109932495D01*
X171250078Y-109840477D01*
X171350566Y-109619793D01*
X171406069Y-109383745D01*
X171414456Y-109141404D01*
X171375402Y-108902083D01*
X171290411Y-108674980D01*
X171250078Y-108599523D01*
X171072100Y-108507505D01*
X170359605Y-109220000D01*
X170000395Y-109220000D01*
X169287900Y-108507505D01*
X169109922Y-108599523D01*
X169009434Y-108820207D01*
X168953931Y-109056255D01*
X168945544Y-109298596D01*
X168869015Y-109298596D01*
X168874456Y-109141404D01*
X168835402Y-108902083D01*
X168750411Y-108674980D01*
X168710078Y-108599523D01*
X168532100Y-108507505D01*
X167819605Y-109220000D01*
X167460395Y-109220000D01*
X166747900Y-108507505D01*
X166624000Y-108571564D01*
X166624000Y-108327900D01*
X166927505Y-108327900D01*
X167640000Y-109040395D01*
X168352495Y-108327900D01*
X169467505Y-108327900D01*
X170180000Y-109040395D01*
X170892495Y-108327900D01*
X170800477Y-108149922D01*
X170579793Y-108049434D01*
X170343745Y-107993931D01*
X170101404Y-107985544D01*
X169862083Y-108024598D01*
X169634980Y-108109589D01*
X169559523Y-108149922D01*
X169467505Y-108327900D01*
X168352495Y-108327900D01*
X168260477Y-108149922D01*
X168039793Y-108049434D01*
X167803745Y-107993931D01*
X167561404Y-107985544D01*
X167322083Y-108024598D01*
X167094980Y-108109589D01*
X167019523Y-108149922D01*
X166927505Y-108327900D01*
X166624000Y-108327900D01*
X166624000Y-107839975D01*
X166631231Y-107785048D01*
X166642789Y-107757145D01*
X166661179Y-107733179D01*
X166685145Y-107714789D01*
X166713048Y-107703231D01*
X166767975Y-107696000D01*
X171306025Y-107696000D01*
X171360952Y-107703231D01*
X171388855Y-107714789D01*
X171412821Y-107733179D01*
X171431211Y-107757145D01*
X171442769Y-107785048D01*
X171450000Y-107839975D01*
X171450000Y-109990000D01*
X171453259Y-110039730D01*
X171470296Y-110169140D01*
X171496039Y-110265212D01*
X171545989Y-110385802D01*
X171595721Y-110471940D01*
X171675181Y-110575493D01*
X171745507Y-110645819D01*
X171849060Y-110725279D01*
X171935198Y-110775011D01*
X172055788Y-110824961D01*
X172151860Y-110850704D01*
X172281270Y-110867741D01*
X172331000Y-110871000D01*
X174417041Y-110871000D01*
X174335592Y-110947076D01*
X174194761Y-111143039D01*
X174094866Y-111362712D01*
X174070511Y-111443020D01*
X174131373Y-111633000D01*
X175133000Y-111633000D01*
X175133000Y-111613000D01*
X175387000Y-111613000D01*
X175387000Y-111633000D01*
X176388627Y-111633000D01*
X176449489Y-111443020D01*
X176425134Y-111362712D01*
X176325239Y-111143039D01*
X176184408Y-110947076D01*
X176102959Y-110871000D01*
X176570998Y-110871000D01*
X176567157Y-110910000D01*
X176569000Y-111537750D01*
X176664250Y-111633000D01*
X177673000Y-111633000D01*
X177673000Y-111613000D01*
X177927000Y-111613000D01*
X177927000Y-111633000D01*
X178935750Y-111633000D01*
X179031000Y-111537750D01*
X179032843Y-110910000D01*
X179025487Y-110835311D01*
X179003701Y-110763492D01*
X178999468Y-110755574D01*
X179051940Y-110725279D01*
X179155493Y-110645819D01*
X179225819Y-110575493D01*
X179305279Y-110471940D01*
X179355011Y-110385802D01*
X179404961Y-110265212D01*
X179430704Y-110169140D01*
X179447741Y-110039730D01*
X179451000Y-109990000D01*
X179451000Y-108450000D01*
X179447741Y-108400270D01*
X179430704Y-108270860D01*
X179404961Y-108174788D01*
X179355011Y-108054198D01*
X179305279Y-107968060D01*
X179225819Y-107864507D01*
X179155493Y-107794181D01*
X179051940Y-107714721D01*
X178965802Y-107664989D01*
X178845212Y-107615039D01*
X178749140Y-107589296D01*
X178645275Y-107575622D01*
X178756180Y-107464717D01*
X178890898Y-107263097D01*
X178983693Y-107039069D01*
X179031000Y-106801243D01*
X179031000Y-106558757D01*
X178983693Y-106320931D01*
X178890898Y-106096903D01*
X178756180Y-105895283D01*
X178584717Y-105723820D01*
X178383097Y-105589102D01*
X178159069Y-105496307D01*
X177921243Y-105449000D01*
X177678757Y-105449000D01*
X177440931Y-105496307D01*
X177216903Y-105589102D01*
X177015283Y-105723820D01*
X176843820Y-105895283D01*
X176709102Y-106096903D01*
X176677168Y-106174000D01*
X176382832Y-106174000D01*
X176350898Y-106096903D01*
X176216180Y-105895283D01*
X176044717Y-105723820D01*
X175843097Y-105589102D01*
X175619069Y-105496307D01*
X175537717Y-105480125D01*
X175420736Y-105363144D01*
X175619069Y-105323693D01*
X175843097Y-105230898D01*
X176044717Y-105096180D01*
X176216180Y-104924717D01*
X176350898Y-104723097D01*
X176382832Y-104646000D01*
X176677168Y-104646000D01*
X176709102Y-104723097D01*
X176843820Y-104924717D01*
X177015283Y-105096180D01*
X177216903Y-105230898D01*
X177440931Y-105323693D01*
X177678757Y-105371000D01*
X177921243Y-105371000D01*
X178159069Y-105323693D01*
X178383097Y-105230898D01*
X178584717Y-105096180D01*
X178756180Y-104924717D01*
X178890898Y-104723097D01*
X178983693Y-104499069D01*
X179031000Y-104261243D01*
X179031000Y-104018757D01*
X178983693Y-103780931D01*
X178890898Y-103556903D01*
X178756180Y-103355283D01*
X178584717Y-103183820D01*
X178383097Y-103049102D01*
X178159069Y-102956307D01*
X177921243Y-102909000D01*
X177678757Y-102909000D01*
X177440931Y-102956307D01*
X177216903Y-103049102D01*
X177015283Y-103183820D01*
X176843820Y-103355283D01*
X176709102Y-103556903D01*
X176677168Y-103634000D01*
X176382832Y-103634000D01*
X176350898Y-103556903D01*
X176216180Y-103355283D01*
X176044717Y-103183820D01*
X175843097Y-103049102D01*
X175619069Y-102956307D01*
X175381243Y-102909000D01*
X175138757Y-102909000D01*
X174900931Y-102956307D01*
X174823833Y-102988242D01*
X172070376Y-100234785D01*
X172054527Y-100215473D01*
X171977479Y-100152241D01*
X171889575Y-100105255D01*
X171794193Y-100076322D01*
X171719854Y-100069000D01*
X171719846Y-100069000D01*
X171695000Y-100066553D01*
X171670154Y-100069000D01*
X171233229Y-100069000D01*
X171214671Y-100007821D01*
X171156190Y-99898411D01*
X171077488Y-99802512D01*
X170981589Y-99723810D01*
X170872179Y-99665329D01*
X170753462Y-99629317D01*
X170630001Y-99617157D01*
X169937749Y-99617157D01*
X167770376Y-97449785D01*
X167754527Y-97430473D01*
X167677479Y-97367241D01*
X167589575Y-97320255D01*
X167494193Y-97291322D01*
X167419854Y-97284000D01*
X167419846Y-97284000D01*
X167395000Y-97281553D01*
X167370154Y-97284000D01*
X143084592Y-97284000D01*
X141218376Y-95417785D01*
X141202527Y-95398473D01*
X141125479Y-95335241D01*
X141037575Y-95288255D01*
X140942193Y-95259322D01*
X140867854Y-95252000D01*
X140867846Y-95252000D01*
X140843000Y-95249553D01*
X140818154Y-95252000D01*
X139147592Y-95252000D01*
X138311758Y-94416167D01*
X138343693Y-94339069D01*
X138391000Y-94101243D01*
X138391000Y-93858757D01*
X138469000Y-93858757D01*
X138469000Y-94101243D01*
X138516307Y-94339069D01*
X138609102Y-94563097D01*
X138743820Y-94764717D01*
X138915283Y-94936180D01*
X139116903Y-95070898D01*
X139340931Y-95163693D01*
X139578757Y-95211000D01*
X139821243Y-95211000D01*
X140059069Y-95163693D01*
X140283097Y-95070898D01*
X140484717Y-94936180D01*
X140656180Y-94764717D01*
X140790898Y-94563097D01*
X140883693Y-94339069D01*
X140931000Y-94101243D01*
X140931000Y-93858757D01*
X141009000Y-93858757D01*
X141009000Y-94101243D01*
X141056307Y-94339069D01*
X141149102Y-94563097D01*
X141283820Y-94764717D01*
X141455283Y-94936180D01*
X141656903Y-95070898D01*
X141880931Y-95163693D01*
X142118757Y-95211000D01*
X142361243Y-95211000D01*
X142599069Y-95163693D01*
X142676167Y-95131758D01*
X144531628Y-96987220D01*
X144547473Y-97006527D01*
X144624521Y-97069759D01*
X144686892Y-97103097D01*
X144712425Y-97116745D01*
X144807807Y-97145678D01*
X144907000Y-97155448D01*
X144931854Y-97153000D01*
X170097409Y-97153000D01*
X174108242Y-101163834D01*
X174076307Y-101240931D01*
X174029000Y-101478757D01*
X174029000Y-101721243D01*
X174076307Y-101959069D01*
X174169102Y-102183097D01*
X174303820Y-102384717D01*
X174475283Y-102556180D01*
X174676903Y-102690898D01*
X174900931Y-102783693D01*
X175138757Y-102831000D01*
X175381243Y-102831000D01*
X175619069Y-102783693D01*
X175843097Y-102690898D01*
X176044717Y-102556180D01*
X176216180Y-102384717D01*
X176350898Y-102183097D01*
X176443693Y-101959069D01*
X176491000Y-101721243D01*
X176491000Y-101478757D01*
X176443693Y-101240931D01*
X176350898Y-101016903D01*
X176216180Y-100815283D01*
X176044717Y-100643820D01*
X175843097Y-100509102D01*
X175619069Y-100416307D01*
X175381243Y-100369000D01*
X175138757Y-100369000D01*
X174900931Y-100416307D01*
X174823834Y-100448242D01*
X170682376Y-96306785D01*
X170666527Y-96287473D01*
X170637925Y-96264000D01*
X171748409Y-96264000D01*
X174108242Y-98623833D01*
X174076307Y-98700931D01*
X174029000Y-98938757D01*
X174029000Y-99181243D01*
X174076307Y-99419069D01*
X174169102Y-99643097D01*
X174303820Y-99844717D01*
X174475283Y-100016180D01*
X174676903Y-100150898D01*
X174900931Y-100243693D01*
X175138757Y-100291000D01*
X175381243Y-100291000D01*
X175619069Y-100243693D01*
X175843097Y-100150898D01*
X176044717Y-100016180D01*
X176216180Y-99844717D01*
X176350898Y-99643097D01*
X176443693Y-99419069D01*
X176491000Y-99181243D01*
X176491000Y-98938757D01*
X176443693Y-98700931D01*
X176350898Y-98476903D01*
X176216180Y-98275283D01*
X176044717Y-98103820D01*
X175843097Y-97969102D01*
X175619069Y-97876307D01*
X175381243Y-97829000D01*
X175138757Y-97829000D01*
X174900931Y-97876307D01*
X174823833Y-97908242D01*
X173314348Y-96398757D01*
X174029000Y-96398757D01*
X174029000Y-96641243D01*
X174076307Y-96879069D01*
X174169102Y-97103097D01*
X174303820Y-97304717D01*
X174475283Y-97476180D01*
X174676903Y-97610898D01*
X174900931Y-97703693D01*
X175138757Y-97751000D01*
X175381243Y-97751000D01*
X175619069Y-97703693D01*
X175843097Y-97610898D01*
X176044717Y-97476180D01*
X176216180Y-97304717D01*
X176350898Y-97103097D01*
X176443693Y-96879069D01*
X176491000Y-96641243D01*
X176491000Y-96398757D01*
X176443693Y-96160931D01*
X176350898Y-95936903D01*
X176216180Y-95735283D01*
X176044717Y-95563820D01*
X175843097Y-95429102D01*
X175619069Y-95336307D01*
X175381243Y-95289000D01*
X175138757Y-95289000D01*
X174900931Y-95336307D01*
X174676903Y-95429102D01*
X174475283Y-95563820D01*
X174303820Y-95735283D01*
X174169102Y-95936903D01*
X174076307Y-96160931D01*
X174029000Y-96398757D01*
X173314348Y-96398757D01*
X172333376Y-95417785D01*
X172317527Y-95398473D01*
X172240479Y-95335241D01*
X172152575Y-95288255D01*
X172057193Y-95259322D01*
X171982854Y-95252000D01*
X171982846Y-95252000D01*
X171958000Y-95249553D01*
X171933154Y-95252000D01*
X146767592Y-95252000D01*
X145931758Y-94416167D01*
X145963693Y-94339069D01*
X146011000Y-94101243D01*
X146011000Y-93858757D01*
X146089000Y-93858757D01*
X146089000Y-94101243D01*
X146136307Y-94339069D01*
X146229102Y-94563097D01*
X146363820Y-94764717D01*
X146535283Y-94936180D01*
X146736903Y-95070898D01*
X146960931Y-95163693D01*
X147198757Y-95211000D01*
X147441243Y-95211000D01*
X147679069Y-95163693D01*
X147903097Y-95070898D01*
X148104717Y-94936180D01*
X148276180Y-94764717D01*
X148410898Y-94563097D01*
X148503693Y-94339069D01*
X148551000Y-94101243D01*
X148551000Y-93858757D01*
X148629000Y-93858757D01*
X148629000Y-94101243D01*
X148676307Y-94339069D01*
X148769102Y-94563097D01*
X148903820Y-94764717D01*
X149075283Y-94936180D01*
X149276903Y-95070898D01*
X149500931Y-95163693D01*
X149738757Y-95211000D01*
X149981243Y-95211000D01*
X150219069Y-95163693D01*
X150443097Y-95070898D01*
X150644717Y-94936180D01*
X150816180Y-94764717D01*
X150950898Y-94563097D01*
X151043693Y-94339069D01*
X151091000Y-94101243D01*
X151091000Y-93858757D01*
X151169000Y-93858757D01*
X151169000Y-94101243D01*
X151216307Y-94339069D01*
X151309102Y-94563097D01*
X151443820Y-94764717D01*
X151615283Y-94936180D01*
X151816903Y-95070898D01*
X152040931Y-95163693D01*
X152278757Y-95211000D01*
X152521243Y-95211000D01*
X152759069Y-95163693D01*
X152983097Y-95070898D01*
X153184717Y-94936180D01*
X153356180Y-94764717D01*
X153490898Y-94563097D01*
X153583693Y-94339069D01*
X153631000Y-94101243D01*
X153631000Y-93858757D01*
X153709000Y-93858757D01*
X153709000Y-94101243D01*
X153756307Y-94339069D01*
X153849102Y-94563097D01*
X153983820Y-94764717D01*
X154155283Y-94936180D01*
X154356903Y-95070898D01*
X154580931Y-95163693D01*
X154818757Y-95211000D01*
X155061243Y-95211000D01*
X155299069Y-95163693D01*
X155523097Y-95070898D01*
X155724717Y-94936180D01*
X155896180Y-94764717D01*
X156030898Y-94563097D01*
X156123693Y-94339069D01*
X156171000Y-94101243D01*
X156171000Y-93858757D01*
X156249000Y-93858757D01*
X156249000Y-94101243D01*
X156296307Y-94339069D01*
X156389102Y-94563097D01*
X156523820Y-94764717D01*
X156695283Y-94936180D01*
X156896903Y-95070898D01*
X157120931Y-95163693D01*
X157358757Y-95211000D01*
X157601243Y-95211000D01*
X157839069Y-95163693D01*
X158063097Y-95070898D01*
X158264717Y-94936180D01*
X158436180Y-94764717D01*
X158570898Y-94563097D01*
X158663693Y-94339069D01*
X158711000Y-94101243D01*
X158711000Y-93858757D01*
X158789000Y-93858757D01*
X158789000Y-94101243D01*
X158836307Y-94339069D01*
X158929102Y-94563097D01*
X159063820Y-94764717D01*
X159235283Y-94936180D01*
X159436903Y-95070898D01*
X159660931Y-95163693D01*
X159898757Y-95211000D01*
X160141243Y-95211000D01*
X160379069Y-95163693D01*
X160603097Y-95070898D01*
X160804717Y-94936180D01*
X160976180Y-94764717D01*
X161110898Y-94563097D01*
X161203693Y-94339069D01*
X161251000Y-94101243D01*
X161251000Y-93858757D01*
X161203693Y-93620931D01*
X161110898Y-93396903D01*
X160976180Y-93195283D01*
X160804717Y-93023820D01*
X160603097Y-92889102D01*
X160379069Y-92796307D01*
X160141243Y-92749000D01*
X159898757Y-92749000D01*
X159660931Y-92796307D01*
X159436903Y-92889102D01*
X159235283Y-93023820D01*
X159063820Y-93195283D01*
X158929102Y-93396903D01*
X158836307Y-93620931D01*
X158789000Y-93858757D01*
X158711000Y-93858757D01*
X158663693Y-93620931D01*
X158570898Y-93396903D01*
X158436180Y-93195283D01*
X158264717Y-93023820D01*
X158063097Y-92889102D01*
X157839069Y-92796307D01*
X157601243Y-92749000D01*
X157358757Y-92749000D01*
X157120931Y-92796307D01*
X156896903Y-92889102D01*
X156695283Y-93023820D01*
X156523820Y-93195283D01*
X156389102Y-93396903D01*
X156296307Y-93620931D01*
X156249000Y-93858757D01*
X156171000Y-93858757D01*
X156123693Y-93620931D01*
X156030898Y-93396903D01*
X155896180Y-93195283D01*
X155724717Y-93023820D01*
X155523097Y-92889102D01*
X155299069Y-92796307D01*
X155061243Y-92749000D01*
X154818757Y-92749000D01*
X154580931Y-92796307D01*
X154356903Y-92889102D01*
X154155283Y-93023820D01*
X153983820Y-93195283D01*
X153849102Y-93396903D01*
X153756307Y-93620931D01*
X153709000Y-93858757D01*
X153631000Y-93858757D01*
X153583693Y-93620931D01*
X153490898Y-93396903D01*
X153356180Y-93195283D01*
X153184717Y-93023820D01*
X152983097Y-92889102D01*
X152759069Y-92796307D01*
X152521243Y-92749000D01*
X152278757Y-92749000D01*
X152040931Y-92796307D01*
X151816903Y-92889102D01*
X151615283Y-93023820D01*
X151443820Y-93195283D01*
X151309102Y-93396903D01*
X151216307Y-93620931D01*
X151169000Y-93858757D01*
X151091000Y-93858757D01*
X151043693Y-93620931D01*
X150950898Y-93396903D01*
X150816180Y-93195283D01*
X150644717Y-93023820D01*
X150443097Y-92889102D01*
X150219069Y-92796307D01*
X149981243Y-92749000D01*
X149738757Y-92749000D01*
X149500931Y-92796307D01*
X149276903Y-92889102D01*
X149075283Y-93023820D01*
X148903820Y-93195283D01*
X148769102Y-93396903D01*
X148676307Y-93620931D01*
X148629000Y-93858757D01*
X148551000Y-93858757D01*
X148503693Y-93620931D01*
X148410898Y-93396903D01*
X148276180Y-93195283D01*
X148104717Y-93023820D01*
X147903097Y-92889102D01*
X147679069Y-92796307D01*
X147441243Y-92749000D01*
X147198757Y-92749000D01*
X146960931Y-92796307D01*
X146736903Y-92889102D01*
X146535283Y-93023820D01*
X146363820Y-93195283D01*
X146229102Y-93396903D01*
X146136307Y-93620931D01*
X146089000Y-93858757D01*
X146011000Y-93858757D01*
X145963693Y-93620931D01*
X145870898Y-93396903D01*
X145736180Y-93195283D01*
X145564717Y-93023820D01*
X145363097Y-92889102D01*
X145139069Y-92796307D01*
X144901243Y-92749000D01*
X144658757Y-92749000D01*
X144420931Y-92796307D01*
X144196903Y-92889102D01*
X143995283Y-93023820D01*
X143823820Y-93195283D01*
X143689102Y-93396903D01*
X143596307Y-93620931D01*
X143549000Y-93858757D01*
X143549000Y-94101243D01*
X143596307Y-94339069D01*
X143689102Y-94563097D01*
X143823820Y-94764717D01*
X143995283Y-94936180D01*
X144196903Y-95070898D01*
X144420931Y-95163693D01*
X144658757Y-95211000D01*
X144901243Y-95211000D01*
X145139069Y-95163693D01*
X145216167Y-95131758D01*
X146182628Y-96098220D01*
X146198473Y-96117527D01*
X146227075Y-96141000D01*
X145116592Y-96141000D01*
X143391758Y-94416167D01*
X143423693Y-94339069D01*
X143471000Y-94101243D01*
X143471000Y-93858757D01*
X143423693Y-93620931D01*
X143330898Y-93396903D01*
X143196180Y-93195283D01*
X143024717Y-93023820D01*
X142823097Y-92889102D01*
X142599069Y-92796307D01*
X142361243Y-92749000D01*
X142118757Y-92749000D01*
X141880931Y-92796307D01*
X141656903Y-92889102D01*
X141455283Y-93023820D01*
X141283820Y-93195283D01*
X141149102Y-93396903D01*
X141056307Y-93620931D01*
X141009000Y-93858757D01*
X140931000Y-93858757D01*
X140883693Y-93620931D01*
X140790898Y-93396903D01*
X140656180Y-93195283D01*
X140484717Y-93023820D01*
X140283097Y-92889102D01*
X140059069Y-92796307D01*
X139821243Y-92749000D01*
X139578757Y-92749000D01*
X139340931Y-92796307D01*
X139116903Y-92889102D01*
X138915283Y-93023820D01*
X138743820Y-93195283D01*
X138609102Y-93396903D01*
X138516307Y-93620931D01*
X138469000Y-93858757D01*
X138391000Y-93858757D01*
X138343693Y-93620931D01*
X138250898Y-93396903D01*
X138116180Y-93195283D01*
X137944717Y-93023820D01*
X137743097Y-92889102D01*
X137519069Y-92796307D01*
X137281243Y-92749000D01*
X137038757Y-92749000D01*
X136800931Y-92796307D01*
X136576903Y-92889102D01*
X136375283Y-93023820D01*
X136203820Y-93195283D01*
X136069102Y-93396903D01*
X135976307Y-93620931D01*
X135929000Y-93858757D01*
X135929000Y-94101243D01*
X135976307Y-94339069D01*
X136069102Y-94563097D01*
X136203820Y-94764717D01*
X136375283Y-94936180D01*
X136576903Y-95070898D01*
X136800931Y-95163693D01*
X137038757Y-95211000D01*
X137281243Y-95211000D01*
X137519069Y-95163693D01*
X137596167Y-95131758D01*
X138562628Y-96098220D01*
X138578473Y-96117527D01*
X138655521Y-96180759D01*
X138743425Y-96227745D01*
X138838807Y-96256678D01*
X138938000Y-96266448D01*
X138962854Y-96264000D01*
X140633409Y-96264000D01*
X142499628Y-98130220D01*
X142515473Y-98149527D01*
X142592521Y-98212759D01*
X142680425Y-98259745D01*
X142775807Y-98288678D01*
X142850146Y-98296000D01*
X142850154Y-98296000D01*
X142875000Y-98298447D01*
X142899846Y-98296000D01*
X161327157Y-98296000D01*
X161327157Y-99824000D01*
X148672592Y-99824000D01*
X147695376Y-98846785D01*
X147679527Y-98827473D01*
X147602479Y-98764241D01*
X147514575Y-98717255D01*
X147419193Y-98688322D01*
X147344854Y-98681000D01*
X147344846Y-98681000D01*
X147320000Y-98678553D01*
X147295154Y-98681000D01*
X140932843Y-98681000D01*
X140932843Y-97067000D01*
X140925487Y-96992311D01*
X140903701Y-96920492D01*
X140868322Y-96854304D01*
X140820711Y-96796289D01*
X140762696Y-96748678D01*
X140696508Y-96713299D01*
X140624689Y-96691513D01*
X140550000Y-96684157D01*
X138850000Y-96684157D01*
X138775311Y-96691513D01*
X138703492Y-96713299D01*
X138637304Y-96748678D01*
X138579289Y-96796289D01*
X138531678Y-96854304D01*
X138496299Y-96920492D01*
X138474513Y-96992311D01*
X138467157Y-97067000D01*
X138467157Y-98253567D01*
X135251887Y-95038298D01*
X135404717Y-94936180D01*
X135576180Y-94764717D01*
X135710898Y-94563097D01*
X135803693Y-94339069D01*
X135851000Y-94101243D01*
X135851000Y-93858757D01*
X135803693Y-93620931D01*
X135710898Y-93396903D01*
X135576180Y-93195283D01*
X135404717Y-93023820D01*
X135203097Y-92889102D01*
X134979069Y-92796307D01*
X134741243Y-92749000D01*
X134498757Y-92749000D01*
X134260931Y-92796307D01*
X134036903Y-92889102D01*
X133835283Y-93023820D01*
X133663820Y-93195283D01*
X133529102Y-93396903D01*
X133436307Y-93620931D01*
X133389000Y-93858757D01*
X133389000Y-94101243D01*
X133436307Y-94339069D01*
X133529102Y-94563097D01*
X133663820Y-94764717D01*
X133835283Y-94936180D01*
X134036903Y-95070898D01*
X134113463Y-95102610D01*
X134111553Y-95122002D01*
X134121322Y-95221194D01*
X134150255Y-95316576D01*
X134160802Y-95336307D01*
X134197242Y-95404481D01*
X134260474Y-95481529D01*
X134279781Y-95497374D01*
X138309626Y-99527220D01*
X138325471Y-99546527D01*
X138402519Y-99609759D01*
X138490423Y-99656745D01*
X138563605Y-99678944D01*
X138585804Y-99685678D01*
X138595692Y-99686652D01*
X138660144Y-99693000D01*
X138660151Y-99693000D01*
X138684997Y-99695447D01*
X138709843Y-99693000D01*
X138729977Y-99693000D01*
X138609102Y-99873903D01*
X138516307Y-100097931D01*
X138469000Y-100335757D01*
X138469000Y-100578243D01*
X138516307Y-100816069D01*
X138609102Y-101040097D01*
X138743820Y-101241717D01*
X138915283Y-101413180D01*
X139116903Y-101547898D01*
X139340931Y-101640693D01*
X139578757Y-101688000D01*
X139821243Y-101688000D01*
X140059069Y-101640693D01*
X140283097Y-101547898D01*
X140484717Y-101413180D01*
X140656180Y-101241717D01*
X140790898Y-101040097D01*
X140883693Y-100816069D01*
X140931000Y-100578243D01*
X140931000Y-100335757D01*
X140883693Y-100097931D01*
X140790898Y-99873903D01*
X140670023Y-99693000D01*
X147110409Y-99693000D01*
X148087628Y-100670220D01*
X148103473Y-100689527D01*
X148180521Y-100752759D01*
X148268425Y-100799745D01*
X148363806Y-100828678D01*
X148373694Y-100829652D01*
X148438146Y-100836000D01*
X148438153Y-100836000D01*
X148462999Y-100838447D01*
X148487845Y-100836000D01*
X161589977Y-100836000D01*
X161469102Y-101016903D01*
X161376307Y-101240931D01*
X161329000Y-101478757D01*
X161329000Y-101721243D01*
X161376307Y-101959069D01*
X161408242Y-102036167D01*
X159683409Y-103761000D01*
X140670023Y-103761000D01*
X140790898Y-103580097D01*
X140883693Y-103356069D01*
X140931000Y-103118243D01*
X140931000Y-102875757D01*
X140883693Y-102637931D01*
X140790898Y-102413903D01*
X140656180Y-102212283D01*
X140484717Y-102040820D01*
X140283097Y-101906102D01*
X140059069Y-101813307D01*
X139821243Y-101766000D01*
X139578757Y-101766000D01*
X139340931Y-101813307D01*
X139116903Y-101906102D01*
X138915283Y-102040820D01*
X138743820Y-102212283D01*
X138609102Y-102413903D01*
X138516307Y-102637931D01*
X138469000Y-102875757D01*
X138469000Y-103118243D01*
X138516307Y-103356069D01*
X138609102Y-103580097D01*
X138729977Y-103761000D01*
X129876592Y-103761000D01*
X121025376Y-94909785D01*
X121009527Y-94890473D01*
X120932479Y-94827241D01*
X120844575Y-94780255D01*
X120749193Y-94751322D01*
X120674854Y-94744000D01*
X120674846Y-94744000D01*
X120650000Y-94741553D01*
X120625154Y-94744000D01*
X117810023Y-94744000D01*
X117930898Y-94563097D01*
X118023693Y-94339069D01*
X118071000Y-94101243D01*
X118071000Y-93858757D01*
X120689000Y-93858757D01*
X120689000Y-94101243D01*
X120736307Y-94339069D01*
X120829102Y-94563097D01*
X120963820Y-94764717D01*
X121135283Y-94936180D01*
X121336903Y-95070898D01*
X121560931Y-95163693D01*
X121798757Y-95211000D01*
X122041243Y-95211000D01*
X122279069Y-95163693D01*
X122503097Y-95070898D01*
X122704717Y-94936180D01*
X122768797Y-94872100D01*
X123747505Y-94872100D01*
X123839523Y-95050078D01*
X124060207Y-95150566D01*
X124296255Y-95206069D01*
X124538596Y-95214456D01*
X124777917Y-95175402D01*
X125005020Y-95090411D01*
X125080477Y-95050078D01*
X125172495Y-94872100D01*
X124460000Y-94159605D01*
X123747505Y-94872100D01*
X122768797Y-94872100D01*
X122876180Y-94764717D01*
X123010898Y-94563097D01*
X123103693Y-94339069D01*
X123151000Y-94101243D01*
X123151000Y-94058596D01*
X123225544Y-94058596D01*
X123264598Y-94297917D01*
X123349589Y-94525020D01*
X123389922Y-94600477D01*
X123567900Y-94692495D01*
X124280395Y-93980000D01*
X124639605Y-93980000D01*
X125352100Y-94692495D01*
X125530078Y-94600477D01*
X125630566Y-94379793D01*
X125686069Y-94143745D01*
X125694456Y-93901404D01*
X125687497Y-93858757D01*
X125769000Y-93858757D01*
X125769000Y-94101243D01*
X125816307Y-94339069D01*
X125909102Y-94563097D01*
X126043820Y-94764717D01*
X126215283Y-94936180D01*
X126416903Y-95070898D01*
X126640931Y-95163693D01*
X126878757Y-95211000D01*
X127121243Y-95211000D01*
X127359069Y-95163693D01*
X127583097Y-95070898D01*
X127784717Y-94936180D01*
X127956180Y-94764717D01*
X128090898Y-94563097D01*
X128183693Y-94339069D01*
X128231000Y-94101243D01*
X128231000Y-93858757D01*
X128309000Y-93858757D01*
X128309000Y-94101243D01*
X128356307Y-94339069D01*
X128449102Y-94563097D01*
X128583820Y-94764717D01*
X128755283Y-94936180D01*
X128956903Y-95070898D01*
X129180931Y-95163693D01*
X129418757Y-95211000D01*
X129661243Y-95211000D01*
X129899069Y-95163693D01*
X130123097Y-95070898D01*
X130324717Y-94936180D01*
X130496180Y-94764717D01*
X130630898Y-94563097D01*
X130723693Y-94339069D01*
X130771000Y-94101243D01*
X130771000Y-93858757D01*
X130849000Y-93858757D01*
X130849000Y-94101243D01*
X130896307Y-94339069D01*
X130989102Y-94563097D01*
X131123820Y-94764717D01*
X131295283Y-94936180D01*
X131496903Y-95070898D01*
X131720931Y-95163693D01*
X131958757Y-95211000D01*
X132201243Y-95211000D01*
X132439069Y-95163693D01*
X132663097Y-95070898D01*
X132864717Y-94936180D01*
X133036180Y-94764717D01*
X133170898Y-94563097D01*
X133263693Y-94339069D01*
X133311000Y-94101243D01*
X133311000Y-93858757D01*
X133263693Y-93620931D01*
X133170898Y-93396903D01*
X133036180Y-93195283D01*
X132864717Y-93023820D01*
X132663097Y-92889102D01*
X132439069Y-92796307D01*
X132201243Y-92749000D01*
X131958757Y-92749000D01*
X131720931Y-92796307D01*
X131496903Y-92889102D01*
X131295283Y-93023820D01*
X131123820Y-93195283D01*
X130989102Y-93396903D01*
X130896307Y-93620931D01*
X130849000Y-93858757D01*
X130771000Y-93858757D01*
X130723693Y-93620931D01*
X130630898Y-93396903D01*
X130496180Y-93195283D01*
X130324717Y-93023820D01*
X130123097Y-92889102D01*
X129899069Y-92796307D01*
X129661243Y-92749000D01*
X129418757Y-92749000D01*
X129180931Y-92796307D01*
X128956903Y-92889102D01*
X128755283Y-93023820D01*
X128583820Y-93195283D01*
X128449102Y-93396903D01*
X128356307Y-93620931D01*
X128309000Y-93858757D01*
X128231000Y-93858757D01*
X128183693Y-93620931D01*
X128090898Y-93396903D01*
X127956180Y-93195283D01*
X127784717Y-93023820D01*
X127583097Y-92889102D01*
X127359069Y-92796307D01*
X127121243Y-92749000D01*
X126878757Y-92749000D01*
X126640931Y-92796307D01*
X126416903Y-92889102D01*
X126215283Y-93023820D01*
X126043820Y-93195283D01*
X125909102Y-93396903D01*
X125816307Y-93620931D01*
X125769000Y-93858757D01*
X125687497Y-93858757D01*
X125655402Y-93662083D01*
X125570411Y-93434980D01*
X125530078Y-93359523D01*
X125352100Y-93267505D01*
X124639605Y-93980000D01*
X124280395Y-93980000D01*
X123567900Y-93267505D01*
X123389922Y-93359523D01*
X123289434Y-93580207D01*
X123233931Y-93816255D01*
X123225544Y-94058596D01*
X123151000Y-94058596D01*
X123151000Y-93858757D01*
X123103693Y-93620931D01*
X123010898Y-93396903D01*
X122876180Y-93195283D01*
X122768797Y-93087900D01*
X123747505Y-93087900D01*
X124460000Y-93800395D01*
X125172495Y-93087900D01*
X125080477Y-92909922D01*
X124859793Y-92809434D01*
X124623745Y-92753931D01*
X124381404Y-92745544D01*
X124142083Y-92784598D01*
X123914980Y-92869589D01*
X123839523Y-92909922D01*
X123747505Y-93087900D01*
X122768797Y-93087900D01*
X122704717Y-93023820D01*
X122503097Y-92889102D01*
X122279069Y-92796307D01*
X122041243Y-92749000D01*
X121798757Y-92749000D01*
X121560931Y-92796307D01*
X121336903Y-92889102D01*
X121135283Y-93023820D01*
X120963820Y-93195283D01*
X120829102Y-93396903D01*
X120736307Y-93620931D01*
X120689000Y-93858757D01*
X118071000Y-93858757D01*
X118023693Y-93620931D01*
X117991758Y-93543834D01*
X118065369Y-93470223D01*
X118065373Y-93470218D01*
X119589592Y-91946000D01*
X159810409Y-91946000D01*
X161408242Y-93543833D01*
X161376307Y-93620931D01*
X161329000Y-93858757D01*
X161329000Y-94101243D01*
X161376307Y-94339069D01*
X161469102Y-94563097D01*
X161603820Y-94764717D01*
X161775283Y-94936180D01*
X161976903Y-95070898D01*
X162200931Y-95163693D01*
X162438757Y-95211000D01*
X162681243Y-95211000D01*
X162919069Y-95163693D01*
X163143097Y-95070898D01*
X163344717Y-94936180D01*
X163516180Y-94764717D01*
X163650898Y-94563097D01*
X163743693Y-94339069D01*
X163791000Y-94101243D01*
X163791000Y-93858757D01*
X163869000Y-93858757D01*
X163869000Y-94101243D01*
X163916307Y-94339069D01*
X164009102Y-94563097D01*
X164143820Y-94764717D01*
X164315283Y-94936180D01*
X164516903Y-95070898D01*
X164740931Y-95163693D01*
X164978757Y-95211000D01*
X165221243Y-95211000D01*
X165459069Y-95163693D01*
X165683097Y-95070898D01*
X165884717Y-94936180D01*
X166056180Y-94764717D01*
X166190898Y-94563097D01*
X166283693Y-94339069D01*
X166331000Y-94101243D01*
X166331000Y-93858757D01*
X166409000Y-93858757D01*
X166409000Y-94101243D01*
X166456307Y-94339069D01*
X166549102Y-94563097D01*
X166683820Y-94764717D01*
X166855283Y-94936180D01*
X167056903Y-95070898D01*
X167280931Y-95163693D01*
X167518757Y-95211000D01*
X167761243Y-95211000D01*
X167999069Y-95163693D01*
X168223097Y-95070898D01*
X168424717Y-94936180D01*
X168596180Y-94764717D01*
X168730898Y-94563097D01*
X168823693Y-94339069D01*
X168871000Y-94101243D01*
X168871000Y-93858757D01*
X168823693Y-93620931D01*
X168730898Y-93396903D01*
X168596180Y-93195283D01*
X168530897Y-93130000D01*
X168947157Y-93130000D01*
X168947157Y-94830000D01*
X168954513Y-94904689D01*
X168976299Y-94976508D01*
X169011678Y-95042696D01*
X169059289Y-95100711D01*
X169117304Y-95148322D01*
X169183492Y-95183701D01*
X169255311Y-95205487D01*
X169330000Y-95212843D01*
X171030000Y-95212843D01*
X171104689Y-95205487D01*
X171176508Y-95183701D01*
X171242696Y-95148322D01*
X171300711Y-95100711D01*
X171348322Y-95042696D01*
X171383701Y-94976508D01*
X171405487Y-94904689D01*
X171412843Y-94830000D01*
X171412843Y-93858757D01*
X174029000Y-93858757D01*
X174029000Y-94101243D01*
X174076307Y-94339069D01*
X174169102Y-94563097D01*
X174303820Y-94764717D01*
X174475283Y-94936180D01*
X174676903Y-95070898D01*
X174900931Y-95163693D01*
X175138757Y-95211000D01*
X175381243Y-95211000D01*
X175619069Y-95163693D01*
X175843097Y-95070898D01*
X176044717Y-94936180D01*
X176216180Y-94764717D01*
X176350898Y-94563097D01*
X176443693Y-94339069D01*
X176491000Y-94101243D01*
X176491000Y-93858757D01*
X176443693Y-93620931D01*
X176350898Y-93396903D01*
X176216180Y-93195283D01*
X176044717Y-93023820D01*
X175843097Y-92889102D01*
X175619069Y-92796307D01*
X175381243Y-92749000D01*
X175138757Y-92749000D01*
X174900931Y-92796307D01*
X174676903Y-92889102D01*
X174475283Y-93023820D01*
X174303820Y-93195283D01*
X174169102Y-93396903D01*
X174076307Y-93620931D01*
X174029000Y-93858757D01*
X171412843Y-93858757D01*
X171412843Y-93130000D01*
X171405487Y-93055311D01*
X171383701Y-92983492D01*
X171348322Y-92917304D01*
X171300711Y-92859289D01*
X171242696Y-92811678D01*
X171176508Y-92776299D01*
X171104689Y-92754513D01*
X171030000Y-92747157D01*
X169330000Y-92747157D01*
X169255311Y-92754513D01*
X169183492Y-92776299D01*
X169117304Y-92811678D01*
X169059289Y-92859289D01*
X169011678Y-92917304D01*
X168976299Y-92983492D01*
X168954513Y-93055311D01*
X168947157Y-93130000D01*
X168530897Y-93130000D01*
X168424717Y-93023820D01*
X168223097Y-92889102D01*
X167999069Y-92796307D01*
X167761243Y-92749000D01*
X167518757Y-92749000D01*
X167280931Y-92796307D01*
X167056903Y-92889102D01*
X166855283Y-93023820D01*
X166683820Y-93195283D01*
X166549102Y-93396903D01*
X166456307Y-93620931D01*
X166409000Y-93858757D01*
X166331000Y-93858757D01*
X166283693Y-93620931D01*
X166190898Y-93396903D01*
X166056180Y-93195283D01*
X165884717Y-93023820D01*
X165683097Y-92889102D01*
X165459069Y-92796307D01*
X165221243Y-92749000D01*
X164978757Y-92749000D01*
X164740931Y-92796307D01*
X164516903Y-92889102D01*
X164315283Y-93023820D01*
X164143820Y-93195283D01*
X164009102Y-93396903D01*
X163916307Y-93620931D01*
X163869000Y-93858757D01*
X163791000Y-93858757D01*
X163743693Y-93620931D01*
X163650898Y-93396903D01*
X163516180Y-93195283D01*
X163344717Y-93023820D01*
X163311000Y-93001291D01*
X163311000Y-92493229D01*
X163372179Y-92474671D01*
X163481589Y-92416190D01*
X163577488Y-92337488D01*
X163656190Y-92241589D01*
X163714671Y-92132179D01*
X163750683Y-92013462D01*
X163762843Y-91890001D01*
X163762843Y-90989999D01*
X163897157Y-90989999D01*
X163897157Y-91890001D01*
X163909317Y-92013462D01*
X163945329Y-92132179D01*
X164003810Y-92241589D01*
X164082512Y-92337488D01*
X164178411Y-92416190D01*
X164287821Y-92474671D01*
X164406538Y-92510683D01*
X164529999Y-92522843D01*
X165180001Y-92522843D01*
X165303462Y-92510683D01*
X165422179Y-92474671D01*
X165531589Y-92416190D01*
X165627488Y-92337488D01*
X165706190Y-92241589D01*
X165764671Y-92132179D01*
X165800683Y-92013462D01*
X165807328Y-91946000D01*
X174027157Y-91946000D01*
X174027157Y-92290000D01*
X174034513Y-92364689D01*
X174056299Y-92436508D01*
X174091678Y-92502696D01*
X174139289Y-92560711D01*
X174197304Y-92608322D01*
X174263492Y-92643701D01*
X174335311Y-92665487D01*
X174410000Y-92672843D01*
X176110000Y-92672843D01*
X176184689Y-92665487D01*
X176256508Y-92643701D01*
X176322696Y-92608322D01*
X176380711Y-92560711D01*
X176428322Y-92502696D01*
X176463701Y-92436508D01*
X176485487Y-92364689D01*
X176492843Y-92290000D01*
X176492843Y-90590000D01*
X176485487Y-90515311D01*
X176463701Y-90443492D01*
X176428322Y-90377304D01*
X176380711Y-90319289D01*
X176322696Y-90271678D01*
X176256508Y-90236299D01*
X176184689Y-90214513D01*
X176110000Y-90207157D01*
X174410000Y-90207157D01*
X174335311Y-90214513D01*
X174263492Y-90236299D01*
X174197304Y-90271678D01*
X174139289Y-90319289D01*
X174091678Y-90377304D01*
X174056299Y-90443492D01*
X174034513Y-90515311D01*
X174027157Y-90590000D01*
X174027157Y-90934000D01*
X165807328Y-90934000D01*
X165800683Y-90866538D01*
X165764671Y-90747821D01*
X165706190Y-90638411D01*
X165627488Y-90542512D01*
X165531589Y-90463810D01*
X165422179Y-90405329D01*
X165303462Y-90369317D01*
X165180001Y-90357157D01*
X164529999Y-90357157D01*
X164406538Y-90369317D01*
X164287821Y-90405329D01*
X164178411Y-90463810D01*
X164082512Y-90542512D01*
X164003810Y-90638411D01*
X163945329Y-90747821D01*
X163909317Y-90866538D01*
X163897157Y-90989999D01*
X163762843Y-90989999D01*
X163750683Y-90866538D01*
X163714671Y-90747821D01*
X163656190Y-90638411D01*
X163577488Y-90542512D01*
X163481589Y-90463810D01*
X163372179Y-90405329D01*
X163253462Y-90369317D01*
X163130001Y-90357157D01*
X162479999Y-90357157D01*
X162356538Y-90369317D01*
X162237821Y-90405329D01*
X162128411Y-90463810D01*
X162032512Y-90542512D01*
X161953810Y-90638411D01*
X161895329Y-90747821D01*
X161859317Y-90866538D01*
X161847157Y-90989999D01*
X161847157Y-91890001D01*
X161859317Y-92013462D01*
X161895329Y-92132179D01*
X161953810Y-92241589D01*
X162032512Y-92337488D01*
X162128411Y-92416190D01*
X162237821Y-92474671D01*
X162299000Y-92493229D01*
X162299001Y-92776800D01*
X162200931Y-92796307D01*
X162123833Y-92828242D01*
X160395376Y-91099785D01*
X160379527Y-91080473D01*
X160302479Y-91017241D01*
X160214575Y-90970255D01*
X160119193Y-90941322D01*
X160044854Y-90934000D01*
X160044846Y-90934000D01*
X160020000Y-90931553D01*
X159995154Y-90934000D01*
X119404845Y-90934000D01*
X119379999Y-90931553D01*
X119355153Y-90934000D01*
X119355146Y-90934000D01*
X119290694Y-90940348D01*
X119280806Y-90941322D01*
X119264841Y-90946165D01*
X119185425Y-90970255D01*
X119097521Y-91017241D01*
X119020473Y-91080473D01*
X119004628Y-91099780D01*
X118072843Y-92031566D01*
X118072843Y-90590000D01*
X118065487Y-90515311D01*
X118043701Y-90443492D01*
X118008322Y-90377304D01*
X117960711Y-90319289D01*
X117902696Y-90271678D01*
X117836508Y-90236299D01*
X117764689Y-90214513D01*
X117690000Y-90207157D01*
X115990000Y-90207157D01*
X115915311Y-90214513D01*
X115843492Y-90236299D01*
X115777304Y-90271678D01*
X115719289Y-90319289D01*
X115671678Y-90377304D01*
X115636299Y-90443492D01*
X115614513Y-90515311D01*
X115607157Y-90590000D01*
X115607157Y-91957252D01*
X115324784Y-92239625D01*
X115305472Y-92255474D01*
X115242240Y-92332522D01*
X115195254Y-92420427D01*
X115166321Y-92515809D01*
X115158999Y-92590148D01*
X115158999Y-92590155D01*
X115156552Y-92615001D01*
X107086000Y-92615001D01*
X107086000Y-90824854D01*
X107104364Y-90637559D01*
X107152992Y-90476499D01*
X107231979Y-90327946D01*
X107338310Y-90197570D01*
X107467946Y-90090326D01*
X107615942Y-90010305D01*
X107776661Y-89960554D01*
X107962707Y-89941000D01*
X184130146Y-89941000D01*
X184317441Y-89959364D01*
G37*
%TD.AperFunction*%
D16*
X174412756Y-105786347D02*
X174303820Y-105895283D01*
X174169102Y-106096903D01*
X174076307Y-106320931D01*
X174029000Y-106558757D01*
X174029000Y-106801243D01*
X174076307Y-107039069D01*
X174169102Y-107263097D01*
X174303820Y-107464717D01*
X174408103Y-107569000D01*
X174133975Y-107569000D01*
X174079048Y-107561769D01*
X174051145Y-107550211D01*
X174027179Y-107531821D01*
X174008789Y-107507855D01*
X173997231Y-107479952D01*
X173990000Y-107425025D01*
X173990000Y-105783000D01*
X173986741Y-105733270D01*
X173969704Y-105603860D01*
X173943961Y-105507788D01*
X173894011Y-105387198D01*
X173844279Y-105301060D01*
X173764819Y-105197507D01*
X173694493Y-105127181D01*
X173590940Y-105047721D01*
X173504802Y-104997989D01*
X173384212Y-104948039D01*
X173288140Y-104922296D01*
X173158730Y-104905259D01*
X173109000Y-104902000D01*
X171466975Y-104902000D01*
X171412048Y-104894769D01*
X171384145Y-104883211D01*
X171360179Y-104864821D01*
X171341789Y-104840855D01*
X171330231Y-104812952D01*
X171323000Y-104758025D01*
X171323000Y-102696591D01*
X174412756Y-105786347D01*
%TA.AperFunction,Conductor*%
D17*
G36*
X174412756Y-105786347D02*
G01*
X174303820Y-105895283D01*
X174169102Y-106096903D01*
X174076307Y-106320931D01*
X174029000Y-106558757D01*
X174029000Y-106801243D01*
X174076307Y-107039069D01*
X174169102Y-107263097D01*
X174303820Y-107464717D01*
X174408103Y-107569000D01*
X174133975Y-107569000D01*
X174079048Y-107561769D01*
X174051145Y-107550211D01*
X174027179Y-107531821D01*
X174008789Y-107507855D01*
X173997231Y-107479952D01*
X173990000Y-107425025D01*
X173990000Y-105783000D01*
X173986741Y-105733270D01*
X173969704Y-105603860D01*
X173943961Y-105507788D01*
X173894011Y-105387198D01*
X173844279Y-105301060D01*
X173764819Y-105197507D01*
X173694493Y-105127181D01*
X173590940Y-105047721D01*
X173504802Y-104997989D01*
X173384212Y-104948039D01*
X173288140Y-104922296D01*
X173158730Y-104905259D01*
X173109000Y-104902000D01*
X171466975Y-104902000D01*
X171412048Y-104894769D01*
X171384145Y-104883211D01*
X171360179Y-104864821D01*
X171341789Y-104840855D01*
X171330231Y-104812952D01*
X171323000Y-104758025D01*
X171323000Y-102696591D01*
X174412756Y-105786347D01*
G37*
%TD.AperFunction*%
D16*
X169100945Y-100211537D02*
X169097157Y-100249999D01*
X169097157Y-100900001D01*
X169109317Y-101023462D01*
X169130714Y-101094000D01*
X168874592Y-101094000D01*
X168719055Y-100938463D01*
X168722843Y-100900001D01*
X168722843Y-100249999D01*
X168710683Y-100126538D01*
X168674671Y-100007821D01*
X168616190Y-99898411D01*
X168537488Y-99802512D01*
X168441589Y-99723810D01*
X168332179Y-99665329D01*
X168213462Y-99629317D01*
X168090001Y-99617157D01*
X167189999Y-99617157D01*
X167066538Y-99629317D01*
X166947821Y-99665329D01*
X166838411Y-99723810D01*
X166742512Y-99802512D01*
X166724877Y-99824000D01*
X163792843Y-99824000D01*
X163792843Y-98296000D01*
X167185409Y-98296000D01*
X169100945Y-100211537D01*
%TA.AperFunction,Conductor*%
D17*
G36*
X169100945Y-100211537D02*
G01*
X169097157Y-100249999D01*
X169097157Y-100900001D01*
X169109317Y-101023462D01*
X169130714Y-101094000D01*
X168874592Y-101094000D01*
X168719055Y-100938463D01*
X168722843Y-100900001D01*
X168722843Y-100249999D01*
X168710683Y-100126538D01*
X168674671Y-100007821D01*
X168616190Y-99898411D01*
X168537488Y-99802512D01*
X168441589Y-99723810D01*
X168332179Y-99665329D01*
X168213462Y-99629317D01*
X168090001Y-99617157D01*
X167189999Y-99617157D01*
X167066538Y-99629317D01*
X166947821Y-99665329D01*
X166838411Y-99723810D01*
X166742512Y-99802512D01*
X166724877Y-99824000D01*
X163792843Y-99824000D01*
X163792843Y-98296000D01*
X167185409Y-98296000D01*
X169100945Y-100211537D01*
G37*
%TD.AperFunction*%
%TD*%
D16*
%TO.N,+3V3*%
X168665000Y-102108448D02*
X168669548Y-102108000D01*
X170433672Y-102108000D01*
X170538257Y-102121769D01*
X170627955Y-102158923D01*
X170704976Y-102218024D01*
X170764077Y-102295045D01*
X170801231Y-102384743D01*
X170815000Y-102489328D01*
X170815000Y-104783000D01*
X170816086Y-104799577D01*
X170833123Y-104928987D01*
X170841704Y-104961011D01*
X170891654Y-105081601D01*
X170908232Y-105110313D01*
X170987692Y-105213866D01*
X171011134Y-105237308D01*
X171114687Y-105316768D01*
X171143399Y-105333346D01*
X171263989Y-105383296D01*
X171296013Y-105391877D01*
X171425423Y-105408914D01*
X171442000Y-105410000D01*
X173100672Y-105410000D01*
X173205257Y-105423769D01*
X173294955Y-105460923D01*
X173371976Y-105520024D01*
X173431077Y-105597045D01*
X173468231Y-105686743D01*
X173482000Y-105791328D01*
X173482000Y-107450000D01*
X173483086Y-107466577D01*
X173500123Y-107595987D01*
X173508704Y-107628011D01*
X173558654Y-107748601D01*
X173575232Y-107777313D01*
X173654692Y-107880866D01*
X173678134Y-107904308D01*
X173781687Y-107983768D01*
X173810399Y-108000346D01*
X173930989Y-108050296D01*
X173963013Y-108058877D01*
X174092423Y-108075914D01*
X174109000Y-108077000D01*
X178561672Y-108077000D01*
X178666257Y-108090769D01*
X178755955Y-108127923D01*
X178832976Y-108187024D01*
X178892077Y-108264045D01*
X178929231Y-108353743D01*
X178943000Y-108458328D01*
X178943000Y-109981672D01*
X178929231Y-110086257D01*
X178892077Y-110175955D01*
X178832976Y-110252976D01*
X178755955Y-110312077D01*
X178666257Y-110349231D01*
X178561672Y-110363000D01*
X172339328Y-110363000D01*
X172234743Y-110349231D01*
X172145045Y-110312077D01*
X172068024Y-110252976D01*
X172008923Y-110175955D01*
X171971769Y-110086257D01*
X171958000Y-109981672D01*
X171958000Y-107815000D01*
X171956914Y-107798423D01*
X171939877Y-107669013D01*
X171931296Y-107636989D01*
X171881346Y-107516399D01*
X171864768Y-107487687D01*
X171785308Y-107384134D01*
X171761866Y-107360692D01*
X171658313Y-107281232D01*
X171629601Y-107264654D01*
X171509011Y-107214704D01*
X171476987Y-107206123D01*
X171347577Y-107189086D01*
X171331000Y-107188000D01*
X166743000Y-107188000D01*
X166726423Y-107189086D01*
X166597013Y-107206123D01*
X166564989Y-107214704D01*
X166444399Y-107264654D01*
X166415687Y-107281232D01*
X166312134Y-107360692D01*
X166288692Y-107384134D01*
X166209232Y-107487687D01*
X166192654Y-107516399D01*
X166142704Y-107636989D01*
X166134123Y-107669013D01*
X166117086Y-107798423D01*
X166116000Y-107815000D01*
X166116000Y-109854672D01*
X166102231Y-109959257D01*
X166065077Y-110048955D01*
X166005976Y-110125976D01*
X165928955Y-110185077D01*
X165839257Y-110222231D01*
X165734672Y-110236000D01*
X164592328Y-110236000D01*
X164487743Y-110222231D01*
X164398045Y-110185077D01*
X164321024Y-110125976D01*
X164261923Y-110048955D01*
X164224769Y-109959257D01*
X164211000Y-109854672D01*
X164211000Y-105791328D01*
X164224769Y-105686743D01*
X164261923Y-105597045D01*
X164321024Y-105520024D01*
X164398045Y-105460923D01*
X164487743Y-105423769D01*
X164592328Y-105410000D01*
X166251000Y-105410000D01*
X166267577Y-105408914D01*
X166396987Y-105391877D01*
X166429011Y-105383296D01*
X166549601Y-105333346D01*
X166578313Y-105316768D01*
X166681866Y-105237308D01*
X166705308Y-105213866D01*
X166784768Y-105110313D01*
X166801346Y-105081601D01*
X166851296Y-104961011D01*
X166859877Y-104928987D01*
X166876914Y-104799577D01*
X166878000Y-104783000D01*
X166878000Y-102489328D01*
X166891769Y-102384743D01*
X166928923Y-102295045D01*
X166988024Y-102218024D01*
X167065045Y-102158923D01*
X167154743Y-102121769D01*
X167259328Y-102108000D01*
X168660452Y-102108000D01*
X168665000Y-102108448D01*
%TA.AperFunction,Conductor*%
D17*
G36*
X168665000Y-102108448D02*
G01*
X168669548Y-102108000D01*
X170433672Y-102108000D01*
X170538257Y-102121769D01*
X170627955Y-102158923D01*
X170704976Y-102218024D01*
X170764077Y-102295045D01*
X170801231Y-102384743D01*
X170815000Y-102489328D01*
X170815000Y-104783000D01*
X170816086Y-104799577D01*
X170833123Y-104928987D01*
X170841704Y-104961011D01*
X170891654Y-105081601D01*
X170908232Y-105110313D01*
X170987692Y-105213866D01*
X171011134Y-105237308D01*
X171114687Y-105316768D01*
X171143399Y-105333346D01*
X171263989Y-105383296D01*
X171296013Y-105391877D01*
X171425423Y-105408914D01*
X171442000Y-105410000D01*
X173100672Y-105410000D01*
X173205257Y-105423769D01*
X173294955Y-105460923D01*
X173371976Y-105520024D01*
X173431077Y-105597045D01*
X173468231Y-105686743D01*
X173482000Y-105791328D01*
X173482000Y-107450000D01*
X173483086Y-107466577D01*
X173500123Y-107595987D01*
X173508704Y-107628011D01*
X173558654Y-107748601D01*
X173575232Y-107777313D01*
X173654692Y-107880866D01*
X173678134Y-107904308D01*
X173781687Y-107983768D01*
X173810399Y-108000346D01*
X173930989Y-108050296D01*
X173963013Y-108058877D01*
X174092423Y-108075914D01*
X174109000Y-108077000D01*
X178561672Y-108077000D01*
X178666257Y-108090769D01*
X178755955Y-108127923D01*
X178832976Y-108187024D01*
X178892077Y-108264045D01*
X178929231Y-108353743D01*
X178943000Y-108458328D01*
X178943000Y-109981672D01*
X178929231Y-110086257D01*
X178892077Y-110175955D01*
X178832976Y-110252976D01*
X178755955Y-110312077D01*
X178666257Y-110349231D01*
X178561672Y-110363000D01*
X172339328Y-110363000D01*
X172234743Y-110349231D01*
X172145045Y-110312077D01*
X172068024Y-110252976D01*
X172008923Y-110175955D01*
X171971769Y-110086257D01*
X171958000Y-109981672D01*
X171958000Y-107815000D01*
X171956914Y-107798423D01*
X171939877Y-107669013D01*
X171931296Y-107636989D01*
X171881346Y-107516399D01*
X171864768Y-107487687D01*
X171785308Y-107384134D01*
X171761866Y-107360692D01*
X171658313Y-107281232D01*
X171629601Y-107264654D01*
X171509011Y-107214704D01*
X171476987Y-107206123D01*
X171347577Y-107189086D01*
X171331000Y-107188000D01*
X166743000Y-107188000D01*
X166726423Y-107189086D01*
X166597013Y-107206123D01*
X166564989Y-107214704D01*
X166444399Y-107264654D01*
X166415687Y-107281232D01*
X166312134Y-107360692D01*
X166288692Y-107384134D01*
X166209232Y-107487687D01*
X166192654Y-107516399D01*
X166142704Y-107636989D01*
X166134123Y-107669013D01*
X166117086Y-107798423D01*
X166116000Y-107815000D01*
X166116000Y-109854672D01*
X166102231Y-109959257D01*
X166065077Y-110048955D01*
X166005976Y-110125976D01*
X165928955Y-110185077D01*
X165839257Y-110222231D01*
X165734672Y-110236000D01*
X164592328Y-110236000D01*
X164487743Y-110222231D01*
X164398045Y-110185077D01*
X164321024Y-110125976D01*
X164261923Y-110048955D01*
X164224769Y-109959257D01*
X164211000Y-109854672D01*
X164211000Y-105791328D01*
X164224769Y-105686743D01*
X164261923Y-105597045D01*
X164321024Y-105520024D01*
X164398045Y-105460923D01*
X164487743Y-105423769D01*
X164592328Y-105410000D01*
X166251000Y-105410000D01*
X166267577Y-105408914D01*
X166396987Y-105391877D01*
X166429011Y-105383296D01*
X166549601Y-105333346D01*
X166578313Y-105316768D01*
X166681866Y-105237308D01*
X166705308Y-105213866D01*
X166784768Y-105110313D01*
X166801346Y-105081601D01*
X166851296Y-104961011D01*
X166859877Y-104928987D01*
X166876914Y-104799577D01*
X166878000Y-104783000D01*
X166878000Y-102489328D01*
X166891769Y-102384743D01*
X166928923Y-102295045D01*
X166988024Y-102218024D01*
X167065045Y-102158923D01*
X167154743Y-102121769D01*
X167259328Y-102108000D01*
X168660452Y-102108000D01*
X168665000Y-102108448D01*
G37*
%TD.AperFunction*%
%TD*%
M02*
