%TF.GenerationSoftware,KiCad,Pcbnew,(5.1.9)-1*%
%TF.CreationDate,2021-04-08T22:41:19+01:00*%
%TF.ProjectId,FF OSD Adapter,4646204f-5344-4204-9164-61707465722e,rev?*%
%TF.SameCoordinates,Original*%
%TF.FileFunction,Copper,L1,Top*%
%TF.FilePolarity,Positive*%
%FSLAX46Y46*%
G04 Gerber Fmt 4.6, Leading zero omitted, Abs format (unit mm)*
G04 Created by KiCad (PCBNEW (5.1.9)-1) date 2021-04-08 22:41:19*
%MOMM*%
%LPD*%
G01*
G04 APERTURE LIST*
%TA.AperFunction,ComponentPad*%
%ADD10O,1.700000X1.700000*%
%TD*%
%TA.AperFunction,ComponentPad*%
%ADD11R,1.700000X1.700000*%
%TD*%
%TA.AperFunction,ComponentPad*%
%ADD12C,1.700000*%
%TD*%
%TA.AperFunction,ViaPad*%
%ADD13C,0.800000*%
%TD*%
%TA.AperFunction,Conductor*%
%ADD14C,0.250000*%
%TD*%
%TA.AperFunction,Conductor*%
%ADD15C,0.254000*%
%TD*%
%TA.AperFunction,Conductor*%
%ADD16C,0.100000*%
%TD*%
G04 APERTURE END LIST*
D10*
%TO.P,CN4,4*%
%TO.N,SCL*%
X177800000Y-104140000D03*
%TO.P,CN4,3*%
%TO.N,SDA*%
X177800000Y-106680000D03*
%TO.P,CN4,2*%
%TO.N,+3V3*%
X177800000Y-109220000D03*
D11*
%TO.P,CN4,1*%
%TO.N,GND*%
X177800000Y-111760000D03*
%TD*%
D10*
%TO.P,CN2,9*%
%TO.N,GND*%
X175260000Y-111760000D03*
%TO.P,CN2,8*%
%TO.N,+3V3*%
X175260000Y-109220000D03*
%TO.P,CN2,7*%
%TO.N,SDA*%
X175260000Y-106680000D03*
%TO.P,CN2,6*%
%TO.N,SCL*%
X175260000Y-104140000D03*
%TO.P,CN2,5*%
%TO.N,KB_CLOCK*%
X175260000Y-101600000D03*
%TO.P,CN2,4*%
%TO.N,KB_DATA*%
X175260000Y-99060000D03*
%TO.P,CN2,3*%
%TO.N,SYNC*%
X175260000Y-96520000D03*
%TO.P,CN2,2*%
%TO.N,DISPLAY_OUTPUT_BUFFERED*%
X175260000Y-93980000D03*
D11*
%TO.P,CN2,1*%
%TO.N,Net-(CN2-Pad1)*%
X175260000Y-91440000D03*
%TD*%
D10*
%TO.P,CN3,4*%
%TO.N,GND*%
X139700000Y-105537000D03*
%TO.P,CN3,3*%
%TO.N,+5V*%
X139700000Y-102997000D03*
%TO.P,CN3,2*%
%TO.N,TX*%
X139700000Y-100457000D03*
D11*
%TO.P,CN3,1*%
%TO.N,RX*%
X139700000Y-97917000D03*
%TD*%
D10*
%TO.P,JP2,3*%
%TO.N,C_H_SYNC*%
X162560000Y-104140000D03*
%TO.P,JP2,2*%
%TO.N,SYNC*%
X162560000Y-101600000D03*
D11*
%TO.P,JP2,1*%
%TO.N,V_SYNC*%
X162560000Y-99060000D03*
%TD*%
D12*
%TO.P,U1,40*%
%TO.N,GND*%
X170180000Y-109220000D03*
D11*
%TO.P,U1,1*%
%TO.N,Net-(U1-Pad1)*%
X170180000Y-93980000D03*
D12*
%TO.P,U1,39*%
%TO.N,GND*%
X167640000Y-109220000D03*
%TO.P,U1,2*%
%TO.N,Net-(U1-Pad2)*%
X167640000Y-93980000D03*
%TO.P,U1,38*%
%TO.N,+3V3*%
X165100000Y-109220000D03*
%TO.P,U1,3*%
%TO.N,V_SYNC*%
X165100000Y-93980000D03*
%TO.P,U1,37*%
%TO.N,Net-(U1-Pad37)*%
X162560000Y-109220000D03*
%TO.P,U1,4*%
%TO.N,DISPLAY_OUTPUT*%
X162560000Y-93980000D03*
%TO.P,U1,36*%
%TO.N,Net-(U1-Pad36)*%
X160020000Y-109220000D03*
%TO.P,U1,5*%
%TO.N,C_H_SYNC*%
X160020000Y-93980000D03*
%TO.P,U1,35*%
%TO.N,Net-(U1-Pad35)*%
X157480000Y-109220000D03*
%TO.P,U1,6*%
%TO.N,TX*%
X157480000Y-93980000D03*
%TO.P,U1,34*%
%TO.N,Net-(U1-Pad34)*%
X154940000Y-109220000D03*
%TO.P,U1,7*%
%TO.N,RX*%
X154940000Y-93980000D03*
%TO.P,U1,33*%
%TO.N,Net-(U1-Pad33)*%
X152400000Y-109220000D03*
%TO.P,U1,8*%
%TO.N,Net-(U1-Pad8)*%
X152400000Y-93980000D03*
%TO.P,U1,32*%
%TO.N,Net-(U1-Pad32)*%
X149860000Y-109220000D03*
%TO.P,U1,9*%
%TO.N,Net-(U1-Pad9)*%
X149860000Y-93980000D03*
%TO.P,U1,31*%
%TO.N,Net-(U1-Pad31)*%
X147320000Y-109220000D03*
%TO.P,U1,10*%
%TO.N,DISPLAY_ENABLE*%
X147320000Y-93980000D03*
%TO.P,U1,30*%
%TO.N,Net-(U1-Pad30)*%
X144780000Y-109220000D03*
%TO.P,U1,11*%
%TO.N,KB_DATA*%
X144780000Y-93980000D03*
%TO.P,U1,29*%
%TO.N,Net-(U1-Pad29)*%
X142240000Y-109220000D03*
%TO.P,U1,12*%
%TO.N,KB_CLOCK*%
X142240000Y-93980000D03*
%TO.P,U1,28*%
%TO.N,Net-(U1-Pad28)*%
X139700000Y-109220000D03*
%TO.P,U1,13*%
%TO.N,Net-(U1-Pad13)*%
X139700000Y-93980000D03*
%TO.P,U1,27*%
%TO.N,Net-(U1-Pad27)*%
X137160000Y-109220000D03*
%TO.P,U1,14*%
%TO.N,SCL*%
X137160000Y-93980000D03*
%TO.P,U1,26*%
%TO.N,A1*%
X134620000Y-109220000D03*
%TO.P,U1,15*%
%TO.N,SDA*%
X134620000Y-93980000D03*
%TO.P,U1,25*%
%TO.N,A0*%
X132080000Y-109220000D03*
%TO.P,U1,16*%
%TO.N,Net-(U1-Pad16)*%
X132080000Y-93980000D03*
%TO.P,U1,24*%
%TO.N,Net-(U1-Pad24)*%
X129540000Y-109220000D03*
%TO.P,U1,17*%
%TO.N,Net-(U1-Pad17)*%
X129540000Y-93980000D03*
%TO.P,U1,23*%
%TO.N,Net-(U1-Pad23)*%
X127000000Y-109220000D03*
%TO.P,U1,18*%
%TO.N,+5V*%
X127000000Y-93980000D03*
%TO.P,U1,22*%
%TO.N,Net-(U1-Pad22)*%
X124460000Y-109220000D03*
%TO.P,U1,19*%
%TO.N,GND*%
X124460000Y-93980000D03*
%TO.P,U1,21*%
%TO.N,Net-(U1-Pad21)*%
X121920000Y-109220000D03*
%TO.P,U1,20*%
%TO.N,Net-(U1-Pad20)*%
X121920000Y-93980000D03*
%TD*%
D10*
%TO.P,CN1,6*%
%TO.N,GND*%
X116840000Y-104140000D03*
%TO.P,CN1,5*%
%TO.N,+5V*%
X116840000Y-101600000D03*
%TO.P,CN1,4*%
%TO.N,DISPLAY_OUTPUT_BUFFERED*%
X116840000Y-99060000D03*
%TO.P,CN1,3*%
%TO.N,DISPLAY_ENABLE*%
X116840000Y-96520000D03*
%TO.P,CN1,2*%
%TO.N,DISPLAY_OUTPUT*%
X116840000Y-93980000D03*
D11*
%TO.P,CN1,1*%
%TO.N,SYNC*%
X116840000Y-91440000D03*
%TD*%
D13*
%TO.N,GND*%
X172085000Y-104140000D03*
X164465000Y-99060000D03*
%TD*%
D14*
%TO.N,V_SYNC*%
X165100000Y-96520000D02*
X162560000Y-99060000D01*
X165100000Y-93980000D02*
X165100000Y-96520000D01*
%TO.N,C_H_SYNC*%
X160020000Y-101600000D02*
X162560000Y-104140000D01*
X160020000Y-93980000D02*
X160020000Y-101600000D01*
%TO.N,DISPLAY_ENABLE*%
X121539000Y-91821000D02*
X116840000Y-96520000D01*
X145161000Y-91821000D02*
X121539000Y-91821000D01*
X147320000Y-93980000D02*
X145161000Y-91821000D01*
%TO.N,DISPLAY_OUTPUT_BUFFERED*%
X116275999Y-95344999D02*
X115664999Y-95955999D01*
X175260000Y-93980000D02*
X172650989Y-91370989D01*
X115664999Y-97884999D02*
X116840000Y-99060000D01*
X172650989Y-91370989D02*
X121352600Y-91370989D01*
X121352600Y-91370989D02*
X117378591Y-95344999D01*
X117378591Y-95344999D02*
X116275999Y-95344999D01*
X115664999Y-95955999D02*
X115664999Y-97884999D01*
%TO.N,TX*%
X151003000Y-100457000D02*
X157480000Y-93980000D01*
X139700000Y-100457000D02*
X151003000Y-100457000D01*
%TO.N,RX*%
X151003000Y-97917000D02*
X154940000Y-93980000D01*
X139700000Y-97917000D02*
X151003000Y-97917000D01*
%TO.N,SYNC*%
X172720000Y-99060000D02*
X175260000Y-96520000D01*
X166243000Y-99060000D02*
X172720000Y-99060000D01*
X163703000Y-101600000D02*
X166243000Y-99060000D01*
X162560000Y-101600000D02*
X163703000Y-101600000D01*
%TD*%
D15*
%TO.N,GND*%
X184317441Y-89959364D02*
X184478501Y-90007992D01*
X184627054Y-90086979D01*
X184757430Y-90193310D01*
X184864674Y-90322946D01*
X184944695Y-90470942D01*
X184994446Y-90631661D01*
X185014000Y-90817707D01*
X185014001Y-112375136D01*
X184995636Y-112562441D01*
X184947008Y-112723503D01*
X184868023Y-112872051D01*
X184761689Y-113002430D01*
X184632054Y-113109674D01*
X184484058Y-113189695D01*
X184323339Y-113239446D01*
X184137293Y-113259000D01*
X107969854Y-113259000D01*
X107782559Y-113240636D01*
X107621497Y-113192008D01*
X107472949Y-113113023D01*
X107342570Y-113006689D01*
X107235326Y-112877054D01*
X107155305Y-112729058D01*
X107105554Y-112568339D01*
X107086000Y-112382293D01*
X107086000Y-112076980D01*
X174070511Y-112076980D01*
X174094866Y-112157288D01*
X174194761Y-112376961D01*
X174335592Y-112572924D01*
X174511948Y-112737647D01*
X174717051Y-112864799D01*
X174943019Y-112949495D01*
X175133000Y-112889187D01*
X175133000Y-111887000D01*
X175387000Y-111887000D01*
X175387000Y-112889187D01*
X175576981Y-112949495D01*
X175802949Y-112864799D01*
X176008052Y-112737647D01*
X176144713Y-112610000D01*
X176567157Y-112610000D01*
X176574513Y-112684689D01*
X176596299Y-112756508D01*
X176631678Y-112822696D01*
X176679289Y-112880711D01*
X176737304Y-112928322D01*
X176803492Y-112963701D01*
X176875311Y-112985487D01*
X176950000Y-112992843D01*
X177577750Y-112991000D01*
X177673000Y-112895750D01*
X177673000Y-111887000D01*
X177927000Y-111887000D01*
X177927000Y-112895750D01*
X178022250Y-112991000D01*
X178650000Y-112992843D01*
X178724689Y-112985487D01*
X178796508Y-112963701D01*
X178862696Y-112928322D01*
X178920711Y-112880711D01*
X178968322Y-112822696D01*
X179003701Y-112756508D01*
X179025487Y-112684689D01*
X179032843Y-112610000D01*
X179031000Y-111982250D01*
X178935750Y-111887000D01*
X177927000Y-111887000D01*
X177673000Y-111887000D01*
X176664250Y-111887000D01*
X176569000Y-111982250D01*
X176567157Y-112610000D01*
X176144713Y-112610000D01*
X176184408Y-112572924D01*
X176325239Y-112376961D01*
X176425134Y-112157288D01*
X176449489Y-112076980D01*
X176388627Y-111887000D01*
X175387000Y-111887000D01*
X175133000Y-111887000D01*
X174131373Y-111887000D01*
X174070511Y-112076980D01*
X107086000Y-112076980D01*
X107086000Y-111443020D01*
X174070511Y-111443020D01*
X174131373Y-111633000D01*
X175133000Y-111633000D01*
X175133000Y-110630813D01*
X175387000Y-110630813D01*
X175387000Y-111633000D01*
X176388627Y-111633000D01*
X176449489Y-111443020D01*
X176425134Y-111362712D01*
X176325239Y-111143039D01*
X176184408Y-110947076D01*
X176144714Y-110910000D01*
X176567157Y-110910000D01*
X176569000Y-111537750D01*
X176664250Y-111633000D01*
X177673000Y-111633000D01*
X177673000Y-110624250D01*
X177927000Y-110624250D01*
X177927000Y-111633000D01*
X178935750Y-111633000D01*
X179031000Y-111537750D01*
X179032843Y-110910000D01*
X179025487Y-110835311D01*
X179003701Y-110763492D01*
X178968322Y-110697304D01*
X178920711Y-110639289D01*
X178862696Y-110591678D01*
X178796508Y-110556299D01*
X178724689Y-110534513D01*
X178650000Y-110527157D01*
X178022250Y-110529000D01*
X177927000Y-110624250D01*
X177673000Y-110624250D01*
X177577750Y-110529000D01*
X176950000Y-110527157D01*
X176875311Y-110534513D01*
X176803492Y-110556299D01*
X176737304Y-110591678D01*
X176679289Y-110639289D01*
X176631678Y-110697304D01*
X176596299Y-110763492D01*
X176574513Y-110835311D01*
X176567157Y-110910000D01*
X176144714Y-110910000D01*
X176008052Y-110782353D01*
X175802949Y-110655201D01*
X175576981Y-110570505D01*
X175387000Y-110630813D01*
X175133000Y-110630813D01*
X174943019Y-110570505D01*
X174717051Y-110655201D01*
X174511948Y-110782353D01*
X174335592Y-110947076D01*
X174194761Y-111143039D01*
X174094866Y-111362712D01*
X174070511Y-111443020D01*
X107086000Y-111443020D01*
X107086000Y-109098757D01*
X120689000Y-109098757D01*
X120689000Y-109341243D01*
X120736307Y-109579069D01*
X120829102Y-109803097D01*
X120963820Y-110004717D01*
X121135283Y-110176180D01*
X121336903Y-110310898D01*
X121560931Y-110403693D01*
X121798757Y-110451000D01*
X122041243Y-110451000D01*
X122279069Y-110403693D01*
X122503097Y-110310898D01*
X122704717Y-110176180D01*
X122876180Y-110004717D01*
X123010898Y-109803097D01*
X123103693Y-109579069D01*
X123151000Y-109341243D01*
X123151000Y-109098757D01*
X123229000Y-109098757D01*
X123229000Y-109341243D01*
X123276307Y-109579069D01*
X123369102Y-109803097D01*
X123503820Y-110004717D01*
X123675283Y-110176180D01*
X123876903Y-110310898D01*
X124100931Y-110403693D01*
X124338757Y-110451000D01*
X124581243Y-110451000D01*
X124819069Y-110403693D01*
X125043097Y-110310898D01*
X125244717Y-110176180D01*
X125416180Y-110004717D01*
X125550898Y-109803097D01*
X125643693Y-109579069D01*
X125691000Y-109341243D01*
X125691000Y-109098757D01*
X125769000Y-109098757D01*
X125769000Y-109341243D01*
X125816307Y-109579069D01*
X125909102Y-109803097D01*
X126043820Y-110004717D01*
X126215283Y-110176180D01*
X126416903Y-110310898D01*
X126640931Y-110403693D01*
X126878757Y-110451000D01*
X127121243Y-110451000D01*
X127359069Y-110403693D01*
X127583097Y-110310898D01*
X127784717Y-110176180D01*
X127956180Y-110004717D01*
X128090898Y-109803097D01*
X128183693Y-109579069D01*
X128231000Y-109341243D01*
X128231000Y-109098757D01*
X128309000Y-109098757D01*
X128309000Y-109341243D01*
X128356307Y-109579069D01*
X128449102Y-109803097D01*
X128583820Y-110004717D01*
X128755283Y-110176180D01*
X128956903Y-110310898D01*
X129180931Y-110403693D01*
X129418757Y-110451000D01*
X129661243Y-110451000D01*
X129899069Y-110403693D01*
X130123097Y-110310898D01*
X130324717Y-110176180D01*
X130496180Y-110004717D01*
X130630898Y-109803097D01*
X130723693Y-109579069D01*
X130771000Y-109341243D01*
X130771000Y-109098757D01*
X130849000Y-109098757D01*
X130849000Y-109341243D01*
X130896307Y-109579069D01*
X130989102Y-109803097D01*
X131123820Y-110004717D01*
X131295283Y-110176180D01*
X131496903Y-110310898D01*
X131720931Y-110403693D01*
X131958757Y-110451000D01*
X132201243Y-110451000D01*
X132439069Y-110403693D01*
X132663097Y-110310898D01*
X132864717Y-110176180D01*
X133036180Y-110004717D01*
X133170898Y-109803097D01*
X133263693Y-109579069D01*
X133311000Y-109341243D01*
X133311000Y-109098757D01*
X133389000Y-109098757D01*
X133389000Y-109341243D01*
X133436307Y-109579069D01*
X133529102Y-109803097D01*
X133663820Y-110004717D01*
X133835283Y-110176180D01*
X134036903Y-110310898D01*
X134260931Y-110403693D01*
X134498757Y-110451000D01*
X134741243Y-110451000D01*
X134979069Y-110403693D01*
X135203097Y-110310898D01*
X135404717Y-110176180D01*
X135576180Y-110004717D01*
X135710898Y-109803097D01*
X135803693Y-109579069D01*
X135851000Y-109341243D01*
X135851000Y-109098757D01*
X135929000Y-109098757D01*
X135929000Y-109341243D01*
X135976307Y-109579069D01*
X136069102Y-109803097D01*
X136203820Y-110004717D01*
X136375283Y-110176180D01*
X136576903Y-110310898D01*
X136800931Y-110403693D01*
X137038757Y-110451000D01*
X137281243Y-110451000D01*
X137519069Y-110403693D01*
X137743097Y-110310898D01*
X137944717Y-110176180D01*
X138116180Y-110004717D01*
X138250898Y-109803097D01*
X138343693Y-109579069D01*
X138391000Y-109341243D01*
X138391000Y-109098757D01*
X138469000Y-109098757D01*
X138469000Y-109341243D01*
X138516307Y-109579069D01*
X138609102Y-109803097D01*
X138743820Y-110004717D01*
X138915283Y-110176180D01*
X139116903Y-110310898D01*
X139340931Y-110403693D01*
X139578757Y-110451000D01*
X139821243Y-110451000D01*
X140059069Y-110403693D01*
X140283097Y-110310898D01*
X140484717Y-110176180D01*
X140656180Y-110004717D01*
X140790898Y-109803097D01*
X140883693Y-109579069D01*
X140931000Y-109341243D01*
X140931000Y-109098757D01*
X141009000Y-109098757D01*
X141009000Y-109341243D01*
X141056307Y-109579069D01*
X141149102Y-109803097D01*
X141283820Y-110004717D01*
X141455283Y-110176180D01*
X141656903Y-110310898D01*
X141880931Y-110403693D01*
X142118757Y-110451000D01*
X142361243Y-110451000D01*
X142599069Y-110403693D01*
X142823097Y-110310898D01*
X143024717Y-110176180D01*
X143196180Y-110004717D01*
X143330898Y-109803097D01*
X143423693Y-109579069D01*
X143471000Y-109341243D01*
X143471000Y-109098757D01*
X143549000Y-109098757D01*
X143549000Y-109341243D01*
X143596307Y-109579069D01*
X143689102Y-109803097D01*
X143823820Y-110004717D01*
X143995283Y-110176180D01*
X144196903Y-110310898D01*
X144420931Y-110403693D01*
X144658757Y-110451000D01*
X144901243Y-110451000D01*
X145139069Y-110403693D01*
X145363097Y-110310898D01*
X145564717Y-110176180D01*
X145736180Y-110004717D01*
X145870898Y-109803097D01*
X145963693Y-109579069D01*
X146011000Y-109341243D01*
X146011000Y-109098757D01*
X146089000Y-109098757D01*
X146089000Y-109341243D01*
X146136307Y-109579069D01*
X146229102Y-109803097D01*
X146363820Y-110004717D01*
X146535283Y-110176180D01*
X146736903Y-110310898D01*
X146960931Y-110403693D01*
X147198757Y-110451000D01*
X147441243Y-110451000D01*
X147679069Y-110403693D01*
X147903097Y-110310898D01*
X148104717Y-110176180D01*
X148276180Y-110004717D01*
X148410898Y-109803097D01*
X148503693Y-109579069D01*
X148551000Y-109341243D01*
X148551000Y-109098757D01*
X148629000Y-109098757D01*
X148629000Y-109341243D01*
X148676307Y-109579069D01*
X148769102Y-109803097D01*
X148903820Y-110004717D01*
X149075283Y-110176180D01*
X149276903Y-110310898D01*
X149500931Y-110403693D01*
X149738757Y-110451000D01*
X149981243Y-110451000D01*
X150219069Y-110403693D01*
X150443097Y-110310898D01*
X150644717Y-110176180D01*
X150816180Y-110004717D01*
X150950898Y-109803097D01*
X151043693Y-109579069D01*
X151091000Y-109341243D01*
X151091000Y-109098757D01*
X151169000Y-109098757D01*
X151169000Y-109341243D01*
X151216307Y-109579069D01*
X151309102Y-109803097D01*
X151443820Y-110004717D01*
X151615283Y-110176180D01*
X151816903Y-110310898D01*
X152040931Y-110403693D01*
X152278757Y-110451000D01*
X152521243Y-110451000D01*
X152759069Y-110403693D01*
X152983097Y-110310898D01*
X153184717Y-110176180D01*
X153356180Y-110004717D01*
X153490898Y-109803097D01*
X153583693Y-109579069D01*
X153631000Y-109341243D01*
X153631000Y-109098757D01*
X153709000Y-109098757D01*
X153709000Y-109341243D01*
X153756307Y-109579069D01*
X153849102Y-109803097D01*
X153983820Y-110004717D01*
X154155283Y-110176180D01*
X154356903Y-110310898D01*
X154580931Y-110403693D01*
X154818757Y-110451000D01*
X155061243Y-110451000D01*
X155299069Y-110403693D01*
X155523097Y-110310898D01*
X155724717Y-110176180D01*
X155896180Y-110004717D01*
X156030898Y-109803097D01*
X156123693Y-109579069D01*
X156171000Y-109341243D01*
X156171000Y-109098757D01*
X156249000Y-109098757D01*
X156249000Y-109341243D01*
X156296307Y-109579069D01*
X156389102Y-109803097D01*
X156523820Y-110004717D01*
X156695283Y-110176180D01*
X156896903Y-110310898D01*
X157120931Y-110403693D01*
X157358757Y-110451000D01*
X157601243Y-110451000D01*
X157839069Y-110403693D01*
X158063097Y-110310898D01*
X158264717Y-110176180D01*
X158436180Y-110004717D01*
X158570898Y-109803097D01*
X158663693Y-109579069D01*
X158711000Y-109341243D01*
X158711000Y-109098757D01*
X158789000Y-109098757D01*
X158789000Y-109341243D01*
X158836307Y-109579069D01*
X158929102Y-109803097D01*
X159063820Y-110004717D01*
X159235283Y-110176180D01*
X159436903Y-110310898D01*
X159660931Y-110403693D01*
X159898757Y-110451000D01*
X160141243Y-110451000D01*
X160379069Y-110403693D01*
X160603097Y-110310898D01*
X160804717Y-110176180D01*
X160976180Y-110004717D01*
X161110898Y-109803097D01*
X161203693Y-109579069D01*
X161251000Y-109341243D01*
X161251000Y-109098757D01*
X161329000Y-109098757D01*
X161329000Y-109341243D01*
X161376307Y-109579069D01*
X161469102Y-109803097D01*
X161603820Y-110004717D01*
X161775283Y-110176180D01*
X161976903Y-110310898D01*
X162200931Y-110403693D01*
X162438757Y-110451000D01*
X162681243Y-110451000D01*
X162919069Y-110403693D01*
X163143097Y-110310898D01*
X163344717Y-110176180D01*
X163516180Y-110004717D01*
X163650898Y-109803097D01*
X163743693Y-109579069D01*
X163791000Y-109341243D01*
X163791000Y-109098757D01*
X163869000Y-109098757D01*
X163869000Y-109341243D01*
X163916307Y-109579069D01*
X164009102Y-109803097D01*
X164143820Y-110004717D01*
X164315283Y-110176180D01*
X164516903Y-110310898D01*
X164740931Y-110403693D01*
X164978757Y-110451000D01*
X165221243Y-110451000D01*
X165459069Y-110403693D01*
X165683097Y-110310898D01*
X165884717Y-110176180D01*
X165948797Y-110112100D01*
X166927505Y-110112100D01*
X167019523Y-110290078D01*
X167240207Y-110390566D01*
X167476255Y-110446069D01*
X167718596Y-110454456D01*
X167957917Y-110415402D01*
X168185020Y-110330411D01*
X168260477Y-110290078D01*
X168352495Y-110112100D01*
X169467505Y-110112100D01*
X169559523Y-110290078D01*
X169780207Y-110390566D01*
X170016255Y-110446069D01*
X170258596Y-110454456D01*
X170497917Y-110415402D01*
X170725020Y-110330411D01*
X170800477Y-110290078D01*
X170892495Y-110112100D01*
X170180000Y-109399605D01*
X169467505Y-110112100D01*
X168352495Y-110112100D01*
X167640000Y-109399605D01*
X166927505Y-110112100D01*
X165948797Y-110112100D01*
X166056180Y-110004717D01*
X166190898Y-109803097D01*
X166283693Y-109579069D01*
X166331000Y-109341243D01*
X166331000Y-109298596D01*
X166405544Y-109298596D01*
X166444598Y-109537917D01*
X166529589Y-109765020D01*
X166569922Y-109840477D01*
X166747900Y-109932495D01*
X167460395Y-109220000D01*
X167819605Y-109220000D01*
X168532100Y-109932495D01*
X168710078Y-109840477D01*
X168810566Y-109619793D01*
X168866069Y-109383745D01*
X168869015Y-109298596D01*
X168945544Y-109298596D01*
X168984598Y-109537917D01*
X169069589Y-109765020D01*
X169109922Y-109840477D01*
X169287900Y-109932495D01*
X170000395Y-109220000D01*
X170359605Y-109220000D01*
X171072100Y-109932495D01*
X171250078Y-109840477D01*
X171350566Y-109619793D01*
X171406069Y-109383745D01*
X171414456Y-109141404D01*
X171407497Y-109098757D01*
X174029000Y-109098757D01*
X174029000Y-109341243D01*
X174076307Y-109579069D01*
X174169102Y-109803097D01*
X174303820Y-110004717D01*
X174475283Y-110176180D01*
X174676903Y-110310898D01*
X174900931Y-110403693D01*
X175138757Y-110451000D01*
X175381243Y-110451000D01*
X175619069Y-110403693D01*
X175843097Y-110310898D01*
X176044717Y-110176180D01*
X176216180Y-110004717D01*
X176350898Y-109803097D01*
X176443693Y-109579069D01*
X176491000Y-109341243D01*
X176491000Y-109098757D01*
X176569000Y-109098757D01*
X176569000Y-109341243D01*
X176616307Y-109579069D01*
X176709102Y-109803097D01*
X176843820Y-110004717D01*
X177015283Y-110176180D01*
X177216903Y-110310898D01*
X177440931Y-110403693D01*
X177678757Y-110451000D01*
X177921243Y-110451000D01*
X178159069Y-110403693D01*
X178383097Y-110310898D01*
X178584717Y-110176180D01*
X178756180Y-110004717D01*
X178890898Y-109803097D01*
X178983693Y-109579069D01*
X179031000Y-109341243D01*
X179031000Y-109098757D01*
X178983693Y-108860931D01*
X178890898Y-108636903D01*
X178756180Y-108435283D01*
X178584717Y-108263820D01*
X178383097Y-108129102D01*
X178159069Y-108036307D01*
X177921243Y-107989000D01*
X177678757Y-107989000D01*
X177440931Y-108036307D01*
X177216903Y-108129102D01*
X177015283Y-108263820D01*
X176843820Y-108435283D01*
X176709102Y-108636903D01*
X176616307Y-108860931D01*
X176569000Y-109098757D01*
X176491000Y-109098757D01*
X176443693Y-108860931D01*
X176350898Y-108636903D01*
X176216180Y-108435283D01*
X176044717Y-108263820D01*
X175843097Y-108129102D01*
X175619069Y-108036307D01*
X175381243Y-107989000D01*
X175138757Y-107989000D01*
X174900931Y-108036307D01*
X174676903Y-108129102D01*
X174475283Y-108263820D01*
X174303820Y-108435283D01*
X174169102Y-108636903D01*
X174076307Y-108860931D01*
X174029000Y-109098757D01*
X171407497Y-109098757D01*
X171375402Y-108902083D01*
X171290411Y-108674980D01*
X171250078Y-108599523D01*
X171072100Y-108507505D01*
X170359605Y-109220000D01*
X170000395Y-109220000D01*
X169287900Y-108507505D01*
X169109922Y-108599523D01*
X169009434Y-108820207D01*
X168953931Y-109056255D01*
X168945544Y-109298596D01*
X168869015Y-109298596D01*
X168874456Y-109141404D01*
X168835402Y-108902083D01*
X168750411Y-108674980D01*
X168710078Y-108599523D01*
X168532100Y-108507505D01*
X167819605Y-109220000D01*
X167460395Y-109220000D01*
X166747900Y-108507505D01*
X166569922Y-108599523D01*
X166469434Y-108820207D01*
X166413931Y-109056255D01*
X166405544Y-109298596D01*
X166331000Y-109298596D01*
X166331000Y-109098757D01*
X166283693Y-108860931D01*
X166190898Y-108636903D01*
X166056180Y-108435283D01*
X165948797Y-108327900D01*
X166927505Y-108327900D01*
X167640000Y-109040395D01*
X168352495Y-108327900D01*
X169467505Y-108327900D01*
X170180000Y-109040395D01*
X170892495Y-108327900D01*
X170800477Y-108149922D01*
X170579793Y-108049434D01*
X170343745Y-107993931D01*
X170101404Y-107985544D01*
X169862083Y-108024598D01*
X169634980Y-108109589D01*
X169559523Y-108149922D01*
X169467505Y-108327900D01*
X168352495Y-108327900D01*
X168260477Y-108149922D01*
X168039793Y-108049434D01*
X167803745Y-107993931D01*
X167561404Y-107985544D01*
X167322083Y-108024598D01*
X167094980Y-108109589D01*
X167019523Y-108149922D01*
X166927505Y-108327900D01*
X165948797Y-108327900D01*
X165884717Y-108263820D01*
X165683097Y-108129102D01*
X165459069Y-108036307D01*
X165221243Y-107989000D01*
X164978757Y-107989000D01*
X164740931Y-108036307D01*
X164516903Y-108129102D01*
X164315283Y-108263820D01*
X164143820Y-108435283D01*
X164009102Y-108636903D01*
X163916307Y-108860931D01*
X163869000Y-109098757D01*
X163791000Y-109098757D01*
X163743693Y-108860931D01*
X163650898Y-108636903D01*
X163516180Y-108435283D01*
X163344717Y-108263820D01*
X163143097Y-108129102D01*
X162919069Y-108036307D01*
X162681243Y-107989000D01*
X162438757Y-107989000D01*
X162200931Y-108036307D01*
X161976903Y-108129102D01*
X161775283Y-108263820D01*
X161603820Y-108435283D01*
X161469102Y-108636903D01*
X161376307Y-108860931D01*
X161329000Y-109098757D01*
X161251000Y-109098757D01*
X161203693Y-108860931D01*
X161110898Y-108636903D01*
X160976180Y-108435283D01*
X160804717Y-108263820D01*
X160603097Y-108129102D01*
X160379069Y-108036307D01*
X160141243Y-107989000D01*
X159898757Y-107989000D01*
X159660931Y-108036307D01*
X159436903Y-108129102D01*
X159235283Y-108263820D01*
X159063820Y-108435283D01*
X158929102Y-108636903D01*
X158836307Y-108860931D01*
X158789000Y-109098757D01*
X158711000Y-109098757D01*
X158663693Y-108860931D01*
X158570898Y-108636903D01*
X158436180Y-108435283D01*
X158264717Y-108263820D01*
X158063097Y-108129102D01*
X157839069Y-108036307D01*
X157601243Y-107989000D01*
X157358757Y-107989000D01*
X157120931Y-108036307D01*
X156896903Y-108129102D01*
X156695283Y-108263820D01*
X156523820Y-108435283D01*
X156389102Y-108636903D01*
X156296307Y-108860931D01*
X156249000Y-109098757D01*
X156171000Y-109098757D01*
X156123693Y-108860931D01*
X156030898Y-108636903D01*
X155896180Y-108435283D01*
X155724717Y-108263820D01*
X155523097Y-108129102D01*
X155299069Y-108036307D01*
X155061243Y-107989000D01*
X154818757Y-107989000D01*
X154580931Y-108036307D01*
X154356903Y-108129102D01*
X154155283Y-108263820D01*
X153983820Y-108435283D01*
X153849102Y-108636903D01*
X153756307Y-108860931D01*
X153709000Y-109098757D01*
X153631000Y-109098757D01*
X153583693Y-108860931D01*
X153490898Y-108636903D01*
X153356180Y-108435283D01*
X153184717Y-108263820D01*
X152983097Y-108129102D01*
X152759069Y-108036307D01*
X152521243Y-107989000D01*
X152278757Y-107989000D01*
X152040931Y-108036307D01*
X151816903Y-108129102D01*
X151615283Y-108263820D01*
X151443820Y-108435283D01*
X151309102Y-108636903D01*
X151216307Y-108860931D01*
X151169000Y-109098757D01*
X151091000Y-109098757D01*
X151043693Y-108860931D01*
X150950898Y-108636903D01*
X150816180Y-108435283D01*
X150644717Y-108263820D01*
X150443097Y-108129102D01*
X150219069Y-108036307D01*
X149981243Y-107989000D01*
X149738757Y-107989000D01*
X149500931Y-108036307D01*
X149276903Y-108129102D01*
X149075283Y-108263820D01*
X148903820Y-108435283D01*
X148769102Y-108636903D01*
X148676307Y-108860931D01*
X148629000Y-109098757D01*
X148551000Y-109098757D01*
X148503693Y-108860931D01*
X148410898Y-108636903D01*
X148276180Y-108435283D01*
X148104717Y-108263820D01*
X147903097Y-108129102D01*
X147679069Y-108036307D01*
X147441243Y-107989000D01*
X147198757Y-107989000D01*
X146960931Y-108036307D01*
X146736903Y-108129102D01*
X146535283Y-108263820D01*
X146363820Y-108435283D01*
X146229102Y-108636903D01*
X146136307Y-108860931D01*
X146089000Y-109098757D01*
X146011000Y-109098757D01*
X145963693Y-108860931D01*
X145870898Y-108636903D01*
X145736180Y-108435283D01*
X145564717Y-108263820D01*
X145363097Y-108129102D01*
X145139069Y-108036307D01*
X144901243Y-107989000D01*
X144658757Y-107989000D01*
X144420931Y-108036307D01*
X144196903Y-108129102D01*
X143995283Y-108263820D01*
X143823820Y-108435283D01*
X143689102Y-108636903D01*
X143596307Y-108860931D01*
X143549000Y-109098757D01*
X143471000Y-109098757D01*
X143423693Y-108860931D01*
X143330898Y-108636903D01*
X143196180Y-108435283D01*
X143024717Y-108263820D01*
X142823097Y-108129102D01*
X142599069Y-108036307D01*
X142361243Y-107989000D01*
X142118757Y-107989000D01*
X141880931Y-108036307D01*
X141656903Y-108129102D01*
X141455283Y-108263820D01*
X141283820Y-108435283D01*
X141149102Y-108636903D01*
X141056307Y-108860931D01*
X141009000Y-109098757D01*
X140931000Y-109098757D01*
X140883693Y-108860931D01*
X140790898Y-108636903D01*
X140656180Y-108435283D01*
X140484717Y-108263820D01*
X140283097Y-108129102D01*
X140059069Y-108036307D01*
X139821243Y-107989000D01*
X139578757Y-107989000D01*
X139340931Y-108036307D01*
X139116903Y-108129102D01*
X138915283Y-108263820D01*
X138743820Y-108435283D01*
X138609102Y-108636903D01*
X138516307Y-108860931D01*
X138469000Y-109098757D01*
X138391000Y-109098757D01*
X138343693Y-108860931D01*
X138250898Y-108636903D01*
X138116180Y-108435283D01*
X137944717Y-108263820D01*
X137743097Y-108129102D01*
X137519069Y-108036307D01*
X137281243Y-107989000D01*
X137038757Y-107989000D01*
X136800931Y-108036307D01*
X136576903Y-108129102D01*
X136375283Y-108263820D01*
X136203820Y-108435283D01*
X136069102Y-108636903D01*
X135976307Y-108860931D01*
X135929000Y-109098757D01*
X135851000Y-109098757D01*
X135803693Y-108860931D01*
X135710898Y-108636903D01*
X135576180Y-108435283D01*
X135404717Y-108263820D01*
X135203097Y-108129102D01*
X134979069Y-108036307D01*
X134741243Y-107989000D01*
X134498757Y-107989000D01*
X134260931Y-108036307D01*
X134036903Y-108129102D01*
X133835283Y-108263820D01*
X133663820Y-108435283D01*
X133529102Y-108636903D01*
X133436307Y-108860931D01*
X133389000Y-109098757D01*
X133311000Y-109098757D01*
X133263693Y-108860931D01*
X133170898Y-108636903D01*
X133036180Y-108435283D01*
X132864717Y-108263820D01*
X132663097Y-108129102D01*
X132439069Y-108036307D01*
X132201243Y-107989000D01*
X131958757Y-107989000D01*
X131720931Y-108036307D01*
X131496903Y-108129102D01*
X131295283Y-108263820D01*
X131123820Y-108435283D01*
X130989102Y-108636903D01*
X130896307Y-108860931D01*
X130849000Y-109098757D01*
X130771000Y-109098757D01*
X130723693Y-108860931D01*
X130630898Y-108636903D01*
X130496180Y-108435283D01*
X130324717Y-108263820D01*
X130123097Y-108129102D01*
X129899069Y-108036307D01*
X129661243Y-107989000D01*
X129418757Y-107989000D01*
X129180931Y-108036307D01*
X128956903Y-108129102D01*
X128755283Y-108263820D01*
X128583820Y-108435283D01*
X128449102Y-108636903D01*
X128356307Y-108860931D01*
X128309000Y-109098757D01*
X128231000Y-109098757D01*
X128183693Y-108860931D01*
X128090898Y-108636903D01*
X127956180Y-108435283D01*
X127784717Y-108263820D01*
X127583097Y-108129102D01*
X127359069Y-108036307D01*
X127121243Y-107989000D01*
X126878757Y-107989000D01*
X126640931Y-108036307D01*
X126416903Y-108129102D01*
X126215283Y-108263820D01*
X126043820Y-108435283D01*
X125909102Y-108636903D01*
X125816307Y-108860931D01*
X125769000Y-109098757D01*
X125691000Y-109098757D01*
X125643693Y-108860931D01*
X125550898Y-108636903D01*
X125416180Y-108435283D01*
X125244717Y-108263820D01*
X125043097Y-108129102D01*
X124819069Y-108036307D01*
X124581243Y-107989000D01*
X124338757Y-107989000D01*
X124100931Y-108036307D01*
X123876903Y-108129102D01*
X123675283Y-108263820D01*
X123503820Y-108435283D01*
X123369102Y-108636903D01*
X123276307Y-108860931D01*
X123229000Y-109098757D01*
X123151000Y-109098757D01*
X123103693Y-108860931D01*
X123010898Y-108636903D01*
X122876180Y-108435283D01*
X122704717Y-108263820D01*
X122503097Y-108129102D01*
X122279069Y-108036307D01*
X122041243Y-107989000D01*
X121798757Y-107989000D01*
X121560931Y-108036307D01*
X121336903Y-108129102D01*
X121135283Y-108263820D01*
X120963820Y-108435283D01*
X120829102Y-108636903D01*
X120736307Y-108860931D01*
X120689000Y-109098757D01*
X107086000Y-109098757D01*
X107086000Y-105853980D01*
X138510511Y-105853980D01*
X138534866Y-105934288D01*
X138634761Y-106153961D01*
X138775592Y-106349924D01*
X138951948Y-106514647D01*
X139157051Y-106641799D01*
X139383019Y-106726495D01*
X139573000Y-106666187D01*
X139573000Y-105664000D01*
X139827000Y-105664000D01*
X139827000Y-106666187D01*
X140016981Y-106726495D01*
X140242949Y-106641799D01*
X140376900Y-106558757D01*
X174029000Y-106558757D01*
X174029000Y-106801243D01*
X174076307Y-107039069D01*
X174169102Y-107263097D01*
X174303820Y-107464717D01*
X174475283Y-107636180D01*
X174676903Y-107770898D01*
X174900931Y-107863693D01*
X175138757Y-107911000D01*
X175381243Y-107911000D01*
X175619069Y-107863693D01*
X175843097Y-107770898D01*
X176044717Y-107636180D01*
X176216180Y-107464717D01*
X176350898Y-107263097D01*
X176443693Y-107039069D01*
X176491000Y-106801243D01*
X176491000Y-106558757D01*
X176569000Y-106558757D01*
X176569000Y-106801243D01*
X176616307Y-107039069D01*
X176709102Y-107263097D01*
X176843820Y-107464717D01*
X177015283Y-107636180D01*
X177216903Y-107770898D01*
X177440931Y-107863693D01*
X177678757Y-107911000D01*
X177921243Y-107911000D01*
X178159069Y-107863693D01*
X178383097Y-107770898D01*
X178584717Y-107636180D01*
X178756180Y-107464717D01*
X178890898Y-107263097D01*
X178983693Y-107039069D01*
X179031000Y-106801243D01*
X179031000Y-106558757D01*
X178983693Y-106320931D01*
X178890898Y-106096903D01*
X178756180Y-105895283D01*
X178584717Y-105723820D01*
X178383097Y-105589102D01*
X178159069Y-105496307D01*
X177921243Y-105449000D01*
X177678757Y-105449000D01*
X177440931Y-105496307D01*
X177216903Y-105589102D01*
X177015283Y-105723820D01*
X176843820Y-105895283D01*
X176709102Y-106096903D01*
X176616307Y-106320931D01*
X176569000Y-106558757D01*
X176491000Y-106558757D01*
X176443693Y-106320931D01*
X176350898Y-106096903D01*
X176216180Y-105895283D01*
X176044717Y-105723820D01*
X175843097Y-105589102D01*
X175619069Y-105496307D01*
X175381243Y-105449000D01*
X175138757Y-105449000D01*
X174900931Y-105496307D01*
X174676903Y-105589102D01*
X174475283Y-105723820D01*
X174303820Y-105895283D01*
X174169102Y-106096903D01*
X174076307Y-106320931D01*
X174029000Y-106558757D01*
X140376900Y-106558757D01*
X140448052Y-106514647D01*
X140624408Y-106349924D01*
X140765239Y-106153961D01*
X140865134Y-105934288D01*
X140889489Y-105853980D01*
X140828627Y-105664000D01*
X139827000Y-105664000D01*
X139573000Y-105664000D01*
X138571373Y-105664000D01*
X138510511Y-105853980D01*
X107086000Y-105853980D01*
X107086000Y-104456980D01*
X115650511Y-104456980D01*
X115674866Y-104537288D01*
X115774761Y-104756961D01*
X115915592Y-104952924D01*
X116091948Y-105117647D01*
X116297051Y-105244799D01*
X116523019Y-105329495D01*
X116713000Y-105269187D01*
X116713000Y-104267000D01*
X116967000Y-104267000D01*
X116967000Y-105269187D01*
X117156981Y-105329495D01*
X117382949Y-105244799D01*
X117588052Y-105117647D01*
X117764408Y-104952924D01*
X117905239Y-104756961D01*
X118005134Y-104537288D01*
X118029489Y-104456980D01*
X117968627Y-104267000D01*
X116967000Y-104267000D01*
X116713000Y-104267000D01*
X115711373Y-104267000D01*
X115650511Y-104456980D01*
X107086000Y-104456980D01*
X107086000Y-100576000D01*
X115062000Y-100576000D01*
X115062000Y-102624000D01*
X115065259Y-102673730D01*
X115082296Y-102803140D01*
X115108039Y-102899212D01*
X115157989Y-103019802D01*
X115207721Y-103105940D01*
X115287181Y-103209493D01*
X115357507Y-103279819D01*
X115461060Y-103359279D01*
X115547198Y-103409011D01*
X115667788Y-103458961D01*
X115763860Y-103484704D01*
X115798987Y-103489329D01*
X115774761Y-103523039D01*
X115674866Y-103742712D01*
X115650511Y-103823020D01*
X115711373Y-104013000D01*
X116713000Y-104013000D01*
X116713000Y-103993000D01*
X116967000Y-103993000D01*
X116967000Y-104013000D01*
X117968627Y-104013000D01*
X118029489Y-103823020D01*
X118005134Y-103742712D01*
X117905239Y-103523039D01*
X117892275Y-103505000D01*
X124951025Y-103505000D01*
X125005952Y-103512231D01*
X125033855Y-103523789D01*
X125057821Y-103542179D01*
X125076211Y-103566145D01*
X125087769Y-103594048D01*
X125095000Y-103648975D01*
X125095000Y-104021000D01*
X125098259Y-104070730D01*
X125115296Y-104200140D01*
X125141039Y-104296212D01*
X125190989Y-104416802D01*
X125240721Y-104502940D01*
X125320181Y-104606493D01*
X125390507Y-104676819D01*
X125494060Y-104756279D01*
X125580198Y-104806011D01*
X125700788Y-104855961D01*
X125796860Y-104881704D01*
X125926270Y-104898741D01*
X125976000Y-104902000D01*
X138647725Y-104902000D01*
X138634761Y-104920039D01*
X138534866Y-105139712D01*
X138510511Y-105220020D01*
X138571373Y-105410000D01*
X139573000Y-105410000D01*
X139573000Y-105390000D01*
X139827000Y-105390000D01*
X139827000Y-105410000D01*
X140828627Y-105410000D01*
X140889489Y-105220020D01*
X140865134Y-105139712D01*
X140765239Y-104920039D01*
X140696025Y-104823730D01*
X140738802Y-104806011D01*
X140824940Y-104756279D01*
X140928493Y-104676819D01*
X140998819Y-104606493D01*
X141078279Y-104502940D01*
X141128011Y-104416802D01*
X141177961Y-104296212D01*
X141203704Y-104200140D01*
X141220741Y-104070730D01*
X141224000Y-104021000D01*
X141224000Y-101973000D01*
X141220741Y-101923270D01*
X141203704Y-101793860D01*
X141177961Y-101697788D01*
X141128011Y-101577198D01*
X141078279Y-101491060D01*
X140998819Y-101387507D01*
X140928493Y-101317181D01*
X140824940Y-101237721D01*
X140738802Y-101187989D01*
X140702208Y-101172831D01*
X140790898Y-101040097D01*
X140822832Y-100963000D01*
X150978154Y-100963000D01*
X151003000Y-100965447D01*
X151027846Y-100963000D01*
X151027854Y-100963000D01*
X151102193Y-100955678D01*
X151197575Y-100926745D01*
X151285479Y-100879759D01*
X151362527Y-100816527D01*
X151378376Y-100797215D01*
X157043834Y-95131758D01*
X157120931Y-95163693D01*
X157358757Y-95211000D01*
X157601243Y-95211000D01*
X157839069Y-95163693D01*
X158063097Y-95070898D01*
X158264717Y-94936180D01*
X158436180Y-94764717D01*
X158570898Y-94563097D01*
X158663693Y-94339069D01*
X158711000Y-94101243D01*
X158711000Y-93858757D01*
X158789000Y-93858757D01*
X158789000Y-94101243D01*
X158836307Y-94339069D01*
X158929102Y-94563097D01*
X159063820Y-94764717D01*
X159235283Y-94936180D01*
X159436903Y-95070898D01*
X159514000Y-95102833D01*
X159514001Y-101575144D01*
X159511553Y-101600000D01*
X159521322Y-101699192D01*
X159550255Y-101794574D01*
X159572127Y-101835492D01*
X159597242Y-101882479D01*
X159660474Y-101959527D01*
X159679779Y-101975370D01*
X161408242Y-103703833D01*
X161376307Y-103780931D01*
X161329000Y-104018757D01*
X161329000Y-104261243D01*
X161376307Y-104499069D01*
X161469102Y-104723097D01*
X161603820Y-104924717D01*
X161775283Y-105096180D01*
X161976903Y-105230898D01*
X162200931Y-105323693D01*
X162438757Y-105371000D01*
X162681243Y-105371000D01*
X162919069Y-105323693D01*
X163143097Y-105230898D01*
X163344717Y-105096180D01*
X163516180Y-104924717D01*
X163650898Y-104723097D01*
X163743693Y-104499069D01*
X163791000Y-104261243D01*
X163791000Y-104018757D01*
X174029000Y-104018757D01*
X174029000Y-104261243D01*
X174076307Y-104499069D01*
X174169102Y-104723097D01*
X174303820Y-104924717D01*
X174475283Y-105096180D01*
X174676903Y-105230898D01*
X174900931Y-105323693D01*
X175138757Y-105371000D01*
X175381243Y-105371000D01*
X175619069Y-105323693D01*
X175843097Y-105230898D01*
X176044717Y-105096180D01*
X176216180Y-104924717D01*
X176350898Y-104723097D01*
X176443693Y-104499069D01*
X176491000Y-104261243D01*
X176491000Y-104018757D01*
X176569000Y-104018757D01*
X176569000Y-104261243D01*
X176616307Y-104499069D01*
X176709102Y-104723097D01*
X176843820Y-104924717D01*
X177015283Y-105096180D01*
X177216903Y-105230898D01*
X177440931Y-105323693D01*
X177678757Y-105371000D01*
X177921243Y-105371000D01*
X178159069Y-105323693D01*
X178383097Y-105230898D01*
X178584717Y-105096180D01*
X178756180Y-104924717D01*
X178890898Y-104723097D01*
X178983693Y-104499069D01*
X179031000Y-104261243D01*
X179031000Y-104018757D01*
X178983693Y-103780931D01*
X178890898Y-103556903D01*
X178756180Y-103355283D01*
X178584717Y-103183820D01*
X178383097Y-103049102D01*
X178159069Y-102956307D01*
X177921243Y-102909000D01*
X177678757Y-102909000D01*
X177440931Y-102956307D01*
X177216903Y-103049102D01*
X177015283Y-103183820D01*
X176843820Y-103355283D01*
X176709102Y-103556903D01*
X176616307Y-103780931D01*
X176569000Y-104018757D01*
X176491000Y-104018757D01*
X176443693Y-103780931D01*
X176350898Y-103556903D01*
X176216180Y-103355283D01*
X176044717Y-103183820D01*
X175843097Y-103049102D01*
X175619069Y-102956307D01*
X175381243Y-102909000D01*
X175138757Y-102909000D01*
X174900931Y-102956307D01*
X174676903Y-103049102D01*
X174475283Y-103183820D01*
X174303820Y-103355283D01*
X174169102Y-103556903D01*
X174076307Y-103780931D01*
X174029000Y-104018757D01*
X163791000Y-104018757D01*
X163743693Y-103780931D01*
X163650898Y-103556903D01*
X163516180Y-103355283D01*
X163344717Y-103183820D01*
X163143097Y-103049102D01*
X162919069Y-102956307D01*
X162681243Y-102909000D01*
X162438757Y-102909000D01*
X162200931Y-102956307D01*
X162123833Y-102988242D01*
X160614348Y-101478757D01*
X161329000Y-101478757D01*
X161329000Y-101721243D01*
X161376307Y-101959069D01*
X161469102Y-102183097D01*
X161603820Y-102384717D01*
X161775283Y-102556180D01*
X161976903Y-102690898D01*
X162200931Y-102783693D01*
X162438757Y-102831000D01*
X162681243Y-102831000D01*
X162919069Y-102783693D01*
X163143097Y-102690898D01*
X163344717Y-102556180D01*
X163516180Y-102384717D01*
X163650898Y-102183097D01*
X163682649Y-102106443D01*
X163703000Y-102108447D01*
X163727846Y-102106000D01*
X163727854Y-102106000D01*
X163802193Y-102098678D01*
X163897575Y-102069745D01*
X163985479Y-102022759D01*
X164062527Y-101959527D01*
X164078376Y-101940215D01*
X164539834Y-101478757D01*
X174029000Y-101478757D01*
X174029000Y-101721243D01*
X174076307Y-101959069D01*
X174169102Y-102183097D01*
X174303820Y-102384717D01*
X174475283Y-102556180D01*
X174676903Y-102690898D01*
X174900931Y-102783693D01*
X175138757Y-102831000D01*
X175381243Y-102831000D01*
X175619069Y-102783693D01*
X175843097Y-102690898D01*
X176044717Y-102556180D01*
X176216180Y-102384717D01*
X176350898Y-102183097D01*
X176443693Y-101959069D01*
X176491000Y-101721243D01*
X176491000Y-101478757D01*
X176443693Y-101240931D01*
X176350898Y-101016903D01*
X176216180Y-100815283D01*
X176044717Y-100643820D01*
X175843097Y-100509102D01*
X175619069Y-100416307D01*
X175381243Y-100369000D01*
X175138757Y-100369000D01*
X174900931Y-100416307D01*
X174676903Y-100509102D01*
X174475283Y-100643820D01*
X174303820Y-100815283D01*
X174169102Y-101016903D01*
X174076307Y-101240931D01*
X174029000Y-101478757D01*
X164539834Y-101478757D01*
X166452592Y-99566000D01*
X172695154Y-99566000D01*
X172720000Y-99568447D01*
X172744846Y-99566000D01*
X172744854Y-99566000D01*
X172819193Y-99558678D01*
X172914575Y-99529745D01*
X173002479Y-99482759D01*
X173079527Y-99419527D01*
X173095376Y-99400215D01*
X173556834Y-98938757D01*
X174029000Y-98938757D01*
X174029000Y-99181243D01*
X174076307Y-99419069D01*
X174169102Y-99643097D01*
X174303820Y-99844717D01*
X174475283Y-100016180D01*
X174676903Y-100150898D01*
X174900931Y-100243693D01*
X175138757Y-100291000D01*
X175381243Y-100291000D01*
X175619069Y-100243693D01*
X175843097Y-100150898D01*
X176044717Y-100016180D01*
X176216180Y-99844717D01*
X176350898Y-99643097D01*
X176443693Y-99419069D01*
X176491000Y-99181243D01*
X176491000Y-98938757D01*
X176443693Y-98700931D01*
X176350898Y-98476903D01*
X176216180Y-98275283D01*
X176044717Y-98103820D01*
X175843097Y-97969102D01*
X175619069Y-97876307D01*
X175381243Y-97829000D01*
X175138757Y-97829000D01*
X174900931Y-97876307D01*
X174676903Y-97969102D01*
X174475283Y-98103820D01*
X174303820Y-98275283D01*
X174169102Y-98476903D01*
X174076307Y-98700931D01*
X174029000Y-98938757D01*
X173556834Y-98938757D01*
X174823833Y-97671758D01*
X174900931Y-97703693D01*
X175138757Y-97751000D01*
X175381243Y-97751000D01*
X175619069Y-97703693D01*
X175843097Y-97610898D01*
X176044717Y-97476180D01*
X176216180Y-97304717D01*
X176350898Y-97103097D01*
X176443693Y-96879069D01*
X176491000Y-96641243D01*
X176491000Y-96398757D01*
X176443693Y-96160931D01*
X176350898Y-95936903D01*
X176216180Y-95735283D01*
X176044717Y-95563820D01*
X175843097Y-95429102D01*
X175619069Y-95336307D01*
X175381243Y-95289000D01*
X175138757Y-95289000D01*
X174900931Y-95336307D01*
X174676903Y-95429102D01*
X174475283Y-95563820D01*
X174303820Y-95735283D01*
X174169102Y-95936903D01*
X174076307Y-96160931D01*
X174029000Y-96398757D01*
X174029000Y-96641243D01*
X174076307Y-96879069D01*
X174108242Y-96956167D01*
X172510409Y-98554000D01*
X166267845Y-98554000D01*
X166242999Y-98551553D01*
X166218153Y-98554000D01*
X166218146Y-98554000D01*
X166153694Y-98560348D01*
X166143806Y-98561322D01*
X166121607Y-98568056D01*
X166048425Y-98590255D01*
X165960521Y-98637241D01*
X165883473Y-98700473D01*
X165867630Y-98719778D01*
X163618697Y-100968711D01*
X163516180Y-100815283D01*
X163344717Y-100643820D01*
X163143097Y-100509102D01*
X162919069Y-100416307D01*
X162681243Y-100369000D01*
X162438757Y-100369000D01*
X162200931Y-100416307D01*
X161976903Y-100509102D01*
X161775283Y-100643820D01*
X161603820Y-100815283D01*
X161469102Y-101016903D01*
X161376307Y-101240931D01*
X161329000Y-101478757D01*
X160614348Y-101478757D01*
X160526000Y-101390409D01*
X160526000Y-98210000D01*
X161327157Y-98210000D01*
X161327157Y-99910000D01*
X161334513Y-99984689D01*
X161356299Y-100056508D01*
X161391678Y-100122696D01*
X161439289Y-100180711D01*
X161497304Y-100228322D01*
X161563492Y-100263701D01*
X161635311Y-100285487D01*
X161710000Y-100292843D01*
X163410000Y-100292843D01*
X163484689Y-100285487D01*
X163556508Y-100263701D01*
X163622696Y-100228322D01*
X163680711Y-100180711D01*
X163728322Y-100122696D01*
X163763701Y-100056508D01*
X163785487Y-99984689D01*
X163792843Y-99910000D01*
X163792843Y-98542748D01*
X165440222Y-96895370D01*
X165459527Y-96879527D01*
X165522759Y-96802479D01*
X165569745Y-96714575D01*
X165598678Y-96619193D01*
X165606000Y-96544854D01*
X165606000Y-96544847D01*
X165608447Y-96520001D01*
X165606000Y-96495155D01*
X165606000Y-95102832D01*
X165683097Y-95070898D01*
X165884717Y-94936180D01*
X166056180Y-94764717D01*
X166190898Y-94563097D01*
X166283693Y-94339069D01*
X166331000Y-94101243D01*
X166331000Y-93858757D01*
X166409000Y-93858757D01*
X166409000Y-94101243D01*
X166456307Y-94339069D01*
X166549102Y-94563097D01*
X166683820Y-94764717D01*
X166855283Y-94936180D01*
X167056903Y-95070898D01*
X167280931Y-95163693D01*
X167518757Y-95211000D01*
X167761243Y-95211000D01*
X167999069Y-95163693D01*
X168223097Y-95070898D01*
X168424717Y-94936180D01*
X168596180Y-94764717D01*
X168730898Y-94563097D01*
X168823693Y-94339069D01*
X168871000Y-94101243D01*
X168871000Y-93858757D01*
X168823693Y-93620931D01*
X168730898Y-93396903D01*
X168596180Y-93195283D01*
X168530897Y-93130000D01*
X168947157Y-93130000D01*
X168947157Y-94830000D01*
X168954513Y-94904689D01*
X168976299Y-94976508D01*
X169011678Y-95042696D01*
X169059289Y-95100711D01*
X169117304Y-95148322D01*
X169183492Y-95183701D01*
X169255311Y-95205487D01*
X169330000Y-95212843D01*
X171030000Y-95212843D01*
X171104689Y-95205487D01*
X171176508Y-95183701D01*
X171242696Y-95148322D01*
X171300711Y-95100711D01*
X171348322Y-95042696D01*
X171383701Y-94976508D01*
X171405487Y-94904689D01*
X171412843Y-94830000D01*
X171412843Y-93130000D01*
X171405487Y-93055311D01*
X171383701Y-92983492D01*
X171348322Y-92917304D01*
X171300711Y-92859289D01*
X171242696Y-92811678D01*
X171176508Y-92776299D01*
X171104689Y-92754513D01*
X171030000Y-92747157D01*
X169330000Y-92747157D01*
X169255311Y-92754513D01*
X169183492Y-92776299D01*
X169117304Y-92811678D01*
X169059289Y-92859289D01*
X169011678Y-92917304D01*
X168976299Y-92983492D01*
X168954513Y-93055311D01*
X168947157Y-93130000D01*
X168530897Y-93130000D01*
X168424717Y-93023820D01*
X168223097Y-92889102D01*
X167999069Y-92796307D01*
X167761243Y-92749000D01*
X167518757Y-92749000D01*
X167280931Y-92796307D01*
X167056903Y-92889102D01*
X166855283Y-93023820D01*
X166683820Y-93195283D01*
X166549102Y-93396903D01*
X166456307Y-93620931D01*
X166409000Y-93858757D01*
X166331000Y-93858757D01*
X166283693Y-93620931D01*
X166190898Y-93396903D01*
X166056180Y-93195283D01*
X165884717Y-93023820D01*
X165683097Y-92889102D01*
X165459069Y-92796307D01*
X165221243Y-92749000D01*
X164978757Y-92749000D01*
X164740931Y-92796307D01*
X164516903Y-92889102D01*
X164315283Y-93023820D01*
X164143820Y-93195283D01*
X164009102Y-93396903D01*
X163916307Y-93620931D01*
X163869000Y-93858757D01*
X163869000Y-94101243D01*
X163916307Y-94339069D01*
X164009102Y-94563097D01*
X164143820Y-94764717D01*
X164315283Y-94936180D01*
X164516903Y-95070898D01*
X164594000Y-95102833D01*
X164594001Y-96310407D01*
X163077252Y-97827157D01*
X161710000Y-97827157D01*
X161635311Y-97834513D01*
X161563492Y-97856299D01*
X161497304Y-97891678D01*
X161439289Y-97939289D01*
X161391678Y-97997304D01*
X161356299Y-98063492D01*
X161334513Y-98135311D01*
X161327157Y-98210000D01*
X160526000Y-98210000D01*
X160526000Y-95102832D01*
X160603097Y-95070898D01*
X160804717Y-94936180D01*
X160976180Y-94764717D01*
X161110898Y-94563097D01*
X161203693Y-94339069D01*
X161251000Y-94101243D01*
X161251000Y-93858757D01*
X161329000Y-93858757D01*
X161329000Y-94101243D01*
X161376307Y-94339069D01*
X161469102Y-94563097D01*
X161603820Y-94764717D01*
X161775283Y-94936180D01*
X161976903Y-95070898D01*
X162200931Y-95163693D01*
X162438757Y-95211000D01*
X162681243Y-95211000D01*
X162919069Y-95163693D01*
X163143097Y-95070898D01*
X163344717Y-94936180D01*
X163516180Y-94764717D01*
X163650898Y-94563097D01*
X163743693Y-94339069D01*
X163791000Y-94101243D01*
X163791000Y-93858757D01*
X163743693Y-93620931D01*
X163650898Y-93396903D01*
X163516180Y-93195283D01*
X163344717Y-93023820D01*
X163143097Y-92889102D01*
X162919069Y-92796307D01*
X162681243Y-92749000D01*
X162438757Y-92749000D01*
X162200931Y-92796307D01*
X161976903Y-92889102D01*
X161775283Y-93023820D01*
X161603820Y-93195283D01*
X161469102Y-93396903D01*
X161376307Y-93620931D01*
X161329000Y-93858757D01*
X161251000Y-93858757D01*
X161203693Y-93620931D01*
X161110898Y-93396903D01*
X160976180Y-93195283D01*
X160804717Y-93023820D01*
X160603097Y-92889102D01*
X160379069Y-92796307D01*
X160141243Y-92749000D01*
X159898757Y-92749000D01*
X159660931Y-92796307D01*
X159436903Y-92889102D01*
X159235283Y-93023820D01*
X159063820Y-93195283D01*
X158929102Y-93396903D01*
X158836307Y-93620931D01*
X158789000Y-93858757D01*
X158711000Y-93858757D01*
X158663693Y-93620931D01*
X158570898Y-93396903D01*
X158436180Y-93195283D01*
X158264717Y-93023820D01*
X158063097Y-92889102D01*
X157839069Y-92796307D01*
X157601243Y-92749000D01*
X157358757Y-92749000D01*
X157120931Y-92796307D01*
X156896903Y-92889102D01*
X156695283Y-93023820D01*
X156523820Y-93195283D01*
X156389102Y-93396903D01*
X156296307Y-93620931D01*
X156249000Y-93858757D01*
X156249000Y-94101243D01*
X156296307Y-94339069D01*
X156328242Y-94416166D01*
X150793409Y-99951000D01*
X140822832Y-99951000D01*
X140790898Y-99873903D01*
X140656180Y-99672283D01*
X140484717Y-99500820D01*
X140283097Y-99366102D01*
X140059069Y-99273307D01*
X139821243Y-99226000D01*
X139578757Y-99226000D01*
X139340931Y-99273307D01*
X139116903Y-99366102D01*
X138915283Y-99500820D01*
X138743820Y-99672283D01*
X138609102Y-99873903D01*
X138516307Y-100097931D01*
X138469000Y-100335757D01*
X138469000Y-100578243D01*
X138516307Y-100816069D01*
X138609102Y-101040097D01*
X138643782Y-101092000D01*
X129048975Y-101092000D01*
X128994048Y-101084769D01*
X128966145Y-101073211D01*
X128942179Y-101054821D01*
X128923789Y-101030855D01*
X128912231Y-101002952D01*
X128905000Y-100948025D01*
X128905000Y-97067000D01*
X138467157Y-97067000D01*
X138467157Y-98767000D01*
X138474513Y-98841689D01*
X138496299Y-98913508D01*
X138531678Y-98979696D01*
X138579289Y-99037711D01*
X138637304Y-99085322D01*
X138703492Y-99120701D01*
X138775311Y-99142487D01*
X138850000Y-99149843D01*
X140550000Y-99149843D01*
X140624689Y-99142487D01*
X140696508Y-99120701D01*
X140762696Y-99085322D01*
X140820711Y-99037711D01*
X140868322Y-98979696D01*
X140903701Y-98913508D01*
X140925487Y-98841689D01*
X140932843Y-98767000D01*
X140932843Y-98423000D01*
X150978154Y-98423000D01*
X151003000Y-98425447D01*
X151027846Y-98423000D01*
X151027854Y-98423000D01*
X151102193Y-98415678D01*
X151197575Y-98386745D01*
X151285479Y-98339759D01*
X151362527Y-98276527D01*
X151378376Y-98257215D01*
X154503833Y-95131758D01*
X154580931Y-95163693D01*
X154818757Y-95211000D01*
X155061243Y-95211000D01*
X155299069Y-95163693D01*
X155523097Y-95070898D01*
X155724717Y-94936180D01*
X155896180Y-94764717D01*
X156030898Y-94563097D01*
X156123693Y-94339069D01*
X156171000Y-94101243D01*
X156171000Y-93858757D01*
X156123693Y-93620931D01*
X156030898Y-93396903D01*
X155896180Y-93195283D01*
X155724717Y-93023820D01*
X155523097Y-92889102D01*
X155299069Y-92796307D01*
X155061243Y-92749000D01*
X154818757Y-92749000D01*
X154580931Y-92796307D01*
X154356903Y-92889102D01*
X154155283Y-93023820D01*
X153983820Y-93195283D01*
X153849102Y-93396903D01*
X153756307Y-93620931D01*
X153709000Y-93858757D01*
X153709000Y-94101243D01*
X153756307Y-94339069D01*
X153788242Y-94416167D01*
X150793409Y-97411000D01*
X140932843Y-97411000D01*
X140932843Y-97067000D01*
X140925487Y-96992311D01*
X140903701Y-96920492D01*
X140868322Y-96854304D01*
X140820711Y-96796289D01*
X140762696Y-96748678D01*
X140696508Y-96713299D01*
X140624689Y-96691513D01*
X140550000Y-96684157D01*
X138850000Y-96684157D01*
X138775311Y-96691513D01*
X138703492Y-96713299D01*
X138637304Y-96748678D01*
X138579289Y-96796289D01*
X138531678Y-96854304D01*
X138496299Y-96920492D01*
X138474513Y-96992311D01*
X138467157Y-97067000D01*
X128905000Y-97067000D01*
X128905000Y-95036218D01*
X128956903Y-95070898D01*
X129180931Y-95163693D01*
X129418757Y-95211000D01*
X129661243Y-95211000D01*
X129899069Y-95163693D01*
X130123097Y-95070898D01*
X130324717Y-94936180D01*
X130496180Y-94764717D01*
X130630898Y-94563097D01*
X130723693Y-94339069D01*
X130771000Y-94101243D01*
X130771000Y-93858757D01*
X130849000Y-93858757D01*
X130849000Y-94101243D01*
X130896307Y-94339069D01*
X130989102Y-94563097D01*
X131123820Y-94764717D01*
X131295283Y-94936180D01*
X131496903Y-95070898D01*
X131720931Y-95163693D01*
X131958757Y-95211000D01*
X132201243Y-95211000D01*
X132439069Y-95163693D01*
X132663097Y-95070898D01*
X132864717Y-94936180D01*
X133036180Y-94764717D01*
X133170898Y-94563097D01*
X133263693Y-94339069D01*
X133311000Y-94101243D01*
X133311000Y-93858757D01*
X133389000Y-93858757D01*
X133389000Y-94101243D01*
X133436307Y-94339069D01*
X133529102Y-94563097D01*
X133663820Y-94764717D01*
X133835283Y-94936180D01*
X134036903Y-95070898D01*
X134260931Y-95163693D01*
X134498757Y-95211000D01*
X134741243Y-95211000D01*
X134979069Y-95163693D01*
X135203097Y-95070898D01*
X135404717Y-94936180D01*
X135576180Y-94764717D01*
X135710898Y-94563097D01*
X135803693Y-94339069D01*
X135851000Y-94101243D01*
X135851000Y-93858757D01*
X135929000Y-93858757D01*
X135929000Y-94101243D01*
X135976307Y-94339069D01*
X136069102Y-94563097D01*
X136203820Y-94764717D01*
X136375283Y-94936180D01*
X136576903Y-95070898D01*
X136800931Y-95163693D01*
X137038757Y-95211000D01*
X137281243Y-95211000D01*
X137519069Y-95163693D01*
X137743097Y-95070898D01*
X137944717Y-94936180D01*
X138116180Y-94764717D01*
X138250898Y-94563097D01*
X138343693Y-94339069D01*
X138391000Y-94101243D01*
X138391000Y-93858757D01*
X138469000Y-93858757D01*
X138469000Y-94101243D01*
X138516307Y-94339069D01*
X138609102Y-94563097D01*
X138743820Y-94764717D01*
X138915283Y-94936180D01*
X139116903Y-95070898D01*
X139340931Y-95163693D01*
X139578757Y-95211000D01*
X139821243Y-95211000D01*
X140059069Y-95163693D01*
X140283097Y-95070898D01*
X140484717Y-94936180D01*
X140656180Y-94764717D01*
X140790898Y-94563097D01*
X140883693Y-94339069D01*
X140931000Y-94101243D01*
X140931000Y-93858757D01*
X141009000Y-93858757D01*
X141009000Y-94101243D01*
X141056307Y-94339069D01*
X141149102Y-94563097D01*
X141283820Y-94764717D01*
X141455283Y-94936180D01*
X141656903Y-95070898D01*
X141880931Y-95163693D01*
X142118757Y-95211000D01*
X142361243Y-95211000D01*
X142599069Y-95163693D01*
X142823097Y-95070898D01*
X143024717Y-94936180D01*
X143196180Y-94764717D01*
X143330898Y-94563097D01*
X143423693Y-94339069D01*
X143471000Y-94101243D01*
X143471000Y-93858757D01*
X143549000Y-93858757D01*
X143549000Y-94101243D01*
X143596307Y-94339069D01*
X143689102Y-94563097D01*
X143823820Y-94764717D01*
X143995283Y-94936180D01*
X144196903Y-95070898D01*
X144420931Y-95163693D01*
X144658757Y-95211000D01*
X144901243Y-95211000D01*
X145139069Y-95163693D01*
X145363097Y-95070898D01*
X145564717Y-94936180D01*
X145736180Y-94764717D01*
X145870898Y-94563097D01*
X145963693Y-94339069D01*
X146011000Y-94101243D01*
X146011000Y-93858757D01*
X145963693Y-93620931D01*
X145870898Y-93396903D01*
X145736180Y-93195283D01*
X145564717Y-93023820D01*
X145363097Y-92889102D01*
X145139069Y-92796307D01*
X144901243Y-92749000D01*
X144658757Y-92749000D01*
X144420931Y-92796307D01*
X144196903Y-92889102D01*
X143995283Y-93023820D01*
X143823820Y-93195283D01*
X143689102Y-93396903D01*
X143596307Y-93620931D01*
X143549000Y-93858757D01*
X143471000Y-93858757D01*
X143423693Y-93620931D01*
X143330898Y-93396903D01*
X143196180Y-93195283D01*
X143024717Y-93023820D01*
X142823097Y-92889102D01*
X142599069Y-92796307D01*
X142361243Y-92749000D01*
X142118757Y-92749000D01*
X141880931Y-92796307D01*
X141656903Y-92889102D01*
X141455283Y-93023820D01*
X141283820Y-93195283D01*
X141149102Y-93396903D01*
X141056307Y-93620931D01*
X141009000Y-93858757D01*
X140931000Y-93858757D01*
X140883693Y-93620931D01*
X140790898Y-93396903D01*
X140656180Y-93195283D01*
X140484717Y-93023820D01*
X140283097Y-92889102D01*
X140059069Y-92796307D01*
X139821243Y-92749000D01*
X139578757Y-92749000D01*
X139340931Y-92796307D01*
X139116903Y-92889102D01*
X138915283Y-93023820D01*
X138743820Y-93195283D01*
X138609102Y-93396903D01*
X138516307Y-93620931D01*
X138469000Y-93858757D01*
X138391000Y-93858757D01*
X138343693Y-93620931D01*
X138250898Y-93396903D01*
X138116180Y-93195283D01*
X137944717Y-93023820D01*
X137743097Y-92889102D01*
X137519069Y-92796307D01*
X137281243Y-92749000D01*
X137038757Y-92749000D01*
X136800931Y-92796307D01*
X136576903Y-92889102D01*
X136375283Y-93023820D01*
X136203820Y-93195283D01*
X136069102Y-93396903D01*
X135976307Y-93620931D01*
X135929000Y-93858757D01*
X135851000Y-93858757D01*
X135803693Y-93620931D01*
X135710898Y-93396903D01*
X135576180Y-93195283D01*
X135404717Y-93023820D01*
X135203097Y-92889102D01*
X134979069Y-92796307D01*
X134741243Y-92749000D01*
X134498757Y-92749000D01*
X134260931Y-92796307D01*
X134036903Y-92889102D01*
X133835283Y-93023820D01*
X133663820Y-93195283D01*
X133529102Y-93396903D01*
X133436307Y-93620931D01*
X133389000Y-93858757D01*
X133311000Y-93858757D01*
X133263693Y-93620931D01*
X133170898Y-93396903D01*
X133036180Y-93195283D01*
X132864717Y-93023820D01*
X132663097Y-92889102D01*
X132439069Y-92796307D01*
X132201243Y-92749000D01*
X131958757Y-92749000D01*
X131720931Y-92796307D01*
X131496903Y-92889102D01*
X131295283Y-93023820D01*
X131123820Y-93195283D01*
X130989102Y-93396903D01*
X130896307Y-93620931D01*
X130849000Y-93858757D01*
X130771000Y-93858757D01*
X130723693Y-93620931D01*
X130630898Y-93396903D01*
X130496180Y-93195283D01*
X130324717Y-93023820D01*
X130123097Y-92889102D01*
X129899069Y-92796307D01*
X129661243Y-92749000D01*
X129418757Y-92749000D01*
X129180931Y-92796307D01*
X128956903Y-92889102D01*
X128902977Y-92925134D01*
X128901741Y-92906270D01*
X128884704Y-92776860D01*
X128858961Y-92680788D01*
X128809011Y-92560198D01*
X128759279Y-92474060D01*
X128679819Y-92370507D01*
X128636312Y-92327000D01*
X144951409Y-92327000D01*
X146168242Y-93543833D01*
X146136307Y-93620931D01*
X146089000Y-93858757D01*
X146089000Y-94101243D01*
X146136307Y-94339069D01*
X146229102Y-94563097D01*
X146363820Y-94764717D01*
X146535283Y-94936180D01*
X146736903Y-95070898D01*
X146960931Y-95163693D01*
X147198757Y-95211000D01*
X147441243Y-95211000D01*
X147679069Y-95163693D01*
X147903097Y-95070898D01*
X148104717Y-94936180D01*
X148276180Y-94764717D01*
X148410898Y-94563097D01*
X148503693Y-94339069D01*
X148551000Y-94101243D01*
X148551000Y-93858757D01*
X148629000Y-93858757D01*
X148629000Y-94101243D01*
X148676307Y-94339069D01*
X148769102Y-94563097D01*
X148903820Y-94764717D01*
X149075283Y-94936180D01*
X149276903Y-95070898D01*
X149500931Y-95163693D01*
X149738757Y-95211000D01*
X149981243Y-95211000D01*
X150219069Y-95163693D01*
X150443097Y-95070898D01*
X150644717Y-94936180D01*
X150816180Y-94764717D01*
X150950898Y-94563097D01*
X151043693Y-94339069D01*
X151091000Y-94101243D01*
X151091000Y-93858757D01*
X151169000Y-93858757D01*
X151169000Y-94101243D01*
X151216307Y-94339069D01*
X151309102Y-94563097D01*
X151443820Y-94764717D01*
X151615283Y-94936180D01*
X151816903Y-95070898D01*
X152040931Y-95163693D01*
X152278757Y-95211000D01*
X152521243Y-95211000D01*
X152759069Y-95163693D01*
X152983097Y-95070898D01*
X153184717Y-94936180D01*
X153356180Y-94764717D01*
X153490898Y-94563097D01*
X153583693Y-94339069D01*
X153631000Y-94101243D01*
X153631000Y-93858757D01*
X153583693Y-93620931D01*
X153490898Y-93396903D01*
X153356180Y-93195283D01*
X153184717Y-93023820D01*
X152983097Y-92889102D01*
X152759069Y-92796307D01*
X152521243Y-92749000D01*
X152278757Y-92749000D01*
X152040931Y-92796307D01*
X151816903Y-92889102D01*
X151615283Y-93023820D01*
X151443820Y-93195283D01*
X151309102Y-93396903D01*
X151216307Y-93620931D01*
X151169000Y-93858757D01*
X151091000Y-93858757D01*
X151043693Y-93620931D01*
X150950898Y-93396903D01*
X150816180Y-93195283D01*
X150644717Y-93023820D01*
X150443097Y-92889102D01*
X150219069Y-92796307D01*
X149981243Y-92749000D01*
X149738757Y-92749000D01*
X149500931Y-92796307D01*
X149276903Y-92889102D01*
X149075283Y-93023820D01*
X148903820Y-93195283D01*
X148769102Y-93396903D01*
X148676307Y-93620931D01*
X148629000Y-93858757D01*
X148551000Y-93858757D01*
X148503693Y-93620931D01*
X148410898Y-93396903D01*
X148276180Y-93195283D01*
X148104717Y-93023820D01*
X147903097Y-92889102D01*
X147679069Y-92796307D01*
X147441243Y-92749000D01*
X147198757Y-92749000D01*
X146960931Y-92796307D01*
X146883833Y-92828242D01*
X145932580Y-91876989D01*
X172441398Y-91876989D01*
X174108242Y-93543833D01*
X174076307Y-93620931D01*
X174029000Y-93858757D01*
X174029000Y-94101243D01*
X174076307Y-94339069D01*
X174169102Y-94563097D01*
X174303820Y-94764717D01*
X174475283Y-94936180D01*
X174676903Y-95070898D01*
X174900931Y-95163693D01*
X175138757Y-95211000D01*
X175381243Y-95211000D01*
X175619069Y-95163693D01*
X175843097Y-95070898D01*
X176044717Y-94936180D01*
X176216180Y-94764717D01*
X176350898Y-94563097D01*
X176443693Y-94339069D01*
X176491000Y-94101243D01*
X176491000Y-93858757D01*
X176443693Y-93620931D01*
X176350898Y-93396903D01*
X176216180Y-93195283D01*
X176044717Y-93023820D01*
X175843097Y-92889102D01*
X175619069Y-92796307D01*
X175381243Y-92749000D01*
X175138757Y-92749000D01*
X174900931Y-92796307D01*
X174823833Y-92828242D01*
X174668435Y-92672843D01*
X176110000Y-92672843D01*
X176184689Y-92665487D01*
X176256508Y-92643701D01*
X176322696Y-92608322D01*
X176380711Y-92560711D01*
X176428322Y-92502696D01*
X176463701Y-92436508D01*
X176485487Y-92364689D01*
X176492843Y-92290000D01*
X176492843Y-90590000D01*
X176485487Y-90515311D01*
X176463701Y-90443492D01*
X176428322Y-90377304D01*
X176380711Y-90319289D01*
X176322696Y-90271678D01*
X176256508Y-90236299D01*
X176184689Y-90214513D01*
X176110000Y-90207157D01*
X174410000Y-90207157D01*
X174335311Y-90214513D01*
X174263492Y-90236299D01*
X174197304Y-90271678D01*
X174139289Y-90319289D01*
X174091678Y-90377304D01*
X174056299Y-90443492D01*
X174034513Y-90515311D01*
X174027157Y-90590000D01*
X174027157Y-92031566D01*
X173026365Y-91030774D01*
X173010516Y-91011462D01*
X172933468Y-90948230D01*
X172845564Y-90901244D01*
X172750182Y-90872311D01*
X172675843Y-90864989D01*
X172675835Y-90864989D01*
X172650989Y-90862542D01*
X172626143Y-90864989D01*
X121377445Y-90864989D01*
X121352599Y-90862542D01*
X121327753Y-90864989D01*
X121327746Y-90864989D01*
X121265205Y-90871149D01*
X121253406Y-90872311D01*
X121210748Y-90885251D01*
X121158025Y-90901244D01*
X121070121Y-90948230D01*
X120993073Y-91011462D01*
X120977228Y-91030769D01*
X118071000Y-93936998D01*
X118071000Y-93858757D01*
X118023693Y-93620931D01*
X117930898Y-93396903D01*
X117796180Y-93195283D01*
X117624717Y-93023820D01*
X117423097Y-92889102D01*
X117199069Y-92796307D01*
X116961243Y-92749000D01*
X116718757Y-92749000D01*
X116480931Y-92796307D01*
X116256903Y-92889102D01*
X116055283Y-93023820D01*
X115883820Y-93195283D01*
X115749102Y-93396903D01*
X115656307Y-93620931D01*
X115609000Y-93858757D01*
X115609000Y-94101243D01*
X115656307Y-94339069D01*
X115749102Y-94563097D01*
X115883820Y-94764717D01*
X116024685Y-94905582D01*
X115993520Y-94922240D01*
X115916472Y-94985472D01*
X115900628Y-95004778D01*
X115324784Y-95580623D01*
X115305472Y-95596472D01*
X115242240Y-95673520D01*
X115195254Y-95761425D01*
X115166321Y-95856807D01*
X115158999Y-95931146D01*
X115158999Y-95931153D01*
X115156552Y-95955999D01*
X115158999Y-95980845D01*
X115159000Y-97860143D01*
X115156552Y-97884999D01*
X115166321Y-97984191D01*
X115195254Y-98079573D01*
X115195255Y-98079574D01*
X115242241Y-98167478D01*
X115305473Y-98244526D01*
X115324779Y-98260370D01*
X115688242Y-98623833D01*
X115656307Y-98700931D01*
X115609000Y-98938757D01*
X115609000Y-99181243D01*
X115656307Y-99419069D01*
X115749102Y-99643097D01*
X115794636Y-99711244D01*
X115763860Y-99715296D01*
X115667788Y-99741039D01*
X115547198Y-99790989D01*
X115461060Y-99840721D01*
X115357507Y-99920181D01*
X115287181Y-99990507D01*
X115207721Y-100094060D01*
X115157989Y-100180198D01*
X115108039Y-100300788D01*
X115082296Y-100396860D01*
X115065259Y-100526270D01*
X115062000Y-100576000D01*
X107086000Y-100576000D01*
X107086000Y-90824854D01*
X107104364Y-90637559D01*
X107118723Y-90590000D01*
X115607157Y-90590000D01*
X115607157Y-92290000D01*
X115614513Y-92364689D01*
X115636299Y-92436508D01*
X115671678Y-92502696D01*
X115719289Y-92560711D01*
X115777304Y-92608322D01*
X115843492Y-92643701D01*
X115915311Y-92665487D01*
X115990000Y-92672843D01*
X117690000Y-92672843D01*
X117764689Y-92665487D01*
X117836508Y-92643701D01*
X117902696Y-92608322D01*
X117960711Y-92560711D01*
X118008322Y-92502696D01*
X118043701Y-92436508D01*
X118065487Y-92364689D01*
X118072843Y-92290000D01*
X118072843Y-90590000D01*
X118065487Y-90515311D01*
X118043701Y-90443492D01*
X118008322Y-90377304D01*
X117960711Y-90319289D01*
X117902696Y-90271678D01*
X117836508Y-90236299D01*
X117764689Y-90214513D01*
X117690000Y-90207157D01*
X115990000Y-90207157D01*
X115915311Y-90214513D01*
X115843492Y-90236299D01*
X115777304Y-90271678D01*
X115719289Y-90319289D01*
X115671678Y-90377304D01*
X115636299Y-90443492D01*
X115614513Y-90515311D01*
X115607157Y-90590000D01*
X107118723Y-90590000D01*
X107152992Y-90476499D01*
X107231979Y-90327946D01*
X107338310Y-90197570D01*
X107467946Y-90090326D01*
X107615942Y-90010305D01*
X107776661Y-89960554D01*
X107962707Y-89941000D01*
X184130146Y-89941000D01*
X184317441Y-89959364D01*
%TA.AperFunction,Conductor*%
D16*
G36*
X184317441Y-89959364D02*
G01*
X184478501Y-90007992D01*
X184627054Y-90086979D01*
X184757430Y-90193310D01*
X184864674Y-90322946D01*
X184944695Y-90470942D01*
X184994446Y-90631661D01*
X185014000Y-90817707D01*
X185014001Y-112375136D01*
X184995636Y-112562441D01*
X184947008Y-112723503D01*
X184868023Y-112872051D01*
X184761689Y-113002430D01*
X184632054Y-113109674D01*
X184484058Y-113189695D01*
X184323339Y-113239446D01*
X184137293Y-113259000D01*
X107969854Y-113259000D01*
X107782559Y-113240636D01*
X107621497Y-113192008D01*
X107472949Y-113113023D01*
X107342570Y-113006689D01*
X107235326Y-112877054D01*
X107155305Y-112729058D01*
X107105554Y-112568339D01*
X107086000Y-112382293D01*
X107086000Y-112076980D01*
X174070511Y-112076980D01*
X174094866Y-112157288D01*
X174194761Y-112376961D01*
X174335592Y-112572924D01*
X174511948Y-112737647D01*
X174717051Y-112864799D01*
X174943019Y-112949495D01*
X175133000Y-112889187D01*
X175133000Y-111887000D01*
X175387000Y-111887000D01*
X175387000Y-112889187D01*
X175576981Y-112949495D01*
X175802949Y-112864799D01*
X176008052Y-112737647D01*
X176144713Y-112610000D01*
X176567157Y-112610000D01*
X176574513Y-112684689D01*
X176596299Y-112756508D01*
X176631678Y-112822696D01*
X176679289Y-112880711D01*
X176737304Y-112928322D01*
X176803492Y-112963701D01*
X176875311Y-112985487D01*
X176950000Y-112992843D01*
X177577750Y-112991000D01*
X177673000Y-112895750D01*
X177673000Y-111887000D01*
X177927000Y-111887000D01*
X177927000Y-112895750D01*
X178022250Y-112991000D01*
X178650000Y-112992843D01*
X178724689Y-112985487D01*
X178796508Y-112963701D01*
X178862696Y-112928322D01*
X178920711Y-112880711D01*
X178968322Y-112822696D01*
X179003701Y-112756508D01*
X179025487Y-112684689D01*
X179032843Y-112610000D01*
X179031000Y-111982250D01*
X178935750Y-111887000D01*
X177927000Y-111887000D01*
X177673000Y-111887000D01*
X176664250Y-111887000D01*
X176569000Y-111982250D01*
X176567157Y-112610000D01*
X176144713Y-112610000D01*
X176184408Y-112572924D01*
X176325239Y-112376961D01*
X176425134Y-112157288D01*
X176449489Y-112076980D01*
X176388627Y-111887000D01*
X175387000Y-111887000D01*
X175133000Y-111887000D01*
X174131373Y-111887000D01*
X174070511Y-112076980D01*
X107086000Y-112076980D01*
X107086000Y-111443020D01*
X174070511Y-111443020D01*
X174131373Y-111633000D01*
X175133000Y-111633000D01*
X175133000Y-110630813D01*
X175387000Y-110630813D01*
X175387000Y-111633000D01*
X176388627Y-111633000D01*
X176449489Y-111443020D01*
X176425134Y-111362712D01*
X176325239Y-111143039D01*
X176184408Y-110947076D01*
X176144714Y-110910000D01*
X176567157Y-110910000D01*
X176569000Y-111537750D01*
X176664250Y-111633000D01*
X177673000Y-111633000D01*
X177673000Y-110624250D01*
X177927000Y-110624250D01*
X177927000Y-111633000D01*
X178935750Y-111633000D01*
X179031000Y-111537750D01*
X179032843Y-110910000D01*
X179025487Y-110835311D01*
X179003701Y-110763492D01*
X178968322Y-110697304D01*
X178920711Y-110639289D01*
X178862696Y-110591678D01*
X178796508Y-110556299D01*
X178724689Y-110534513D01*
X178650000Y-110527157D01*
X178022250Y-110529000D01*
X177927000Y-110624250D01*
X177673000Y-110624250D01*
X177577750Y-110529000D01*
X176950000Y-110527157D01*
X176875311Y-110534513D01*
X176803492Y-110556299D01*
X176737304Y-110591678D01*
X176679289Y-110639289D01*
X176631678Y-110697304D01*
X176596299Y-110763492D01*
X176574513Y-110835311D01*
X176567157Y-110910000D01*
X176144714Y-110910000D01*
X176008052Y-110782353D01*
X175802949Y-110655201D01*
X175576981Y-110570505D01*
X175387000Y-110630813D01*
X175133000Y-110630813D01*
X174943019Y-110570505D01*
X174717051Y-110655201D01*
X174511948Y-110782353D01*
X174335592Y-110947076D01*
X174194761Y-111143039D01*
X174094866Y-111362712D01*
X174070511Y-111443020D01*
X107086000Y-111443020D01*
X107086000Y-109098757D01*
X120689000Y-109098757D01*
X120689000Y-109341243D01*
X120736307Y-109579069D01*
X120829102Y-109803097D01*
X120963820Y-110004717D01*
X121135283Y-110176180D01*
X121336903Y-110310898D01*
X121560931Y-110403693D01*
X121798757Y-110451000D01*
X122041243Y-110451000D01*
X122279069Y-110403693D01*
X122503097Y-110310898D01*
X122704717Y-110176180D01*
X122876180Y-110004717D01*
X123010898Y-109803097D01*
X123103693Y-109579069D01*
X123151000Y-109341243D01*
X123151000Y-109098757D01*
X123229000Y-109098757D01*
X123229000Y-109341243D01*
X123276307Y-109579069D01*
X123369102Y-109803097D01*
X123503820Y-110004717D01*
X123675283Y-110176180D01*
X123876903Y-110310898D01*
X124100931Y-110403693D01*
X124338757Y-110451000D01*
X124581243Y-110451000D01*
X124819069Y-110403693D01*
X125043097Y-110310898D01*
X125244717Y-110176180D01*
X125416180Y-110004717D01*
X125550898Y-109803097D01*
X125643693Y-109579069D01*
X125691000Y-109341243D01*
X125691000Y-109098757D01*
X125769000Y-109098757D01*
X125769000Y-109341243D01*
X125816307Y-109579069D01*
X125909102Y-109803097D01*
X126043820Y-110004717D01*
X126215283Y-110176180D01*
X126416903Y-110310898D01*
X126640931Y-110403693D01*
X126878757Y-110451000D01*
X127121243Y-110451000D01*
X127359069Y-110403693D01*
X127583097Y-110310898D01*
X127784717Y-110176180D01*
X127956180Y-110004717D01*
X128090898Y-109803097D01*
X128183693Y-109579069D01*
X128231000Y-109341243D01*
X128231000Y-109098757D01*
X128309000Y-109098757D01*
X128309000Y-109341243D01*
X128356307Y-109579069D01*
X128449102Y-109803097D01*
X128583820Y-110004717D01*
X128755283Y-110176180D01*
X128956903Y-110310898D01*
X129180931Y-110403693D01*
X129418757Y-110451000D01*
X129661243Y-110451000D01*
X129899069Y-110403693D01*
X130123097Y-110310898D01*
X130324717Y-110176180D01*
X130496180Y-110004717D01*
X130630898Y-109803097D01*
X130723693Y-109579069D01*
X130771000Y-109341243D01*
X130771000Y-109098757D01*
X130849000Y-109098757D01*
X130849000Y-109341243D01*
X130896307Y-109579069D01*
X130989102Y-109803097D01*
X131123820Y-110004717D01*
X131295283Y-110176180D01*
X131496903Y-110310898D01*
X131720931Y-110403693D01*
X131958757Y-110451000D01*
X132201243Y-110451000D01*
X132439069Y-110403693D01*
X132663097Y-110310898D01*
X132864717Y-110176180D01*
X133036180Y-110004717D01*
X133170898Y-109803097D01*
X133263693Y-109579069D01*
X133311000Y-109341243D01*
X133311000Y-109098757D01*
X133389000Y-109098757D01*
X133389000Y-109341243D01*
X133436307Y-109579069D01*
X133529102Y-109803097D01*
X133663820Y-110004717D01*
X133835283Y-110176180D01*
X134036903Y-110310898D01*
X134260931Y-110403693D01*
X134498757Y-110451000D01*
X134741243Y-110451000D01*
X134979069Y-110403693D01*
X135203097Y-110310898D01*
X135404717Y-110176180D01*
X135576180Y-110004717D01*
X135710898Y-109803097D01*
X135803693Y-109579069D01*
X135851000Y-109341243D01*
X135851000Y-109098757D01*
X135929000Y-109098757D01*
X135929000Y-109341243D01*
X135976307Y-109579069D01*
X136069102Y-109803097D01*
X136203820Y-110004717D01*
X136375283Y-110176180D01*
X136576903Y-110310898D01*
X136800931Y-110403693D01*
X137038757Y-110451000D01*
X137281243Y-110451000D01*
X137519069Y-110403693D01*
X137743097Y-110310898D01*
X137944717Y-110176180D01*
X138116180Y-110004717D01*
X138250898Y-109803097D01*
X138343693Y-109579069D01*
X138391000Y-109341243D01*
X138391000Y-109098757D01*
X138469000Y-109098757D01*
X138469000Y-109341243D01*
X138516307Y-109579069D01*
X138609102Y-109803097D01*
X138743820Y-110004717D01*
X138915283Y-110176180D01*
X139116903Y-110310898D01*
X139340931Y-110403693D01*
X139578757Y-110451000D01*
X139821243Y-110451000D01*
X140059069Y-110403693D01*
X140283097Y-110310898D01*
X140484717Y-110176180D01*
X140656180Y-110004717D01*
X140790898Y-109803097D01*
X140883693Y-109579069D01*
X140931000Y-109341243D01*
X140931000Y-109098757D01*
X141009000Y-109098757D01*
X141009000Y-109341243D01*
X141056307Y-109579069D01*
X141149102Y-109803097D01*
X141283820Y-110004717D01*
X141455283Y-110176180D01*
X141656903Y-110310898D01*
X141880931Y-110403693D01*
X142118757Y-110451000D01*
X142361243Y-110451000D01*
X142599069Y-110403693D01*
X142823097Y-110310898D01*
X143024717Y-110176180D01*
X143196180Y-110004717D01*
X143330898Y-109803097D01*
X143423693Y-109579069D01*
X143471000Y-109341243D01*
X143471000Y-109098757D01*
X143549000Y-109098757D01*
X143549000Y-109341243D01*
X143596307Y-109579069D01*
X143689102Y-109803097D01*
X143823820Y-110004717D01*
X143995283Y-110176180D01*
X144196903Y-110310898D01*
X144420931Y-110403693D01*
X144658757Y-110451000D01*
X144901243Y-110451000D01*
X145139069Y-110403693D01*
X145363097Y-110310898D01*
X145564717Y-110176180D01*
X145736180Y-110004717D01*
X145870898Y-109803097D01*
X145963693Y-109579069D01*
X146011000Y-109341243D01*
X146011000Y-109098757D01*
X146089000Y-109098757D01*
X146089000Y-109341243D01*
X146136307Y-109579069D01*
X146229102Y-109803097D01*
X146363820Y-110004717D01*
X146535283Y-110176180D01*
X146736903Y-110310898D01*
X146960931Y-110403693D01*
X147198757Y-110451000D01*
X147441243Y-110451000D01*
X147679069Y-110403693D01*
X147903097Y-110310898D01*
X148104717Y-110176180D01*
X148276180Y-110004717D01*
X148410898Y-109803097D01*
X148503693Y-109579069D01*
X148551000Y-109341243D01*
X148551000Y-109098757D01*
X148629000Y-109098757D01*
X148629000Y-109341243D01*
X148676307Y-109579069D01*
X148769102Y-109803097D01*
X148903820Y-110004717D01*
X149075283Y-110176180D01*
X149276903Y-110310898D01*
X149500931Y-110403693D01*
X149738757Y-110451000D01*
X149981243Y-110451000D01*
X150219069Y-110403693D01*
X150443097Y-110310898D01*
X150644717Y-110176180D01*
X150816180Y-110004717D01*
X150950898Y-109803097D01*
X151043693Y-109579069D01*
X151091000Y-109341243D01*
X151091000Y-109098757D01*
X151169000Y-109098757D01*
X151169000Y-109341243D01*
X151216307Y-109579069D01*
X151309102Y-109803097D01*
X151443820Y-110004717D01*
X151615283Y-110176180D01*
X151816903Y-110310898D01*
X152040931Y-110403693D01*
X152278757Y-110451000D01*
X152521243Y-110451000D01*
X152759069Y-110403693D01*
X152983097Y-110310898D01*
X153184717Y-110176180D01*
X153356180Y-110004717D01*
X153490898Y-109803097D01*
X153583693Y-109579069D01*
X153631000Y-109341243D01*
X153631000Y-109098757D01*
X153709000Y-109098757D01*
X153709000Y-109341243D01*
X153756307Y-109579069D01*
X153849102Y-109803097D01*
X153983820Y-110004717D01*
X154155283Y-110176180D01*
X154356903Y-110310898D01*
X154580931Y-110403693D01*
X154818757Y-110451000D01*
X155061243Y-110451000D01*
X155299069Y-110403693D01*
X155523097Y-110310898D01*
X155724717Y-110176180D01*
X155896180Y-110004717D01*
X156030898Y-109803097D01*
X156123693Y-109579069D01*
X156171000Y-109341243D01*
X156171000Y-109098757D01*
X156249000Y-109098757D01*
X156249000Y-109341243D01*
X156296307Y-109579069D01*
X156389102Y-109803097D01*
X156523820Y-110004717D01*
X156695283Y-110176180D01*
X156896903Y-110310898D01*
X157120931Y-110403693D01*
X157358757Y-110451000D01*
X157601243Y-110451000D01*
X157839069Y-110403693D01*
X158063097Y-110310898D01*
X158264717Y-110176180D01*
X158436180Y-110004717D01*
X158570898Y-109803097D01*
X158663693Y-109579069D01*
X158711000Y-109341243D01*
X158711000Y-109098757D01*
X158789000Y-109098757D01*
X158789000Y-109341243D01*
X158836307Y-109579069D01*
X158929102Y-109803097D01*
X159063820Y-110004717D01*
X159235283Y-110176180D01*
X159436903Y-110310898D01*
X159660931Y-110403693D01*
X159898757Y-110451000D01*
X160141243Y-110451000D01*
X160379069Y-110403693D01*
X160603097Y-110310898D01*
X160804717Y-110176180D01*
X160976180Y-110004717D01*
X161110898Y-109803097D01*
X161203693Y-109579069D01*
X161251000Y-109341243D01*
X161251000Y-109098757D01*
X161329000Y-109098757D01*
X161329000Y-109341243D01*
X161376307Y-109579069D01*
X161469102Y-109803097D01*
X161603820Y-110004717D01*
X161775283Y-110176180D01*
X161976903Y-110310898D01*
X162200931Y-110403693D01*
X162438757Y-110451000D01*
X162681243Y-110451000D01*
X162919069Y-110403693D01*
X163143097Y-110310898D01*
X163344717Y-110176180D01*
X163516180Y-110004717D01*
X163650898Y-109803097D01*
X163743693Y-109579069D01*
X163791000Y-109341243D01*
X163791000Y-109098757D01*
X163869000Y-109098757D01*
X163869000Y-109341243D01*
X163916307Y-109579069D01*
X164009102Y-109803097D01*
X164143820Y-110004717D01*
X164315283Y-110176180D01*
X164516903Y-110310898D01*
X164740931Y-110403693D01*
X164978757Y-110451000D01*
X165221243Y-110451000D01*
X165459069Y-110403693D01*
X165683097Y-110310898D01*
X165884717Y-110176180D01*
X165948797Y-110112100D01*
X166927505Y-110112100D01*
X167019523Y-110290078D01*
X167240207Y-110390566D01*
X167476255Y-110446069D01*
X167718596Y-110454456D01*
X167957917Y-110415402D01*
X168185020Y-110330411D01*
X168260477Y-110290078D01*
X168352495Y-110112100D01*
X169467505Y-110112100D01*
X169559523Y-110290078D01*
X169780207Y-110390566D01*
X170016255Y-110446069D01*
X170258596Y-110454456D01*
X170497917Y-110415402D01*
X170725020Y-110330411D01*
X170800477Y-110290078D01*
X170892495Y-110112100D01*
X170180000Y-109399605D01*
X169467505Y-110112100D01*
X168352495Y-110112100D01*
X167640000Y-109399605D01*
X166927505Y-110112100D01*
X165948797Y-110112100D01*
X166056180Y-110004717D01*
X166190898Y-109803097D01*
X166283693Y-109579069D01*
X166331000Y-109341243D01*
X166331000Y-109298596D01*
X166405544Y-109298596D01*
X166444598Y-109537917D01*
X166529589Y-109765020D01*
X166569922Y-109840477D01*
X166747900Y-109932495D01*
X167460395Y-109220000D01*
X167819605Y-109220000D01*
X168532100Y-109932495D01*
X168710078Y-109840477D01*
X168810566Y-109619793D01*
X168866069Y-109383745D01*
X168869015Y-109298596D01*
X168945544Y-109298596D01*
X168984598Y-109537917D01*
X169069589Y-109765020D01*
X169109922Y-109840477D01*
X169287900Y-109932495D01*
X170000395Y-109220000D01*
X170359605Y-109220000D01*
X171072100Y-109932495D01*
X171250078Y-109840477D01*
X171350566Y-109619793D01*
X171406069Y-109383745D01*
X171414456Y-109141404D01*
X171407497Y-109098757D01*
X174029000Y-109098757D01*
X174029000Y-109341243D01*
X174076307Y-109579069D01*
X174169102Y-109803097D01*
X174303820Y-110004717D01*
X174475283Y-110176180D01*
X174676903Y-110310898D01*
X174900931Y-110403693D01*
X175138757Y-110451000D01*
X175381243Y-110451000D01*
X175619069Y-110403693D01*
X175843097Y-110310898D01*
X176044717Y-110176180D01*
X176216180Y-110004717D01*
X176350898Y-109803097D01*
X176443693Y-109579069D01*
X176491000Y-109341243D01*
X176491000Y-109098757D01*
X176569000Y-109098757D01*
X176569000Y-109341243D01*
X176616307Y-109579069D01*
X176709102Y-109803097D01*
X176843820Y-110004717D01*
X177015283Y-110176180D01*
X177216903Y-110310898D01*
X177440931Y-110403693D01*
X177678757Y-110451000D01*
X177921243Y-110451000D01*
X178159069Y-110403693D01*
X178383097Y-110310898D01*
X178584717Y-110176180D01*
X178756180Y-110004717D01*
X178890898Y-109803097D01*
X178983693Y-109579069D01*
X179031000Y-109341243D01*
X179031000Y-109098757D01*
X178983693Y-108860931D01*
X178890898Y-108636903D01*
X178756180Y-108435283D01*
X178584717Y-108263820D01*
X178383097Y-108129102D01*
X178159069Y-108036307D01*
X177921243Y-107989000D01*
X177678757Y-107989000D01*
X177440931Y-108036307D01*
X177216903Y-108129102D01*
X177015283Y-108263820D01*
X176843820Y-108435283D01*
X176709102Y-108636903D01*
X176616307Y-108860931D01*
X176569000Y-109098757D01*
X176491000Y-109098757D01*
X176443693Y-108860931D01*
X176350898Y-108636903D01*
X176216180Y-108435283D01*
X176044717Y-108263820D01*
X175843097Y-108129102D01*
X175619069Y-108036307D01*
X175381243Y-107989000D01*
X175138757Y-107989000D01*
X174900931Y-108036307D01*
X174676903Y-108129102D01*
X174475283Y-108263820D01*
X174303820Y-108435283D01*
X174169102Y-108636903D01*
X174076307Y-108860931D01*
X174029000Y-109098757D01*
X171407497Y-109098757D01*
X171375402Y-108902083D01*
X171290411Y-108674980D01*
X171250078Y-108599523D01*
X171072100Y-108507505D01*
X170359605Y-109220000D01*
X170000395Y-109220000D01*
X169287900Y-108507505D01*
X169109922Y-108599523D01*
X169009434Y-108820207D01*
X168953931Y-109056255D01*
X168945544Y-109298596D01*
X168869015Y-109298596D01*
X168874456Y-109141404D01*
X168835402Y-108902083D01*
X168750411Y-108674980D01*
X168710078Y-108599523D01*
X168532100Y-108507505D01*
X167819605Y-109220000D01*
X167460395Y-109220000D01*
X166747900Y-108507505D01*
X166569922Y-108599523D01*
X166469434Y-108820207D01*
X166413931Y-109056255D01*
X166405544Y-109298596D01*
X166331000Y-109298596D01*
X166331000Y-109098757D01*
X166283693Y-108860931D01*
X166190898Y-108636903D01*
X166056180Y-108435283D01*
X165948797Y-108327900D01*
X166927505Y-108327900D01*
X167640000Y-109040395D01*
X168352495Y-108327900D01*
X169467505Y-108327900D01*
X170180000Y-109040395D01*
X170892495Y-108327900D01*
X170800477Y-108149922D01*
X170579793Y-108049434D01*
X170343745Y-107993931D01*
X170101404Y-107985544D01*
X169862083Y-108024598D01*
X169634980Y-108109589D01*
X169559523Y-108149922D01*
X169467505Y-108327900D01*
X168352495Y-108327900D01*
X168260477Y-108149922D01*
X168039793Y-108049434D01*
X167803745Y-107993931D01*
X167561404Y-107985544D01*
X167322083Y-108024598D01*
X167094980Y-108109589D01*
X167019523Y-108149922D01*
X166927505Y-108327900D01*
X165948797Y-108327900D01*
X165884717Y-108263820D01*
X165683097Y-108129102D01*
X165459069Y-108036307D01*
X165221243Y-107989000D01*
X164978757Y-107989000D01*
X164740931Y-108036307D01*
X164516903Y-108129102D01*
X164315283Y-108263820D01*
X164143820Y-108435283D01*
X164009102Y-108636903D01*
X163916307Y-108860931D01*
X163869000Y-109098757D01*
X163791000Y-109098757D01*
X163743693Y-108860931D01*
X163650898Y-108636903D01*
X163516180Y-108435283D01*
X163344717Y-108263820D01*
X163143097Y-108129102D01*
X162919069Y-108036307D01*
X162681243Y-107989000D01*
X162438757Y-107989000D01*
X162200931Y-108036307D01*
X161976903Y-108129102D01*
X161775283Y-108263820D01*
X161603820Y-108435283D01*
X161469102Y-108636903D01*
X161376307Y-108860931D01*
X161329000Y-109098757D01*
X161251000Y-109098757D01*
X161203693Y-108860931D01*
X161110898Y-108636903D01*
X160976180Y-108435283D01*
X160804717Y-108263820D01*
X160603097Y-108129102D01*
X160379069Y-108036307D01*
X160141243Y-107989000D01*
X159898757Y-107989000D01*
X159660931Y-108036307D01*
X159436903Y-108129102D01*
X159235283Y-108263820D01*
X159063820Y-108435283D01*
X158929102Y-108636903D01*
X158836307Y-108860931D01*
X158789000Y-109098757D01*
X158711000Y-109098757D01*
X158663693Y-108860931D01*
X158570898Y-108636903D01*
X158436180Y-108435283D01*
X158264717Y-108263820D01*
X158063097Y-108129102D01*
X157839069Y-108036307D01*
X157601243Y-107989000D01*
X157358757Y-107989000D01*
X157120931Y-108036307D01*
X156896903Y-108129102D01*
X156695283Y-108263820D01*
X156523820Y-108435283D01*
X156389102Y-108636903D01*
X156296307Y-108860931D01*
X156249000Y-109098757D01*
X156171000Y-109098757D01*
X156123693Y-108860931D01*
X156030898Y-108636903D01*
X155896180Y-108435283D01*
X155724717Y-108263820D01*
X155523097Y-108129102D01*
X155299069Y-108036307D01*
X155061243Y-107989000D01*
X154818757Y-107989000D01*
X154580931Y-108036307D01*
X154356903Y-108129102D01*
X154155283Y-108263820D01*
X153983820Y-108435283D01*
X153849102Y-108636903D01*
X153756307Y-108860931D01*
X153709000Y-109098757D01*
X153631000Y-109098757D01*
X153583693Y-108860931D01*
X153490898Y-108636903D01*
X153356180Y-108435283D01*
X153184717Y-108263820D01*
X152983097Y-108129102D01*
X152759069Y-108036307D01*
X152521243Y-107989000D01*
X152278757Y-107989000D01*
X152040931Y-108036307D01*
X151816903Y-108129102D01*
X151615283Y-108263820D01*
X151443820Y-108435283D01*
X151309102Y-108636903D01*
X151216307Y-108860931D01*
X151169000Y-109098757D01*
X151091000Y-109098757D01*
X151043693Y-108860931D01*
X150950898Y-108636903D01*
X150816180Y-108435283D01*
X150644717Y-108263820D01*
X150443097Y-108129102D01*
X150219069Y-108036307D01*
X149981243Y-107989000D01*
X149738757Y-107989000D01*
X149500931Y-108036307D01*
X149276903Y-108129102D01*
X149075283Y-108263820D01*
X148903820Y-108435283D01*
X148769102Y-108636903D01*
X148676307Y-108860931D01*
X148629000Y-109098757D01*
X148551000Y-109098757D01*
X148503693Y-108860931D01*
X148410898Y-108636903D01*
X148276180Y-108435283D01*
X148104717Y-108263820D01*
X147903097Y-108129102D01*
X147679069Y-108036307D01*
X147441243Y-107989000D01*
X147198757Y-107989000D01*
X146960931Y-108036307D01*
X146736903Y-108129102D01*
X146535283Y-108263820D01*
X146363820Y-108435283D01*
X146229102Y-108636903D01*
X146136307Y-108860931D01*
X146089000Y-109098757D01*
X146011000Y-109098757D01*
X145963693Y-108860931D01*
X145870898Y-108636903D01*
X145736180Y-108435283D01*
X145564717Y-108263820D01*
X145363097Y-108129102D01*
X145139069Y-108036307D01*
X144901243Y-107989000D01*
X144658757Y-107989000D01*
X144420931Y-108036307D01*
X144196903Y-108129102D01*
X143995283Y-108263820D01*
X143823820Y-108435283D01*
X143689102Y-108636903D01*
X143596307Y-108860931D01*
X143549000Y-109098757D01*
X143471000Y-109098757D01*
X143423693Y-108860931D01*
X143330898Y-108636903D01*
X143196180Y-108435283D01*
X143024717Y-108263820D01*
X142823097Y-108129102D01*
X142599069Y-108036307D01*
X142361243Y-107989000D01*
X142118757Y-107989000D01*
X141880931Y-108036307D01*
X141656903Y-108129102D01*
X141455283Y-108263820D01*
X141283820Y-108435283D01*
X141149102Y-108636903D01*
X141056307Y-108860931D01*
X141009000Y-109098757D01*
X140931000Y-109098757D01*
X140883693Y-108860931D01*
X140790898Y-108636903D01*
X140656180Y-108435283D01*
X140484717Y-108263820D01*
X140283097Y-108129102D01*
X140059069Y-108036307D01*
X139821243Y-107989000D01*
X139578757Y-107989000D01*
X139340931Y-108036307D01*
X139116903Y-108129102D01*
X138915283Y-108263820D01*
X138743820Y-108435283D01*
X138609102Y-108636903D01*
X138516307Y-108860931D01*
X138469000Y-109098757D01*
X138391000Y-109098757D01*
X138343693Y-108860931D01*
X138250898Y-108636903D01*
X138116180Y-108435283D01*
X137944717Y-108263820D01*
X137743097Y-108129102D01*
X137519069Y-108036307D01*
X137281243Y-107989000D01*
X137038757Y-107989000D01*
X136800931Y-108036307D01*
X136576903Y-108129102D01*
X136375283Y-108263820D01*
X136203820Y-108435283D01*
X136069102Y-108636903D01*
X135976307Y-108860931D01*
X135929000Y-109098757D01*
X135851000Y-109098757D01*
X135803693Y-108860931D01*
X135710898Y-108636903D01*
X135576180Y-108435283D01*
X135404717Y-108263820D01*
X135203097Y-108129102D01*
X134979069Y-108036307D01*
X134741243Y-107989000D01*
X134498757Y-107989000D01*
X134260931Y-108036307D01*
X134036903Y-108129102D01*
X133835283Y-108263820D01*
X133663820Y-108435283D01*
X133529102Y-108636903D01*
X133436307Y-108860931D01*
X133389000Y-109098757D01*
X133311000Y-109098757D01*
X133263693Y-108860931D01*
X133170898Y-108636903D01*
X133036180Y-108435283D01*
X132864717Y-108263820D01*
X132663097Y-108129102D01*
X132439069Y-108036307D01*
X132201243Y-107989000D01*
X131958757Y-107989000D01*
X131720931Y-108036307D01*
X131496903Y-108129102D01*
X131295283Y-108263820D01*
X131123820Y-108435283D01*
X130989102Y-108636903D01*
X130896307Y-108860931D01*
X130849000Y-109098757D01*
X130771000Y-109098757D01*
X130723693Y-108860931D01*
X130630898Y-108636903D01*
X130496180Y-108435283D01*
X130324717Y-108263820D01*
X130123097Y-108129102D01*
X129899069Y-108036307D01*
X129661243Y-107989000D01*
X129418757Y-107989000D01*
X129180931Y-108036307D01*
X128956903Y-108129102D01*
X128755283Y-108263820D01*
X128583820Y-108435283D01*
X128449102Y-108636903D01*
X128356307Y-108860931D01*
X128309000Y-109098757D01*
X128231000Y-109098757D01*
X128183693Y-108860931D01*
X128090898Y-108636903D01*
X127956180Y-108435283D01*
X127784717Y-108263820D01*
X127583097Y-108129102D01*
X127359069Y-108036307D01*
X127121243Y-107989000D01*
X126878757Y-107989000D01*
X126640931Y-108036307D01*
X126416903Y-108129102D01*
X126215283Y-108263820D01*
X126043820Y-108435283D01*
X125909102Y-108636903D01*
X125816307Y-108860931D01*
X125769000Y-109098757D01*
X125691000Y-109098757D01*
X125643693Y-108860931D01*
X125550898Y-108636903D01*
X125416180Y-108435283D01*
X125244717Y-108263820D01*
X125043097Y-108129102D01*
X124819069Y-108036307D01*
X124581243Y-107989000D01*
X124338757Y-107989000D01*
X124100931Y-108036307D01*
X123876903Y-108129102D01*
X123675283Y-108263820D01*
X123503820Y-108435283D01*
X123369102Y-108636903D01*
X123276307Y-108860931D01*
X123229000Y-109098757D01*
X123151000Y-109098757D01*
X123103693Y-108860931D01*
X123010898Y-108636903D01*
X122876180Y-108435283D01*
X122704717Y-108263820D01*
X122503097Y-108129102D01*
X122279069Y-108036307D01*
X122041243Y-107989000D01*
X121798757Y-107989000D01*
X121560931Y-108036307D01*
X121336903Y-108129102D01*
X121135283Y-108263820D01*
X120963820Y-108435283D01*
X120829102Y-108636903D01*
X120736307Y-108860931D01*
X120689000Y-109098757D01*
X107086000Y-109098757D01*
X107086000Y-105853980D01*
X138510511Y-105853980D01*
X138534866Y-105934288D01*
X138634761Y-106153961D01*
X138775592Y-106349924D01*
X138951948Y-106514647D01*
X139157051Y-106641799D01*
X139383019Y-106726495D01*
X139573000Y-106666187D01*
X139573000Y-105664000D01*
X139827000Y-105664000D01*
X139827000Y-106666187D01*
X140016981Y-106726495D01*
X140242949Y-106641799D01*
X140376900Y-106558757D01*
X174029000Y-106558757D01*
X174029000Y-106801243D01*
X174076307Y-107039069D01*
X174169102Y-107263097D01*
X174303820Y-107464717D01*
X174475283Y-107636180D01*
X174676903Y-107770898D01*
X174900931Y-107863693D01*
X175138757Y-107911000D01*
X175381243Y-107911000D01*
X175619069Y-107863693D01*
X175843097Y-107770898D01*
X176044717Y-107636180D01*
X176216180Y-107464717D01*
X176350898Y-107263097D01*
X176443693Y-107039069D01*
X176491000Y-106801243D01*
X176491000Y-106558757D01*
X176569000Y-106558757D01*
X176569000Y-106801243D01*
X176616307Y-107039069D01*
X176709102Y-107263097D01*
X176843820Y-107464717D01*
X177015283Y-107636180D01*
X177216903Y-107770898D01*
X177440931Y-107863693D01*
X177678757Y-107911000D01*
X177921243Y-107911000D01*
X178159069Y-107863693D01*
X178383097Y-107770898D01*
X178584717Y-107636180D01*
X178756180Y-107464717D01*
X178890898Y-107263097D01*
X178983693Y-107039069D01*
X179031000Y-106801243D01*
X179031000Y-106558757D01*
X178983693Y-106320931D01*
X178890898Y-106096903D01*
X178756180Y-105895283D01*
X178584717Y-105723820D01*
X178383097Y-105589102D01*
X178159069Y-105496307D01*
X177921243Y-105449000D01*
X177678757Y-105449000D01*
X177440931Y-105496307D01*
X177216903Y-105589102D01*
X177015283Y-105723820D01*
X176843820Y-105895283D01*
X176709102Y-106096903D01*
X176616307Y-106320931D01*
X176569000Y-106558757D01*
X176491000Y-106558757D01*
X176443693Y-106320931D01*
X176350898Y-106096903D01*
X176216180Y-105895283D01*
X176044717Y-105723820D01*
X175843097Y-105589102D01*
X175619069Y-105496307D01*
X175381243Y-105449000D01*
X175138757Y-105449000D01*
X174900931Y-105496307D01*
X174676903Y-105589102D01*
X174475283Y-105723820D01*
X174303820Y-105895283D01*
X174169102Y-106096903D01*
X174076307Y-106320931D01*
X174029000Y-106558757D01*
X140376900Y-106558757D01*
X140448052Y-106514647D01*
X140624408Y-106349924D01*
X140765239Y-106153961D01*
X140865134Y-105934288D01*
X140889489Y-105853980D01*
X140828627Y-105664000D01*
X139827000Y-105664000D01*
X139573000Y-105664000D01*
X138571373Y-105664000D01*
X138510511Y-105853980D01*
X107086000Y-105853980D01*
X107086000Y-104456980D01*
X115650511Y-104456980D01*
X115674866Y-104537288D01*
X115774761Y-104756961D01*
X115915592Y-104952924D01*
X116091948Y-105117647D01*
X116297051Y-105244799D01*
X116523019Y-105329495D01*
X116713000Y-105269187D01*
X116713000Y-104267000D01*
X116967000Y-104267000D01*
X116967000Y-105269187D01*
X117156981Y-105329495D01*
X117382949Y-105244799D01*
X117588052Y-105117647D01*
X117764408Y-104952924D01*
X117905239Y-104756961D01*
X118005134Y-104537288D01*
X118029489Y-104456980D01*
X117968627Y-104267000D01*
X116967000Y-104267000D01*
X116713000Y-104267000D01*
X115711373Y-104267000D01*
X115650511Y-104456980D01*
X107086000Y-104456980D01*
X107086000Y-100576000D01*
X115062000Y-100576000D01*
X115062000Y-102624000D01*
X115065259Y-102673730D01*
X115082296Y-102803140D01*
X115108039Y-102899212D01*
X115157989Y-103019802D01*
X115207721Y-103105940D01*
X115287181Y-103209493D01*
X115357507Y-103279819D01*
X115461060Y-103359279D01*
X115547198Y-103409011D01*
X115667788Y-103458961D01*
X115763860Y-103484704D01*
X115798987Y-103489329D01*
X115774761Y-103523039D01*
X115674866Y-103742712D01*
X115650511Y-103823020D01*
X115711373Y-104013000D01*
X116713000Y-104013000D01*
X116713000Y-103993000D01*
X116967000Y-103993000D01*
X116967000Y-104013000D01*
X117968627Y-104013000D01*
X118029489Y-103823020D01*
X118005134Y-103742712D01*
X117905239Y-103523039D01*
X117892275Y-103505000D01*
X124951025Y-103505000D01*
X125005952Y-103512231D01*
X125033855Y-103523789D01*
X125057821Y-103542179D01*
X125076211Y-103566145D01*
X125087769Y-103594048D01*
X125095000Y-103648975D01*
X125095000Y-104021000D01*
X125098259Y-104070730D01*
X125115296Y-104200140D01*
X125141039Y-104296212D01*
X125190989Y-104416802D01*
X125240721Y-104502940D01*
X125320181Y-104606493D01*
X125390507Y-104676819D01*
X125494060Y-104756279D01*
X125580198Y-104806011D01*
X125700788Y-104855961D01*
X125796860Y-104881704D01*
X125926270Y-104898741D01*
X125976000Y-104902000D01*
X138647725Y-104902000D01*
X138634761Y-104920039D01*
X138534866Y-105139712D01*
X138510511Y-105220020D01*
X138571373Y-105410000D01*
X139573000Y-105410000D01*
X139573000Y-105390000D01*
X139827000Y-105390000D01*
X139827000Y-105410000D01*
X140828627Y-105410000D01*
X140889489Y-105220020D01*
X140865134Y-105139712D01*
X140765239Y-104920039D01*
X140696025Y-104823730D01*
X140738802Y-104806011D01*
X140824940Y-104756279D01*
X140928493Y-104676819D01*
X140998819Y-104606493D01*
X141078279Y-104502940D01*
X141128011Y-104416802D01*
X141177961Y-104296212D01*
X141203704Y-104200140D01*
X141220741Y-104070730D01*
X141224000Y-104021000D01*
X141224000Y-101973000D01*
X141220741Y-101923270D01*
X141203704Y-101793860D01*
X141177961Y-101697788D01*
X141128011Y-101577198D01*
X141078279Y-101491060D01*
X140998819Y-101387507D01*
X140928493Y-101317181D01*
X140824940Y-101237721D01*
X140738802Y-101187989D01*
X140702208Y-101172831D01*
X140790898Y-101040097D01*
X140822832Y-100963000D01*
X150978154Y-100963000D01*
X151003000Y-100965447D01*
X151027846Y-100963000D01*
X151027854Y-100963000D01*
X151102193Y-100955678D01*
X151197575Y-100926745D01*
X151285479Y-100879759D01*
X151362527Y-100816527D01*
X151378376Y-100797215D01*
X157043834Y-95131758D01*
X157120931Y-95163693D01*
X157358757Y-95211000D01*
X157601243Y-95211000D01*
X157839069Y-95163693D01*
X158063097Y-95070898D01*
X158264717Y-94936180D01*
X158436180Y-94764717D01*
X158570898Y-94563097D01*
X158663693Y-94339069D01*
X158711000Y-94101243D01*
X158711000Y-93858757D01*
X158789000Y-93858757D01*
X158789000Y-94101243D01*
X158836307Y-94339069D01*
X158929102Y-94563097D01*
X159063820Y-94764717D01*
X159235283Y-94936180D01*
X159436903Y-95070898D01*
X159514000Y-95102833D01*
X159514001Y-101575144D01*
X159511553Y-101600000D01*
X159521322Y-101699192D01*
X159550255Y-101794574D01*
X159572127Y-101835492D01*
X159597242Y-101882479D01*
X159660474Y-101959527D01*
X159679779Y-101975370D01*
X161408242Y-103703833D01*
X161376307Y-103780931D01*
X161329000Y-104018757D01*
X161329000Y-104261243D01*
X161376307Y-104499069D01*
X161469102Y-104723097D01*
X161603820Y-104924717D01*
X161775283Y-105096180D01*
X161976903Y-105230898D01*
X162200931Y-105323693D01*
X162438757Y-105371000D01*
X162681243Y-105371000D01*
X162919069Y-105323693D01*
X163143097Y-105230898D01*
X163344717Y-105096180D01*
X163516180Y-104924717D01*
X163650898Y-104723097D01*
X163743693Y-104499069D01*
X163791000Y-104261243D01*
X163791000Y-104018757D01*
X174029000Y-104018757D01*
X174029000Y-104261243D01*
X174076307Y-104499069D01*
X174169102Y-104723097D01*
X174303820Y-104924717D01*
X174475283Y-105096180D01*
X174676903Y-105230898D01*
X174900931Y-105323693D01*
X175138757Y-105371000D01*
X175381243Y-105371000D01*
X175619069Y-105323693D01*
X175843097Y-105230898D01*
X176044717Y-105096180D01*
X176216180Y-104924717D01*
X176350898Y-104723097D01*
X176443693Y-104499069D01*
X176491000Y-104261243D01*
X176491000Y-104018757D01*
X176569000Y-104018757D01*
X176569000Y-104261243D01*
X176616307Y-104499069D01*
X176709102Y-104723097D01*
X176843820Y-104924717D01*
X177015283Y-105096180D01*
X177216903Y-105230898D01*
X177440931Y-105323693D01*
X177678757Y-105371000D01*
X177921243Y-105371000D01*
X178159069Y-105323693D01*
X178383097Y-105230898D01*
X178584717Y-105096180D01*
X178756180Y-104924717D01*
X178890898Y-104723097D01*
X178983693Y-104499069D01*
X179031000Y-104261243D01*
X179031000Y-104018757D01*
X178983693Y-103780931D01*
X178890898Y-103556903D01*
X178756180Y-103355283D01*
X178584717Y-103183820D01*
X178383097Y-103049102D01*
X178159069Y-102956307D01*
X177921243Y-102909000D01*
X177678757Y-102909000D01*
X177440931Y-102956307D01*
X177216903Y-103049102D01*
X177015283Y-103183820D01*
X176843820Y-103355283D01*
X176709102Y-103556903D01*
X176616307Y-103780931D01*
X176569000Y-104018757D01*
X176491000Y-104018757D01*
X176443693Y-103780931D01*
X176350898Y-103556903D01*
X176216180Y-103355283D01*
X176044717Y-103183820D01*
X175843097Y-103049102D01*
X175619069Y-102956307D01*
X175381243Y-102909000D01*
X175138757Y-102909000D01*
X174900931Y-102956307D01*
X174676903Y-103049102D01*
X174475283Y-103183820D01*
X174303820Y-103355283D01*
X174169102Y-103556903D01*
X174076307Y-103780931D01*
X174029000Y-104018757D01*
X163791000Y-104018757D01*
X163743693Y-103780931D01*
X163650898Y-103556903D01*
X163516180Y-103355283D01*
X163344717Y-103183820D01*
X163143097Y-103049102D01*
X162919069Y-102956307D01*
X162681243Y-102909000D01*
X162438757Y-102909000D01*
X162200931Y-102956307D01*
X162123833Y-102988242D01*
X160614348Y-101478757D01*
X161329000Y-101478757D01*
X161329000Y-101721243D01*
X161376307Y-101959069D01*
X161469102Y-102183097D01*
X161603820Y-102384717D01*
X161775283Y-102556180D01*
X161976903Y-102690898D01*
X162200931Y-102783693D01*
X162438757Y-102831000D01*
X162681243Y-102831000D01*
X162919069Y-102783693D01*
X163143097Y-102690898D01*
X163344717Y-102556180D01*
X163516180Y-102384717D01*
X163650898Y-102183097D01*
X163682649Y-102106443D01*
X163703000Y-102108447D01*
X163727846Y-102106000D01*
X163727854Y-102106000D01*
X163802193Y-102098678D01*
X163897575Y-102069745D01*
X163985479Y-102022759D01*
X164062527Y-101959527D01*
X164078376Y-101940215D01*
X164539834Y-101478757D01*
X174029000Y-101478757D01*
X174029000Y-101721243D01*
X174076307Y-101959069D01*
X174169102Y-102183097D01*
X174303820Y-102384717D01*
X174475283Y-102556180D01*
X174676903Y-102690898D01*
X174900931Y-102783693D01*
X175138757Y-102831000D01*
X175381243Y-102831000D01*
X175619069Y-102783693D01*
X175843097Y-102690898D01*
X176044717Y-102556180D01*
X176216180Y-102384717D01*
X176350898Y-102183097D01*
X176443693Y-101959069D01*
X176491000Y-101721243D01*
X176491000Y-101478757D01*
X176443693Y-101240931D01*
X176350898Y-101016903D01*
X176216180Y-100815283D01*
X176044717Y-100643820D01*
X175843097Y-100509102D01*
X175619069Y-100416307D01*
X175381243Y-100369000D01*
X175138757Y-100369000D01*
X174900931Y-100416307D01*
X174676903Y-100509102D01*
X174475283Y-100643820D01*
X174303820Y-100815283D01*
X174169102Y-101016903D01*
X174076307Y-101240931D01*
X174029000Y-101478757D01*
X164539834Y-101478757D01*
X166452592Y-99566000D01*
X172695154Y-99566000D01*
X172720000Y-99568447D01*
X172744846Y-99566000D01*
X172744854Y-99566000D01*
X172819193Y-99558678D01*
X172914575Y-99529745D01*
X173002479Y-99482759D01*
X173079527Y-99419527D01*
X173095376Y-99400215D01*
X173556834Y-98938757D01*
X174029000Y-98938757D01*
X174029000Y-99181243D01*
X174076307Y-99419069D01*
X174169102Y-99643097D01*
X174303820Y-99844717D01*
X174475283Y-100016180D01*
X174676903Y-100150898D01*
X174900931Y-100243693D01*
X175138757Y-100291000D01*
X175381243Y-100291000D01*
X175619069Y-100243693D01*
X175843097Y-100150898D01*
X176044717Y-100016180D01*
X176216180Y-99844717D01*
X176350898Y-99643097D01*
X176443693Y-99419069D01*
X176491000Y-99181243D01*
X176491000Y-98938757D01*
X176443693Y-98700931D01*
X176350898Y-98476903D01*
X176216180Y-98275283D01*
X176044717Y-98103820D01*
X175843097Y-97969102D01*
X175619069Y-97876307D01*
X175381243Y-97829000D01*
X175138757Y-97829000D01*
X174900931Y-97876307D01*
X174676903Y-97969102D01*
X174475283Y-98103820D01*
X174303820Y-98275283D01*
X174169102Y-98476903D01*
X174076307Y-98700931D01*
X174029000Y-98938757D01*
X173556834Y-98938757D01*
X174823833Y-97671758D01*
X174900931Y-97703693D01*
X175138757Y-97751000D01*
X175381243Y-97751000D01*
X175619069Y-97703693D01*
X175843097Y-97610898D01*
X176044717Y-97476180D01*
X176216180Y-97304717D01*
X176350898Y-97103097D01*
X176443693Y-96879069D01*
X176491000Y-96641243D01*
X176491000Y-96398757D01*
X176443693Y-96160931D01*
X176350898Y-95936903D01*
X176216180Y-95735283D01*
X176044717Y-95563820D01*
X175843097Y-95429102D01*
X175619069Y-95336307D01*
X175381243Y-95289000D01*
X175138757Y-95289000D01*
X174900931Y-95336307D01*
X174676903Y-95429102D01*
X174475283Y-95563820D01*
X174303820Y-95735283D01*
X174169102Y-95936903D01*
X174076307Y-96160931D01*
X174029000Y-96398757D01*
X174029000Y-96641243D01*
X174076307Y-96879069D01*
X174108242Y-96956167D01*
X172510409Y-98554000D01*
X166267845Y-98554000D01*
X166242999Y-98551553D01*
X166218153Y-98554000D01*
X166218146Y-98554000D01*
X166153694Y-98560348D01*
X166143806Y-98561322D01*
X166121607Y-98568056D01*
X166048425Y-98590255D01*
X165960521Y-98637241D01*
X165883473Y-98700473D01*
X165867630Y-98719778D01*
X163618697Y-100968711D01*
X163516180Y-100815283D01*
X163344717Y-100643820D01*
X163143097Y-100509102D01*
X162919069Y-100416307D01*
X162681243Y-100369000D01*
X162438757Y-100369000D01*
X162200931Y-100416307D01*
X161976903Y-100509102D01*
X161775283Y-100643820D01*
X161603820Y-100815283D01*
X161469102Y-101016903D01*
X161376307Y-101240931D01*
X161329000Y-101478757D01*
X160614348Y-101478757D01*
X160526000Y-101390409D01*
X160526000Y-98210000D01*
X161327157Y-98210000D01*
X161327157Y-99910000D01*
X161334513Y-99984689D01*
X161356299Y-100056508D01*
X161391678Y-100122696D01*
X161439289Y-100180711D01*
X161497304Y-100228322D01*
X161563492Y-100263701D01*
X161635311Y-100285487D01*
X161710000Y-100292843D01*
X163410000Y-100292843D01*
X163484689Y-100285487D01*
X163556508Y-100263701D01*
X163622696Y-100228322D01*
X163680711Y-100180711D01*
X163728322Y-100122696D01*
X163763701Y-100056508D01*
X163785487Y-99984689D01*
X163792843Y-99910000D01*
X163792843Y-98542748D01*
X165440222Y-96895370D01*
X165459527Y-96879527D01*
X165522759Y-96802479D01*
X165569745Y-96714575D01*
X165598678Y-96619193D01*
X165606000Y-96544854D01*
X165606000Y-96544847D01*
X165608447Y-96520001D01*
X165606000Y-96495155D01*
X165606000Y-95102832D01*
X165683097Y-95070898D01*
X165884717Y-94936180D01*
X166056180Y-94764717D01*
X166190898Y-94563097D01*
X166283693Y-94339069D01*
X166331000Y-94101243D01*
X166331000Y-93858757D01*
X166409000Y-93858757D01*
X166409000Y-94101243D01*
X166456307Y-94339069D01*
X166549102Y-94563097D01*
X166683820Y-94764717D01*
X166855283Y-94936180D01*
X167056903Y-95070898D01*
X167280931Y-95163693D01*
X167518757Y-95211000D01*
X167761243Y-95211000D01*
X167999069Y-95163693D01*
X168223097Y-95070898D01*
X168424717Y-94936180D01*
X168596180Y-94764717D01*
X168730898Y-94563097D01*
X168823693Y-94339069D01*
X168871000Y-94101243D01*
X168871000Y-93858757D01*
X168823693Y-93620931D01*
X168730898Y-93396903D01*
X168596180Y-93195283D01*
X168530897Y-93130000D01*
X168947157Y-93130000D01*
X168947157Y-94830000D01*
X168954513Y-94904689D01*
X168976299Y-94976508D01*
X169011678Y-95042696D01*
X169059289Y-95100711D01*
X169117304Y-95148322D01*
X169183492Y-95183701D01*
X169255311Y-95205487D01*
X169330000Y-95212843D01*
X171030000Y-95212843D01*
X171104689Y-95205487D01*
X171176508Y-95183701D01*
X171242696Y-95148322D01*
X171300711Y-95100711D01*
X171348322Y-95042696D01*
X171383701Y-94976508D01*
X171405487Y-94904689D01*
X171412843Y-94830000D01*
X171412843Y-93130000D01*
X171405487Y-93055311D01*
X171383701Y-92983492D01*
X171348322Y-92917304D01*
X171300711Y-92859289D01*
X171242696Y-92811678D01*
X171176508Y-92776299D01*
X171104689Y-92754513D01*
X171030000Y-92747157D01*
X169330000Y-92747157D01*
X169255311Y-92754513D01*
X169183492Y-92776299D01*
X169117304Y-92811678D01*
X169059289Y-92859289D01*
X169011678Y-92917304D01*
X168976299Y-92983492D01*
X168954513Y-93055311D01*
X168947157Y-93130000D01*
X168530897Y-93130000D01*
X168424717Y-93023820D01*
X168223097Y-92889102D01*
X167999069Y-92796307D01*
X167761243Y-92749000D01*
X167518757Y-92749000D01*
X167280931Y-92796307D01*
X167056903Y-92889102D01*
X166855283Y-93023820D01*
X166683820Y-93195283D01*
X166549102Y-93396903D01*
X166456307Y-93620931D01*
X166409000Y-93858757D01*
X166331000Y-93858757D01*
X166283693Y-93620931D01*
X166190898Y-93396903D01*
X166056180Y-93195283D01*
X165884717Y-93023820D01*
X165683097Y-92889102D01*
X165459069Y-92796307D01*
X165221243Y-92749000D01*
X164978757Y-92749000D01*
X164740931Y-92796307D01*
X164516903Y-92889102D01*
X164315283Y-93023820D01*
X164143820Y-93195283D01*
X164009102Y-93396903D01*
X163916307Y-93620931D01*
X163869000Y-93858757D01*
X163869000Y-94101243D01*
X163916307Y-94339069D01*
X164009102Y-94563097D01*
X164143820Y-94764717D01*
X164315283Y-94936180D01*
X164516903Y-95070898D01*
X164594000Y-95102833D01*
X164594001Y-96310407D01*
X163077252Y-97827157D01*
X161710000Y-97827157D01*
X161635311Y-97834513D01*
X161563492Y-97856299D01*
X161497304Y-97891678D01*
X161439289Y-97939289D01*
X161391678Y-97997304D01*
X161356299Y-98063492D01*
X161334513Y-98135311D01*
X161327157Y-98210000D01*
X160526000Y-98210000D01*
X160526000Y-95102832D01*
X160603097Y-95070898D01*
X160804717Y-94936180D01*
X160976180Y-94764717D01*
X161110898Y-94563097D01*
X161203693Y-94339069D01*
X161251000Y-94101243D01*
X161251000Y-93858757D01*
X161329000Y-93858757D01*
X161329000Y-94101243D01*
X161376307Y-94339069D01*
X161469102Y-94563097D01*
X161603820Y-94764717D01*
X161775283Y-94936180D01*
X161976903Y-95070898D01*
X162200931Y-95163693D01*
X162438757Y-95211000D01*
X162681243Y-95211000D01*
X162919069Y-95163693D01*
X163143097Y-95070898D01*
X163344717Y-94936180D01*
X163516180Y-94764717D01*
X163650898Y-94563097D01*
X163743693Y-94339069D01*
X163791000Y-94101243D01*
X163791000Y-93858757D01*
X163743693Y-93620931D01*
X163650898Y-93396903D01*
X163516180Y-93195283D01*
X163344717Y-93023820D01*
X163143097Y-92889102D01*
X162919069Y-92796307D01*
X162681243Y-92749000D01*
X162438757Y-92749000D01*
X162200931Y-92796307D01*
X161976903Y-92889102D01*
X161775283Y-93023820D01*
X161603820Y-93195283D01*
X161469102Y-93396903D01*
X161376307Y-93620931D01*
X161329000Y-93858757D01*
X161251000Y-93858757D01*
X161203693Y-93620931D01*
X161110898Y-93396903D01*
X160976180Y-93195283D01*
X160804717Y-93023820D01*
X160603097Y-92889102D01*
X160379069Y-92796307D01*
X160141243Y-92749000D01*
X159898757Y-92749000D01*
X159660931Y-92796307D01*
X159436903Y-92889102D01*
X159235283Y-93023820D01*
X159063820Y-93195283D01*
X158929102Y-93396903D01*
X158836307Y-93620931D01*
X158789000Y-93858757D01*
X158711000Y-93858757D01*
X158663693Y-93620931D01*
X158570898Y-93396903D01*
X158436180Y-93195283D01*
X158264717Y-93023820D01*
X158063097Y-92889102D01*
X157839069Y-92796307D01*
X157601243Y-92749000D01*
X157358757Y-92749000D01*
X157120931Y-92796307D01*
X156896903Y-92889102D01*
X156695283Y-93023820D01*
X156523820Y-93195283D01*
X156389102Y-93396903D01*
X156296307Y-93620931D01*
X156249000Y-93858757D01*
X156249000Y-94101243D01*
X156296307Y-94339069D01*
X156328242Y-94416166D01*
X150793409Y-99951000D01*
X140822832Y-99951000D01*
X140790898Y-99873903D01*
X140656180Y-99672283D01*
X140484717Y-99500820D01*
X140283097Y-99366102D01*
X140059069Y-99273307D01*
X139821243Y-99226000D01*
X139578757Y-99226000D01*
X139340931Y-99273307D01*
X139116903Y-99366102D01*
X138915283Y-99500820D01*
X138743820Y-99672283D01*
X138609102Y-99873903D01*
X138516307Y-100097931D01*
X138469000Y-100335757D01*
X138469000Y-100578243D01*
X138516307Y-100816069D01*
X138609102Y-101040097D01*
X138643782Y-101092000D01*
X129048975Y-101092000D01*
X128994048Y-101084769D01*
X128966145Y-101073211D01*
X128942179Y-101054821D01*
X128923789Y-101030855D01*
X128912231Y-101002952D01*
X128905000Y-100948025D01*
X128905000Y-97067000D01*
X138467157Y-97067000D01*
X138467157Y-98767000D01*
X138474513Y-98841689D01*
X138496299Y-98913508D01*
X138531678Y-98979696D01*
X138579289Y-99037711D01*
X138637304Y-99085322D01*
X138703492Y-99120701D01*
X138775311Y-99142487D01*
X138850000Y-99149843D01*
X140550000Y-99149843D01*
X140624689Y-99142487D01*
X140696508Y-99120701D01*
X140762696Y-99085322D01*
X140820711Y-99037711D01*
X140868322Y-98979696D01*
X140903701Y-98913508D01*
X140925487Y-98841689D01*
X140932843Y-98767000D01*
X140932843Y-98423000D01*
X150978154Y-98423000D01*
X151003000Y-98425447D01*
X151027846Y-98423000D01*
X151027854Y-98423000D01*
X151102193Y-98415678D01*
X151197575Y-98386745D01*
X151285479Y-98339759D01*
X151362527Y-98276527D01*
X151378376Y-98257215D01*
X154503833Y-95131758D01*
X154580931Y-95163693D01*
X154818757Y-95211000D01*
X155061243Y-95211000D01*
X155299069Y-95163693D01*
X155523097Y-95070898D01*
X155724717Y-94936180D01*
X155896180Y-94764717D01*
X156030898Y-94563097D01*
X156123693Y-94339069D01*
X156171000Y-94101243D01*
X156171000Y-93858757D01*
X156123693Y-93620931D01*
X156030898Y-93396903D01*
X155896180Y-93195283D01*
X155724717Y-93023820D01*
X155523097Y-92889102D01*
X155299069Y-92796307D01*
X155061243Y-92749000D01*
X154818757Y-92749000D01*
X154580931Y-92796307D01*
X154356903Y-92889102D01*
X154155283Y-93023820D01*
X153983820Y-93195283D01*
X153849102Y-93396903D01*
X153756307Y-93620931D01*
X153709000Y-93858757D01*
X153709000Y-94101243D01*
X153756307Y-94339069D01*
X153788242Y-94416167D01*
X150793409Y-97411000D01*
X140932843Y-97411000D01*
X140932843Y-97067000D01*
X140925487Y-96992311D01*
X140903701Y-96920492D01*
X140868322Y-96854304D01*
X140820711Y-96796289D01*
X140762696Y-96748678D01*
X140696508Y-96713299D01*
X140624689Y-96691513D01*
X140550000Y-96684157D01*
X138850000Y-96684157D01*
X138775311Y-96691513D01*
X138703492Y-96713299D01*
X138637304Y-96748678D01*
X138579289Y-96796289D01*
X138531678Y-96854304D01*
X138496299Y-96920492D01*
X138474513Y-96992311D01*
X138467157Y-97067000D01*
X128905000Y-97067000D01*
X128905000Y-95036218D01*
X128956903Y-95070898D01*
X129180931Y-95163693D01*
X129418757Y-95211000D01*
X129661243Y-95211000D01*
X129899069Y-95163693D01*
X130123097Y-95070898D01*
X130324717Y-94936180D01*
X130496180Y-94764717D01*
X130630898Y-94563097D01*
X130723693Y-94339069D01*
X130771000Y-94101243D01*
X130771000Y-93858757D01*
X130849000Y-93858757D01*
X130849000Y-94101243D01*
X130896307Y-94339069D01*
X130989102Y-94563097D01*
X131123820Y-94764717D01*
X131295283Y-94936180D01*
X131496903Y-95070898D01*
X131720931Y-95163693D01*
X131958757Y-95211000D01*
X132201243Y-95211000D01*
X132439069Y-95163693D01*
X132663097Y-95070898D01*
X132864717Y-94936180D01*
X133036180Y-94764717D01*
X133170898Y-94563097D01*
X133263693Y-94339069D01*
X133311000Y-94101243D01*
X133311000Y-93858757D01*
X133389000Y-93858757D01*
X133389000Y-94101243D01*
X133436307Y-94339069D01*
X133529102Y-94563097D01*
X133663820Y-94764717D01*
X133835283Y-94936180D01*
X134036903Y-95070898D01*
X134260931Y-95163693D01*
X134498757Y-95211000D01*
X134741243Y-95211000D01*
X134979069Y-95163693D01*
X135203097Y-95070898D01*
X135404717Y-94936180D01*
X135576180Y-94764717D01*
X135710898Y-94563097D01*
X135803693Y-94339069D01*
X135851000Y-94101243D01*
X135851000Y-93858757D01*
X135929000Y-93858757D01*
X135929000Y-94101243D01*
X135976307Y-94339069D01*
X136069102Y-94563097D01*
X136203820Y-94764717D01*
X136375283Y-94936180D01*
X136576903Y-95070898D01*
X136800931Y-95163693D01*
X137038757Y-95211000D01*
X137281243Y-95211000D01*
X137519069Y-95163693D01*
X137743097Y-95070898D01*
X137944717Y-94936180D01*
X138116180Y-94764717D01*
X138250898Y-94563097D01*
X138343693Y-94339069D01*
X138391000Y-94101243D01*
X138391000Y-93858757D01*
X138469000Y-93858757D01*
X138469000Y-94101243D01*
X138516307Y-94339069D01*
X138609102Y-94563097D01*
X138743820Y-94764717D01*
X138915283Y-94936180D01*
X139116903Y-95070898D01*
X139340931Y-95163693D01*
X139578757Y-95211000D01*
X139821243Y-95211000D01*
X140059069Y-95163693D01*
X140283097Y-95070898D01*
X140484717Y-94936180D01*
X140656180Y-94764717D01*
X140790898Y-94563097D01*
X140883693Y-94339069D01*
X140931000Y-94101243D01*
X140931000Y-93858757D01*
X141009000Y-93858757D01*
X141009000Y-94101243D01*
X141056307Y-94339069D01*
X141149102Y-94563097D01*
X141283820Y-94764717D01*
X141455283Y-94936180D01*
X141656903Y-95070898D01*
X141880931Y-95163693D01*
X142118757Y-95211000D01*
X142361243Y-95211000D01*
X142599069Y-95163693D01*
X142823097Y-95070898D01*
X143024717Y-94936180D01*
X143196180Y-94764717D01*
X143330898Y-94563097D01*
X143423693Y-94339069D01*
X143471000Y-94101243D01*
X143471000Y-93858757D01*
X143549000Y-93858757D01*
X143549000Y-94101243D01*
X143596307Y-94339069D01*
X143689102Y-94563097D01*
X143823820Y-94764717D01*
X143995283Y-94936180D01*
X144196903Y-95070898D01*
X144420931Y-95163693D01*
X144658757Y-95211000D01*
X144901243Y-95211000D01*
X145139069Y-95163693D01*
X145363097Y-95070898D01*
X145564717Y-94936180D01*
X145736180Y-94764717D01*
X145870898Y-94563097D01*
X145963693Y-94339069D01*
X146011000Y-94101243D01*
X146011000Y-93858757D01*
X145963693Y-93620931D01*
X145870898Y-93396903D01*
X145736180Y-93195283D01*
X145564717Y-93023820D01*
X145363097Y-92889102D01*
X145139069Y-92796307D01*
X144901243Y-92749000D01*
X144658757Y-92749000D01*
X144420931Y-92796307D01*
X144196903Y-92889102D01*
X143995283Y-93023820D01*
X143823820Y-93195283D01*
X143689102Y-93396903D01*
X143596307Y-93620931D01*
X143549000Y-93858757D01*
X143471000Y-93858757D01*
X143423693Y-93620931D01*
X143330898Y-93396903D01*
X143196180Y-93195283D01*
X143024717Y-93023820D01*
X142823097Y-92889102D01*
X142599069Y-92796307D01*
X142361243Y-92749000D01*
X142118757Y-92749000D01*
X141880931Y-92796307D01*
X141656903Y-92889102D01*
X141455283Y-93023820D01*
X141283820Y-93195283D01*
X141149102Y-93396903D01*
X141056307Y-93620931D01*
X141009000Y-93858757D01*
X140931000Y-93858757D01*
X140883693Y-93620931D01*
X140790898Y-93396903D01*
X140656180Y-93195283D01*
X140484717Y-93023820D01*
X140283097Y-92889102D01*
X140059069Y-92796307D01*
X139821243Y-92749000D01*
X139578757Y-92749000D01*
X139340931Y-92796307D01*
X139116903Y-92889102D01*
X138915283Y-93023820D01*
X138743820Y-93195283D01*
X138609102Y-93396903D01*
X138516307Y-93620931D01*
X138469000Y-93858757D01*
X138391000Y-93858757D01*
X138343693Y-93620931D01*
X138250898Y-93396903D01*
X138116180Y-93195283D01*
X137944717Y-93023820D01*
X137743097Y-92889102D01*
X137519069Y-92796307D01*
X137281243Y-92749000D01*
X137038757Y-92749000D01*
X136800931Y-92796307D01*
X136576903Y-92889102D01*
X136375283Y-93023820D01*
X136203820Y-93195283D01*
X136069102Y-93396903D01*
X135976307Y-93620931D01*
X135929000Y-93858757D01*
X135851000Y-93858757D01*
X135803693Y-93620931D01*
X135710898Y-93396903D01*
X135576180Y-93195283D01*
X135404717Y-93023820D01*
X135203097Y-92889102D01*
X134979069Y-92796307D01*
X134741243Y-92749000D01*
X134498757Y-92749000D01*
X134260931Y-92796307D01*
X134036903Y-92889102D01*
X133835283Y-93023820D01*
X133663820Y-93195283D01*
X133529102Y-93396903D01*
X133436307Y-93620931D01*
X133389000Y-93858757D01*
X133311000Y-93858757D01*
X133263693Y-93620931D01*
X133170898Y-93396903D01*
X133036180Y-93195283D01*
X132864717Y-93023820D01*
X132663097Y-92889102D01*
X132439069Y-92796307D01*
X132201243Y-92749000D01*
X131958757Y-92749000D01*
X131720931Y-92796307D01*
X131496903Y-92889102D01*
X131295283Y-93023820D01*
X131123820Y-93195283D01*
X130989102Y-93396903D01*
X130896307Y-93620931D01*
X130849000Y-93858757D01*
X130771000Y-93858757D01*
X130723693Y-93620931D01*
X130630898Y-93396903D01*
X130496180Y-93195283D01*
X130324717Y-93023820D01*
X130123097Y-92889102D01*
X129899069Y-92796307D01*
X129661243Y-92749000D01*
X129418757Y-92749000D01*
X129180931Y-92796307D01*
X128956903Y-92889102D01*
X128902977Y-92925134D01*
X128901741Y-92906270D01*
X128884704Y-92776860D01*
X128858961Y-92680788D01*
X128809011Y-92560198D01*
X128759279Y-92474060D01*
X128679819Y-92370507D01*
X128636312Y-92327000D01*
X144951409Y-92327000D01*
X146168242Y-93543833D01*
X146136307Y-93620931D01*
X146089000Y-93858757D01*
X146089000Y-94101243D01*
X146136307Y-94339069D01*
X146229102Y-94563097D01*
X146363820Y-94764717D01*
X146535283Y-94936180D01*
X146736903Y-95070898D01*
X146960931Y-95163693D01*
X147198757Y-95211000D01*
X147441243Y-95211000D01*
X147679069Y-95163693D01*
X147903097Y-95070898D01*
X148104717Y-94936180D01*
X148276180Y-94764717D01*
X148410898Y-94563097D01*
X148503693Y-94339069D01*
X148551000Y-94101243D01*
X148551000Y-93858757D01*
X148629000Y-93858757D01*
X148629000Y-94101243D01*
X148676307Y-94339069D01*
X148769102Y-94563097D01*
X148903820Y-94764717D01*
X149075283Y-94936180D01*
X149276903Y-95070898D01*
X149500931Y-95163693D01*
X149738757Y-95211000D01*
X149981243Y-95211000D01*
X150219069Y-95163693D01*
X150443097Y-95070898D01*
X150644717Y-94936180D01*
X150816180Y-94764717D01*
X150950898Y-94563097D01*
X151043693Y-94339069D01*
X151091000Y-94101243D01*
X151091000Y-93858757D01*
X151169000Y-93858757D01*
X151169000Y-94101243D01*
X151216307Y-94339069D01*
X151309102Y-94563097D01*
X151443820Y-94764717D01*
X151615283Y-94936180D01*
X151816903Y-95070898D01*
X152040931Y-95163693D01*
X152278757Y-95211000D01*
X152521243Y-95211000D01*
X152759069Y-95163693D01*
X152983097Y-95070898D01*
X153184717Y-94936180D01*
X153356180Y-94764717D01*
X153490898Y-94563097D01*
X153583693Y-94339069D01*
X153631000Y-94101243D01*
X153631000Y-93858757D01*
X153583693Y-93620931D01*
X153490898Y-93396903D01*
X153356180Y-93195283D01*
X153184717Y-93023820D01*
X152983097Y-92889102D01*
X152759069Y-92796307D01*
X152521243Y-92749000D01*
X152278757Y-92749000D01*
X152040931Y-92796307D01*
X151816903Y-92889102D01*
X151615283Y-93023820D01*
X151443820Y-93195283D01*
X151309102Y-93396903D01*
X151216307Y-93620931D01*
X151169000Y-93858757D01*
X151091000Y-93858757D01*
X151043693Y-93620931D01*
X150950898Y-93396903D01*
X150816180Y-93195283D01*
X150644717Y-93023820D01*
X150443097Y-92889102D01*
X150219069Y-92796307D01*
X149981243Y-92749000D01*
X149738757Y-92749000D01*
X149500931Y-92796307D01*
X149276903Y-92889102D01*
X149075283Y-93023820D01*
X148903820Y-93195283D01*
X148769102Y-93396903D01*
X148676307Y-93620931D01*
X148629000Y-93858757D01*
X148551000Y-93858757D01*
X148503693Y-93620931D01*
X148410898Y-93396903D01*
X148276180Y-93195283D01*
X148104717Y-93023820D01*
X147903097Y-92889102D01*
X147679069Y-92796307D01*
X147441243Y-92749000D01*
X147198757Y-92749000D01*
X146960931Y-92796307D01*
X146883833Y-92828242D01*
X145932580Y-91876989D01*
X172441398Y-91876989D01*
X174108242Y-93543833D01*
X174076307Y-93620931D01*
X174029000Y-93858757D01*
X174029000Y-94101243D01*
X174076307Y-94339069D01*
X174169102Y-94563097D01*
X174303820Y-94764717D01*
X174475283Y-94936180D01*
X174676903Y-95070898D01*
X174900931Y-95163693D01*
X175138757Y-95211000D01*
X175381243Y-95211000D01*
X175619069Y-95163693D01*
X175843097Y-95070898D01*
X176044717Y-94936180D01*
X176216180Y-94764717D01*
X176350898Y-94563097D01*
X176443693Y-94339069D01*
X176491000Y-94101243D01*
X176491000Y-93858757D01*
X176443693Y-93620931D01*
X176350898Y-93396903D01*
X176216180Y-93195283D01*
X176044717Y-93023820D01*
X175843097Y-92889102D01*
X175619069Y-92796307D01*
X175381243Y-92749000D01*
X175138757Y-92749000D01*
X174900931Y-92796307D01*
X174823833Y-92828242D01*
X174668435Y-92672843D01*
X176110000Y-92672843D01*
X176184689Y-92665487D01*
X176256508Y-92643701D01*
X176322696Y-92608322D01*
X176380711Y-92560711D01*
X176428322Y-92502696D01*
X176463701Y-92436508D01*
X176485487Y-92364689D01*
X176492843Y-92290000D01*
X176492843Y-90590000D01*
X176485487Y-90515311D01*
X176463701Y-90443492D01*
X176428322Y-90377304D01*
X176380711Y-90319289D01*
X176322696Y-90271678D01*
X176256508Y-90236299D01*
X176184689Y-90214513D01*
X176110000Y-90207157D01*
X174410000Y-90207157D01*
X174335311Y-90214513D01*
X174263492Y-90236299D01*
X174197304Y-90271678D01*
X174139289Y-90319289D01*
X174091678Y-90377304D01*
X174056299Y-90443492D01*
X174034513Y-90515311D01*
X174027157Y-90590000D01*
X174027157Y-92031566D01*
X173026365Y-91030774D01*
X173010516Y-91011462D01*
X172933468Y-90948230D01*
X172845564Y-90901244D01*
X172750182Y-90872311D01*
X172675843Y-90864989D01*
X172675835Y-90864989D01*
X172650989Y-90862542D01*
X172626143Y-90864989D01*
X121377445Y-90864989D01*
X121352599Y-90862542D01*
X121327753Y-90864989D01*
X121327746Y-90864989D01*
X121265205Y-90871149D01*
X121253406Y-90872311D01*
X121210748Y-90885251D01*
X121158025Y-90901244D01*
X121070121Y-90948230D01*
X120993073Y-91011462D01*
X120977228Y-91030769D01*
X118071000Y-93936998D01*
X118071000Y-93858757D01*
X118023693Y-93620931D01*
X117930898Y-93396903D01*
X117796180Y-93195283D01*
X117624717Y-93023820D01*
X117423097Y-92889102D01*
X117199069Y-92796307D01*
X116961243Y-92749000D01*
X116718757Y-92749000D01*
X116480931Y-92796307D01*
X116256903Y-92889102D01*
X116055283Y-93023820D01*
X115883820Y-93195283D01*
X115749102Y-93396903D01*
X115656307Y-93620931D01*
X115609000Y-93858757D01*
X115609000Y-94101243D01*
X115656307Y-94339069D01*
X115749102Y-94563097D01*
X115883820Y-94764717D01*
X116024685Y-94905582D01*
X115993520Y-94922240D01*
X115916472Y-94985472D01*
X115900628Y-95004778D01*
X115324784Y-95580623D01*
X115305472Y-95596472D01*
X115242240Y-95673520D01*
X115195254Y-95761425D01*
X115166321Y-95856807D01*
X115158999Y-95931146D01*
X115158999Y-95931153D01*
X115156552Y-95955999D01*
X115158999Y-95980845D01*
X115159000Y-97860143D01*
X115156552Y-97884999D01*
X115166321Y-97984191D01*
X115195254Y-98079573D01*
X115195255Y-98079574D01*
X115242241Y-98167478D01*
X115305473Y-98244526D01*
X115324779Y-98260370D01*
X115688242Y-98623833D01*
X115656307Y-98700931D01*
X115609000Y-98938757D01*
X115609000Y-99181243D01*
X115656307Y-99419069D01*
X115749102Y-99643097D01*
X115794636Y-99711244D01*
X115763860Y-99715296D01*
X115667788Y-99741039D01*
X115547198Y-99790989D01*
X115461060Y-99840721D01*
X115357507Y-99920181D01*
X115287181Y-99990507D01*
X115207721Y-100094060D01*
X115157989Y-100180198D01*
X115108039Y-100300788D01*
X115082296Y-100396860D01*
X115065259Y-100526270D01*
X115062000Y-100576000D01*
X107086000Y-100576000D01*
X107086000Y-90824854D01*
X107104364Y-90637559D01*
X107118723Y-90590000D01*
X115607157Y-90590000D01*
X115607157Y-92290000D01*
X115614513Y-92364689D01*
X115636299Y-92436508D01*
X115671678Y-92502696D01*
X115719289Y-92560711D01*
X115777304Y-92608322D01*
X115843492Y-92643701D01*
X115915311Y-92665487D01*
X115990000Y-92672843D01*
X117690000Y-92672843D01*
X117764689Y-92665487D01*
X117836508Y-92643701D01*
X117902696Y-92608322D01*
X117960711Y-92560711D01*
X118008322Y-92502696D01*
X118043701Y-92436508D01*
X118065487Y-92364689D01*
X118072843Y-92290000D01*
X118072843Y-90590000D01*
X118065487Y-90515311D01*
X118043701Y-90443492D01*
X118008322Y-90377304D01*
X117960711Y-90319289D01*
X117902696Y-90271678D01*
X117836508Y-90236299D01*
X117764689Y-90214513D01*
X117690000Y-90207157D01*
X115990000Y-90207157D01*
X115915311Y-90214513D01*
X115843492Y-90236299D01*
X115777304Y-90271678D01*
X115719289Y-90319289D01*
X115671678Y-90377304D01*
X115636299Y-90443492D01*
X115614513Y-90515311D01*
X115607157Y-90590000D01*
X107118723Y-90590000D01*
X107152992Y-90476499D01*
X107231979Y-90327946D01*
X107338310Y-90197570D01*
X107467946Y-90090326D01*
X107615942Y-90010305D01*
X107776661Y-89960554D01*
X107962707Y-89941000D01*
X184130146Y-89941000D01*
X184317441Y-89959364D01*
G37*
%TD.AperFunction*%
D15*
X125320181Y-92370507D02*
X125240721Y-92474060D01*
X125190989Y-92560198D01*
X125141039Y-92680788D01*
X125115296Y-92776860D01*
X125098259Y-92906270D01*
X125096046Y-92940035D01*
X125080477Y-92909922D01*
X124859793Y-92809434D01*
X124623745Y-92753931D01*
X124381404Y-92745544D01*
X124142083Y-92784598D01*
X123914980Y-92869589D01*
X123839523Y-92909922D01*
X123747505Y-93087900D01*
X124460000Y-93800395D01*
X124474143Y-93786253D01*
X124653748Y-93965858D01*
X124639605Y-93980000D01*
X124653748Y-93994143D01*
X124474143Y-94173748D01*
X124460000Y-94159605D01*
X123747505Y-94872100D01*
X123839523Y-95050078D01*
X124060207Y-95150566D01*
X124296255Y-95206069D01*
X124538596Y-95214456D01*
X124777917Y-95175402D01*
X125005020Y-95090411D01*
X125080477Y-95050078D01*
X125095000Y-95021988D01*
X125095000Y-99551025D01*
X125087769Y-99605952D01*
X125076211Y-99633855D01*
X125057821Y-99657821D01*
X125033855Y-99676211D01*
X125005952Y-99687769D01*
X124951025Y-99695000D01*
X117896218Y-99695000D01*
X117930898Y-99643097D01*
X118023693Y-99419069D01*
X118071000Y-99181243D01*
X118071000Y-98938757D01*
X118023693Y-98700931D01*
X117930898Y-98476903D01*
X117796180Y-98275283D01*
X117624717Y-98103820D01*
X117423097Y-97969102D01*
X117199069Y-97876307D01*
X116961243Y-97829000D01*
X116718757Y-97829000D01*
X116480931Y-97876307D01*
X116403833Y-97908242D01*
X116170999Y-97675408D01*
X116170999Y-97553499D01*
X116256903Y-97610898D01*
X116480931Y-97703693D01*
X116718757Y-97751000D01*
X116961243Y-97751000D01*
X117199069Y-97703693D01*
X117423097Y-97610898D01*
X117624717Y-97476180D01*
X117796180Y-97304717D01*
X117930898Y-97103097D01*
X118023693Y-96879069D01*
X118071000Y-96641243D01*
X118071000Y-96398757D01*
X118023693Y-96160931D01*
X117991758Y-96083833D01*
X120216834Y-93858757D01*
X120689000Y-93858757D01*
X120689000Y-94101243D01*
X120736307Y-94339069D01*
X120829102Y-94563097D01*
X120963820Y-94764717D01*
X121135283Y-94936180D01*
X121336903Y-95070898D01*
X121560931Y-95163693D01*
X121798757Y-95211000D01*
X122041243Y-95211000D01*
X122279069Y-95163693D01*
X122503097Y-95070898D01*
X122704717Y-94936180D01*
X122876180Y-94764717D01*
X123010898Y-94563097D01*
X123103693Y-94339069D01*
X123151000Y-94101243D01*
X123151000Y-94058596D01*
X123225544Y-94058596D01*
X123264598Y-94297917D01*
X123349589Y-94525020D01*
X123389922Y-94600477D01*
X123567900Y-94692495D01*
X124280395Y-93980000D01*
X123567900Y-93267505D01*
X123389922Y-93359523D01*
X123289434Y-93580207D01*
X123233931Y-93816255D01*
X123225544Y-94058596D01*
X123151000Y-94058596D01*
X123151000Y-93858757D01*
X123103693Y-93620931D01*
X123010898Y-93396903D01*
X122876180Y-93195283D01*
X122704717Y-93023820D01*
X122503097Y-92889102D01*
X122279069Y-92796307D01*
X122041243Y-92749000D01*
X121798757Y-92749000D01*
X121560931Y-92796307D01*
X121336903Y-92889102D01*
X121135283Y-93023820D01*
X120963820Y-93195283D01*
X120829102Y-93396903D01*
X120736307Y-93620931D01*
X120689000Y-93858757D01*
X120216834Y-93858757D01*
X121748592Y-92327000D01*
X125363688Y-92327000D01*
X125320181Y-92370507D01*
%TA.AperFunction,Conductor*%
D16*
G36*
X125320181Y-92370507D02*
G01*
X125240721Y-92474060D01*
X125190989Y-92560198D01*
X125141039Y-92680788D01*
X125115296Y-92776860D01*
X125098259Y-92906270D01*
X125096046Y-92940035D01*
X125080477Y-92909922D01*
X124859793Y-92809434D01*
X124623745Y-92753931D01*
X124381404Y-92745544D01*
X124142083Y-92784598D01*
X123914980Y-92869589D01*
X123839523Y-92909922D01*
X123747505Y-93087900D01*
X124460000Y-93800395D01*
X124474143Y-93786253D01*
X124653748Y-93965858D01*
X124639605Y-93980000D01*
X124653748Y-93994143D01*
X124474143Y-94173748D01*
X124460000Y-94159605D01*
X123747505Y-94872100D01*
X123839523Y-95050078D01*
X124060207Y-95150566D01*
X124296255Y-95206069D01*
X124538596Y-95214456D01*
X124777917Y-95175402D01*
X125005020Y-95090411D01*
X125080477Y-95050078D01*
X125095000Y-95021988D01*
X125095000Y-99551025D01*
X125087769Y-99605952D01*
X125076211Y-99633855D01*
X125057821Y-99657821D01*
X125033855Y-99676211D01*
X125005952Y-99687769D01*
X124951025Y-99695000D01*
X117896218Y-99695000D01*
X117930898Y-99643097D01*
X118023693Y-99419069D01*
X118071000Y-99181243D01*
X118071000Y-98938757D01*
X118023693Y-98700931D01*
X117930898Y-98476903D01*
X117796180Y-98275283D01*
X117624717Y-98103820D01*
X117423097Y-97969102D01*
X117199069Y-97876307D01*
X116961243Y-97829000D01*
X116718757Y-97829000D01*
X116480931Y-97876307D01*
X116403833Y-97908242D01*
X116170999Y-97675408D01*
X116170999Y-97553499D01*
X116256903Y-97610898D01*
X116480931Y-97703693D01*
X116718757Y-97751000D01*
X116961243Y-97751000D01*
X117199069Y-97703693D01*
X117423097Y-97610898D01*
X117624717Y-97476180D01*
X117796180Y-97304717D01*
X117930898Y-97103097D01*
X118023693Y-96879069D01*
X118071000Y-96641243D01*
X118071000Y-96398757D01*
X118023693Y-96160931D01*
X117991758Y-96083833D01*
X120216834Y-93858757D01*
X120689000Y-93858757D01*
X120689000Y-94101243D01*
X120736307Y-94339069D01*
X120829102Y-94563097D01*
X120963820Y-94764717D01*
X121135283Y-94936180D01*
X121336903Y-95070898D01*
X121560931Y-95163693D01*
X121798757Y-95211000D01*
X122041243Y-95211000D01*
X122279069Y-95163693D01*
X122503097Y-95070898D01*
X122704717Y-94936180D01*
X122876180Y-94764717D01*
X123010898Y-94563097D01*
X123103693Y-94339069D01*
X123151000Y-94101243D01*
X123151000Y-94058596D01*
X123225544Y-94058596D01*
X123264598Y-94297917D01*
X123349589Y-94525020D01*
X123389922Y-94600477D01*
X123567900Y-94692495D01*
X124280395Y-93980000D01*
X123567900Y-93267505D01*
X123389922Y-93359523D01*
X123289434Y-93580207D01*
X123233931Y-93816255D01*
X123225544Y-94058596D01*
X123151000Y-94058596D01*
X123151000Y-93858757D01*
X123103693Y-93620931D01*
X123010898Y-93396903D01*
X122876180Y-93195283D01*
X122704717Y-93023820D01*
X122503097Y-92889102D01*
X122279069Y-92796307D01*
X122041243Y-92749000D01*
X121798757Y-92749000D01*
X121560931Y-92796307D01*
X121336903Y-92889102D01*
X121135283Y-93023820D01*
X120963820Y-93195283D01*
X120829102Y-93396903D01*
X120736307Y-93620931D01*
X120689000Y-93858757D01*
X120216834Y-93858757D01*
X121748592Y-92327000D01*
X125363688Y-92327000D01*
X125320181Y-92370507D01*
G37*
%TD.AperFunction*%
%TD*%
D15*
%TO.N,+5V*%
X128120257Y-92596769D02*
X128209955Y-92633923D01*
X128286976Y-92693024D01*
X128346077Y-92770045D01*
X128383231Y-92859743D01*
X128397000Y-92964328D01*
X128397000Y-93522689D01*
X128356307Y-93620931D01*
X128309000Y-93858757D01*
X128309000Y-94101243D01*
X128356307Y-94339069D01*
X128397000Y-94437311D01*
X128397000Y-100973000D01*
X128398086Y-100989577D01*
X128415123Y-101118987D01*
X128423704Y-101151011D01*
X128473654Y-101271601D01*
X128490232Y-101300313D01*
X128569692Y-101403866D01*
X128593134Y-101427308D01*
X128696687Y-101506768D01*
X128725399Y-101523346D01*
X128845989Y-101573296D01*
X128878013Y-101581877D01*
X129007423Y-101598914D01*
X129024000Y-101600000D01*
X139242689Y-101600000D01*
X139340931Y-101640693D01*
X139578757Y-101688000D01*
X139821243Y-101688000D01*
X140059069Y-101640693D01*
X140157311Y-101600000D01*
X140334672Y-101600000D01*
X140439257Y-101613769D01*
X140528955Y-101650923D01*
X140605976Y-101710024D01*
X140665077Y-101787045D01*
X140702231Y-101876743D01*
X140716000Y-101981328D01*
X140716000Y-102311524D01*
X140624408Y-102184076D01*
X140448052Y-102019353D01*
X140242949Y-101892201D01*
X140016981Y-101807505D01*
X139827000Y-101867813D01*
X139827000Y-102870000D01*
X139847000Y-102870000D01*
X139847000Y-103124000D01*
X139827000Y-103124000D01*
X139827000Y-104126187D01*
X140016981Y-104186495D01*
X140242949Y-104101799D01*
X140448052Y-103974647D01*
X140624408Y-103809924D01*
X140716000Y-103682476D01*
X140716000Y-104012672D01*
X140702231Y-104117257D01*
X140665077Y-104206955D01*
X140605976Y-104283976D01*
X140528955Y-104343077D01*
X140439257Y-104380231D01*
X140334672Y-104394000D01*
X140157311Y-104394000D01*
X140059069Y-104353307D01*
X139821243Y-104306000D01*
X139578757Y-104306000D01*
X139340931Y-104353307D01*
X139242689Y-104394000D01*
X125984328Y-104394000D01*
X125879743Y-104380231D01*
X125790045Y-104343077D01*
X125713024Y-104283976D01*
X125653923Y-104206955D01*
X125616769Y-104117257D01*
X125603000Y-104012672D01*
X125603000Y-103624000D01*
X125601914Y-103607423D01*
X125584877Y-103478013D01*
X125576296Y-103445989D01*
X125526346Y-103325399D01*
X125519753Y-103313980D01*
X138510511Y-103313980D01*
X138534866Y-103394288D01*
X138634761Y-103613961D01*
X138775592Y-103809924D01*
X138951948Y-103974647D01*
X139157051Y-104101799D01*
X139383019Y-104186495D01*
X139573000Y-104126187D01*
X139573000Y-103124000D01*
X138571373Y-103124000D01*
X138510511Y-103313980D01*
X125519753Y-103313980D01*
X125509768Y-103296687D01*
X125430308Y-103193134D01*
X125406866Y-103169692D01*
X125303313Y-103090232D01*
X125274601Y-103073654D01*
X125154011Y-103023704D01*
X125121987Y-103015123D01*
X124992577Y-102998086D01*
X124976000Y-102997000D01*
X117297311Y-102997000D01*
X117199069Y-102956307D01*
X116961243Y-102909000D01*
X116718757Y-102909000D01*
X116480931Y-102956307D01*
X116382689Y-102997000D01*
X115951328Y-102997000D01*
X115846743Y-102983231D01*
X115757045Y-102946077D01*
X115680024Y-102886976D01*
X115620923Y-102809955D01*
X115583769Y-102720257D01*
X115570000Y-102615672D01*
X115570000Y-101916980D01*
X115650511Y-101916980D01*
X115674866Y-101997288D01*
X115774761Y-102216961D01*
X115915592Y-102412924D01*
X116091948Y-102577647D01*
X116297051Y-102704799D01*
X116523019Y-102789495D01*
X116713000Y-102729187D01*
X116713000Y-101727000D01*
X116967000Y-101727000D01*
X116967000Y-102729187D01*
X117156981Y-102789495D01*
X117382949Y-102704799D01*
X117422918Y-102680020D01*
X138510511Y-102680020D01*
X138571373Y-102870000D01*
X139573000Y-102870000D01*
X139573000Y-101867813D01*
X139383019Y-101807505D01*
X139157051Y-101892201D01*
X138951948Y-102019353D01*
X138775592Y-102184076D01*
X138634761Y-102380039D01*
X138534866Y-102599712D01*
X138510511Y-102680020D01*
X117422918Y-102680020D01*
X117588052Y-102577647D01*
X117764408Y-102412924D01*
X117905239Y-102216961D01*
X118005134Y-101997288D01*
X118029489Y-101916980D01*
X117968627Y-101727000D01*
X116967000Y-101727000D01*
X116713000Y-101727000D01*
X115711373Y-101727000D01*
X115650511Y-101916980D01*
X115570000Y-101916980D01*
X115570000Y-101283020D01*
X115650511Y-101283020D01*
X115711373Y-101473000D01*
X116713000Y-101473000D01*
X116713000Y-100470813D01*
X116967000Y-100470813D01*
X116967000Y-101473000D01*
X117968627Y-101473000D01*
X118029489Y-101283020D01*
X118005134Y-101202712D01*
X117905239Y-100983039D01*
X117764408Y-100787076D01*
X117588052Y-100622353D01*
X117382949Y-100495201D01*
X117156981Y-100410505D01*
X116967000Y-100470813D01*
X116713000Y-100470813D01*
X116523019Y-100410505D01*
X116297051Y-100495201D01*
X116091948Y-100622353D01*
X115915592Y-100787076D01*
X115774761Y-100983039D01*
X115674866Y-101202712D01*
X115650511Y-101283020D01*
X115570000Y-101283020D01*
X115570000Y-100584328D01*
X115583769Y-100479743D01*
X115620923Y-100390045D01*
X115680024Y-100313024D01*
X115757045Y-100253923D01*
X115846743Y-100216769D01*
X115951328Y-100203000D01*
X116382689Y-100203000D01*
X116480931Y-100243693D01*
X116718757Y-100291000D01*
X116961243Y-100291000D01*
X117199069Y-100243693D01*
X117297311Y-100203000D01*
X124976000Y-100203000D01*
X124992577Y-100201914D01*
X125121987Y-100184877D01*
X125154011Y-100176296D01*
X125274601Y-100126346D01*
X125303313Y-100109768D01*
X125406866Y-100030308D01*
X125430308Y-100006866D01*
X125509768Y-99903313D01*
X125526346Y-99874601D01*
X125576296Y-99754011D01*
X125584877Y-99721987D01*
X125601914Y-99592577D01*
X125603000Y-99576000D01*
X125603000Y-94872100D01*
X126287505Y-94872100D01*
X126379523Y-95050078D01*
X126600207Y-95150566D01*
X126836255Y-95206069D01*
X127078596Y-95214456D01*
X127317917Y-95175402D01*
X127545020Y-95090411D01*
X127620477Y-95050078D01*
X127712495Y-94872100D01*
X127000000Y-94159605D01*
X126287505Y-94872100D01*
X125603000Y-94872100D01*
X125603000Y-94437311D01*
X125643693Y-94339069D01*
X125691000Y-94101243D01*
X125691000Y-94058596D01*
X125765544Y-94058596D01*
X125804598Y-94297917D01*
X125889589Y-94525020D01*
X125929922Y-94600477D01*
X126107900Y-94692495D01*
X126820395Y-93980000D01*
X127179605Y-93980000D01*
X127892100Y-94692495D01*
X128070078Y-94600477D01*
X128170566Y-94379793D01*
X128226069Y-94143745D01*
X128234456Y-93901404D01*
X128195402Y-93662083D01*
X128110411Y-93434980D01*
X128070078Y-93359523D01*
X127892100Y-93267505D01*
X127179605Y-93980000D01*
X126820395Y-93980000D01*
X126107900Y-93267505D01*
X125929922Y-93359523D01*
X125829434Y-93580207D01*
X125773931Y-93816255D01*
X125765544Y-94058596D01*
X125691000Y-94058596D01*
X125691000Y-93858757D01*
X125643693Y-93620931D01*
X125603000Y-93522689D01*
X125603000Y-93087900D01*
X126287505Y-93087900D01*
X127000000Y-93800395D01*
X127712495Y-93087900D01*
X127620477Y-92909922D01*
X127399793Y-92809434D01*
X127163745Y-92753931D01*
X126921404Y-92745544D01*
X126682083Y-92784598D01*
X126454980Y-92869589D01*
X126379523Y-92909922D01*
X126287505Y-93087900D01*
X125603000Y-93087900D01*
X125603000Y-92964328D01*
X125616769Y-92859743D01*
X125653923Y-92770045D01*
X125713024Y-92693024D01*
X125790045Y-92633923D01*
X125879743Y-92596769D01*
X125984328Y-92583000D01*
X128015672Y-92583000D01*
X128120257Y-92596769D01*
%TA.AperFunction,Conductor*%
D16*
G36*
X128120257Y-92596769D02*
G01*
X128209955Y-92633923D01*
X128286976Y-92693024D01*
X128346077Y-92770045D01*
X128383231Y-92859743D01*
X128397000Y-92964328D01*
X128397000Y-93522689D01*
X128356307Y-93620931D01*
X128309000Y-93858757D01*
X128309000Y-94101243D01*
X128356307Y-94339069D01*
X128397000Y-94437311D01*
X128397000Y-100973000D01*
X128398086Y-100989577D01*
X128415123Y-101118987D01*
X128423704Y-101151011D01*
X128473654Y-101271601D01*
X128490232Y-101300313D01*
X128569692Y-101403866D01*
X128593134Y-101427308D01*
X128696687Y-101506768D01*
X128725399Y-101523346D01*
X128845989Y-101573296D01*
X128878013Y-101581877D01*
X129007423Y-101598914D01*
X129024000Y-101600000D01*
X139242689Y-101600000D01*
X139340931Y-101640693D01*
X139578757Y-101688000D01*
X139821243Y-101688000D01*
X140059069Y-101640693D01*
X140157311Y-101600000D01*
X140334672Y-101600000D01*
X140439257Y-101613769D01*
X140528955Y-101650923D01*
X140605976Y-101710024D01*
X140665077Y-101787045D01*
X140702231Y-101876743D01*
X140716000Y-101981328D01*
X140716000Y-102311524D01*
X140624408Y-102184076D01*
X140448052Y-102019353D01*
X140242949Y-101892201D01*
X140016981Y-101807505D01*
X139827000Y-101867813D01*
X139827000Y-102870000D01*
X139847000Y-102870000D01*
X139847000Y-103124000D01*
X139827000Y-103124000D01*
X139827000Y-104126187D01*
X140016981Y-104186495D01*
X140242949Y-104101799D01*
X140448052Y-103974647D01*
X140624408Y-103809924D01*
X140716000Y-103682476D01*
X140716000Y-104012672D01*
X140702231Y-104117257D01*
X140665077Y-104206955D01*
X140605976Y-104283976D01*
X140528955Y-104343077D01*
X140439257Y-104380231D01*
X140334672Y-104394000D01*
X140157311Y-104394000D01*
X140059069Y-104353307D01*
X139821243Y-104306000D01*
X139578757Y-104306000D01*
X139340931Y-104353307D01*
X139242689Y-104394000D01*
X125984328Y-104394000D01*
X125879743Y-104380231D01*
X125790045Y-104343077D01*
X125713024Y-104283976D01*
X125653923Y-104206955D01*
X125616769Y-104117257D01*
X125603000Y-104012672D01*
X125603000Y-103624000D01*
X125601914Y-103607423D01*
X125584877Y-103478013D01*
X125576296Y-103445989D01*
X125526346Y-103325399D01*
X125519753Y-103313980D01*
X138510511Y-103313980D01*
X138534866Y-103394288D01*
X138634761Y-103613961D01*
X138775592Y-103809924D01*
X138951948Y-103974647D01*
X139157051Y-104101799D01*
X139383019Y-104186495D01*
X139573000Y-104126187D01*
X139573000Y-103124000D01*
X138571373Y-103124000D01*
X138510511Y-103313980D01*
X125519753Y-103313980D01*
X125509768Y-103296687D01*
X125430308Y-103193134D01*
X125406866Y-103169692D01*
X125303313Y-103090232D01*
X125274601Y-103073654D01*
X125154011Y-103023704D01*
X125121987Y-103015123D01*
X124992577Y-102998086D01*
X124976000Y-102997000D01*
X117297311Y-102997000D01*
X117199069Y-102956307D01*
X116961243Y-102909000D01*
X116718757Y-102909000D01*
X116480931Y-102956307D01*
X116382689Y-102997000D01*
X115951328Y-102997000D01*
X115846743Y-102983231D01*
X115757045Y-102946077D01*
X115680024Y-102886976D01*
X115620923Y-102809955D01*
X115583769Y-102720257D01*
X115570000Y-102615672D01*
X115570000Y-101916980D01*
X115650511Y-101916980D01*
X115674866Y-101997288D01*
X115774761Y-102216961D01*
X115915592Y-102412924D01*
X116091948Y-102577647D01*
X116297051Y-102704799D01*
X116523019Y-102789495D01*
X116713000Y-102729187D01*
X116713000Y-101727000D01*
X116967000Y-101727000D01*
X116967000Y-102729187D01*
X117156981Y-102789495D01*
X117382949Y-102704799D01*
X117422918Y-102680020D01*
X138510511Y-102680020D01*
X138571373Y-102870000D01*
X139573000Y-102870000D01*
X139573000Y-101867813D01*
X139383019Y-101807505D01*
X139157051Y-101892201D01*
X138951948Y-102019353D01*
X138775592Y-102184076D01*
X138634761Y-102380039D01*
X138534866Y-102599712D01*
X138510511Y-102680020D01*
X117422918Y-102680020D01*
X117588052Y-102577647D01*
X117764408Y-102412924D01*
X117905239Y-102216961D01*
X118005134Y-101997288D01*
X118029489Y-101916980D01*
X117968627Y-101727000D01*
X116967000Y-101727000D01*
X116713000Y-101727000D01*
X115711373Y-101727000D01*
X115650511Y-101916980D01*
X115570000Y-101916980D01*
X115570000Y-101283020D01*
X115650511Y-101283020D01*
X115711373Y-101473000D01*
X116713000Y-101473000D01*
X116713000Y-100470813D01*
X116967000Y-100470813D01*
X116967000Y-101473000D01*
X117968627Y-101473000D01*
X118029489Y-101283020D01*
X118005134Y-101202712D01*
X117905239Y-100983039D01*
X117764408Y-100787076D01*
X117588052Y-100622353D01*
X117382949Y-100495201D01*
X117156981Y-100410505D01*
X116967000Y-100470813D01*
X116713000Y-100470813D01*
X116523019Y-100410505D01*
X116297051Y-100495201D01*
X116091948Y-100622353D01*
X115915592Y-100787076D01*
X115774761Y-100983039D01*
X115674866Y-101202712D01*
X115650511Y-101283020D01*
X115570000Y-101283020D01*
X115570000Y-100584328D01*
X115583769Y-100479743D01*
X115620923Y-100390045D01*
X115680024Y-100313024D01*
X115757045Y-100253923D01*
X115846743Y-100216769D01*
X115951328Y-100203000D01*
X116382689Y-100203000D01*
X116480931Y-100243693D01*
X116718757Y-100291000D01*
X116961243Y-100291000D01*
X117199069Y-100243693D01*
X117297311Y-100203000D01*
X124976000Y-100203000D01*
X124992577Y-100201914D01*
X125121987Y-100184877D01*
X125154011Y-100176296D01*
X125274601Y-100126346D01*
X125303313Y-100109768D01*
X125406866Y-100030308D01*
X125430308Y-100006866D01*
X125509768Y-99903313D01*
X125526346Y-99874601D01*
X125576296Y-99754011D01*
X125584877Y-99721987D01*
X125601914Y-99592577D01*
X125603000Y-99576000D01*
X125603000Y-94872100D01*
X126287505Y-94872100D01*
X126379523Y-95050078D01*
X126600207Y-95150566D01*
X126836255Y-95206069D01*
X127078596Y-95214456D01*
X127317917Y-95175402D01*
X127545020Y-95090411D01*
X127620477Y-95050078D01*
X127712495Y-94872100D01*
X127000000Y-94159605D01*
X126287505Y-94872100D01*
X125603000Y-94872100D01*
X125603000Y-94437311D01*
X125643693Y-94339069D01*
X125691000Y-94101243D01*
X125691000Y-94058596D01*
X125765544Y-94058596D01*
X125804598Y-94297917D01*
X125889589Y-94525020D01*
X125929922Y-94600477D01*
X126107900Y-94692495D01*
X126820395Y-93980000D01*
X127179605Y-93980000D01*
X127892100Y-94692495D01*
X128070078Y-94600477D01*
X128170566Y-94379793D01*
X128226069Y-94143745D01*
X128234456Y-93901404D01*
X128195402Y-93662083D01*
X128110411Y-93434980D01*
X128070078Y-93359523D01*
X127892100Y-93267505D01*
X127179605Y-93980000D01*
X126820395Y-93980000D01*
X126107900Y-93267505D01*
X125929922Y-93359523D01*
X125829434Y-93580207D01*
X125773931Y-93816255D01*
X125765544Y-94058596D01*
X125691000Y-94058596D01*
X125691000Y-93858757D01*
X125643693Y-93620931D01*
X125603000Y-93522689D01*
X125603000Y-93087900D01*
X126287505Y-93087900D01*
X127000000Y-93800395D01*
X127712495Y-93087900D01*
X127620477Y-92909922D01*
X127399793Y-92809434D01*
X127163745Y-92753931D01*
X126921404Y-92745544D01*
X126682083Y-92784598D01*
X126454980Y-92869589D01*
X126379523Y-92909922D01*
X126287505Y-93087900D01*
X125603000Y-93087900D01*
X125603000Y-92964328D01*
X125616769Y-92859743D01*
X125653923Y-92770045D01*
X125713024Y-92693024D01*
X125790045Y-92633923D01*
X125879743Y-92596769D01*
X125984328Y-92583000D01*
X128015672Y-92583000D01*
X128120257Y-92596769D01*
G37*
%TD.AperFunction*%
%TD*%
M02*
