%TF.GenerationSoftware,KiCad,Pcbnew,(5.1.9)-1*%
%TF.CreationDate,2021-04-08T22:41:19+01:00*%
%TF.ProjectId,FF OSD Adapter,4646204f-5344-4204-9164-61707465722e,rev?*%
%TF.SameCoordinates,Original*%
%TF.FileFunction,Soldermask,Top*%
%TF.FilePolarity,Negative*%
%FSLAX46Y46*%
G04 Gerber Fmt 4.6, Leading zero omitted, Abs format (unit mm)*
G04 Created by KiCad (PCBNEW (5.1.9)-1) date 2021-04-08 22:41:19*
%MOMM*%
%LPD*%
G01*
G04 APERTURE LIST*
%ADD10O,2.000000X2.000000*%
%ADD11C,2.000000*%
G04 APERTURE END LIST*
D10*
%TO.C,CN4*%
X177800000Y-104140000D03*
X177800000Y-106680000D03*
X177800000Y-109220000D03*
G36*
G01*
X178800000Y-110910000D02*
X178800000Y-112610000D01*
G75*
G02*
X178650000Y-112760000I-150000J0D01*
G01*
X176950000Y-112760000D01*
G75*
G02*
X176800000Y-112610000I0J150000D01*
G01*
X176800000Y-110910000D01*
G75*
G02*
X176950000Y-110760000I150000J0D01*
G01*
X178650000Y-110760000D01*
G75*
G02*
X178800000Y-110910000I0J-150000D01*
G01*
G37*
%TD*%
%TO.C,CN2*%
X175260000Y-111760000D03*
X175260000Y-109220000D03*
X175260000Y-106680000D03*
X175260000Y-104140000D03*
X175260000Y-101600000D03*
X175260000Y-99060000D03*
X175260000Y-96520000D03*
X175260000Y-93980000D03*
G36*
G01*
X174260000Y-92290000D02*
X174260000Y-90590000D01*
G75*
G02*
X174410000Y-90440000I150000J0D01*
G01*
X176110000Y-90440000D01*
G75*
G02*
X176260000Y-90590000I0J-150000D01*
G01*
X176260000Y-92290000D01*
G75*
G02*
X176110000Y-92440000I-150000J0D01*
G01*
X174410000Y-92440000D01*
G75*
G02*
X174260000Y-92290000I0J150000D01*
G01*
G37*
%TD*%
%TO.C,CN3*%
X139700000Y-105537000D03*
X139700000Y-102997000D03*
X139700000Y-100457000D03*
G36*
G01*
X140700000Y-97067000D02*
X140700000Y-98767000D01*
G75*
G02*
X140550000Y-98917000I-150000J0D01*
G01*
X138850000Y-98917000D01*
G75*
G02*
X138700000Y-98767000I0J150000D01*
G01*
X138700000Y-97067000D01*
G75*
G02*
X138850000Y-96917000I150000J0D01*
G01*
X140550000Y-96917000D01*
G75*
G02*
X140700000Y-97067000I0J-150000D01*
G01*
G37*
%TD*%
%TO.C,JP2*%
X162560000Y-104140000D03*
X162560000Y-101600000D03*
G36*
G01*
X163560000Y-98210000D02*
X163560000Y-99910000D01*
G75*
G02*
X163410000Y-100060000I-150000J0D01*
G01*
X161710000Y-100060000D01*
G75*
G02*
X161560000Y-99910000I0J150000D01*
G01*
X161560000Y-98210000D01*
G75*
G02*
X161710000Y-98060000I150000J0D01*
G01*
X163410000Y-98060000D01*
G75*
G02*
X163560000Y-98210000I0J-150000D01*
G01*
G37*
%TD*%
D11*
%TO.C,U1*%
X170180000Y-109220000D03*
G36*
G01*
X169330000Y-92980000D02*
X171030000Y-92980000D01*
G75*
G02*
X171180000Y-93130000I0J-150000D01*
G01*
X171180000Y-94830000D01*
G75*
G02*
X171030000Y-94980000I-150000J0D01*
G01*
X169330000Y-94980000D01*
G75*
G02*
X169180000Y-94830000I0J150000D01*
G01*
X169180000Y-93130000D01*
G75*
G02*
X169330000Y-92980000I150000J0D01*
G01*
G37*
X167640000Y-109220000D03*
X167640000Y-93980000D03*
X165100000Y-109220000D03*
X165100000Y-93980000D03*
X162560000Y-109220000D03*
X162560000Y-93980000D03*
X160020000Y-109220000D03*
X160020000Y-93980000D03*
X157480000Y-109220000D03*
X157480000Y-93980000D03*
X154940000Y-109220000D03*
X154940000Y-93980000D03*
X152400000Y-109220000D03*
X152400000Y-93980000D03*
X149860000Y-109220000D03*
X149860000Y-93980000D03*
X147320000Y-109220000D03*
X147320000Y-93980000D03*
X144780000Y-109220000D03*
X144780000Y-93980000D03*
X142240000Y-109220000D03*
X142240000Y-93980000D03*
X139700000Y-109220000D03*
X139700000Y-93980000D03*
X137160000Y-109220000D03*
X137160000Y-93980000D03*
X134620000Y-109220000D03*
X134620000Y-93980000D03*
X132080000Y-109220000D03*
X132080000Y-93980000D03*
X129540000Y-109220000D03*
X129540000Y-93980000D03*
X127000000Y-109220000D03*
X127000000Y-93980000D03*
X124460000Y-109220000D03*
X124460000Y-93980000D03*
X121920000Y-109220000D03*
X121920000Y-93980000D03*
%TD*%
D10*
%TO.C,CN1*%
X116840000Y-104140000D03*
X116840000Y-101600000D03*
X116840000Y-99060000D03*
X116840000Y-96520000D03*
X116840000Y-93980000D03*
G36*
G01*
X115840000Y-92290000D02*
X115840000Y-90590000D01*
G75*
G02*
X115990000Y-90440000I150000J0D01*
G01*
X117690000Y-90440000D01*
G75*
G02*
X117840000Y-90590000I0J-150000D01*
G01*
X117840000Y-92290000D01*
G75*
G02*
X117690000Y-92440000I-150000J0D01*
G01*
X115990000Y-92440000D01*
G75*
G02*
X115840000Y-92290000I0J150000D01*
G01*
G37*
%TD*%
M02*
